<svg width="180" height="54" viewBox="0 0 180 54" fill="none" xmlns="http://www.w3.org/2000/svg">
<rect width="180" height="54" fill="white"/>
<path d="M166.558 26.7738C166.697 26.654 166.64 26.5198 166.639 26.4038C166.588 21.5003 166.535 16.5968 166.479 11.6933C166.474 11.1936 166.473 11.1928 166.962 11.1928C168.213 11.1928 169.465 11.1996 170.713 11.1875C170.987 11.1875 171.084 11.2527 171.083 11.5454C171.075 18.6327 171.075 25.7206 171.083 32.8089C171.083 33.1176 170.986 33.1881 170.695 33.1881C169.217 33.176 167.737 33.1714 166.262 33.1881C165.926 33.1926 165.748 33.0918 165.585 32.7968C163.606 29.2385 161.62 25.685 159.625 22.1362C158.67 20.4306 157.717 18.7253 156.765 17.0201C156.729 16.9565 156.685 16.8973 156.641 16.8329C156.484 16.9314 156.553 17.0702 156.554 17.1824C156.605 22.3781 156.659 27.5733 156.716 32.768C156.72 33.1115 156.627 33.1919 156.296 33.1873C155.007 33.1684 153.718 33.1714 152.429 33.1873C152.126 33.1873 152.013 33.1229 152.014 32.793C152.023 25.7158 152.023 18.6406 152.014 11.5674C152.014 11.2573 152.114 11.1845 152.403 11.1883C154.096 11.1989 155.789 11.1989 157.484 11.1883C157.726 11.1883 157.872 11.2527 157.996 11.4756C160.791 16.4979 163.591 21.517 166.396 26.5327C166.443 26.6116 166.501 26.6882 166.558 26.7738Z" fill="#303293"/>
<path d="M95.1392 11.1943C97.2988 11.1943 99.4614 11.2004 101.618 11.1875C101.914 11.1875 102.008 11.258 102.002 11.5666C101.983 12.6378 101.983 13.7095 102.002 14.7817C102.008 15.0979 101.896 15.1548 101.61 15.154C97.9706 15.1465 94.3334 15.1465 90.6988 15.154C90.0163 15.154 89.3377 15.2367 88.703 15.518C87.3426 16.1193 86.7565 18.0142 87.5406 19.2813C88.0213 20.0578 88.7902 20.3429 89.6387 20.3558C91.8225 20.393 94.0079 20.3808 96.1925 20.3876C97.2313 20.3876 98.2595 20.4839 99.268 20.7478C101.088 21.2233 102.333 22.2841 102.779 24.1646C103.185 25.8783 103.196 27.595 102.703 29.286C102.14 31.2287 100.741 32.3039 98.8404 32.8014C97.7867 33.0682 96.7031 33.1982 95.6162 33.1881C91.6504 33.1881 87.6846 33.1899 83.7188 33.1934C83.433 33.1934 83.3185 33.138 83.3238 32.8211C83.344 31.7494 83.344 30.6774 83.3238 29.6052C83.3177 29.2852 83.439 29.236 83.7219 29.236C87.2954 29.2451 90.8694 29.2451 94.4439 29.236C95.1514 29.236 95.8573 29.1996 96.5458 29.0085C97.3526 28.7855 97.8948 28.3056 98.0874 27.4654C98.22 26.9118 98.2427 26.3375 98.1541 25.7752C98.0214 24.9654 97.4368 24.6074 96.7134 24.4103C96.059 24.2329 95.3887 24.2427 94.7199 24.2336C92.5861 24.2048 90.4508 24.3094 88.3193 24.1646C87.3216 24.1095 86.3424 23.8721 85.4303 23.464C83.9077 22.7648 83.0099 21.5516 82.6542 19.9494C82.3203 18.4668 82.3377 16.9267 82.705 15.452C83.2192 13.3691 84.6007 12.1626 86.6132 11.5977C87.7915 11.2679 88.998 11.192 90.2135 11.1936C91.8554 11.1956 93.4973 11.1958 95.1392 11.1943Z" fill="#303293"/>
<path d="M28.2165 11C28.3841 11.044 28.4198 11.1881 28.4819 11.3033C30.6188 15.2322 32.7543 19.1616 34.8886 23.0914L44.9206 41.5547C45.0768 41.8421 45.2239 42.137 45.3953 42.4138C45.5666 42.6906 45.5143 42.7808 45.186 42.7785C43.8863 42.7702 42.5874 42.7785 41.2884 42.7785C39.3715 42.7785 37.4546 42.7694 35.5377 42.7831C35.2435 42.7831 35.0827 42.6989 34.9432 42.4434C32.7351 38.3679 30.5217 34.295 28.303 30.2245C28.2265 30.0799 28.1888 29.9179 28.1938 29.7544C28.1938 23.5366 28.1938 17.321 28.1938 11.1077C28.1976 11.0711 28.2052 11.035 28.2165 11Z" fill="#F16724"/>
<path d="M27.2454 11.0234C27.3524 11.1258 27.3084 11.2456 27.3084 11.354C27.3084 17.446 27.3099 23.5375 27.3129 29.6285C27.3164 29.8936 27.2502 30.1551 27.1211 30.3867C24.9307 34.4031 22.7456 38.4219 20.5658 42.4433C20.4248 42.7049 20.267 42.7898 19.9759 42.7883C16.7805 42.7785 13.5851 42.7823 10.3898 42.7815C9.92113 42.7815 9.92113 42.7815 10.1479 42.3644L24.1001 16.6832C25.0864 14.8674 26.0744 13.0516 27.0642 11.2358C27.1052 11.166 27.1173 11.0636 27.2454 11.0234Z" fill="#303293"/>
<path d="M65.536 27.9393C64.0831 27.9393 62.631 27.9461 61.1789 27.9332C60.9211 27.9332 60.7998 28.0091 60.7126 28.2525C60.1962 29.7387 59.6578 31.2173 59.1498 32.7073C59.033 33.0508 58.8882 33.2025 58.4939 33.1941C57.1563 33.1653 55.8172 33.1782 54.475 33.1881C54.1891 33.1881 54.1224 33.1358 54.2422 32.8469C57.2 25.7312 60.1512 18.6125 63.0958 11.4908C63.1876 11.2686 63.3021 11.1875 63.5425 11.1875C64.9306 11.1981 66.3195 11.1981 67.7092 11.1875C67.9769 11.1875 68.1042 11.2671 68.2112 11.5219C71.1937 18.6269 74.1846 25.7294 77.1838 32.8294C77.312 33.1327 77.2475 33.1911 76.9419 33.1888C75.4901 33.1782 74.0377 33.1782 72.5849 33.1888C72.3362 33.1888 72.2058 33.1236 72.1155 32.8711C71.5498 31.3356 70.9554 29.8107 70.3874 28.2752C70.2911 28.0151 70.1599 27.9325 69.8892 27.9348C68.4402 27.9446 66.9881 27.9393 65.536 27.9393ZM65.536 24.0334C66.4959 24.0334 67.4559 24.0289 68.4174 24.0372C68.6714 24.0372 68.7564 24.0023 68.6449 23.7187C67.6425 21.1763 66.6544 18.6277 65.6626 16.0814C65.627 15.9897 65.6186 15.8539 65.5003 15.8501C65.3676 15.8448 65.382 15.9919 65.3487 16.0776C64.3758 18.6178 63.409 21.1581 62.4293 23.6975C62.3239 23.9697 62.3535 24.0425 62.6568 24.038C63.619 24.0243 64.579 24.0334 65.539 24.0334H65.536Z" fill="#303293"/>
<path d="M143.126 33.1821C142.393 33.1821 141.661 33.173 140.927 33.1867C140.685 33.1912 140.571 33.1109 140.486 32.8834C139.923 31.36 139.338 29.8442 138.775 28.3208C138.674 28.0456 138.548 27.9318 138.232 27.9333C135.34 27.946 132.448 27.946 129.555 27.9333C129.284 27.9333 129.159 28.0168 129.069 28.2769C128.547 29.7881 128 31.291 127.477 32.8022C127.382 33.0798 127.259 33.1965 126.946 33.192C125.595 33.1723 124.244 33.1723 122.893 33.192C122.526 33.1965 122.509 33.101 122.637 32.7916C124.443 28.4553 126.243 24.1162 128.037 19.7743C129.17 17.0407 130.312 14.3094 131.431 11.5705C131.551 11.2763 131.704 11.1838 132.016 11.1876C133.355 11.2053 134.694 11.2053 136.035 11.1876C136.328 11.1876 136.478 11.2596 136.598 11.5463C139.572 18.6291 142.552 25.7096 145.539 32.7878C145.703 33.1761 145.698 33.1829 145.289 33.1836C144.567 33.1836 143.845 33.1831 143.126 33.1821ZM133.857 24.032C134.829 24.032 135.801 24.0244 136.773 24.0366C137.076 24.0366 137.114 23.9516 137 23.6855C136.711 22.9879 136.443 22.2819 136.166 21.5775C135.463 19.772 134.764 17.9643 134.056 16.1604C134.013 16.0519 134.022 15.8616 133.876 15.8571C133.696 15.8525 133.719 16.0588 133.674 16.1755C132.712 18.6778 131.759 21.1802 130.793 23.6825C130.679 23.9767 130.745 24.0419 131.049 24.0373C131.989 24.0222 132.923 24.032 133.857 24.032Z" fill="#303293"/>
<path d="M115.949 17.2152C116.214 17.2152 116.069 17.3129 116.069 17.4366C116.076 19.6295 116.074 21.8232 116.074 24.0161C116.074 26.9158 116.068 29.8154 116.082 32.7143C116.082 33.0654 116.009 33.1958 115.627 33.1875C114.239 33.1579 112.851 33.1647 111.463 33.1571V17.6997C111.463 17.2197 111.463 17.219 111.963 17.219C113.162 17.219 114.36 17.219 115.559 17.2152C115.693 17.2144 115.683 17.2152 115.949 17.2152Z" fill="#303293"/>
<path d="M111.276 13.5913C111.276 12.8989 111.284 12.2066 111.271 11.5143C111.267 11.2694 111.343 11.186 111.593 11.1875C112.979 11.1981 114.366 11.1981 115.753 11.1875C116.004 11.1875 116.079 11.2702 116.077 11.5143C116.068 12.9121 116.068 14.3096 116.077 15.7068C116.077 15.9707 115.997 16.0503 115.73 16.0481C114.356 16.0359 112.982 16.0359 111.607 16.0481C111.331 16.0481 111.265 15.9609 111.27 15.7046C111.285 15.0016 111.276 14.2964 111.276 13.5913Z" fill="#F16724"/>
<path d="M148.874 40.0547C149.017 39.2206 149.156 38.4198 149.295 37.6183C149.329 37.4197 149.381 37.2233 149.399 37.0231C149.467 36.2777 149.517 36.4165 150.148 36.4165C150.945 36.4165 150.84 36.3012 150.841 37.1224C150.846 38.8869 150.835 40.6522 150.851 42.4167C150.851 42.7594 150.77 42.8717 150.412 42.8656C150.054 42.8595 149.897 42.8254 149.911 42.4023C149.948 41.3066 149.928 40.2094 149.928 39.1129C149.928 38.99 149.96 38.8604 149.837 38.6845C149.74 39.188 149.651 39.6369 149.568 40.0865C149.423 40.8789 149.283 41.6721 149.139 42.4645C149.104 42.6601 149.102 42.8588 148.799 42.8641C148.495 42.8694 148.516 42.6707 148.484 42.4948C148.29 41.4332 148.105 40.364 147.908 39.2987C147.887 39.1842 147.927 39.0386 147.775 38.9688C147.673 39.1076 147.72 39.263 147.719 39.4094C147.719 40.4429 147.704 41.4772 147.731 42.51C147.741 42.9065 147.513 42.8573 147.271 42.8527C147.029 42.8482 146.775 42.9285 146.779 42.4978C146.801 40.5946 146.793 38.6913 146.785 36.7873C146.785 36.515 146.861 36.4081 147.148 36.4081C148.122 36.399 148.116 36.3899 148.281 37.3408C148.422 38.1597 148.575 38.9764 148.725 39.7931C148.74 39.8674 148.726 39.9644 148.874 40.0547Z" fill="#373896"/>
<path d="M70.4391 39.6243C70.4391 38.6795 70.449 37.7347 70.4338 36.7898C70.4285 36.4903 70.5248 36.3849 70.8266 36.4046C71.2057 36.4289 71.5849 36.3986 71.964 36.4168C72.7829 36.457 73.2804 36.8596 73.3782 37.6596C73.4699 38.4072 73.5458 39.183 72.9194 39.7896C72.8049 39.9003 72.861 40.0231 72.8883 40.1422C73.0787 40.9505 73.2584 41.7611 73.4684 42.5633C73.5306 42.8022 73.4684 42.8447 73.2515 42.8538C72.5107 42.8849 72.5062 42.8924 72.3363 42.1827C72.1958 41.5958 72.0633 41.0069 71.939 40.4159C71.9011 40.2377 71.8313 40.1414 71.6357 40.168C71.4271 40.196 71.4704 40.3553 71.4696 40.4879C71.4696 41.1704 71.4605 41.8483 71.4742 42.5285C71.4787 42.7764 71.3945 42.8636 71.1466 42.8538C70.3466 42.8227 70.4444 42.9849 70.4399 42.1569C70.4353 41.313 70.4391 40.4682 70.4391 39.6243ZM71.4544 38.2799C71.4461 38.4433 71.4476 38.6072 71.459 38.7705C71.4764 38.9221 71.3392 39.1693 71.6213 39.1951C71.8669 39.2171 72.152 39.2345 72.2809 38.9464C72.3763 38.7452 72.4266 38.5256 72.4285 38.303C72.4303 38.0804 72.3836 37.86 72.2916 37.6573C72.1665 37.3798 71.8738 37.3419 71.6053 37.3851C71.3369 37.4283 71.481 37.6694 71.459 37.8226C71.4463 37.9747 71.4448 38.1275 71.4544 38.2799Z" fill="#373896"/>
<path d="M101.407 39.6324C101.407 38.686 101.417 37.7405 101.402 36.7942C101.397 36.4961 101.491 36.3854 101.792 36.4044C102.132 36.4256 102.475 36.4044 102.815 36.4112C103.8 36.4271 104.337 36.9322 104.386 37.9179C104.421 38.6004 104.446 39.2919 103.861 39.8136C103.753 39.9084 103.829 40.0229 103.854 40.1306C104.046 40.9389 104.224 41.751 104.432 42.557C104.501 42.824 104.402 42.8528 104.18 42.8603C103.446 42.8755 103.448 42.8808 103.29 42.1552C103.166 41.5895 103.034 41.0253 102.911 40.4581C102.877 40.2966 102.842 40.1692 102.633 40.1806C102.405 40.1935 102.422 40.3482 102.422 40.5021C102.422 41.1709 102.413 41.8397 102.427 42.5078C102.432 42.7625 102.363 42.8687 102.087 42.8611C101.282 42.8406 101.41 42.9369 101.405 42.1787C101.403 41.3218 101.407 40.4771 101.407 39.6324ZM102.425 38.2978V38.6011C102.425 38.7141 102.425 38.8286 102.425 38.9401C102.425 39.0409 102.425 39.1372 102.545 39.1865C102.795 39.2881 103.182 39.1486 103.278 38.8915C103.433 38.5015 103.43 38.0666 103.271 37.6783C103.154 37.3924 102.865 37.3591 102.598 37.3886C102.332 37.4182 102.447 37.6578 102.43 37.8118C102.42 37.9736 102.418 38.1358 102.425 38.2978Z" fill="#373896"/>
<path d="M168.055 39.6287C168.055 38.6831 168.065 37.733 168.049 36.7912C168.044 36.4879 168.141 36.3856 168.441 36.4045C168.794 36.4273 169.149 36.4045 169.503 36.4129C170.39 36.4386 170.921 36.814 171.006 37.6906C171.135 39.0426 171.172 40.4097 170.972 41.7617C170.868 42.4684 170.398 42.8233 169.677 42.8453C169.235 42.859 168.792 42.84 168.351 42.8537C168.114 42.8612 168.047 42.7672 168.051 42.542C168.06 41.5729 168.055 40.6001 168.055 39.6287ZM169.057 39.6135C169.057 40.2682 169.057 40.9228 169.057 41.5775C169.057 41.6988 169.024 41.8527 169.208 41.8656C169.692 41.899 170.005 41.8618 170.021 41.3348C170.056 40.2414 170.047 39.1449 170.027 38.0507C170.018 37.642 169.776 37.4441 169.381 37.3888C169.143 37.3569 169.04 37.4153 169.048 37.6837C169.069 38.329 169.057 38.9713 169.057 39.6135Z" fill="#373896"/>
<path d="M64.6344 39.6102C64.6344 38.6661 64.6427 37.7221 64.6291 36.7773C64.6253 36.5073 64.6874 36.3822 64.9839 36.405C65.4723 36.4421 65.9697 36.3572 66.4512 36.4884C66.7519 36.5655 67.0207 36.7351 67.2199 36.9731C67.4191 37.2112 67.5385 37.5058 67.5613 37.8154C67.6076 38.3871 67.5424 38.9247 67.1147 39.3569C66.9805 39.4927 66.9881 39.5844 67.1299 39.727C67.7198 40.3268 67.8495 41.4566 67.4332 42.1899C67.1769 42.6448 66.7583 42.82 66.2677 42.8412C65.8279 42.8609 65.3851 42.8344 64.9445 42.8533C64.6829 42.8647 64.6283 42.7532 64.6306 42.5189C64.6404 41.5499 64.6344 40.58 64.6344 39.6102ZM65.63 40.9319C65.63 41.1707 65.63 41.4088 65.63 41.6469C65.63 41.75 65.6414 41.8426 65.7665 41.8835C66.0319 41.9699 66.4307 41.8077 66.5339 41.5476C66.6846 41.1688 66.6797 40.7459 66.5202 40.3708C66.389 40.053 66.0842 39.9962 65.787 40.05C65.5026 40.1008 65.6641 40.3533 65.6353 40.5194C65.6218 40.6565 65.62 40.7945 65.63 40.9319ZM65.63 38.2104C65.641 38.3857 65.641 38.5614 65.63 38.7367C65.5868 39.0756 65.7748 39.1158 66.0372 39.0786C66.3845 39.0294 66.5498 38.7662 66.5604 38.2445C66.571 37.7229 66.4163 37.4514 66.0728 37.3869C65.7081 37.3187 65.6353 37.3794 65.6338 37.7593C65.6292 37.9094 65.63 38.0603 65.63 38.2104Z" fill="#373896"/>
<path d="M61.4966 42.8478C61.1174 42.9729 60.9931 42.7272 60.9658 42.3579C60.9597 42.27 60.9446 42.1828 60.9362 42.0956C60.8748 41.4412 60.7239 41.3373 60.0725 41.4533C59.9209 41.4806 59.8966 41.5632 59.8799 41.6808C59.8435 41.9424 59.7836 42.2017 59.7647 42.4641C59.7457 42.7416 59.6456 42.8584 59.3454 42.8523C58.6917 42.8402 58.694 42.8569 58.7964 42.2222C59.0901 40.4099 59.381 38.5976 59.6691 36.7854C59.7116 36.5184 59.8056 36.3607 60.1036 36.4062C60.1793 36.4119 60.2554 36.4119 60.3311 36.4062C61.0803 36.4062 61.0621 36.4062 61.1751 37.1402C61.442 38.8676 61.72 40.5929 62.0092 42.3162C62.0971 42.8508 62.1131 42.8485 61.4966 42.8478ZM60.3463 38.085C60.2522 38.8062 60.1635 39.5258 60.0604 40.2476C60.0293 40.4637 60.0885 40.5661 60.3114 40.5335C60.4714 40.51 60.7466 40.6389 60.7072 40.306C60.6162 39.5591 60.5654 38.8099 60.3463 38.085Z" fill="#373896"/>
<path d="M119.095 42.8461C118.502 42.8461 118.502 42.8461 118.449 42.2933C118.442 42.2175 118.439 42.1417 118.43 42.0658C118.359 41.4425 118.141 41.2977 117.533 41.4516C117.409 41.4835 117.376 41.5593 117.362 41.6655C117.326 41.9271 117.279 42.1879 117.255 42.451C117.229 42.7339 117.126 42.906 116.805 42.8469C116.704 42.8338 116.602 42.8338 116.501 42.8469C116.268 42.8689 116.198 42.7968 116.237 42.5436C116.488 41.0422 116.72 39.537 116.959 38.0326C117.028 37.5981 117.111 37.1644 117.166 36.7276C117.196 36.4956 117.294 36.3932 117.532 36.403C118.731 36.4508 118.47 36.1483 118.68 37.3888C118.967 39.0889 119.226 40.7935 119.528 42.4912C119.622 43.0114 119.264 42.7968 119.095 42.8461ZM117.831 38.0333C117.733 38.7916 117.634 39.5499 117.541 40.3082C117.507 40.5811 117.713 40.5296 117.869 40.5303C118.025 40.5311 118.226 40.5698 118.193 40.3029C118.156 39.9904 118.107 39.6788 118.073 39.3664C118.026 38.9167 117.992 38.4693 117.831 38.0333Z" fill="#373896"/>
<path d="M80.0904 39.568C80.0904 38.975 80.0737 38.382 80.0942 37.7898C80.12 37.0315 80.5711 36.4909 81.2786 36.3188C81.5871 36.2398 81.9129 36.2645 82.2059 36.3889C82.499 36.5133 82.7431 36.7306 82.9006 37.0073C83.1606 37.4471 83.1106 37.9301 83.1114 38.407C83.1114 38.5329 83.0355 38.5852 82.9165 38.5852C82.8915 38.5852 82.8657 38.5852 82.8407 38.5852C82.1059 38.6285 82.1044 38.6285 82.0892 37.9028C82.0936 37.7513 82.0633 37.6009 82.0005 37.463C81.908 37.278 81.7556 37.2196 81.5637 37.2302C81.4809 37.2296 81.4001 37.2555 81.333 37.304C81.2659 37.3526 81.216 37.4213 81.1906 37.5001C81.1374 37.6558 81.1117 37.8195 81.1148 37.9839C81.1148 39.0933 81.1148 40.2026 81.1148 41.312C81.1148 41.8125 81.2703 42.0589 81.5698 42.0627C81.8905 42.068 82.0763 41.7973 82.0831 41.3135C82.0923 41.162 82.0923 41.0101 82.0831 40.8585C82.0513 40.5841 82.1726 40.5158 82.4304 40.5249C83.2221 40.553 83.1015 40.4059 83.1129 41.2074C83.1197 41.9027 82.9536 42.5275 82.2613 42.8445C81.1709 43.3434 80.1344 42.617 80.0942 41.3408C80.0745 40.7531 80.0904 40.1602 80.0904 39.568Z" fill="#373896"/>
<path d="M87.1193 38.2084C87.299 37.6639 87.4506 37.2021 87.6053 36.7419C87.6993 36.459 88.4311 36.2414 88.6517 36.4302C88.7541 36.5182 88.6828 36.6122 88.6517 36.7047C88.3628 37.51 88.0845 38.3191 87.782 39.1191C87.6857 39.3518 87.6835 39.6127 87.7759 39.847C88.105 40.7312 88.4038 41.6267 88.7389 42.5086C88.8542 42.8119 88.7495 42.8536 88.4849 42.8445C87.6394 42.8157 87.8525 42.9688 87.5879 42.156C87.4559 41.7526 87.3331 41.3454 87.1784 40.8517C86.9213 41.3135 86.8645 41.751 86.6969 42.1408C86.6825 42.1749 86.6802 42.2166 86.6688 42.2507C86.4906 42.8285 86.2139 42.9787 85.6118 42.8361C85.3889 42.783 85.495 42.6564 85.536 42.551C85.8499 41.6479 86.1631 40.744 86.4899 39.8455C86.5608 39.6717 86.5608 39.4771 86.4899 39.3033C86.1752 38.4692 85.8833 37.623 85.5701 36.7866C85.4632 36.5015 85.4897 36.3771 85.8416 36.3916C86.6097 36.4219 86.4421 36.3089 86.6878 37.0118C86.8106 37.3849 86.8721 37.7837 87.1193 38.2084Z" fill="#373896"/>
<path d="M95.7543 39.6178C95.7543 38.6738 95.7642 37.7297 95.7483 36.7857C95.7429 36.4824 95.8408 36.3793 96.1395 36.4066C96.6407 36.4445 97.1458 36.3618 97.6462 36.4718C98.1467 36.5817 98.4591 36.8714 98.613 37.3332C98.8258 37.9723 98.8181 38.6644 98.591 39.2986C98.3491 40.0046 97.9609 40.2715 97.1905 40.2533C96.8568 40.2457 96.7507 40.3435 96.7636 40.6787C96.7886 41.3073 96.7636 41.9374 96.7742 42.5668C96.7742 42.7745 96.7135 42.8572 96.4936 42.8526C95.611 42.8352 95.7642 42.9497 95.7558 42.152C95.7475 41.305 95.7543 40.4618 95.7543 39.6178ZM96.7696 38.3288C96.7696 38.579 96.7696 38.83 96.7696 39.0802C96.7696 39.1667 96.7613 39.2508 96.8712 39.2963C97.0911 39.3873 97.5234 39.2797 97.6053 39.0605C97.7819 38.5904 97.8054 38.0983 97.5924 37.6357C97.4635 37.3544 97.1632 37.3286 96.9008 37.39C96.6574 37.4477 96.7954 37.6842 96.7749 37.8405C96.7631 38.0019 96.7613 38.164 96.7696 38.3257V38.3288Z" fill="#373896"/>
<path d="M112.451 40.403C112.598 39.9086 112.616 39.4043 112.697 38.9137C112.817 38.1926 112.91 37.4677 113.023 36.7458C113.042 36.6184 113.032 36.4289 113.215 36.419C113.475 36.4046 113.745 36.3561 113.997 36.4561C114.078 36.4888 114.04 36.5873 114.027 36.6616C113.692 38.5846 113.354 40.5076 113.028 42.4321C112.976 42.7438 112.861 42.9144 112.516 42.8507C112.403 42.834 112.289 42.834 112.176 42.8507C111.948 42.8772 111.865 42.7574 111.829 42.5527C111.618 41.3243 111.4 40.0966 111.184 38.869C111.063 38.1865 110.951 37.5041 110.816 36.8216C110.756 36.5183 110.811 36.3773 111.162 36.4023C111.688 36.4387 111.753 36.2908 111.83 36.9331C111.96 38.0083 112.148 39.076 112.312 40.1467C112.325 40.2316 112.324 40.3241 112.451 40.403Z" fill="#373896"/>
<path d="M162.743 39.6315C162.743 38.6738 162.749 37.7161 162.738 36.7584C162.738 36.5036 162.807 36.396 163.081 36.4028C163.711 36.4195 164.343 36.4195 164.977 36.4028C165.266 36.3944 165.368 36.5044 165.334 36.7819C165.323 36.8698 165.323 36.9587 165.334 37.0466C165.372 37.315 165.258 37.406 164.994 37.3916C164.68 37.3741 164.363 37.3916 164.048 37.3855C163.843 37.3802 163.754 37.4424 163.768 37.6691C163.789 38.0331 163.783 38.3993 163.773 38.7648C163.769 38.9589 163.842 39.0446 164.038 39.0325C164.164 39.0375 164.291 39.036 164.417 39.0279C164.815 38.9604 164.896 39.1318 164.898 39.5072C164.899 39.8825 164.79 40.0425 164.406 39.9818C164.295 39.9644 164.178 39.9818 164.066 39.9818C163.856 39.9689 163.771 40.0577 163.775 40.2707C163.783 40.7121 163.784 41.1534 163.775 41.5939C163.77 41.7949 163.858 41.8593 164.046 41.8555C164.387 41.8487 164.729 41.8608 165.069 41.8555C165.262 41.8502 165.329 41.9261 165.34 42.1194C165.385 42.8542 165.392 42.8549 164.673 42.8572C164.142 42.8572 163.611 42.8436 163.08 42.8625C162.808 42.8724 162.735 42.7738 162.738 42.5137C162.751 41.5469 162.743 40.5862 162.743 39.6315Z" fill="#373896"/>
<path d="M127.024 39.5937C127.024 38.6603 127.034 37.7276 127.018 36.7949C127.013 36.4977 127.106 36.3938 127.407 36.4029C128.025 36.4218 128.645 36.4203 129.263 36.4029C129.548 36.3953 129.66 36.4984 129.626 36.776C129.617 36.8386 129.617 36.9021 129.626 36.9648C129.679 37.2946 129.55 37.4197 129.211 37.3902C128.908 37.3621 128.605 37.3902 128.301 37.3833C128.105 37.378 128.032 37.4592 128.037 37.654C128.045 38.0195 128.047 38.3858 128.037 38.7505C128.03 38.9696 128.129 39.0432 128.333 39.0295C128.458 39.0212 128.587 39.0432 128.712 39.025C129.07 38.9727 129.202 39.1008 129.178 39.4731C129.145 39.9766 129.17 39.9782 128.653 39.9766C128.041 39.9766 128.041 39.9766 128.041 40.5893C128.041 40.8926 128.054 41.1959 128.041 41.4992C128.025 41.7578 128.109 41.8685 128.38 41.8541C128.708 41.8367 129.037 41.8541 129.366 41.8488C129.56 41.8443 129.624 41.9246 129.635 42.1157C129.673 42.8528 129.679 42.852 128.961 42.8505C128.43 42.8505 127.9 42.8376 127.369 42.855C127.103 42.8634 127.018 42.7724 127.022 42.5078C127.031 41.5349 127.024 40.5643 127.024 39.5937Z" fill="#373896"/>
<path d="M55.1542 41.4484C55.1542 41.8147 55.1436 42.1802 55.1542 42.5456C55.1633 42.7792 55.0715 42.8581 54.8448 42.849C54.0107 42.8285 54.1449 42.9498 54.1419 42.1915C54.1358 40.4012 54.1487 38.6102 54.1328 36.8199C54.1328 36.4802 54.2337 36.3854 54.5643 36.3998C55.1565 36.4256 55.751 36.4195 56.3447 36.3998C56.623 36.3915 56.7238 36.4757 56.7155 36.7623C56.692 37.5008 56.7815 37.3757 56.0854 37.3803C55.1504 37.3879 55.1504 37.3803 55.1504 38.3001C55.1504 39.0219 55.1504 39.05 55.8617 39.0151C56.2962 38.9939 56.2727 39.2191 56.2818 39.5216C56.2924 39.853 56.2203 39.9948 55.8465 39.9834C55.0571 39.9599 55.158 39.8735 55.1512 40.6871C55.1527 40.9442 55.1542 41.1944 55.1542 41.4484Z" fill="#373896"/>
<path d="M158.28 40.1079C158.28 39.3147 158.27 38.5208 158.286 37.7276C158.292 37.4585 158.199 37.3546 157.939 37.3857C157.927 37.3864 157.914 37.3864 157.901 37.3857C157.284 37.3758 157.158 37.2097 157.289 36.5971C157.29 36.569 157.298 36.5417 157.311 36.5167C157.324 36.4918 157.342 36.4697 157.363 36.452C157.385 36.4343 157.41 36.4212 157.438 36.4137C157.465 36.4062 157.493 36.4043 157.521 36.4082C158.366 36.4082 159.211 36.4082 160.056 36.4082C160.256 36.4082 160.326 36.5045 160.316 36.6896C160.307 36.7773 160.307 36.8657 160.316 36.9534C160.374 37.3106 160.216 37.4084 159.874 37.3932C159.225 37.3705 159.312 37.3493 159.31 37.9566C159.31 39.4686 159.303 40.9799 159.316 42.4911C159.316 42.7762 159.231 42.8862 158.949 42.8498C158.849 42.8376 158.747 42.8376 158.646 42.8498C158.367 42.8832 158.267 42.774 158.274 42.4873C158.29 41.6949 158.28 40.9018 158.28 40.1079Z" fill="#373896"/>
<path d="M122.572 40.1234C122.572 39.3416 122.556 38.5606 122.579 37.7796C122.588 37.4535 122.472 37.3724 122.167 37.3807C121.574 37.3967 121.421 37.1722 121.568 36.5891C121.609 36.4238 121.719 36.4102 121.851 36.4102C122.672 36.4102 123.492 36.4155 124.312 36.4102C124.534 36.4102 124.605 36.5049 124.594 36.7059C124.585 36.8068 124.585 36.9083 124.594 37.0092C124.631 37.3026 124.524 37.4065 124.215 37.3982C123.498 37.38 123.588 37.3224 123.586 38.0124C123.586 39.4865 123.576 40.9613 123.593 42.4354C123.593 42.7668 123.506 42.9078 123.168 42.8547C123.081 42.843 122.992 42.843 122.904 42.8547C122.635 42.8873 122.557 42.7713 122.561 42.5082C122.576 41.7143 122.566 40.9204 122.566 40.1265L122.572 40.1234Z" fill="#373896"/>
<path d="M137.73 39.5959C137.73 38.6761 137.743 37.7556 137.723 36.835C137.716 36.5075 137.809 36.3573 138.148 36.4081C138.211 36.4172 138.275 36.4172 138.338 36.4081C138.65 36.3619 138.752 36.4839 138.748 36.8039C138.732 38.0263 138.741 39.2494 138.741 40.4725C138.741 40.838 138.751 41.2042 138.737 41.5689C138.728 41.801 138.818 41.8851 139.045 41.8768C139.348 41.8647 139.651 41.8844 139.955 41.87C140.168 41.8594 140.239 41.9367 140.25 42.1483C140.284 42.8504 140.292 42.8497 139.589 42.8489C139.084 42.8489 138.578 42.8383 138.073 42.8542C137.809 42.8633 137.721 42.7784 137.725 42.5084C137.738 41.5378 137.73 40.5673 137.73 39.5959Z" fill="#373896"/>
<path d="M153.824 39.6337C153.824 38.7025 153.835 37.7706 153.819 36.8394C153.813 36.5217 153.889 36.3845 154.239 36.4042C154.938 36.4368 154.87 36.3284 154.87 37.0305C154.87 38.8299 154.862 40.6301 154.877 42.4302C154.877 42.7547 154.81 42.8768 154.462 42.8579C153.78 42.82 153.825 42.9815 153.824 42.2012V39.6337Z" fill="#373896"/>
<path d="M143.813 39.6709C143.813 40.6157 143.806 41.5605 143.818 42.5053C143.818 42.7563 143.768 42.8625 143.485 42.8534C142.671 42.8253 142.798 42.9512 142.795 42.1823C142.789 40.4057 142.802 38.629 142.787 36.8531C142.787 36.5187 142.858 36.3458 143.223 36.4065C143.299 36.418 143.375 36.418 143.451 36.4065C143.73 36.3656 143.824 36.4725 143.819 36.7606C143.802 37.7305 143.812 38.7003 143.813 39.6709Z" fill="#373896"/>
<path d="M76.2277 39.5926C76.2277 38.6592 76.236 37.7257 76.2216 36.7931C76.2171 36.5049 76.2898 36.3904 76.6007 36.4033C77.3332 36.4344 77.2377 36.3229 77.2392 37.06C77.243 38.8503 77.2316 40.6406 77.2483 42.4308C77.2483 42.766 77.1603 42.901 76.8252 42.8471C76.7374 42.8342 76.6483 42.8342 76.5605 42.8471C76.2898 42.8843 76.2171 42.7668 76.2208 42.5067C76.236 41.5338 76.2277 40.5632 76.2277 39.5926Z" fill="#303293"/>
<path d="M107.19 39.5986C107.19 38.6545 107.198 37.7105 107.184 36.7672C107.18 36.4821 107.278 36.3706 107.556 36.41C107.607 36.4131 107.657 36.4131 107.708 36.41C108.212 36.41 108.213 36.41 108.213 36.8961C108.213 38.1048 108.213 39.3129 108.213 40.5206C108.213 41.1758 108.201 41.8302 108.219 42.4838C108.226 42.7598 108.149 42.8629 107.859 42.8546C107.075 42.8296 107.194 42.9456 107.192 42.2017C107.188 41.335 107.191 40.4668 107.19 39.5986Z" fill="#373896"/>
</svg>
