<svg width="181" height="79" viewBox="0 0 181 79" fill="none" xmlns="http://www.w3.org/2000/svg">
<path d="M51.7452 58.1642C51.5835 57.8432 51.2845 57.5237 51.2808 57.2008C51.2326 53.0549 51.2665 48.9077 51.1907 44.7624C51.1597 43.0604 49.6899 41.4308 47.9082 41.2141C48.155 41.0424 48.4346 40.9445 48.7142 40.8467C48.6948 40.72 48.6754 40.5933 48.656 40.4665C48.2828 40.4934 47.9057 40.566 47.5373 40.5352C47.1138 40.4998 46.7012 40.3273 46.2781 40.2979C45.8302 40.2669 45.2499 40.172 44.9558 40.3998C44.5941 40.6801 44.4688 41.2653 44.2413 41.7188C43.653 42.7789 43.0648 43.839 42.318 44.9697C41.9403 45.4545 41.5388 45.8654 41.5311 46.2835C41.4761 49.2805 41.5183 52.2793 41.4798 55.2768C41.4748 55.6677 41.2615 56.3322 41.0158 56.3995C39.2452 56.8843 37.284 56.1882 37.2627 53.9354C37.226 50.0632 37.2523 46.1905 37.2524 42.318C37.2524 38.5704 37.237 34.8227 37.2746 31.0754C37.2789 30.6481 37.5764 29.8588 37.7458 29.8566C38.9626 29.8412 40.1814 29.9859 41.3996 30.0797C41.3951 30.2376 41.3906 30.3955 41.3862 30.5534C41.0902 30.62 40.7973 30.7092 40.4978 30.7493C38.9123 30.9615 38.7589 31.1267 38.7521 32.7041C38.7492 33.3703 38.7471 34.0366 38.7526 34.7028C38.7663 36.344 40.8195 38.6944 42.3956 38.8283C42.5032 38.8374 42.6412 38.4892 42.7651 38.3073C43.571 36.9816 45.016 36.6889 46.3093 36.2953C50.3102 35.0776 54.9339 37.2412 56.6226 41.0216C56.8026 41.4245 56.8465 41.8882 56.9048 42.5025C56.5714 44.2801 56.1192 45.8705 56.0396 47.4794C55.9039 50.219 55.9681 52.9709 56.0198 55.7162C56.0397 56.7738 55.8426 57.3701 54.5959 57.2803C53.7817 57.2216 52.9431 57.3898 52.1291 57.5337C51.969 57.562 51.8716 57.9449 51.7452 58.1642Z" fill="#021D38"/>
<path d="M67.5676 49.6477C67.8813 50.2438 68.2062 50.8343 68.5065 51.437C69.2478 52.9249 71.2589 53.5903 72.9279 53.368C74.8946 53.106 75.886 51.9908 76.6908 50.3296C77.0499 50.4412 77.2762 50.5617 77.5127 50.6876C77.5987 50.4953 77.6628 50.4204 77.6604 50.3476C77.5282 46.2023 77.4004 42.0568 77.2451 37.9124C77.213 37.0554 77.5351 36.6926 78.4047 36.7405C79.2344 36.7862 80.0707 36.7873 80.9004 36.7412C81.8155 36.6904 82.0336 37.143 82.0053 37.9596C81.9005 40.9889 81.8006 44.019 81.7603 47.0496C81.7194 50.1284 81.7569 53.2081 81.7472 56.2874C81.7445 57.1517 81.5791 57.7838 80.5214 57.0565C80.2874 56.8956 79.8303 56.7817 79.6258 56.9016C78.5274 57.5457 77.5949 57.2397 76.688 56.5408C75.69 57.0171 74.6919 57.4934 73.6276 57.9123C73.8335 57.6379 74.1056 57.4209 74.6046 57.023C74.0318 56.7308 73.4506 56.2294 73.2154 56.3585C72.7749 56.6001 72.535 57.2072 72.0754 57.8539C72.7939 57.9336 73.1553 57.9737 73.5167 58.0138C69.8182 59.0544 66.5122 58.5415 63.8291 55.5654C62.729 54.3451 62.1892 52.8908 62.0202 51.2751C61.9824 50.9139 61.8809 50.5592 61.8891 50.0568C62.0529 49.7755 62.2089 49.6389 62.2089 49.5023C62.2094 46.0725 62.3204 42.6357 62.1344 39.2153C62.0168 37.0526 62.0762 36.7543 64.3646 36.7491C66.4837 36.7534 66.4893 36.7528 66.7206 38.7294C66.7636 39.0971 66.7563 39.4728 66.7476 39.8442C66.6779 42.8132 66.583 45.7818 66.5454 48.7512C66.5382 49.3221 66.5215 50.1596 67.5676 49.6477ZM73.0924 55.2407C73.151 54.9616 73.2096 54.6825 73.2683 54.4034C72.873 54.3833 72.4707 54.3156 72.0869 54.3725C71.975 54.3891 71.9159 54.761 71.8325 54.9701C72.2012 55.0963 72.5699 55.2224 73.0924 55.2407Z" fill="#021D38"/>
<path d="M18.7531 57.9301C17.4331 57.1763 16.1131 56.4225 14.8294 55.5513C14.9557 55.0434 15.2272 54.5737 15.0983 54.2789C14.8212 53.6448 14.2837 53.2662 13.539 53.7381C12.3734 52.3951 11.9468 50.7226 11.7901 49.0532C11.4578 45.513 11.9595 42.0901 14.592 39.4428C15.6887 38.3399 17.1653 37.613 18.4773 36.7272C18.7421 36.5484 19.0439 36.4243 19.4616 36.373C21.734 36.479 23.8733 36.487 26.0126 36.4949C29.0836 37.2016 30.9725 39.2801 32.2826 41.9805C33.0961 43.6573 32.6861 44.2613 30.8565 44.2571C30.0822 44.2554 29.3061 44.2223 28.534 44.2632C27.4675 44.3196 26.595 44.298 26.1003 43.0083C25.8467 42.347 24.9465 41.9336 24.2562 41.2461C23.018 40.8615 21.8622 40.6391 20.7063 40.4167C20.684 40.5487 20.6617 40.6806 20.6394 40.8125C21.1749 40.9388 21.7105 41.0651 22.2461 41.1913C21.384 41.428 20.5218 41.6647 19.5996 41.8749C19.6639 41.505 19.7884 41.1616 19.9128 40.8183C19.6966 40.7574 19.4805 40.6965 19.2643 40.6357C19.2156 41.0037 19.1405 41.3716 19.1377 41.74C19.137 41.8273 19.379 41.9164 19.5094 42.0047C17.0625 45.4435 17.2115 48.9078 19.0412 52.0725C19.3293 52.7217 19.5158 53.4375 19.9157 53.5886C20.9341 53.9734 20.9269 54.6617 20.5573 55.3414C20.0579 56.2598 19.3637 57.0722 18.7531 57.9301Z" fill="#021D38"/>
<path d="M88.4826 41.5071C87.6317 41.4111 86.7809 41.3151 85.7618 41.2001C85.7618 39.8102 85.699 38.3807 85.817 36.9663C85.8396 36.6965 86.5541 36.3646 86.9904 36.2844C87.3887 36.2113 87.8426 36.4406 88.4324 36.5814C88.8002 37.0791 89.0076 37.532 89.215 37.9849C89.3849 37.9517 89.5548 37.9184 89.7247 37.8852C89.8176 36.7578 89.9278 35.6314 89.9983 34.5027C90.0602 33.5106 91.6579 31.8142 92.6451 31.7655C93.4612 31.7252 93.9882 31.9982 94.0125 32.9544C94.0384 33.9728 94.1778 34.9884 94.2677 36.0052C94.5333 36.0905 94.7989 36.1758 95.1431 36.3514C95.8689 36.5442 96.521 36.7543 97.1619 36.7244C98.2011 36.676 98.538 37.0619 98.5219 38.0918C98.488 40.2476 98.5356 40.2481 96.4117 40.2501C96.0381 40.2505 95.628 40.1578 95.3016 40.2827C94.9905 40.4017 94.7667 40.7489 94.4255 41.0539C94.2328 41.4097 94.0227 41.7066 94.0205 42.0052C93.9963 45.2686 93.9892 48.5325 94.0314 51.7956C94.035 52.0773 94.4226 52.3541 94.6318 52.6332C94.6318 52.6332 94.5679 52.6984 94.5786 52.763C94.7266 53.3413 94.7611 53.9194 95.0307 54.3506C95.2942 54.7722 95.8022 55.333 96.1948 55.3268C97.3443 55.3084 98.3153 55.4737 98.9838 56.4974C98.9968 56.8458 99.0098 57.1942 98.921 57.6394C98.6127 57.6185 98.3613 57.5425 98.2069 57.3764C96.5704 55.6164 94.4044 55.8892 93.2465 58.0145C92.5506 57.7624 91.8547 57.5104 91.0472 57.1812C90.8962 57.0596 90.8516 57.021 90.8019 56.9885C90.8019 56.9885 90.7666 56.9849 90.7595 56.8797C90.4056 56.1511 90.0588 55.5277 89.7596 54.99C90.0882 54.6097 90.3877 54.2631 90.6871 53.9166C90.2918 53.6866 89.9016 53.4471 89.4995 53.2296C89.1782 53.0558 88.8424 52.9087 88.513 52.7498C88.4976 52.5593 88.4822 52.3687 88.5826 52.0463C88.7773 51.8217 88.9241 51.7296 88.925 51.636C88.9562 48.3689 88.9787 45.1017 88.9716 41.8345C88.9714 41.725 88.6528 41.6162 88.4826 41.5071Z" fill="#021D38"/>
<path d="M108.517 50.0146C108.517 50.0146 108.495 50.1339 108.391 50.2002C108.093 50.8035 107.901 51.3405 107.77 51.7037C106.954 51.6441 106.12 51.3607 105.45 51.5789C103.866 52.0948 103.51 51.9474 103.506 50.2633C103.496 46.0215 103.499 41.7795 103.508 37.5377C103.509 37.1617 103.588 36.7859 103.631 36.41C103.806 36.3979 103.982 36.3857 104.157 36.3735C104.277 37.1355 104.333 37.9158 104.543 38.6519C104.651 39.0298 105.035 39.3291 105.293 39.6639C105.588 39.3681 106.127 39.0791 106.135 38.7753C106.171 37.5051 106.195 36.2005 105.944 34.9653C105.667 33.6038 105.989 32.5743 107.374 31.8945C107.584 32.516 107.793 33.1322 107.912 33.7865C107.377 35.9491 106.974 38.0757 107.518 40.3395C107.566 40.7865 107.541 41.159 107.639 41.4957C107.884 42.3385 108.185 43.1651 108.464 43.9982C108.495 44.2198 108.527 44.4415 108.579 44.809C108.819 44.5132 108.98 44.3137 109.3 44.076C110.139 44.1075 110.819 44.1771 111.592 44.2644C112.509 44.5645 113.333 44.847 114.095 45.1083C113.625 45.9238 112.97 46.5638 112.932 47.2385C112.87 48.3384 113.212 49.4609 113.421 50.8234C113.866 50.5515 114.328 50.2694 114.893 49.9242C115.17 51.0478 113.934 51.2598 113.715 51.9751C113.477 52.7509 113.429 53.5848 113.299 54.3933C113.181 54.422 113.064 54.4507 112.947 54.4793C112.882 53.362 112.378 52.6401 111.367 52.2867C111.182 52.2218 111.092 51.8005 111.012 51.5279C110.737 50.5905 110.168 50.1315 109.165 50.3224C109.165 50.3224 109.186 50.3251 109.183 50.2545C108.958 50.1275 108.738 50.071 108.517 50.0146Z" fill="#021D38"/>
<path d="M108.483 43.8835C108.185 43.1663 107.884 42.3397 107.639 41.4969C107.541 41.1602 107.566 40.7877 107.609 40.3022C107.789 39.7571 107.979 39.3429 107.987 38.9251C108.022 37.2005 108.002 35.4748 108.001 33.7495C107.793 33.1333 107.585 32.5172 107.374 31.8957C105.989 32.5754 105.667 33.605 105.944 34.9665C106.195 36.2017 106.171 37.5062 106.136 38.7764C106.127 39.0803 105.589 39.3693 105.294 39.6651C105.035 39.3303 104.652 39.031 104.544 38.6531C104.333 37.9169 104.277 37.1367 104.158 36.3747C103.982 36.3869 103.807 36.399 103.631 36.4112C103.589 36.7871 103.509 37.1629 103.509 37.5388C103.5 41.7807 103.497 46.0226 103.506 50.2645C103.51 51.9486 103.866 52.0959 105.45 51.5801C106.121 51.3619 106.954 51.6453 107.77 51.7048C107.901 51.3417 108.094 50.8046 108.373 50.2592C108.471 52.7621 108.482 55.2735 108.431 57.9139C108.329 58.0673 108.298 58.0995 108.276 58.1397C106.587 58.162 104.899 58.1843 103.062 58.1545C102.827 58.0681 102.741 58.0338 102.655 57.9995C102.636 57.5714 102.617 57.1433 102.711 56.6091C103.051 56.501 103.275 56.499 103.512 56.5943C104.099 57.6532 105.013 57.3898 105.63 56.9848C105.866 56.8304 105.649 55.7254 105.396 55.1632C105.149 54.615 104.591 54.2068 103.89 53.4252C104.007 54.1177 104.062 54.4929 104.135 54.8644C104.256 55.4808 104.499 56.1444 103.471 56.1786C103.176 55.8177 102.915 55.5306 102.655 55.2436C102.632 54.7345 102.61 54.2254 102.703 53.594C103.55 52.7444 103.471 52.0876 102.646 51.4955C102.627 45.7397 102.608 39.9839 102.676 34.0855C102.724 33.7118 102.685 33.4807 102.645 33.2496C102.623 31.9751 102.601 30.7007 102.659 29.3386C102.738 29.2509 102.736 29.2545 102.736 29.2545C104.231 29.2297 105.727 29.2049 107.372 29.2082C107.572 29.2379 107.623 29.2321 107.673 29.2191C108.71 28.8934 108.504 29.6529 108.505 30.194C108.509 34.7186 108.504 39.2432 108.483 43.8835ZM107.337 55.5496C107.089 55.9185 106.709 56.2641 106.639 56.6641C106.587 56.9611 106.937 57.3287 107.109 57.6649C107.328 57.4343 107.63 57.2387 107.746 56.9644C107.904 56.5914 107.921 56.1583 107.972 55.6234C107.815 55.5823 107.659 55.5412 107.337 55.5496ZM105.493 31.0598C105.403 30.744 105.313 30.4282 105.223 30.1124C105.053 30.139 104.883 30.1656 104.713 30.1923C104.766 30.5947 104.82 30.9971 104.873 31.3995C105.076 31.3423 105.278 31.2851 105.493 31.0598ZM103.411 29.9492C103.45 29.9963 103.489 30.0434 103.527 30.0905C103.553 30.0671 103.578 30.0438 103.603 30.0205C103.559 29.9786 103.514 29.9366 103.411 29.9492Z" fill="#021D38"/>
<path d="M109.194 50.4025C110.167 50.1314 110.737 50.5903 111.012 51.5277C111.092 51.8003 111.181 52.2217 111.367 52.2866C112.378 52.6399 112.881 53.3619 112.946 54.4792C113.064 54.4505 113.181 54.4218 113.298 54.3932C113.429 53.5846 113.477 52.7507 113.715 51.975C113.934 51.2597 115.169 51.0476 114.892 49.9241C114.327 50.2692 113.866 50.5514 113.421 50.8232C113.211 49.4607 112.87 48.3382 112.932 47.2384C112.97 46.5637 113.625 45.9237 114.095 45.1081C113.333 44.8469 112.508 44.5644 111.593 44.171C111.502 43.8737 111.504 43.6872 111.583 43.5213C112.461 44.1026 112.859 43.7818 112.984 42.9224C113.12 41.9887 112.886 41.2118 111.989 40.7431C112.25 40.3276 112.51 39.9122 112.867 39.5707C112.981 40.5567 113.258 41.3609 114.278 41.4572C115.249 41.549 115.329 42.0489 115.185 42.8115C115.138 43.0601 115.178 43.325 115.178 43.5824C115.286 43.6478 115.394 43.7131 115.502 43.7785C116.046 43.1098 116.739 42.5 117.04 41.7358C117.128 41.5128 116.1 40.8497 115.415 40.2385C115.48 40.0007 115.646 39.4955 115.747 38.9777C115.796 38.7253 115.723 38.4492 115.706 38.1839C115.407 38.232 115.073 38.2113 114.816 38.3416C114.17 38.6688 113.559 39.0643 112.934 39.4324C113.561 38.5791 114.123 37.666 114.841 36.899C115.176 36.541 115.814 36.4658 116.456 36.3168C116.73 36.3475 116.862 36.3238 116.994 36.3002C118.255 36.2875 119.516 36.2748 120.918 36.3045C121.059 36.347 121.155 36.3629 121.155 36.3629L121.242 36.3135C121.714 36.2923 122.187 36.2712 122.659 36.25C122.72 36.3425 122.782 36.4349 122.843 36.5274C122.277 37.1638 121.71 37.8003 120.976 38.4732C120.178 38.8837 119.131 38.8955 119.438 40.0853C119.438 40.0853 119.458 40.1598 119.356 40.2414C119.171 40.5473 119.087 40.7716 119.004 40.9958C118.049 42.0172 117.071 43.0182 116.146 44.0656C115.233 45.098 114.374 46.1775 113.317 47.4457C115.677 50.0407 118.101 52.7075 120.473 55.4353C119.947 55.4975 119.474 55.4986 118.916 55.485C118.554 55.3963 118.278 55.3223 117.973 55.1677C116.864 54.4346 116.518 55.1416 116.253 56.0626C116.253 56.1245 116.25 56.2484 116.163 56.241C115.793 55.9883 115.51 55.7432 115.227 55.498C115.333 55.6018 115.44 55.7057 115.546 55.8096C115.06 56.1041 114.575 56.3986 114.09 56.6931C112.468 54.623 110.846 52.5529 109.194 50.4025Z" fill="#021D38"/>
<path d="M130.966 57.2472C130.966 57.5328 130.966 57.8185 130.966 58.1614C129.066 58.1614 127.209 58.1614 125.266 58.1614C125.266 50.8756 125.266 43.6268 125.266 36.2524C126.964 36.2524 128.617 36.2186 130.265 36.2879C130.521 36.2986 130.756 36.7813 130.929 37.1473C130.857 37.2487 130.748 37.249 130.677 37.1866C129.894 36.9777 129.182 36.8311 128.339 36.6576C128.378 37.1972 128.372 37.402 128.41 37.5983C129.056 40.9308 129.452 44.2775 129.27 47.6875C129.171 49.5537 129.321 51.433 129.228 53.2998C129.167 54.5089 129.404 55.3424 130.779 55.5446C130.852 55.6503 130.905 55.7014 130.965 55.7441C130.977 55.9336 130.99 56.1232 130.93 56.4053C130.858 56.4979 130.751 56.4966 130.686 56.4454C130.263 56.4901 129.905 56.586 129.547 56.682C129.565 56.8251 129.583 56.9682 129.601 57.1113C129.983 57.1568 130.364 57.2024 130.801 57.2482C130.856 57.2485 130.966 57.2472 130.966 57.2472ZM125.753 41.4416C125.92 42.6582 126.047 43.8821 126.275 45.0873C126.351 45.489 126.681 45.8426 126.896 46.2182C127.26 45.8905 127.881 45.6036 127.941 45.2275C128.148 43.9258 128.193 42.594 128.234 41.2716C128.265 40.2541 127.392 40.2663 126.728 40.1497C125.91 40.0061 125.752 40.567 125.753 41.4416ZM127.253 56.1258C126.934 56.2647 126.615 56.4036 126.296 56.5426C126.48 56.7691 126.669 57.1882 126.848 57.1842C127.29 57.1742 127.728 56.9702 128.168 56.8443C127.925 56.6233 127.683 56.4024 127.253 56.1258Z" fill="#021D38"/>
<path d="M42.647 38.3346C42.6415 38.4897 42.5035 38.8379 42.3958 38.8287C40.8198 38.6949 38.7665 36.3445 38.7529 34.7032C38.7473 34.037 38.7495 33.3708 38.7523 32.7045C38.7591 31.1272 38.9125 30.9619 40.498 30.7498C40.7975 30.7097 41.0904 30.6204 41.3864 30.5539C41.3909 30.396 41.3954 30.2381 41.3999 30.0802C40.1817 29.9863 38.9628 29.8416 37.746 29.8571C37.5766 29.8592 37.2792 30.6486 37.2749 31.0759C37.2373 34.8231 37.2527 38.5708 37.2526 42.3184C37.2525 46.1909 37.2262 50.0637 37.2629 53.9358C37.2843 56.1886 39.2455 56.8848 41.016 56.4C41.2617 56.3327 41.475 55.6682 41.48 55.2773C41.5185 52.2797 41.4763 49.281 41.5313 46.2839C41.539 45.8658 41.9405 45.455 42.2664 45.0409C42.3171 45.6553 42.2156 46.2694 42.2127 46.884C42.1968 50.2989 42.1977 53.714 42.2115 57.129C42.2138 57.716 42.2006 58.2565 41.4365 58.265C39.8644 58.2824 38.2919 58.2702 36.627 58.2702C36.627 48.5423 36.627 38.9416 36.627 29.2422C38.4217 29.2422 40.2268 29.2422 42.186 29.2422C42.186 31.8486 42.1703 34.4534 42.2013 37.0577C42.2065 37.4935 42.4144 37.927 42.647 38.3346ZM37.4137 57.2653C37.5569 57.3508 37.7001 57.4363 37.8432 57.5218C37.8492 57.3781 37.8552 57.2345 37.8612 57.0908C37.7004 57.1046 37.5397 57.1183 37.4137 57.2653Z" fill="#021D38"/>
<path d="M18.8057 57.9624C19.3643 57.0729 20.0585 56.2605 20.5579 55.3421C20.9275 54.6624 20.9346 53.9741 19.9163 53.5893C19.5164 53.4382 19.3298 52.7225 19.0588 52.1573C19.2745 52.2274 19.4776 52.4039 19.7577 52.705C19.9024 52.8825 19.9699 52.9355 20.0375 52.9886C20.158 53.0385 20.2784 53.0885 20.5406 53.1846C20.785 53.2384 20.8877 53.2461 20.9904 53.2538C20.9904 53.2538 20.9994 53.2457 21.0516 53.3006C21.2338 53.404 21.3639 53.4525 21.494 53.5011C22.528 53.3602 23.562 53.2193 24.7431 53.0418C24.8901 53.0053 24.9945 53.0013 24.9945 53.0013C25.0407 53.0011 25.0868 53.0008 25.2424 52.9737C25.4039 52.8654 25.4559 52.7839 25.5078 52.7025C26.1589 50.9574 27.2871 50.1266 29.2542 50.4585C30.342 50.6421 31.4862 50.4914 32.8717 50.4914C32.3052 53.1975 31.2042 55.3301 28.8077 56.6803C28.485 56.231 28.3692 55.7763 28.0774 55.53C27.4828 55.0282 26.8781 55.1965 26.5383 55.8759C26.3712 56.2101 26.4127 56.6487 26.3202 57.3332C26.8524 56.9814 27.0691 56.8382 27.3685 56.6402C27.4441 56.9497 27.5007 57.1811 27.5572 57.4125C27.4153 57.5163 27.2734 57.6201 27.0294 57.6855C26.8491 57.6372 26.7916 57.6691 26.7548 57.7425C26.7058 57.8107 26.6568 57.8789 26.5068 57.9961C26.3515 58.0793 26.3044 58.1214 26.2644 58.1713C25.8571 58.1985 25.4498 58.2256 24.8799 58.2839C24.6469 58.3625 24.5765 58.4099 24.5061 58.4573C24.3989 58.4735 24.2917 58.4896 24.0383 58.5099C23.7727 58.5564 23.6533 58.5988 23.5339 58.6412C22.9246 58.6575 22.3153 58.6737 21.5571 58.6407C21.3553 58.5532 21.2974 58.5253 21.2346 58.5077C21.1258 58.5036 21.0171 58.4995 20.8169 58.4125C20.5773 58.2757 20.4291 58.2219 20.2808 58.1681C20.0015 58.181 19.7221 58.1939 19.3013 58.1529C19.1043 58.0595 19.0436 58.0309 18.9777 58.0132C18.9777 58.0132 18.8576 57.9939 18.8057 57.9624ZM23.1611 54.801C23.8296 55.4236 23.8087 55.9551 23.029 56.5021C22.572 56.8227 22.209 57.2774 21.8037 57.6717C21.8716 57.7583 21.9395 57.8449 22.0074 57.9316C22.7392 57.9316 23.471 57.9316 23.8897 57.9316C24.8034 56.816 25.5668 55.8839 26.3907 54.878C25.174 54.5896 24.1366 53.5414 22.8171 54.7528C22.5787 54.9069 22.3403 55.0609 22.1019 55.215C22.2678 55.3617 22.4337 55.5085 22.5996 55.6552C22.734 55.3535 22.8683 55.0517 23.1611 54.801ZM26.2856 52.9318C26.2718 53.0678 26.258 53.2037 26.2441 53.3397C26.3513 53.2991 26.4585 53.2585 26.5657 53.2179C26.5095 53.1064 26.4533 52.995 26.2856 52.9318Z" fill="#021D38"/>
<path d="M76.6805 56.6287C77.5947 57.2398 78.5272 57.5458 79.6255 56.9018C79.8301 56.7818 80.2872 56.8958 80.5212 57.0567C81.5789 57.7839 81.7442 57.1518 81.747 56.2875C81.7566 53.2083 81.7191 50.1285 81.7601 47.0497C81.8003 44.0191 81.9003 40.989 82.0051 37.9598C82.0333 37.1432 81.8153 36.6906 80.9001 36.7413C80.0704 36.7874 79.2342 36.7863 78.4045 36.7406C77.5349 36.6927 77.2128 37.0556 77.2449 37.9125C77.4002 42.057 77.528 46.2024 77.6602 50.3477C77.6625 50.4205 77.5985 50.4954 77.5125 50.6878C77.276 50.5618 77.0497 50.4414 76.7538 50.2695C76.679 49.902 76.6737 49.5858 76.7066 49.0709C76.7388 48.7289 76.7328 48.5857 76.7268 48.4426C76.7027 44.7009 76.6835 40.9591 76.6505 37.2174C76.6439 36.4689 76.9587 36.2115 77.714 36.2475C78.9592 36.307 80.2143 36.3319 81.4558 36.2413C82.49 36.1658 82.7197 36.5702 82.7145 37.5276C82.68 43.9342 82.6961 50.3412 82.6962 56.748C82.6962 57.0808 82.7007 57.4136 82.6379 57.8747C82.5107 58.0425 82.4788 58.0989 82.4771 58.1724C81.4835 58.1839 80.4899 58.1955 79.3377 58.1557C79.0307 58.1325 78.8823 58.1606 78.734 58.1887C78.1227 58.1887 77.5114 58.1887 76.6731 58.1887C76.6731 57.6998 76.6731 57.2081 76.6805 56.6287Z" fill="#021D38"/>
<path d="M130.749 55.4989C129.404 55.343 129.167 54.5095 129.228 53.3004C129.321 51.4336 129.171 49.5543 129.27 47.6881C129.452 44.2781 129.056 40.9314 128.41 37.5989C128.372 37.4026 128.378 37.1978 128.339 36.6582C129.182 36.8317 129.894 36.9783 130.678 37.2855C130.822 37.8785 130.894 38.3109 130.966 38.7434C130.978 39.0953 130.99 39.4471 130.932 39.9913C130.826 40.3873 130.759 40.5908 130.759 40.7944C130.753 45.2084 130.749 49.6225 130.762 54.0365C130.763 54.3558 130.894 54.6747 130.965 54.9937C130.977 55.1066 130.989 55.2194 130.929 55.4154C130.857 55.4986 130.749 55.4989 130.749 55.4989Z" fill="#021D38"/>
<path d="M51.8613 58.1831C51.8715 57.9455 51.9689 57.5627 52.1291 57.5344C52.9431 57.3904 53.7816 57.2223 54.5959 57.281C55.8426 57.3708 56.0397 56.7745 56.0198 55.7169C55.968 52.9715 55.9038 50.2197 56.0395 47.4801C56.1192 45.8712 56.5713 44.2808 56.9067 42.5993C56.9574 42.5166 56.9988 42.6127 57.0109 42.7358C57.0784 42.9879 57.1338 43.1169 57.1892 43.2459C57.2052 47.508 57.2207 51.7701 57.2379 56.0322C57.2398 56.5289 57.2507 57.0255 57.1849 57.6689C56.994 57.9325 56.8757 58.0494 56.7575 58.1663C55.1642 58.178 53.5708 58.1897 51.8613 58.1831Z" fill="#021D38"/>
<path d="M131.242 32.4994C129.99 34.6146 128.198 34.7325 126.183 33.7586C124.743 33.0621 124.397 32.0422 124.712 29.8351C124.84 28.9356 125.98 27.9502 127.132 27.7437C130.066 27.2175 131.713 28.5747 131.636 31.6018C131.279 30.4566 130.878 29.3114 129.647 28.7548C129.276 28.5874 128.798 28.5442 128.39 28.6C127.753 28.6873 127.483 29.098 127.669 29.7258C126.261 28.5658 126.261 28.566 125.612 30.1704C125.581 30.2465 125.524 30.3118 125.493 30.3879C125.069 31.4297 126.288 33.0138 127.581 33.0384C128.242 33.326 128.822 33.5753 129.424 33.8338C129.743 32.7392 130.341 32.3835 131.242 32.4994Z" fill="#021D38"/>
<path d="M94.348 35.936C94.1776 34.9893 94.0382 33.9737 94.0123 32.9553C93.988 31.9992 93.461 31.7262 92.6449 31.7664C91.6577 31.8152 90.06 33.5116 89.9981 34.5036C89.9276 35.6324 89.8174 36.7587 89.7245 37.8861C89.5546 37.9193 89.3847 37.9526 89.2148 37.9858C89.0074 37.5329 88.8 37.08 88.5327 36.5565C88.4661 36.2998 88.4594 36.1137 88.5276 35.7853C88.5738 35.4292 88.545 35.2153 88.5162 35.0014C88.5162 33.8042 88.5162 32.607 88.5162 31.3145C90.4368 31.3145 92.3953 31.3145 94.4286 31.3145C94.4286 32.8384 94.4286 34.3522 94.348 35.936Z" fill="#021D38"/>
<path d="M131.302 32.4494C130.342 32.3828 129.743 32.7384 129.425 33.833C128.823 33.5745 128.242 33.3252 127.582 32.9289C127.585 31.7707 127.668 30.7596 127.75 29.7484C127.483 29.0972 127.753 28.6865 128.391 28.5992C128.798 28.5434 129.277 28.5866 129.647 28.754C130.879 29.3106 131.28 30.4558 131.625 31.7078C131.592 31.9643 131.477 32.1823 131.302 32.4494Z" fill="#021D38"/>
<path d="M67.5765 49.5372C66.5213 50.1593 66.5381 49.3218 66.5453 48.7509C66.5828 45.7815 66.6778 42.8129 66.7474 39.8439C66.7561 39.4724 66.7634 39.0968 66.7204 38.7291C66.4891 36.7525 66.4835 36.7531 64.2949 36.6944C63.6644 36.5268 63.216 36.4138 62.7676 36.3008C64.3366 36.3008 65.9055 36.3008 67.5856 36.3008C67.5856 40.7205 67.5856 45.0737 67.5765 49.5372Z" fill="#021D38"/>
<path d="M99.0018 56.3831C98.3147 55.4738 97.3437 55.3085 96.1942 55.3269C95.8017 55.3331 95.2937 54.7723 95.0301 54.3507C94.7606 53.9195 94.7261 53.3414 94.6055 52.7266C95.6479 52.8198 96.6703 53.034 97.7007 53.1982C98.0928 53.2607 98.5032 53.2084 99.0203 53.2084C99.0203 54.2916 99.0203 55.2802 99.0018 56.3831Z" fill="#021D38"/>
<path d="M93.3174 58.0946C94.4043 55.8906 96.5703 55.6178 98.2067 57.3778C98.3612 57.5439 98.6125 57.6198 98.9078 57.7449C98.8039 57.9084 98.6129 58.1976 98.4183 58.1999C96.7421 58.2204 95.0651 58.1891 93.3174 58.0946Z" fill="#021D38"/>
<path d="M94.5039 40.9963C94.7661 40.7494 94.9899 40.4022 95.301 40.2832C95.6275 40.1583 96.0376 40.251 96.4111 40.2507C98.535 40.2486 98.4874 40.2481 98.5213 38.0924C98.5375 37.0624 98.2006 36.6765 97.1614 36.725C96.5204 36.7548 95.8683 36.5447 95.2346 36.3688C96.4683 36.2996 97.6886 36.3039 98.9696 36.447C99.0503 36.6418 99.0817 36.6904 99.1247 36.7317C99.143 37.2541 99.1614 37.7764 99.1368 38.4327C99.0724 38.6289 99.0856 38.6835 99.1335 38.7302C99.1503 39.0897 99.1671 39.4491 99.1374 39.9381C99.0702 40.1315 99.0849 40.1866 99.1351 40.2328C99.1524 40.425 99.1697 40.6173 99.0516 40.9009C98.2841 41.0614 97.6521 41.1305 97.0201 41.1997C96.6629 41.2155 96.3058 41.2314 95.7677 41.1774C95.2258 41.0705 94.8649 41.0334 94.5039 40.9963Z" fill="#021D38"/>
<path d="M62.6633 36.2797C63.2157 36.4139 63.6641 36.5269 64.1821 36.6942C62.0757 36.754 62.0164 37.0524 62.134 39.215C62.32 42.6355 62.209 46.0722 62.2085 49.5021C62.2085 49.6387 62.0524 49.7752 61.8834 49.9544C61.7826 45.8198 61.7566 41.6425 61.7666 37.4653C61.7678 36.9531 61.6467 36.2304 62.6633 36.2797Z" fill="#021D38"/>
<path d="M119.001 55.5011C119.474 55.5 119.947 55.4989 120.521 55.498C121.05 56.0298 121.479 56.5613 121.839 57.1787C121.098 57.2606 120.427 57.2567 119.679 57.1964C118.902 57.1749 118.2 57.2099 117.505 57.1535C118.008 56.5418 118.504 56.0214 119.001 55.5011Z" fill="#021D38"/>
<path d="M111.914 40.7715C112.886 41.2117 113.12 41.9887 112.984 42.9224C112.859 43.7818 112.461 44.1025 111.519 43.4643C111.17 42.9309 110.963 42.4751 110.756 42.0193C111.116 41.6128 111.477 41.2064 111.914 40.7715Z" fill="#021D38"/>
<path d="M88.4707 41.6234C88.6523 41.6163 88.9708 41.7251 88.9711 41.8346C88.9782 45.1018 88.9557 48.3691 88.9244 51.6362C88.9235 51.7297 88.7767 51.8219 88.6096 51.9542C88.5006 48.5756 88.48 45.1576 88.4707 41.6234Z" fill="#021D38"/>
<path d="M88.4863 52.8516C88.842 52.9093 89.1778 53.0563 89.4991 53.2302C89.9012 53.4477 90.2914 53.6872 90.6867 53.9172C90.3873 54.2637 90.0878 54.6102 89.7592 54.9905C90.0583 55.5282 90.4051 56.1516 90.7614 56.8626C89.3412 55.999 88.6964 54.594 88.4863 52.8516Z" fill="#021D38"/>
<path d="M119.756 57.252C120.427 57.2558 121.098 57.2597 121.86 57.2597C121.95 57.2558 121.988 57.2557 121.998 57.3182C122.085 57.4302 122.163 57.4798 122.241 57.5293C122.46 57.6328 122.679 57.7362 122.899 57.8396C122.822 57.9624 122.744 58.0852 122.667 58.2079C120.61 58.2079 118.553 58.2079 116.445 58.1147C117.515 57.7649 118.635 57.5084 119.756 57.252Z" fill="#021D38"/>
<path d="M94.4254 41.0546C94.8654 41.0336 95.2263 41.0707 95.6623 41.1574C95.1967 41.442 94.2539 41.216 94.4085 42.5001C94.3878 43.288 94.4257 43.891 94.4637 44.4939C94.4743 44.5379 94.485 44.5819 94.4281 44.7802C94.3876 46.7812 94.4148 48.6281 94.4419 50.475C94.4755 51.1296 94.5092 51.7843 94.5873 52.5364C94.4225 52.3548 94.0349 52.078 94.0313 51.7963C93.9892 48.5332 93.9962 45.2693 94.0204 42.0059C94.0226 41.7073 94.2328 41.4104 94.4254 41.0546Z" fill="#021D38"/>
<path d="M119.679 57.1958C118.636 57.5087 117.515 57.7652 116.333 58.0869C115.06 58.5984 114.847 57.4357 114.298 56.8271C114.901 56.9185 115.454 57.0809 116.113 57.2446C116.646 57.2454 117.072 57.2448 117.499 57.2443C118.2 57.2093 118.902 57.1743 119.679 57.1958Z" fill="#021D38"/>
<path d="M130.981 54.8779C130.894 54.6747 130.763 54.3558 130.762 54.0366C130.749 49.6225 130.752 45.2085 130.759 40.7944C130.759 40.5908 130.825 40.3873 130.913 40.0957C130.976 44.9257 130.986 49.8439 130.981 54.8779Z" fill="#021D38"/>
<path d="M44.3389 41.7281C44.4692 41.2655 44.5946 40.6803 44.9563 40.4C45.2503 40.1722 45.8307 40.2671 46.2786 40.2981C46.7017 40.3274 47.1143 40.4999 47.5377 40.5354C47.9061 40.5662 48.2832 40.4936 48.6565 40.4667C48.6758 40.5934 48.6952 40.7202 48.7146 40.8469C48.435 40.9447 48.1554 41.0426 47.8154 41.1915C47.6412 41.2434 47.5274 41.2441 47.305 41.1962C47.1236 41.1144 47.0598 41.128 47.0048 41.1883C46.8754 41.2036 46.7459 41.219 46.4819 41.2342C46.3472 41.234 46.2747 41.2517 46.2747 41.2517C45.6618 41.4135 45.0489 41.5754 44.3389 41.7281Z" fill="#021D38"/>
<path d="M27.6422 57.3808C27.5007 57.1802 27.4442 56.9488 27.3686 56.6393C27.0692 56.8373 26.8525 56.9805 26.3203 57.3323C26.4128 56.6478 26.3712 56.2092 26.5384 55.8749C26.8782 55.1956 27.4829 55.0272 28.0775 55.5291C28.3693 55.7753 28.4851 56.2301 28.7178 56.6724C28.4124 56.9529 28.0698 57.1515 27.6422 57.3808Z" fill="#021D38"/>
<path d="M110.681 42.0586C110.963 42.4755 111.17 42.9313 111.442 43.4441C111.505 43.6876 111.503 43.874 111.501 44.1537C110.82 44.1773 110.139 44.1077 109.36 44.02C109.71 43.3671 110.157 42.7323 110.681 42.0586Z" fill="#021D38"/>
<path d="M26.0109 36.4925C23.8732 36.4877 21.7339 36.4798 19.5537 36.3861C19.6993 36.2808 19.8857 36.2614 20.2187 36.2994C20.5763 36.3221 20.7873 36.2874 20.9984 36.2527C21.3508 36.2455 21.7031 36.2382 22.2107 36.3004C22.5746 36.3399 22.7831 36.3101 22.9917 36.2803C23.6741 36.2609 24.3565 36.2414 25.2119 36.3026C25.5913 36.4172 25.7976 36.4511 26.004 36.4851C26.004 36.4851 26.0093 36.4894 26.0109 36.4925Z" fill="#021D38"/>
<path d="M13.5439 53.8089C14.2841 53.2665 14.8216 53.6451 15.0988 54.2792C15.2276 54.5739 14.9561 55.0437 14.7929 55.4748C14.5312 55.2903 14.3428 55.0651 14.1521 54.7245C14.0285 54.4725 13.9072 54.3359 13.7858 54.1993C13.7067 54.0927 13.6276 53.9861 13.5439 53.8089Z" fill="#021D38"/>
<path d="M22.3309 41.2088C21.7108 41.0653 21.1752 40.9391 20.6396 40.8128C20.662 40.6809 20.6843 40.5489 20.7066 40.417C21.8625 40.6394 23.0183 40.8618 24.2096 41.1745C23.8964 41.2543 23.5479 41.2439 23.0709 41.1884C22.8703 41.1152 22.8086 41.1312 22.7572 41.1914C22.6432 41.2029 22.5293 41.2144 22.3309 41.2088Z" fill="#021D38"/>
<path d="M116.007 57.2425C115.454 57.0801 114.902 56.9177 114.248 56.7515C114.147 56.7478 114.1 56.7397 114.096 56.7164C114.576 56.3986 115.061 56.1041 115.547 55.8096C115.44 55.7058 115.334 55.6019 115.228 55.498C115.511 55.7432 115.794 55.9884 116.129 56.32C116.123 56.6852 116.065 56.9638 116.007 57.2425Z" fill="#021D38"/>
<path d="M102.611 51.6016C103.471 52.0861 103.55 52.743 102.733 53.4872C102.625 52.9058 102.601 52.3074 102.611 51.6016Z" fill="#021D38"/>
<path d="M94.4659 50.3621C94.4142 48.6276 94.387 46.7808 94.4114 44.8457C94.4721 46.5882 94.4813 48.419 94.4659 50.3621Z" fill="#021D38"/>
<path d="M119.51 40.0514C119.131 38.8959 120.178 38.8841 120.898 38.5078C120.519 39.0094 120.05 39.5132 119.51 40.0514Z" fill="#021D38"/>
<path d="M102.623 55.3457C102.915 55.5306 103.176 55.8177 103.469 56.2397C103.503 56.3747 103.501 56.4969 103.501 56.4969C103.276 56.499 103.051 56.501 102.741 56.5045C102.635 56.1532 102.613 55.8005 102.623 55.3457Z" fill="#021D38"/>
<path d="M97.0977 41.23C97.6522 41.1307 98.2842 41.0616 99.0153 40.9922C98.4679 41.0813 97.8215 41.1707 97.0977 41.23Z" fill="#021D38"/>
<path d="M94.4785 44.384C94.4253 43.8901 94.3873 43.2872 94.3957 42.6055C94.4593 43.1095 94.4766 43.6922 94.4785 44.384Z" fill="#021D38"/>
<path d="M20.9416 36.2219C20.7876 36.2866 20.5766 36.3213 20.3125 36.3084C20.4678 36.2378 20.6762 36.2149 20.9416 36.2219Z" fill="#021D38"/>
<path d="M102.614 33.3398C102.685 33.4795 102.724 33.7106 102.706 33.9707C102.626 33.8103 102.605 33.6208 102.614 33.3398Z" fill="#021D38"/>
<path d="M101.556 51.5736C101.641 51.4922 101.728 51.4923 101.881 51.4922C101.9 51.6964 101.855 51.9009 101.809 52.1054C101.725 51.9553 101.641 51.8052 101.556 51.5736Z" fill="#021D38"/>
<path d="M13.8057 54.2715C13.9065 54.3351 14.0278 54.4717 14.1121 54.6601C13.992 54.5894 13.9091 54.4669 13.8057 54.2715Z" fill="#021D38"/>
<path d="M22.9383 36.2431C22.7831 36.3095 22.5746 36.3393 22.3145 36.3221C22.4703 36.2522 22.6776 36.2293 22.9383 36.2431Z" fill="#021D38"/>
<path d="M130.982 38.6377C130.894 38.311 130.822 37.8786 130.749 37.3479C130.748 37.2497 130.857 37.2494 130.912 37.2501C130.977 37.6778 130.987 38.1049 130.982 38.6377Z" fill="#021D38"/>
<path d="M108.592 50.0254C108.737 50.0714 108.958 50.1278 109.178 50.2648C109.007 50.2421 108.837 50.139 108.592 50.0254Z" fill="#021D38"/>
<path d="M20.3223 58.2271C20.429 58.2205 20.5773 58.2744 20.7393 58.386C20.6232 58.3917 20.4935 58.3396 20.3223 58.2271Z" fill="#021D38"/>
<path d="M56.835 58.1885C56.8759 58.0494 56.9942 57.9325 57.1673 57.7852C57.1188 57.9067 57.0155 58.0587 56.835 58.1885Z" fill="#021D38"/>
<path d="M130.982 57.1559C130.966 57.2486 130.856 57.2499 130.803 57.1558C130.75 56.8738 130.751 56.6859 130.751 56.498C130.751 56.498 130.858 56.4994 130.912 56.5004C130.977 56.6887 130.988 56.876 130.982 57.1559Z" fill="#021D38"/>
<path d="M88.4898 35.0918C88.5453 35.2144 88.5741 35.4284 88.5537 35.6948C88.4906 35.5592 88.4768 35.3712 88.4898 35.0918Z" fill="#021D38"/>
<path d="M25.9707 36.4053C25.798 36.4511 25.5917 36.4172 25.3213 36.3364C25.4839 36.3015 25.7105 36.3135 25.9707 36.4053Z" fill="#021D38"/>
<path d="M119.076 40.94C119.088 40.7717 119.171 40.5474 119.332 40.2715C119.323 40.4412 119.235 40.6626 119.076 40.94Z" fill="#021D38"/>
<path d="M57.2098 43.1684C57.1342 43.1165 57.0788 42.9875 57.0195 42.7871C57.0872 42.8409 57.1586 42.9661 57.2098 43.1684Z" fill="#021D38"/>
<path d="M122.217 57.4743C122.163 57.4806 122.085 57.4311 121.998 57.3382C122.074 57.3068 122.142 57.348 122.217 57.4743Z" fill="#021D38"/>
<path d="M78.8213 58.2201C78.8827 58.1599 79.031 58.1317 79.2238 58.1464C79.1482 58.2102 79.0282 58.2312 78.8213 58.2201Z" fill="#021D38"/>
<path d="M102.662 58.056C102.741 58.0329 102.827 58.0672 102.945 58.1358C102.874 58.1511 102.772 58.1322 102.662 58.056Z" fill="#021D38"/>
<path d="M76.6941 48.502C76.7327 48.5861 76.7387 48.7293 76.7335 48.98C76.702 48.912 76.6817 48.7365 76.6941 48.502Z" fill="#021D38"/>
<path d="M116.915 36.2836C116.863 36.3246 116.73 36.3483 116.556 36.3365C116.621 36.2895 116.728 36.2778 116.915 36.2836Z" fill="#021D38"/>
<path d="M25.4546 52.7031C25.4558 52.7833 25.4039 52.8647 25.3115 52.9741C25.3146 52.9028 25.358 52.8036 25.4546 52.7031Z" fill="#021D38"/>
<path d="M23.5996 58.6672C23.6524 58.5982 23.7718 58.5558 23.9555 58.5107C23.9019 58.57 23.7841 58.6319 23.5996 58.6672Z" fill="#021D38"/>
<path d="M21.4617 53.4319C21.3633 53.4516 21.2332 53.403 21.0527 53.3054C21.1449 53.2921 21.2875 53.3279 21.4617 53.4319Z" fill="#021D38"/>
<path d="M20.9481 53.215C20.8877 53.2456 20.785 53.2379 20.6328 53.2168C20.6908 53.1945 20.7983 53.1856 20.9481 53.215Z" fill="#021D38"/>
<path d="M108.319 58.1548C108.298 58.099 108.329 58.0667 108.398 58.0273C108.45 58.0832 108.428 58.1359 108.319 58.1548Z" fill="#021D38"/>
<path d="M82.5352 58.1726C82.4787 58.098 82.5106 58.0415 82.6211 57.9883C82.702 58.063 82.6767 58.1294 82.5352 58.1726Z" fill="#021D38"/>
<path d="M24.5762 58.4608C24.5758 58.4093 24.6462 58.3619 24.7779 58.2959C24.7751 58.3399 24.711 58.4024 24.5762 58.4608Z" fill="#021D38"/>
<path d="M21.2607 58.5555C21.2969 58.5245 21.3547 58.5524 21.4436 58.6228C21.4796 58.6549 21.371 58.677 21.371 58.677C21.371 58.677 21.2875 58.6042 21.2607 58.5555Z" fill="#021D38"/>
<path d="M26.3208 58.1827C26.3039 58.1214 26.351 58.0794 26.4473 58.0234C26.4903 58.0879 26.4531 58.152 26.3208 58.1827Z" fill="#021D38"/>
<path d="M19.0049 58.0649C19.0428 58.0311 19.1035 58.0597 19.1975 58.132C19.236 58.1648 19.1221 58.1924 19.1221 58.1924C19.1221 58.1924 19.0328 58.1164 19.0049 58.0649Z" fill="#021D38"/>
<path d="M22.8161 41.2089C22.8082 41.131 22.8699 41.115 22.9678 41.1666C22.9937 41.19 22.8754 41.2267 22.8161 41.2089Z" fill="#021D38"/>
<path d="M26.8163 57.7375C26.7915 57.6686 26.849 57.6368 26.9587 57.664C26.9902 57.6814 26.8779 57.7329 26.8163 57.7375Z" fill="#021D38"/>
<path d="M90.8096 57.0395C90.8511 57.0216 90.8957 57.0601 90.962 57.1398C90.9104 57.1897 90.8533 57.1613 90.8096 57.0395Z" fill="#021D38"/>
<path d="M99.1557 38.677C99.0854 38.6835 99.0722 38.6289 99.1122 38.5426C99.1307 38.5186 99.178 38.6238 99.1557 38.677Z" fill="#021D38"/>
<path d="M102.738 29.2344C102.736 29.2538 102.738 29.2502 102.741 29.25C102.744 29.2498 102.741 29.215 102.738 29.2344Z" fill="#021D38"/>
<path d="M107.637 29.1933C107.622 29.232 107.572 29.2378 107.482 29.2318C107.484 29.1753 107.537 29.1554 107.637 29.1933Z" fill="#021D38"/>
<path d="M20.0202 52.9193C19.9699 52.9348 19.9024 52.8818 19.7988 52.775C19.8428 52.7644 19.9229 52.8076 20.0202 52.9193Z" fill="#021D38"/>
<path d="M130.778 55.5452C130.749 55.4989 130.857 55.4986 130.911 55.4991C130.974 55.5405 130.983 55.5814 130.978 55.6834C130.904 55.702 130.852 55.6509 130.778 55.5452Z" fill="#021D38"/>
<path d="M47.0647 41.2071C47.0598 41.1278 47.1236 41.1143 47.2216 41.1729C47.2062 41.2075 47.1654 41.2168 47.0647 41.2071Z" fill="#021D38"/>
<path d="M99.1418 36.6836C99.0821 36.6906 99.0506 36.6419 99.0215 36.5433C99.0808 36.5242 99.1295 36.5691 99.1418 36.6836Z" fill="#021D38"/>
<path d="M121.185 36.2942C121.242 36.3143 121.156 36.3638 121.156 36.3638C121.156 36.3638 121.059 36.3478 121.035 36.3244C121.01 36.301 121.128 36.274 121.185 36.2942Z" fill="#021D38"/>
<path d="M46.2841 41.2806C46.2742 41.2514 46.3467 41.2337 46.3835 41.2366C46.4202 41.2395 46.3816 41.3116 46.3816 41.3116C46.3816 41.3116 46.294 41.3097 46.2841 41.2806Z" fill="#021D38"/>
<path d="M99.1504 40.1783C99.0849 40.1862 99.0702 40.1311 99.1094 40.0427C99.128 40.0182 99.1656 40.1242 99.1504 40.1783Z" fill="#021D38"/>
<path d="M24.977 52.9467C24.9945 53.0007 24.8901 53.0046 24.8379 53.0068C24.8437 52.9703 24.9016 52.9316 24.977 52.9467Z" fill="#021D38"/>
<path d="M73.5099 58.0066C73.155 57.9739 72.7936 57.9338 72.0752 57.8541C72.5347 57.2074 72.7747 56.6004 73.2151 56.3587C73.4504 56.2296 74.0316 56.7311 74.6043 57.0233C74.1054 57.4212 73.8332 57.6382 73.5386 57.9347C73.5161 58.0141 73.5034 57.9991 73.5099 58.0066Z" fill="#021D38"/>
<path d="M73.015 55.2941C72.5694 55.2218 72.2007 55.0956 71.832 54.9695C71.9154 54.7604 71.9745 54.3885 72.0864 54.3719C72.4702 54.315 72.8725 54.3826 73.2677 54.4028C73.2091 54.6819 73.1505 54.961 73.015 55.2941Z" fill="#021D38"/>
<path d="M19.505 42.0027C19.379 41.9165 19.137 41.8274 19.1377 41.74C19.1405 41.3716 19.2156 41.0038 19.2643 40.6357C19.4804 40.6966 19.6966 40.7575 19.9128 40.8184C19.7884 41.1617 19.6639 41.5051 19.5235 41.9284C19.5075 42.0084 19.5006 42.0006 19.505 42.0027Z" fill="#021D38"/>
<path d="M107.912 33.7871C108.001 35.4742 108.022 37.1999 107.987 38.9245C107.979 39.3424 107.789 39.7565 107.592 40.2109C106.974 38.0763 107.377 35.9497 107.912 33.7871Z" fill="#021D38"/>
<path d="M103.512 56.5929C103.5 56.4956 103.503 56.3733 103.504 56.3122C104.499 56.143 104.256 55.4794 104.135 54.863C104.062 54.4915 104.007 54.1163 103.89 53.4238C104.591 54.2054 105.149 54.6136 105.396 55.1618C105.65 55.724 105.866 56.829 105.63 56.9834C105.013 57.3884 104.099 57.6518 103.512 56.5929Z" fill="#021D38"/>
<path d="M107.997 55.7501C107.92 56.1575 107.904 56.5906 107.745 56.9636C107.629 57.2379 107.327 57.4335 107.108 57.6642C106.937 57.328 106.586 56.9603 106.638 56.6633C106.708 56.2633 107.089 55.9177 107.469 55.5742C107.734 55.6498 107.866 55.7 107.997 55.7501Z" fill="#021D38"/>
<path d="M105.487 31.1428C105.278 31.284 105.076 31.3413 104.873 31.3985C104.82 30.996 104.766 30.5936 104.713 30.1912C104.883 30.1646 105.053 30.138 105.223 30.1113C105.313 30.4271 105.403 30.7429 105.487 31.1428Z" fill="#021D38"/>
<path d="M107.985 55.6869C107.866 55.7006 107.735 55.6504 107.553 55.55C107.659 55.541 107.815 55.5821 107.985 55.6869Z" fill="#021D38"/>
<path d="M103.44 29.9219C103.514 29.9365 103.559 29.9785 103.603 30.0204C103.578 30.0438 103.553 30.0671 103.527 30.0904C103.489 30.0433 103.45 29.9962 103.44 29.9219Z" fill="#021D38"/>
<path d="M112.952 39.4588C113.56 39.065 114.171 38.6695 114.816 38.3423C115.073 38.212 115.407 38.2327 115.706 38.1846C115.723 38.4499 115.796 38.726 115.747 38.9783C115.646 39.4962 115.48 40.0014 115.416 40.2391C116.1 40.8504 117.128 41.5135 117.04 41.7365C116.739 42.5007 116.046 43.1105 115.503 43.7791C115.395 43.7138 115.286 43.6484 115.178 43.5831C115.178 43.3257 115.138 43.0608 115.185 42.8122C115.33 42.0496 115.25 41.5497 114.278 41.4579C113.259 41.3616 112.981 40.5573 112.945 39.5414C112.927 39.4375 112.969 39.4844 112.952 39.4588Z" fill="#021D38"/>
<path d="M116.113 57.2446C116.065 56.9646 116.123 56.6859 116.216 56.3282C116.251 56.2492 116.253 56.1253 116.344 56.0587C116.957 55.7444 117.479 55.4967 118.002 55.249C118.278 55.3231 118.555 55.3971 118.916 55.4858C118.504 56.0208 118.008 56.5411 117.505 57.1528C117.072 57.2448 116.646 57.2453 116.113 57.2446Z" fill="#021D38"/>
<path d="M117.974 55.1683C117.48 55.4966 116.957 55.7442 116.345 55.9966C116.519 55.1423 116.865 54.4352 117.974 55.1683Z" fill="#021D38"/>
<path d="M125.754 41.3336C125.752 40.5677 125.91 40.0068 126.728 40.1505C127.392 40.267 128.265 40.2548 128.234 41.2723C128.193 42.5947 128.148 43.9265 127.941 45.2283C127.881 45.6044 127.26 45.8912 126.896 46.219C126.681 45.8434 126.351 45.4897 126.275 45.088C126.047 43.8828 125.92 42.6589 125.754 41.3336Z" fill="#021D38"/>
<path d="M127.346 56.1543C127.683 56.403 127.925 56.624 128.168 56.8449C127.728 56.9709 127.29 57.1748 126.848 57.1848C126.669 57.1888 126.48 56.7697 126.296 56.5432C126.615 56.4043 126.934 56.2654 127.346 56.1543Z" fill="#021D38"/>
<path d="M130.686 56.4453C130.751 56.6844 130.75 56.8723 130.748 57.154C130.364 57.2024 129.983 57.1568 129.601 57.1112C129.583 56.9681 129.565 56.825 129.547 56.6819C129.905 56.586 130.263 56.49 130.686 56.4453Z" fill="#021D38"/>
<path d="M37.3965 57.1978C37.5399 57.1174 37.7006 57.1036 37.8614 57.0898C37.8554 57.2335 37.8494 57.3772 37.8434 57.5209C37.7002 57.4354 37.557 57.3499 37.3965 57.1978Z" fill="#021D38"/>
<path d="M23.0022 54.7485C24.1367 53.5401 25.174 54.5884 26.3907 54.8768C25.5668 55.8827 24.8034 56.8148 23.8897 57.9303C23.4711 57.9303 22.7393 57.9303 22.0075 57.9303C21.9395 57.8437 21.8716 57.7571 21.8037 57.6705C22.209 57.2761 22.572 56.8215 23.029 56.5009C23.8087 55.9538 23.8296 55.4224 23.0818 54.7742C23.0024 54.7486 23.0022 54.7485 23.0022 54.7485Z" fill="#021D38"/>
<path d="M23.0022 54.75C22.868 55.0519 22.7337 55.3536 22.5993 55.6554C22.4334 55.5086 22.2675 55.3619 22.1016 55.2151C22.34 55.0611 22.5784 54.907 22.9093 54.7514C23.0018 54.7498 23.0022 54.75 23.0022 54.75Z" fill="#021D38"/>
<path d="M26.3413 52.9072C26.4533 52.9945 26.5095 53.106 26.5657 53.2174C26.4585 53.258 26.3513 53.2986 26.2441 53.3392C26.2579 53.2032 26.2718 53.0673 26.3413 52.9072Z" fill="#021D38"/>
<path d="M127.67 29.7253C127.667 30.76 127.585 31.7711 127.502 32.891C126.288 33.0133 125.069 31.4293 125.493 30.3875C125.524 30.3114 125.581 30.246 125.612 30.17C126.261 28.5656 126.261 28.5654 127.67 29.7253Z" fill="#021D38"/>
<path d="M165.549 41.013C166.859 42.7094 168.407 44.2755 169.422 46.1328C170.943 48.9141 170.399 51.8604 169.242 54.6854C167.44 59.0873 164.191 62.0368 159.677 63.2939C154.667 64.6893 150.025 63.6047 146.113 60.0857C144.523 58.6559 142.877 57.2502 142.021 55.1476C141.191 53.1116 141.538 50.822 142.929 49.1386C143.365 48.612 143.467 47.7162 143.509 46.9773C143.608 45.2357 144.11 43.7977 145.836 43.049C146.025 42.967 146.223 42.7899 146.398 42.811C147.66 42.9632 147.742 42.2415 147.818 41.2296C147.924 39.8137 148.915 38.8714 150.052 38.1223C150.394 37.8977 150.792 37.7603 151.402 37.4699C150.843 36.7763 150.312 36.1785 149.851 35.5314C148.798 34.0565 147.69 32.6092 146.79 31.0435C146.414 30.3877 146.51 29.46 146.492 28.6348C146.764 29.7077 147.566 29.2247 148.227 29.3129C149.234 30.8248 150.096 32.3329 151.149 33.6943C153.065 36.1745 155.103 38.5611 157.074 40.9995C158.285 42.498 159.528 43.9778 160.618 45.5616C160.896 45.9642 160.883 47.0095 160.581 47.2711C160.027 47.7512 159.331 47.4488 159.039 46.5921C159.447 45.9028 159.686 45.322 158.739 44.8943C158.717 44.6405 158.754 44.4148 158.661 44.329C157.591 43.3365 156.509 42.3564 155.404 41.4031C155.305 41.3173 155.025 41.4409 154.751 41.4313C154.447 41.1523 154.215 40.9149 153.998 40.6651C153.021 39.5452 152.12 39.414 150.967 40.2298C149.862 41.0108 149.482 42.4429 150.195 43.5005C150.772 44.3571 151.454 45.1472 152.125 45.9358C153.01 46.9745 153.948 47.9685 154.83 49.0096C155.37 49.6469 155.137 50.589 154.397 50.6464C153.976 50.6792 153.402 50.4461 153.107 50.1339C151.594 48.5332 150.18 46.8397 148.657 45.2496C148.364 44.9441 147.69 44.755 147.277 44.8568C145.629 45.2631 145.109 47.4476 146.3 48.9476C147.797 50.8325 149.389 52.6423 150.856 54.5493C151.099 54.865 150.911 55.5122 150.922 56.0061C150.438 55.9524 149.8 56.0745 149.5 55.8114C148.663 55.0792 147.965 54.1878 147.214 53.3577C146.365 52.4183 145.517 51.477 144.666 50.5338C143.363 51.817 143.295 52.4063 143.86 53.8355C144.822 56.2662 146.605 57.9511 148.672 59.4096C151.914 61.6975 155.531 62.1821 159.231 61.121C163.885 59.7867 166.78 56.4755 167.888 51.8411C168.389 49.7453 168.344 47.5178 166.645 45.6237C164.324 43.0354 162.178 40.2882 159.987 37.5847C159.345 36.7921 158.805 35.9166 158.257 35.0047C158.784 34.6122 159.272 34.294 159.831 34.0226C160.146 34.3961 160.369 34.7431 160.64 35.0457C161.537 36.0437 162.451 37.0257 163.437 38.0457C164.645 38.4481 165.266 39.1289 165.05 40.4113C165.022 40.5791 165.373 40.8109 165.549 41.013Z" fill="#021D38"/>
<path d="M154.428 14.7423C152.98 14.3191 151.599 13.9666 150.218 13.6142C150.217 13.4795 150.216 13.3449 150.215 13.2103C151.035 12.9995 151.845 12.7131 152.679 12.5935C154.43 12.3422 155.524 11.2676 155.759 9.55791C155.866 8.78148 156.135 8.02748 156.331 7.2633C156.449 7.23868 156.566 7.21407 156.683 7.18945C156.822 7.72019 157.083 8.25331 157.073 8.78116C157.051 9.91389 157.886 11.6757 158.809 12.1607L161.385 12.7458C161.605 12.8162 161.859 12.8396 162.038 12.9676C162.328 13.1742 162.569 13.4496 162.831 13.6959C162.508 13.7991 162.191 13.9328 161.861 13.9998C160.843 14.2063 159.705 14.1686 158.828 14.6324C157.676 15.2424 157.143 16.4704 157.009 17.8011C156.945 18.4339 156.887 19.0672 156.799 19.9829C155.942 18.06 155.218 16.4366 154.428 14.7423Z" fill="#021D38"/>
<path d="M159.76 33.9766C159.272 34.2948 158.784 34.613 158.178 34.9731C156.875 33.5867 155.69 32.1586 154.543 30.6502C154.77 29.8543 155.145 29.3814 155.975 29.5024C156.377 30.5693 156.783 30.2501 157.121 29.4809C157.872 27.7716 158.631 26.0737 160.237 24.959C160.498 24.7778 160.793 24.6466 161.208 24.5742C161.401 25.3026 161.459 25.9489 161.46 26.5996C161.402 26.6038 161.289 26.5776 161.238 26.5252C161.056 26.601 160.925 26.7292 160.773 26.9401C160.486 27.4784 160.177 27.9152 159.961 28.3939C159.468 29.489 158.779 30.576 158.643 31.7226C158.56 32.4197 159.357 33.2217 159.76 33.9766Z" fill="#021D38"/>
<path d="M165.566 40.9121C165.373 40.8108 165.022 40.5791 165.05 40.4113C165.266 39.1289 164.645 38.4481 163.42 37.9405C163.875 35.1998 164.427 32.596 165.036 30.0593C165.414 30.4671 165.734 30.8079 166.053 31.1488C166.066 30.6956 166.091 30.2422 166.087 29.7892C166.079 29.0268 165.598 28.1146 166.767 27.7461C167.011 30.2417 166.668 32.6346 165.836 35.0186C165.485 36.0236 165.699 37.226 165.652 38.45C165.62 38.6108 165.62 38.661 165.648 38.7119C165.626 39.4117 165.605 40.1115 165.566 40.9121Z" fill="#021D38"/>
<path d="M155.955 29.421C155.146 29.3812 154.77 29.8541 154.472 30.6072C153.589 29.7294 152.859 28.7728 152.032 27.9082C150.619 26.4317 150.411 26.4232 148.514 27.2801C147.931 27.0072 147.448 26.7429 146.966 26.4785C149.319 23.8331 151.983 24.0293 153.972 26.9468C154.551 27.7956 155.276 28.5448 155.955 29.421Z" fill="#021D38"/>
<path d="M163.193 15.7961C164.302 15.334 164.09 16.4267 164.172 16.7112C164.668 18.43 165.181 18.9232 167.082 19.2515C166.664 19.4243 166.251 19.7274 165.827 19.7441C164.756 19.7863 163.745 19.7183 164.177 21.3387C164.259 21.6462 163.904 22.0701 163.431 22.5286C163.286 22.1383 163.056 21.7572 163.013 21.356C162.911 20.4019 162.69 19.7173 161.483 19.779C161.037 19.8017 160.569 19.3989 160.111 19.1902C160.137 19.0834 160.164 18.9765 160.19 18.8697C160.442 18.8443 160.696 18.8306 160.947 18.7914C162.628 18.5283 163.082 17.3482 163.193 15.7961Z" fill="#021D38"/>
<path d="M166.768 27.6624C165.598 28.1147 166.078 29.0269 166.086 29.7893C166.091 30.2423 166.065 30.6956 166.053 31.1488C165.734 30.808 165.414 30.4672 165.043 29.9502C164.935 29.1591 164.815 28.5421 164.836 27.9298C164.875 26.8003 164.266 26.1709 163.264 26.0775C162.703 26.0253 162.101 26.4079 161.518 26.5946C161.459 25.9482 161.401 25.3018 161.299 24.5791C162.791 23.2836 165.459 23.9457 166.243 25.9109C165.906 26.6729 165.873 27.1576 166.726 27.2465C166.741 27.3573 166.755 27.468 166.768 27.6624Z" fill="#021D38"/>
<path d="M146.892 26.5371C147.448 26.742 147.931 27.0064 148.51 27.358C148.461 28.0443 148.314 28.6435 148.168 29.2426C147.566 29.2244 146.764 29.7073 146.534 28.5504C146.591 27.8572 146.705 27.2269 146.892 26.5371Z" fill="#021D38"/>
<path d="M166.737 27.154C165.873 27.1581 165.906 26.6733 166.266 25.9971C166.47 26.3023 166.608 26.6816 166.737 27.154Z" fill="#021D38"/>
<path d="M165.665 38.6665C165.619 38.6613 165.619 38.6112 165.666 38.5425C165.684 38.5233 165.681 38.6208 165.665 38.6665Z" fill="#021D38"/>
<path d="M148.227 29.313C148.314 28.6439 148.46 28.0447 148.61 27.3668C150.41 26.4228 150.619 26.4312 152.031 27.9077C152.858 28.7723 153.589 29.7289 154.434 30.6869C155.69 32.1578 156.875 33.586 158.139 35.0467C158.805 35.9166 159.345 36.7921 159.988 37.5847C162.178 40.2882 164.324 43.0354 166.646 45.6238C168.344 47.5179 168.389 49.7453 167.888 51.8412C166.78 56.4756 163.885 59.7868 159.232 61.1211C155.531 62.1822 151.914 61.6975 148.672 59.4096C146.605 57.9511 144.823 56.2662 143.861 53.8355C143.295 52.4063 143.363 51.8171 144.666 50.5338C145.517 51.4771 146.365 52.4183 147.214 53.3578C147.965 54.1879 148.663 55.0792 149.5 55.8115C149.801 56.0746 150.438 55.9525 150.922 56.0062C150.911 55.5122 151.099 54.8651 150.856 54.5494C149.39 52.6423 147.797 50.8325 146.3 48.9477C145.109 47.4477 145.629 45.2632 147.278 44.8568C147.69 44.7551 148.364 44.9441 148.657 45.2497C150.18 46.8397 151.594 48.5332 153.107 50.134C153.402 50.4462 153.976 50.6792 154.398 50.6465C155.137 50.5891 155.37 49.647 154.83 49.0097C153.948 47.9685 153.011 46.9746 152.126 45.9359C151.454 45.1473 150.772 44.3572 150.195 43.5005C149.482 42.443 149.863 41.0109 150.967 40.2299C152.12 39.414 153.022 39.5453 153.998 40.6652C154.216 40.915 154.448 41.1524 154.753 41.5183C155.653 42.6713 156.474 43.7014 157.316 44.8018C157.489 44.9949 157.64 45.1178 157.827 45.3134C158.25 45.8136 158.638 46.2411 159.025 46.6687C159.331 47.4489 160.027 47.7512 160.582 47.2712C160.884 47.0096 160.896 45.9643 160.619 45.5616C159.529 43.9778 158.285 42.4981 157.074 40.9996C155.103 38.5611 153.065 36.1745 151.149 33.6944C150.097 32.3329 149.234 30.8249 148.227 29.313Z" fill="#FDFDFF"/>
<path d="M161.46 26.5984C162.101 26.4075 162.703 26.0249 163.264 26.0771C164.266 26.1705 164.875 26.7999 164.836 27.9294C164.815 28.5417 164.935 29.1587 164.985 29.8828C164.427 32.5957 163.875 35.1995 163.341 37.9084C162.451 37.0254 161.537 36.0434 160.641 35.0453C160.369 34.7428 160.147 34.3958 159.831 34.0223C159.358 33.2206 158.56 32.4186 158.643 31.7215C158.779 30.5749 159.468 29.4879 159.961 28.3927C160.177 27.914 160.486 27.4773 160.836 26.904C161.042 26.7165 161.166 26.6465 161.289 26.5765C161.289 26.5765 161.402 26.6027 161.46 26.5984Z" fill="#F9F9FF"/>
<path d="M157.295 44.7321C156.474 43.702 155.653 42.6719 154.83 41.5548C155.024 41.4415 155.305 41.3178 155.404 41.4036C156.509 42.357 157.591 43.3371 158.661 44.3296C158.754 44.4154 158.716 44.6411 158.658 44.8968C158.468 44.993 158.36 44.9942 158.186 44.943C157.845 44.8377 157.57 44.7849 157.295 44.7321Z" fill="#021D38"/>
<path d="M158.253 44.995C158.361 44.9937 158.468 44.9925 158.657 44.9893C159.686 45.3221 159.447 45.9029 159.039 46.5922C158.637 46.2412 158.25 45.8136 157.893 45.3013C158.033 45.1427 158.143 45.0689 158.253 44.995Z" fill="#021D38"/>
<path d="M161.239 26.5244C161.166 26.6469 161.043 26.7169 160.856 26.8218C160.925 26.7284 161.057 26.6002 161.239 26.5244Z" fill="#021D38"/>
<path d="M158.187 44.9428C158.143 45.0692 158.033 45.143 157.857 45.2289C157.64 45.1181 157.489 44.9952 157.316 44.8021C157.57 44.7847 157.845 44.8375 158.187 44.9428Z" fill="#021D38"/>
</svg>
