<svg width="180" height="54" viewBox="0 0 180 54" fill="none" xmlns="http://www.w3.org/2000/svg">
<rect width="180" height="54" fill="white"/>
<path d="M110.119 40.082C109.723 40.4488 109.363 40.7957 108.991 41.1252C107.968 42.0398 106.924 42.9282 105.682 43.5442C105.138 43.8143 104.568 44.0108 103.96 44.0657C102.418 44.2059 101.318 43.5674 100.66 42.1502C100.121 40.9928 100.064 39.7713 100.198 38.5266C100.386 36.7829 100.938 35.1227 101.403 33.4454C101.519 33.0248 101.637 32.6043 101.764 32.1486C101.372 32.17 101.008 32.1826 100.646 32.2128C100.462 32.2282 100.434 32.181 100.474 32.002C100.64 31.2443 100.795 30.4841 100.939 29.7213C100.972 29.5467 101.029 29.4748 101.213 29.4748C101.579 29.4748 101.945 29.4199 102.311 29.4391C102.589 29.4512 102.678 29.3293 102.75 29.0894C103.222 27.4879 103.713 25.8919 104.184 24.2898C104.247 24.0746 104.349 23.9868 104.565 23.9445C105.963 23.67 107.358 23.3779 108.755 23.0929C108.797 23.0842 108.841 23.0578 108.905 23.1078C108.749 23.6381 108.59 24.1778 108.43 24.7164C108.021 26.089 107.617 27.4615 107.195 28.8341C107.118 29.0828 107.187 29.0965 107.405 29.0801C108.064 29.0307 108.723 29.0081 109.377 28.9615C109.557 28.9483 109.574 29.0081 109.541 29.1591C109.374 29.9168 109.208 30.6744 109.053 31.4343C109.021 31.5924 108.943 31.6352 108.797 31.6457C108.029 31.7006 107.266 31.7637 106.5 31.8208C106.383 31.8296 106.301 31.8483 106.261 31.9855C105.778 33.6875 105.206 35.3659 104.795 37.0915C104.642 37.7311 104.536 38.3806 104.553 39.0432C104.565 39.5028 104.682 39.9266 104.977 40.2906C105.34 40.737 105.821 40.8331 106.361 40.7595C107.033 40.6678 107.611 40.3675 108.135 39.9513C108.895 39.3474 109.57 38.6518 110.243 37.9534C110.328 37.8656 110.347 37.764 110.364 37.6575C110.804 35.043 111.646 32.5472 112.57 30.0738C112.586 30.0183 112.619 29.9689 112.663 29.9318C112.708 29.8947 112.762 29.8715 112.82 29.8652C114.19 29.5852 115.557 29.2953 116.926 29.0103C117.24 28.945 117.264 28.9736 117.172 29.2667C116.44 31.5995 115.639 33.911 114.976 36.2652C114.714 37.1985 114.491 38.1395 114.446 39.113C114.442 39.2044 114.442 39.296 114.446 39.3875C114.501 40.2989 115.05 40.6755 115.917 40.407C116.496 40.228 116.939 39.8443 117.357 39.4336C117.8 38.9982 118.22 38.5403 118.651 38.0918C118.725 38.0236 118.773 37.9325 118.789 37.8332C119.058 35.7469 119.758 33.7737 120.44 31.7983C120.643 31.2127 120.844 30.6256 121.044 30.037C121.083 29.9212 121.119 29.8333 121.27 29.8059C122.726 29.5407 124.179 29.2651 125.635 28.9939C125.686 28.984 125.741 28.956 125.806 29.0131C125.486 29.9733 125.155 30.938 124.843 31.9092C124.294 33.6112 123.635 35.2769 123.25 37.0294C123.073 37.8409 122.881 38.6496 122.828 39.4819C122.793 39.9209 122.865 40.3619 123.04 40.7661C123.467 41.7241 124.286 42.0761 125.27 41.7143C125.949 41.4644 126.474 41.0005 126.961 40.4839C127.332 40.0913 127.653 39.6604 127.974 39.2244C128.084 39.0734 128.09 38.957 128.01 38.7852C126.972 36.5622 126.967 34.32 127.941 32.0794C128.343 31.1587 128.895 30.3319 129.671 29.6752C130.11 29.3013 130.615 29.0477 131.2 28.9983C131.934 28.9362 132.34 29.2305 132.509 29.9475C132.673 30.6453 132.608 31.3481 132.515 32.0459C132.24 34.1064 131.428 35.9753 130.436 37.7766C130.247 38.1203 130.048 38.4587 129.84 38.7918C129.766 38.9109 129.781 38.9763 129.884 39.0614C130.769 39.7866 131.78 40.06 132.9 39.2914C133.401 38.9477 133.838 38.5348 134.253 38.0951C134.343 37.9995 134.356 37.8925 134.37 37.7722C134.794 34.1404 136.607 31.4134 139.796 29.6401C140.97 28.9878 142.276 28.8165 143.603 29.0954C146.192 29.6362 146.633 32.0783 145.624 33.7424C145.062 34.6681 144.234 35.306 143.323 35.8512C141.903 36.7022 140.359 37.2655 138.781 37.736C138.511 37.8162 138.464 37.9106 138.542 38.1648C138.683 38.6188 138.823 39.0712 139.055 39.4896C139.76 40.7633 141.052 41.3826 142.575 41.1888C143.423 41.079 144.167 40.7381 144.841 40.2242C145.607 39.6406 146.304 38.9812 146.989 38.3086C147.118 38.1813 147.23 38.038 147.351 37.9024L147.423 37.9364C147.423 38.4596 147.409 38.9839 147.429 39.5066C147.439 39.7751 147.354 39.959 147.158 40.1435C146.019 41.2174 144.849 42.2523 143.494 43.0533C141.947 43.9653 140.275 44.2733 138.505 44.0048C136.434 43.6913 134.894 42.1304 134.45 39.931C134.358 39.8997 134.322 39.9859 134.272 40.0266C133.68 40.5051 132.993 40.8521 132.257 41.0444C131.284 41.3091 130.419 41.0296 129.588 40.5437C129.409 40.4389 129.24 40.194 129.07 40.2374C128.899 40.2807 128.79 40.53 128.653 40.6892C127.61 41.9004 126.447 42.954 124.956 43.5914C124.005 43.9982 123.013 44.1777 121.982 44.0641C120.589 43.9109 119.654 43.1362 119.111 41.868C118.869 41.3019 118.759 40.7024 118.703 40.0452C118.61 40.1342 118.538 40.1973 118.473 40.2648C117.518 41.2382 116.536 42.1809 115.425 42.9776C114.747 43.4635 114.047 43.9109 113.21 44.0828C112.493 44.2293 111.866 44.0454 111.347 43.5337C110.594 42.792 110.272 41.8565 110.167 40.8303C110.141 40.5953 110.135 40.3604 110.119 40.082ZM138.334 36.0505C138.334 36.1872 138.343 36.325 138.334 36.4606C138.322 36.6253 138.393 36.6413 138.529 36.599C139.458 36.3113 140.353 35.9528 141.13 35.351C142.436 34.3381 142.976 33.0062 142.706 31.3772C142.567 30.541 141.898 30.1886 141.087 30.4592C140.897 30.5235 140.718 30.616 140.555 30.7337C140.241 30.9694 139.965 31.2535 139.739 31.5754C138.756 32.9079 138.422 34.4386 138.334 36.0505Z" fill="#283965"/>
<path d="M111.52 20.7772C110.623 20.0278 109.738 19.2641 108.809 18.5526C104.911 15.5648 100.675 13.2116 95.9615 11.7578C92.9913 10.8415 89.9535 10.3391 86.8422 10.3155C83.9236 10.293 81.0741 10.7361 78.2774 11.5783C70.8853 13.809 64.2591 17.4869 58.1556 22.158C54.745 24.7681 51.5969 27.6752 48.5339 30.6778C45.6274 33.5267 42.879 36.5227 40.1794 39.5649C38.4472 41.5156 36.6107 43.3597 34.4618 44.8668C33.4253 45.5948 32.3206 46.1938 31.1155 46.6001C29.1039 47.277 27.1763 47.0838 25.3096 46.1021C23.4429 45.1205 21.9869 43.699 20.8356 41.9531C19.2363 39.5286 17.4865 37.2249 15.3503 35.2413C14.0035 33.9917 12.5502 32.8915 10.8235 32.2041C10.5545 32.0943 10.2745 32.0147 10 31.9027C10.5287 31.8922 11.0519 31.9653 11.5752 32.03C14.7282 32.4204 17.2532 33.9352 19.278 36.3371C20.3557 37.6158 21.4044 38.9176 22.5002 40.1803C23.6268 41.4782 24.9785 42.4764 26.6327 43.0144C28.4 43.5892 30.1311 43.4168 31.8276 42.7185C33.5428 42.0124 35.0015 40.9188 36.3697 39.6944C38.4911 37.7948 40.4116 35.6981 42.3052 33.5783C45.7004 29.7785 49.2685 26.1511 53.0661 22.7493C56.917 19.297 60.965 16.0979 65.3484 13.3385C68.2956 11.4839 71.38 9.90539 74.6763 8.75738C78.1352 7.54952 81.694 6.98073 85.3604 7.0005C89.6922 7.02246 93.8999 7.67909 97.927 9.30641C103.666 11.6293 108.175 15.4352 111.512 20.6367C111.532 20.668 111.547 20.7014 111.564 20.7344L111.52 20.7772Z" fill="#269D9D"/>
<path d="M76.9861 29.021C76.8016 29.57 76.6182 30.1135 76.437 30.656C75.6761 32.9515 74.9311 35.2519 74.4144 37.6182C74.2497 38.3868 74.0943 39.1554 74.147 39.951C74.1503 39.9966 74.1536 40.0421 74.1586 40.0877C74.2684 41.1539 75.1095 41.6156 76.0725 41.1308C76.6967 40.8184 77.1793 40.3287 77.646 39.8242C78.52 38.8804 79.1717 37.8252 79.5286 36.5646C80.1325 34.4322 80.8227 32.3239 81.4672 30.203C81.5331 29.9873 81.6253 29.883 81.862 29.8374C83.2526 29.5711 84.6389 29.2818 86.0269 29.0018C86.1043 28.9858 86.1844 28.9825 86.2915 28.9705C85.9802 29.9702 85.6706 30.9409 85.3757 31.916C84.7718 33.9155 84.1014 35.8964 83.6293 37.9339C83.4893 38.5378 83.385 39.1494 83.4766 39.7791C83.6161 40.7383 84.2552 41.1127 85.1512 40.7383C85.7062 40.5066 86.1844 40.1519 86.6297 39.7583C87.2463 39.2142 87.843 38.6476 88.4486 38.0909C88.514 38.0305 88.5809 37.9728 88.6951 37.8713C88.6951 38.4499 88.6814 38.9743 88.7012 39.4964C88.7111 39.7561 88.6325 39.9323 88.4387 40.1086C87.3171 41.1314 86.1927 42.1498 84.9338 43.0052C84.1569 43.5328 83.3416 43.9836 82.3819 44.0714C81.0807 44.1895 80.1611 43.6273 79.6439 42.4243C79.3535 41.7501 79.2596 41.0392 79.2206 40.3155C79.2173 40.253 79.214 40.1904 79.2102 40.1124C79.0894 40.1366 79.0455 40.2326 78.9801 40.3002C78.0594 41.2818 77.1025 42.2218 75.9951 42.997C75.1287 43.6009 74.1959 44.0533 73.1198 44.1143C71.828 44.1873 70.9072 43.6152 70.3747 42.437C70.2148 42.0784 70.0997 41.7015 70.0321 41.3148C69.9611 40.9137 69.927 40.507 69.93 40.0998C69.8273 40.1926 69.7554 40.2546 69.6868 40.3194C68.6727 41.2961 67.662 42.2772 66.5101 43.0953C65.8359 43.574 65.1233 43.9808 64.2756 44.072C63.4372 44.162 62.7707 43.8568 62.2678 43.1935C61.75 42.5094 61.5359 41.7112 61.4289 40.8772C61.3696 40.4193 61.3443 39.957 61.3004 39.4541C61.1681 39.6512 61.055 39.822 60.9402 39.9911C60.0404 41.3225 58.9786 42.4913 57.5796 43.3193C56.9757 43.6756 56.3476 43.9633 55.6471 44.0583C54.5095 44.2131 53.5888 43.7925 52.8267 42.9723C51.7836 41.8495 51.3603 40.5017 51.4646 38.9957C51.7391 35.0361 53.7354 32.0977 56.9609 29.9302C58.004 29.228 59.2059 28.9419 60.4747 28.9469C61.3053 28.9518 62.0119 29.2274 62.5999 29.8088C62.6779 29.8851 62.7597 29.9571 62.841 30.0284C62.8459 30.0334 62.858 30.0284 62.8986 30.0367C63.0446 29.4328 63.1934 28.8288 63.3378 28.2249C64.0011 25.4563 64.6624 22.6872 65.322 19.9176C65.3566 19.7715 65.4214 19.7068 65.5652 19.6749C66.7253 19.4191 67.8838 19.1594 69.0675 19.0282C69.8125 18.9458 69.9075 19.0457 69.7345 19.76C68.8748 23.3067 67.9321 26.8337 67.1151 30.3908C66.5513 32.846 65.9814 35.3002 65.6218 37.7966C65.5477 38.3116 65.4801 38.8282 65.49 39.3509C65.4878 39.6443 65.5535 39.9343 65.6822 40.198C65.9226 40.6647 66.3256 40.8327 66.8291 40.6823C67.131 40.5917 67.3962 40.4297 67.6499 40.2497C68.5431 39.615 69.2816 38.8162 70.0178 38.0146C70.098 37.9273 70.1172 37.8224 70.1348 37.7143C70.5625 35.0789 71.392 32.5595 72.2979 30.0608C72.3336 29.9615 72.3792 29.8912 72.4989 29.8676C73.9604 29.5815 75.4202 29.2895 76.8807 29.0001C76.9165 29.0025 76.952 29.0095 76.9861 29.021ZM62.2447 32.6325C62.2551 32.3674 62.2367 32.1019 62.1898 31.8408C61.9389 30.3782 60.6383 29.8308 59.4189 30.6741C59.057 30.9246 58.742 31.2368 58.4883 31.5965C57.1843 33.4461 56.3224 35.4786 56.0056 37.7258C55.9123 38.3846 55.8667 39.0544 56.0984 39.7023C56.3542 40.4204 56.9115 40.8053 57.6719 40.774C58.4169 40.7438 58.9775 40.3452 59.4677 39.8297C60.086 39.1807 60.5213 38.4104 60.9117 37.6127C61.6803 36.0397 62.2052 34.4014 62.2425 32.6314L62.2447 32.6325Z" fill="#283965"/>
<path d="M28.3201 41.9587C26.9475 41.816 25.8248 41.2593 24.8014 40.4698C23.8285 39.7193 23.089 38.7524 22.3105 37.8207C22.2199 37.7109 22.2682 37.6165 22.294 37.5138C22.8238 35.3765 23.9081 33.5559 25.463 32.0087C26.7724 30.7054 28.2339 29.6238 30.0254 29.0747C31.6176 28.5845 33.2202 28.562 34.775 29.2137C36.001 29.727 36.8234 30.6241 36.9815 31.9868C37.1193 33.1776 36.724 34.218 35.9186 35.1009C35.0534 36.0474 33.9509 36.6304 32.7798 37.0977C31.023 37.7993 29.1837 38.1864 27.3203 38.4702C27.1062 38.5026 27.0288 38.5526 27.054 38.7887C27.177 39.9422 27.4697 41.0265 28.3201 41.9587ZM33.0856 31.9846C33.1702 30.6192 32.1836 29.9049 30.9049 30.4061C30.5069 30.5707 30.1431 30.8081 29.8321 31.1061C28.1153 32.6829 27.4373 34.7467 27.087 36.9626C27.0628 37.1152 27.1468 37.0993 27.2484 37.0834C28.1817 36.9406 29.0948 36.7243 29.9622 36.3406C31.8575 35.5011 32.9402 34.0786 33.0856 31.9846Z" fill="#283965"/>
<path d="M94.0676 38.1688C93.4291 38.1688 92.7895 38.1776 92.151 38.1688C91.6135 38.1594 91.1194 38.2742 90.6774 38.5888C90.4803 38.7293 90.2739 38.8408 90.0186 38.7716C89.8456 38.7255 89.7616 38.6343 89.8401 38.4532C90.2475 37.5198 90.6088 36.5612 91.0672 35.6482C91.306 35.1738 91.6805 34.8982 92.2202 34.8411C92.6385 34.7972 93.0569 34.7676 93.4774 34.7648C94.6013 34.7577 95.7251 34.7615 96.8484 34.7428C97.4299 34.7335 97.997 34.6484 98.4521 34.2251C98.5312 34.1473 98.6336 34.0975 98.7437 34.0835C98.8892 34.0697 99.0484 34.0538 99.1544 34.1763C99.2603 34.2987 99.1544 34.4206 99.1077 34.5309C98.7179 35.405 98.339 36.284 97.9547 37.1591C97.5869 37.9925 96.9714 38.3263 96.0974 38.3082C95.4215 38.294 94.7457 38.3082 94.0698 38.3082L94.0676 38.1688Z" fill="#283965"/>
<path d="M118.505 22.212C118.505 23.1168 118.417 23.9535 118.07 24.7458C117.682 25.6346 117.016 26.1776 116.049 26.3182C114.965 26.4752 113.959 26.2753 113.06 25.6198C112.914 25.5133 112.885 25.4403 112.991 25.2756C113.587 24.3441 114.048 23.3328 114.36 22.2719C114.426 22.0522 114.489 22.0429 114.666 22.1621C114.961 22.3454 115.27 22.5039 115.591 22.6359C116.517 23.0449 117.39 22.9142 118.226 22.3943C118.305 22.3443 118.382 22.2938 118.505 22.212Z" fill="#FA4729"/>
<path d="M111.567 20.7383L111.602 20.8058L111.582 20.8267L111.521 20.7778L111.567 20.7383Z" fill="#FA4729"/>
<path d="M111.602 20.8047L111.628 20.8596C111.596 20.8728 111.589 20.8508 111.582 20.8272L111.602 20.8047Z" fill="#FA4729"/>
</svg>
