<svg width="200" height="98" viewBox="0 0 200 98" fill="none" xmlns="http://www.w3.org/2000/svg">
<path d="M42.1498 16.051C39.7498 25.151 25.0998 34.001 12.3998 34.001H8.49984L8.79984 32.601C9.99984 27.751 13.2998 23.651 17.8498 21.401C20.7498 20.001 21.6998 19.751 25.0498 19.751H28.8498L30.2498 17.851C30.9998 16.801 31.4498 15.801 31.2498 15.601C31.0498 15.401 28.2998 15.251 25.0998 15.251C19.5498 15.251 19.0998 15.351 15.9498 16.851C9.84984 19.851 5.19984 26.001 3.94984 32.801C2.24984 42.101 7.99984 52.501 16.9998 56.151C19.2498 57.051 20.6998 57.251 25.2498 57.251C30.3998 57.251 30.9498 57.151 34.1498 55.651C37.6998 53.951 43.8498 48.451 43.2498 47.451C43.0498 47.201 43.1498 47.001 43.3498 47.001C43.8998 47.001 45.1998 44.101 45.9498 41.251C46.7498 38.301 46.5498 33.601 45.4998 30.501L44.5998 27.751L44.5498 30.051C44.4998 31.301 44.1498 33.451 43.7498 34.751C43.3498 36.101 43.1498 37.351 43.2998 37.601C43.4498 37.801 43.3498 38.001 43.0998 38.001C42.5498 38.001 40.7498 41.901 40.8498 42.851C40.8498 43.201 40.6998 43.401 40.4998 43.251C40.2498 43.101 39.2998 44.051 38.3498 45.351C34.4998 50.551 31.7998 52.301 26.5998 52.801C24.5498 53.051 22.7998 52.851 20.6998 52.251C17.9498 51.451 17.8498 51.351 18.9998 50.851C30.0498 46.351 37.9998 40.001 41.4498 32.951C42.6998 30.401 42.7998 30.051 41.8998 31.251C37.0498 37.601 30.2998 42.251 21.9998 44.901C19.2498 45.801 13.6998 47.001 12.4498 47.001C11.9998 47.001 9.79984 43.551 10.0998 43.251C10.1998 43.151 11.8498 42.801 13.7498 42.501C25.9498 40.551 36.5498 33.551 40.7498 24.701C42.1498 21.751 43.1498 17.251 42.8998 15.101C42.7498 13.951 42.6498 14.101 42.1498 16.051Z" fill="#021D38"/>
<path d="M82.001 30.0009V43.5009H85.001H87.951L88.101 36.3009L88.251 29.1009L96.751 36.5009C101.451 40.6009 105.401 43.9509 105.651 43.9509C105.851 44.0009 106.001 38.0509 106.001 30.7509V17.5009H103.251H100.551L100.401 25.0509L100.251 32.5509L91.151 24.5009L82.001 16.4509V30.0009Z" fill="#021D38"/>
<path d="M120.352 17.7009C112.452 20.6509 108.802 28.9509 112.202 36.2509C114.052 40.3509 117.702 43.0509 122.402 43.9009C131.252 45.5009 139.002 39.2509 139.052 30.4509C139.102 23.1009 133.552 17.5509 125.752 17.1509C123.552 17.0509 121.552 17.2509 120.352 17.7009ZM128.252 22.9509C132.052 24.6509 134.052 28.3009 133.302 32.1009C131.852 39.7509 121.702 41.5009 117.752 34.8509C115.102 30.2509 116.802 25.2509 121.752 22.9509C124.252 21.8009 125.702 21.8009 128.252 22.9509Z" fill="#021D38"/>
<path d="M172.15 23.901C170.15 27.651 166.95 33.651 165.05 37.251L161.55 43.751L164.8 43.601C168 43.401 168.05 43.401 169 41.451L170 39.501H176H181.95L183.05 41.501C184.15 43.501 184.2 43.501 187.1 43.501C188.7 43.501 190 43.351 190 43.151C190 42.651 176.3 17.001 176 17.001C175.85 17.001 174.1 20.101 172.15 23.901ZM177.9 31.751L179.5 35.001H176H172.5L174.1 31.751C175 29.951 175.85 28.501 176 28.501C176.15 28.501 177 29.951 177.9 31.751Z" fill="#021D38"/>
<path d="M57.001 30.601V43.751H67.001H77.001V41.351V39.001H69.751H62.501V36.001V33.001H68.751H75.001V30.751V28.551L68.901 28.401L62.751 28.251L62.601 25.351L62.451 22.501H69.751H77.001V20.001V17.501H67.001H57.001V30.601Z" fill="#021D38"/>
<path d="M139.5 17.851C139.5 18.501 152.15 44.001 152.5 44.001C152.7 44.001 164.8 19.701 165.4 17.951C165.5 17.701 164.2 17.501 162.55 17.501H159.5L156.15 24.501C154.35 28.351 152.7 31.501 152.5 31.501C152.35 31.501 150.65 28.351 148.8 24.501L145.4 17.501H142.45C140.85 17.501 139.5 17.651 139.5 17.851Z" fill="#021D38"/>
<path d="M66.4013 49.45C65.6513 50.5 65.8013 54.5 66.5513 54.5C66.9513 54.5 67.3013 51.6 67.0513 50.3C67.0013 50.05 67.2013 49.7 67.5513 49.5C67.9013 49.25 67.9513 49 67.6013 48.8C67.3013 48.65 66.7513 48.9 66.4013 49.45Z" fill="#021D38"/>
<path d="M58.151 49.3496C57.051 49.7496 57.451 51.2996 58.751 51.8996C59.451 52.1996 60.001 52.6996 60.001 52.9496C60.001 53.7996 59.001 54.0996 58.251 53.4996C57.751 53.0996 57.501 53.0496 57.501 53.3996C57.501 54.3996 59.551 54.6496 60.451 53.7496C61.201 52.9996 61.151 52.8496 60.101 51.9996C59.501 51.4996 58.701 50.9996 58.351 50.8496C57.901 50.6496 57.901 50.4996 58.401 49.9496C58.851 49.4496 59.151 49.4496 59.601 49.8996C60.451 50.7496 61.251 50.6496 60.501 49.7496C59.851 48.9996 59.251 48.8996 58.151 49.3496Z" fill="#021D38"/>
<path d="M99.0029 49.8994C99.0029 50.5494 98.6529 50.7994 97.9029 50.7994C96.9029 50.7494 96.7529 50.9994 96.7529 52.4994C96.7529 54.0494 96.9029 54.2494 98.1529 54.2994C99.4529 54.3494 99.5029 54.2494 99.5029 51.6994C99.5029 50.1994 99.4029 48.9994 99.2529 48.9994C99.1029 48.9994 99.0029 49.3994 99.0029 49.8994ZM98.7529 52.4994C98.7529 53.1494 98.4529 53.7494 98.1529 53.8494C97.3529 54.1494 96.8029 52.7994 97.2029 51.6994C97.6529 50.5494 98.7529 51.1494 98.7529 52.4994Z" fill="#021D38"/>
<path d="M102.647 51.75C102.647 53.4 102.747 54.15 102.847 53.35C102.997 52.3 103.347 52 104.297 52C105.247 52 105.497 52.25 105.497 53.25C105.497 53.95 105.747 54.5 105.997 54.5C106.297 54.5 106.497 53.25 106.497 51.75C106.497 50.25 106.297 49 105.997 49C105.747 49 105.497 49.55 105.497 50.25C105.497 51.25 105.247 51.5 104.297 51.5C103.347 51.5 102.997 51.2 102.847 50.1C102.747 49.35 102.647 50.1 102.647 51.75Z" fill="#021D38"/>
<path d="M116.499 49.6994C116.499 50.0994 115.999 50.4994 115.399 50.5994C114.449 50.6994 114.249 51.0494 114.249 52.4994C114.249 54.0494 114.399 54.2494 115.649 54.2994C116.949 54.3494 116.999 54.2494 116.999 51.6994C116.999 50.1994 116.899 48.9994 116.749 48.9994C116.599 48.9994 116.499 49.2994 116.499 49.6994ZM116.249 52.4994C116.249 53.1494 115.949 53.7494 115.649 53.8494C114.849 54.1494 114.299 52.7994 114.699 51.6994C115.149 50.5494 116.249 51.1494 116.249 52.4994Z" fill="#021D38"/>
<path d="M136.35 49.3006C135.55 50.1006 136.05 51.5506 137.25 52.0006C137.95 52.2506 138.5 52.7006 138.5 52.9506C138.5 53.7506 137.45 54.1506 136.85 53.5506C136 52.7006 135.3 52.9006 136 53.7506C137.3 55.3006 139.9 54.1506 138.95 52.4006C138.7 51.9006 138.15 51.5006 137.75 51.5006C136.8 51.5006 136.3 50.5006 136.9 49.9006C137.3 49.5006 137.7 49.5506 138.3 50.0506C139.05 50.6506 139.15 50.6506 138.9 50.0006C138.65 49.2006 136.95 48.7506 136.35 49.3006Z" fill="#021D38"/>
<path d="M144.65 51.7495C144.65 53.3995 144.75 53.9995 144.85 53.0995C144.95 52.1995 144.95 50.8495 144.85 50.0995C144.75 49.3495 144.65 50.0995 144.65 51.7495Z" fill="#021D38"/>
<path d="M168.553 51.8506C168.603 53.8506 168.703 54.3506 168.953 53.5006C169.203 52.6006 169.703 52.2006 170.653 52.1006C171.703 51.9506 172.003 51.6506 172.003 50.7506C172.003 49.6006 171.153 49.0006 169.453 49.0006C168.603 49.0006 168.503 49.3506 168.553 51.8506ZM171.403 50.6006C171.553 51.2506 171.253 51.5006 170.303 51.5006C169.303 51.5006 169.003 51.2506 169.003 50.4506C169.003 49.7006 169.253 49.4506 170.103 49.6006C170.753 49.7006 171.303 50.1506 171.403 50.6006Z" fill="#021D38"/>
<path d="M181.002 51.75V54.5L182.902 54.45C184.402 54.35 184.502 54.3 183.402 54.15C182.102 53.95 182.002 53.75 182.002 51.45C182.002 50.1 181.802 49 181.502 49C181.252 49 181.002 50.25 181.002 51.75Z" fill="#021D38"/>
<path d="M190 49.8994C190 50.5494 189.65 50.7994 188.9 50.7994C187.9 50.7494 187.75 50.9994 187.75 52.4994C187.75 54.0494 187.9 54.2494 189.15 54.2994C190.45 54.3494 190.5 54.2494 190.5 51.6994C190.5 50.1994 190.4 48.9994 190.25 48.9994C190.1 48.9994 190 49.3994 190 49.8994ZM189.75 52.4994C189.75 53.1494 189.45 53.7494 189.15 53.8494C188.35 54.1494 187.8 52.7994 188.2 51.6994C188.65 50.5494 189.75 51.1494 189.75 52.4994Z" fill="#021D38"/>
<path d="M68.3994 50.1006C68.0994 51.1006 68.6994 54.1506 69.2494 54.3506C69.6494 54.4506 69.7994 52.6006 69.5494 49.8506C69.4994 49.2506 68.5994 49.4506 68.3994 50.1006Z" fill="#021D38"/>
<path d="M150.4 50.1501C150 51.3001 150.75 54.1501 151.5 54.4001C152.1 54.6001 152.15 54.5001 151.65 53.9501C150.9 53.2001 150.8 51.1501 151.45 50.9001C151.7 50.8001 151.6 50.5001 151.25 50.1501C150.75 49.7001 150.55 49.7001 150.4 50.1501Z" fill="#021D38"/>
<path d="M176.901 50.1501C176.501 51.3001 177.251 54.1501 178.001 54.4001C178.601 54.6001 178.651 54.5001 178.151 53.9501C177.401 53.2001 177.301 51.1501 177.951 50.9001C178.201 50.8001 178.101 50.5001 177.751 50.1501C177.251 49.7001 177.051 49.7001 176.901 50.1501Z" fill="#021D38"/>
<path d="M185.102 50.3C184.752 50.7 184.702 51 185.002 51C185.252 51 185.452 51.15 185.452 51.35C185.252 52.45 185.552 54.5 185.902 54.5C186.252 54.5 186.302 50.1 185.902 49.75C185.852 49.7 185.452 49.9 185.102 50.3Z" fill="#021D38"/>
<path d="M61.9993 51.25C61.1993 52.2 62.0493 54.5 63.1993 54.5C65.1493 54.5 65.6493 50.9 63.6993 50.6C63.1493 50.5 62.3493 50.8 61.9993 51.25ZM64.3493 52C64.5493 53.05 63.6993 54.2 63.0493 53.8C62.7493 53.6 62.4993 52.9 62.4993 52.2C62.4993 51.25 62.7493 50.95 63.3493 51.1C63.8493 51.2 64.2993 51.6 64.3493 52Z" fill="#021D38"/>
<path d="M70.8006 51.8509C71.0006 52.6009 71.3506 53.6009 71.5506 54.0009C71.9006 54.6009 72.0506 54.5509 72.3006 53.6009C72.4506 53.0009 72.8006 52.5009 73.0006 52.5009C73.2006 52.5009 73.5506 53.0009 73.7006 53.6009C73.9506 54.5509 74.1006 54.6009 74.4506 54.0009C75.2006 52.7009 75.6006 50.4009 75.0006 50.7509C74.7506 50.9009 74.5006 51.5509 74.4506 52.1509C74.4006 53.1509 74.3506 53.1009 73.8506 51.8509C73.5506 51.1009 73.1506 50.5009 73.0006 50.5009C72.8506 50.5009 72.4506 51.1009 72.1506 51.8509C71.6506 53.1009 71.6006 53.1509 71.5506 52.1509C71.5006 51.5509 71.2506 50.9009 71.0006 50.7509C70.6506 50.5509 70.6006 50.9009 70.8006 51.8509Z" fill="#021D38"/>
<path d="M76.5027 50.951C76.5027 51.201 76.9527 51.301 77.5027 51.151C78.8527 50.801 78.7527 51.651 77.4027 52.251C75.6527 53.001 75.9527 54.251 77.9027 54.351C79.2527 54.401 79.5027 54.251 79.5027 53.251C79.5027 51.301 78.9527 50.501 77.7027 50.501C77.0527 50.501 76.5027 50.701 76.5027 50.951ZM78.4027 53.101C78.1027 54.001 77.0027 54.151 77.0027 53.301C77.0027 52.851 77.3527 52.501 77.8027 52.501C78.2527 52.501 78.5027 52.751 78.4027 53.101Z" fill="#021D38"/>
<path d="M80.6019 52.5998C80.6519 54.6498 80.6519 54.6498 80.8519 52.9998C81.0019 52.0498 81.3519 51.0998 81.6519 50.8998C82.0519 50.6498 81.9519 50.4998 81.4019 50.4998C80.6519 50.4998 80.5019 50.8998 80.6019 52.5998Z" fill="#021D38"/>
<path d="M83.0019 51.2508C81.8019 52.7008 83.7019 55.5008 85.0519 54.1508C85.4519 53.7508 85.4019 53.6008 84.7519 53.6508C84.2519 53.7008 83.7519 53.4508 83.6519 53.1008C83.5019 52.7508 83.9019 52.5008 84.7519 52.5008C85.9019 52.5008 85.9519 52.4008 85.5019 51.5008C84.8519 50.3008 83.8519 50.2008 83.0019 51.2508ZM85.0019 51.5008C85.0019 51.7508 84.6519 52.0008 84.2519 52.0008C83.8519 52.0008 83.5019 51.7508 83.5019 51.5008C83.5019 51.2008 83.8519 51.0008 84.2519 51.0008C84.6519 51.0008 85.0019 51.2008 85.0019 51.5008Z" fill="#021D38"/>
<path d="M88.8015 50.9006C88.6515 51.2006 88.9515 51.3006 89.5015 51.1506C90.0515 51.0006 90.5015 51.1506 90.5015 51.4506C90.5015 51.7506 90.2015 52.0006 89.8015 52.0006C89.4515 52.0006 88.8515 52.3006 88.5515 52.7006C87.8515 53.5506 88.7015 54.3006 90.4015 54.4006C91.4515 54.4506 91.5515 54.2506 91.4015 52.6006C91.3015 51.1506 91.0015 50.7006 90.1515 50.6006C89.6015 50.5006 88.9515 50.6506 88.8015 50.9006ZM90.4015 53.0506C90.3015 53.3506 90.0015 53.5506 89.7515 53.5506C89.5015 53.5506 89.2015 53.3506 89.1015 53.0506C89.0015 52.7506 89.3015 52.5006 89.7515 52.5006C90.2015 52.5006 90.5015 52.7506 90.4015 53.0506Z" fill="#021D38"/>
<path d="M92.6484 52.5004C92.6484 53.7504 92.7484 54.2504 92.8484 53.6004C92.9484 53.0004 92.9484 52.0004 92.8484 51.3504C92.7484 50.7504 92.6484 51.2504 92.6484 52.5004Z" fill="#021D38"/>
<path d="M94.0999 51.1006C94.5499 51.4506 95.0499 52.4006 95.1499 53.2506C95.2999 54.3006 95.3499 54.1506 95.2999 52.7506C95.2499 51.2006 95.0499 50.7006 94.2499 50.6006C93.3499 50.4006 93.2999 50.4506 94.0999 51.1006Z" fill="#021D38"/>
<path d="M107.697 51.0501C107.447 51.5001 107.597 51.5501 108.197 51.3501C108.697 51.1501 109.347 51.1501 109.647 51.3501C109.997 51.5501 109.747 51.8001 108.997 52.0001C107.147 52.4501 107.297 54.2501 109.147 54.2501C110.447 54.3001 110.547 54.1501 110.397 52.5001C110.297 51.1501 109.997 50.7001 109.147 50.6001C108.597 50.5001 107.897 50.7001 107.697 51.0501ZM109.997 52.9501C109.997 53.5501 108.597 54.0501 108.297 53.5501C108.147 53.3001 108.147 53.0001 108.347 52.8001C108.797 52.3501 109.997 52.4501 109.997 52.9501Z" fill="#021D38"/>
<path d="M111.552 52.7495C111.652 54.3995 111.702 54.4995 111.852 53.2495C111.952 52.3995 112.402 51.4995 112.852 51.1495C113.502 50.6495 113.502 50.5495 112.552 50.6495C111.652 50.6995 111.502 50.9995 111.552 52.7495Z" fill="#021D38"/>
<path d="M118.297 52.0002C118.747 54.6002 119.097 54.9002 119.797 53.2502L120.397 51.7502L120.947 53.2002C121.297 54.0002 121.597 54.5502 121.697 54.4502C122.197 53.9002 122.847 50.5002 122.447 50.5002C122.197 50.5002 121.997 50.9502 121.997 51.5002C121.997 52.8502 121.197 52.7502 120.747 51.3502C120.397 50.2502 120.397 50.2502 119.847 51.6502L119.297 53.0002L118.647 51.6502C117.997 50.2502 117.997 50.2502 118.297 52.0002Z" fill="#021D38"/>
<path d="M123.75 51.0004C123.55 51.3504 123.85 51.4504 124.7 51.2004C125.5 51.0004 126 51.1004 126 51.4004C126 51.7004 125.5 52.0004 124.9 52.1004C123.1 52.3504 123.35 54.2504 125.15 54.3004C126.45 54.3504 126.55 54.2504 126.4 52.5504C126.3 51.1504 126 50.7004 125.15 50.6004C124.6 50.5004 123.95 50.7004 123.75 51.0004ZM126 52.9504C126 53.5504 124.6 54.0504 124.3 53.5504C124.15 53.3004 124.15 53.0004 124.35 52.8004C124.8 52.3504 126 52.4504 126 52.9504Z" fill="#021D38"/>
<path d="M127.5 52.5C127.5 53.6 127.75 54.5 128 54.5C128.3 54.5 128.5 53.75 128.5 52.8C128.5 51.85 128.8 50.95 129.15 50.85C129.45 50.7 129.25 50.55 128.65 50.55C127.65 50.5 127.5 50.75 127.5 52.5Z" fill="#021D38"/>
<path d="M130.201 51.2003C129.501 53.0503 131.351 55.3503 132.551 54.1503C133.001 53.7003 132.901 53.6003 132.151 53.8003C131.501 54.0003 131.051 53.8003 130.851 53.3003C130.601 52.7003 130.851 52.5003 131.801 52.5003C132.751 52.5003 133.051 52.2503 132.901 51.6003C132.701 50.5003 130.601 50.1503 130.201 51.2003ZM132.251 51.5003C132.401 51.7503 132.101 52.0003 131.501 52.0003C130.901 52.0003 130.601 51.7503 130.751 51.5003C130.901 51.2003 131.251 51.0003 131.501 51.0003C131.751 51.0003 132.101 51.2003 132.251 51.5003Z" fill="#021D38"/>
<path d="M140.202 51.75C139.852 53.1 140.652 54.5 141.752 54.5C142.852 54.5 143.652 53.1 143.302 51.75C143.052 50.85 142.652 50.5 141.752 50.5C140.852 50.5 140.452 50.85 140.202 51.75ZM142.502 52.2C142.502 52.9 142.302 53.55 142.052 53.7C141.402 54.15 140.452 52.75 140.802 51.8C141.302 50.55 142.502 50.85 142.502 52.2Z" fill="#021D38"/>
<path d="M145.997 51.9506C145.997 53.5006 146.747 54.3506 148.147 54.3506C148.797 54.3506 148.997 53.9006 148.947 52.3006L148.847 50.2506L148.547 51.9506C148.147 54.3506 146.997 54.6006 146.997 52.3006C146.997 51.3006 146.797 50.5006 146.497 50.5006C146.247 50.5006 145.997 51.1506 145.997 51.9506Z" fill="#021D38"/>
<path d="M153.148 52.5004C153.148 53.7504 153.248 54.2504 153.348 53.6004C153.448 53.0004 153.448 52.0004 153.348 51.3504C153.248 50.7504 153.148 51.2504 153.148 52.5004Z" fill="#021D38"/>
<path d="M154.849 50.85C153.799 51.85 154.899 54.5 156.349 54.5C157.449 54.5 158.249 52.2 157.499 51.25C156.849 50.5 155.399 50.25 154.849 50.85ZM156.899 52.35C156.749 53.85 155.649 54.45 155.199 53.3C154.749 52.2 155.299 51 156.249 51C156.849 51 156.999 51.4 156.899 52.35Z" fill="#021D38"/>
<path d="M158.497 52.5C158.497 53.6 158.747 54.5 158.997 54.5C159.297 54.5 159.497 53.7 159.497 52.75C159.497 51.55 159.747 51 160.247 51C160.747 51 160.997 51.55 160.997 52.75C160.997 53.7 161.247 54.5 161.497 54.5C162.047 54.5 162.147 52.55 161.697 51.3C161.497 50.8 160.797 50.5 159.947 50.5C158.597 50.5 158.497 50.65 158.497 52.5Z" fill="#021D38"/>
<path d="M163.002 51.4494C163.002 51.9994 163.452 52.4994 164.052 52.6494C164.652 52.7994 164.952 53.1494 164.752 53.4994C164.502 53.8994 164.202 53.8994 163.702 53.4494C163.302 53.1494 162.852 52.9494 162.752 53.0994C162.252 53.5994 164.002 54.5994 164.752 54.2994C165.852 53.8994 165.652 52.4494 164.502 52.1494C163.952 51.9994 163.502 51.6494 163.502 51.3994C163.502 51.0994 163.952 50.9994 164.502 51.1494C165.052 51.2994 165.402 51.1994 165.202 50.9494C164.702 50.0994 163.002 50.4494 163.002 51.4494Z" fill="#021D38"/>
<path d="M173.049 50.8C172.999 51.15 173.299 52.15 173.699 53.05L174.449 54.75L175.249 52.8C175.699 51.75 175.949 50.75 175.799 50.65C175.649 50.5 175.299 51 174.949 51.8L174.399 53.25L173.749 51.75C173.399 50.9 173.049 50.5 173.049 50.8Z" fill="#021D38"/>
<path d="M7.50098 63C7.50098 63.35 38.651 63.5 100.001 63.5C161.351 63.5 192.501 63.35 192.501 63C192.501 62.65 161.351 62.5 100.001 62.5C38.651 62.5 7.50098 62.65 7.50098 63Z" fill="#021D38"/>
<path d="M58.002 74.2493C58.002 78.7493 58.852 80.1493 59.102 76.1493C59.202 74.2993 59.452 73.6993 60.202 73.5993C61.402 73.3493 62.002 74.2993 62.002 76.5993C62.002 77.6493 62.252 78.4993 62.502 78.4993C62.802 78.4993 63.002 77.4993 63.002 76.2993C63.002 73.1993 61.202 71.4993 59.602 73.0993C59.152 73.5493 59.002 73.2993 59.002 71.8493C59.002 70.8493 58.802 69.9993 58.502 69.9993C58.202 69.9993 58.002 71.7493 58.002 74.2493Z" fill="#021D38"/>
<path d="M76.999 74.251C76.999 76.751 77.199 78.501 77.499 78.501C77.799 78.501 77.999 76.751 77.999 74.251C77.999 71.751 77.799 70.001 77.499 70.001C77.199 70.001 76.999 71.751 76.999 74.251Z" fill="#021D38"/>
<path d="M113.499 74.251C113.499 76.751 113.699 78.501 113.999 78.501C114.299 78.501 114.499 76.751 114.499 74.251C114.499 71.751 114.299 70.001 113.999 70.001C113.699 70.001 113.499 71.751 113.499 74.251Z" fill="#021D38"/>
<path d="M14.498 70.851C14.498 71.101 15.048 72.151 15.748 73.251C16.398 74.351 16.998 76.001 16.998 76.851C16.998 77.751 17.248 78.501 17.498 78.501C17.798 78.501 17.998 77.901 17.998 77.201C17.998 76.451 18.698 74.651 19.548 73.201C20.598 71.301 20.848 70.501 20.398 70.501C19.998 70.501 19.248 71.451 18.648 72.601L17.648 74.751L16.548 72.601C15.598 70.751 14.498 69.801 14.498 70.851Z" fill="#021D38"/>
<path d="M39.999 71.001C39.999 71.251 40.549 71.501 41.249 71.501C42.449 71.501 42.499 71.601 42.499 75.001C42.499 77.001 42.699 78.501 42.999 78.501C43.299 78.501 43.499 77.001 43.499 75.001C43.499 71.601 43.549 71.501 44.749 71.501C45.449 71.501 45.999 71.251 45.999 71.001C45.999 70.701 44.649 70.501 42.999 70.501C41.349 70.501 39.999 70.701 39.999 71.001Z" fill="#021D38"/>
<path d="M101.399 71.051C100.899 71.301 100.499 72.101 100.499 72.801C100.499 73.851 100.899 74.251 102.499 74.851C103.849 75.401 104.499 75.951 104.499 76.601C104.499 77.101 104.399 77.501 104.299 77.501C104.199 77.501 103.749 77.651 103.349 77.801C102.949 77.951 102.149 77.551 101.549 76.951C100.799 76.151 100.499 76.001 100.499 76.551C100.499 77.651 101.549 78.501 102.799 78.501C104.749 78.501 105.499 77.951 105.499 76.501C105.499 75.351 105.149 74.951 103.449 74.301C101.999 73.701 101.499 73.251 101.599 72.601C101.799 71.501 103.899 71.201 104.299 72.201C104.699 73.201 105.499 73.251 105.499 72.251C105.499 71.501 103.999 70.501 102.899 70.501C102.549 70.501 101.849 70.751 101.399 71.051Z" fill="#021D38"/>
<path d="M149.999 74.451C149.999 76.801 150.199 78.501 150.499 78.501C150.799 78.501 150.999 77.801 150.999 77.001C150.999 75.701 151.199 75.501 152.299 75.501C154.149 75.501 155.499 74.601 155.499 73.351C155.499 71.551 154.749 70.901 152.299 70.651L149.999 70.351V74.451ZM154.249 73.001C154.249 74.051 153.999 74.301 152.649 74.401C151.099 74.551 150.999 74.451 150.999 73.001C150.999 71.551 151.099 71.451 152.649 71.601C153.999 71.701 154.249 71.951 154.249 73.001Z" fill="#021D38"/>
<path d="M122.502 72.351C122.002 72.951 121.952 73.251 122.402 73.401C122.752 73.501 123.002 74.551 123.002 76.051C123.002 78.151 123.152 78.501 124.002 78.501C124.552 78.501 125.002 78.251 125.002 78.001C125.002 77.701 124.802 77.501 124.502 77.501C123.752 77.501 123.902 73.601 124.602 73.401C125.052 73.251 125.002 72.951 124.402 72.351C123.402 71.351 123.452 71.351 122.502 72.351Z" fill="#021D38"/>
<path d="M166.551 72.3008C166.101 72.8508 166.051 73.2008 166.401 73.4508C166.701 73.6008 167.001 74.8008 167.101 76.0008C167.251 78.0008 167.401 78.2508 168.501 78.4008C169.651 78.5008 169.701 78.4508 168.901 77.8508C167.751 76.9508 167.651 73.5008 168.751 73.5008C169.151 73.5008 169.501 73.2508 169.501 73.0008C169.501 72.7008 169.151 72.5008 168.751 72.5008C168.351 72.5008 168.001 72.2508 168.001 72.0008C168.001 71.3008 167.351 71.4008 166.551 72.3008Z" fill="#021D38"/>
<path d="M22.3983 73.0495C21.2983 73.6995 21.1983 77.0995 22.1983 77.9495C23.4983 79.0495 25.6983 78.3995 26.1983 76.8495C27.1483 74.1495 24.6483 71.6495 22.3983 73.0495ZM25.1983 74.2995C25.8983 76.1495 24.6983 78.2495 23.2483 77.6995C22.4983 77.3995 22.1983 74.4995 22.8483 73.8495C23.4483 73.1995 24.8983 73.4995 25.1983 74.2995Z" fill="#021D38"/>
<path d="M27.8008 72.9515C27.4508 73.5015 27.8008 77.2515 28.2508 77.9515C28.4008 78.2515 29.4508 78.4515 30.5508 78.4015L32.5008 78.3515V75.4015C32.5008 71.9515 31.6008 71.5015 31.4008 74.8515C31.2508 76.9015 31.1008 77.2515 30.1508 77.4015C29.1008 77.5515 29.0008 77.4015 29.0008 75.0515C29.0008 72.7015 28.5008 71.8015 27.8008 72.9515Z" fill="#021D38"/>
<path d="M34.002 75.501C34.002 77.151 34.202 78.501 34.502 78.501C34.802 78.501 35.002 77.451 35.002 76.201C35.002 74.351 35.202 73.851 36.002 73.651C36.552 73.501 37.002 73.201 37.002 72.951C37.002 72.301 36.302 72.401 35.602 73.101C35.152 73.551 35.002 73.551 35.002 73.101C35.002 72.751 34.802 72.501 34.502 72.501C34.202 72.501 34.002 73.851 34.002 75.501Z" fill="#021D38"/>
<path d="M47.3494 73.4C46.3494 74.5 46.2494 77.05 47.0994 77.9C47.8494 78.65 50.3494 78.7 50.7994 77.9C51.0494 77.5 50.7994 77.45 49.9994 77.65C48.7994 77.95 47.4994 77.3 47.4994 76.45C47.4994 76.2 48.2994 76 49.2494 76C50.7494 76 50.9994 75.85 50.9994 74.85C50.9994 72.6 48.8494 71.75 47.3494 73.4ZM49.8994 74.35C49.9994 74.75 49.5994 75 48.7994 75C47.5494 75 47.1494 74.5 47.8494 73.8C48.3494 73.3 49.6494 73.65 49.8994 74.35Z" fill="#021D38"/>
<path d="M53.002 73.5005C51.802 74.7005 51.752 75.9005 52.802 77.4005C53.702 78.6505 55.602 78.8505 56.502 77.7505C57.452 76.6505 56.652 76.2005 55.552 77.2005C54.702 78.0005 54.552 78.0005 53.802 77.2505C52.802 76.2505 52.802 75.5005 53.702 74.2005C54.352 73.3505 54.602 73.3505 55.502 73.9005C56.902 74.7505 57.302 74.4005 56.252 73.3005C55.152 72.2505 54.202 72.3005 53.002 73.5005Z" fill="#021D38"/>
<path d="M64.499 75.6008C64.499 79.0508 65.399 79.5008 65.599 76.1008C65.749 74.1508 65.899 73.7508 66.749 73.7508C67.599 73.7508 67.749 74.1508 67.899 76.1008C68.099 79.2508 68.999 79.2008 68.999 76.0508C68.999 73.3008 68.449 72.6508 66.149 72.6508H64.499V75.6008Z" fill="#021D38"/>
<path d="M71.3494 73.4003C70.3494 74.5003 70.2494 77.0503 71.0994 77.9003C72.0494 78.8503 74.3994 78.6503 74.9994 77.5503C75.7494 76.0503 75.5994 74.2503 74.5994 73.3503C73.3994 72.2503 72.3494 72.3003 71.3494 73.4003ZM74.1994 74.3003C75.0494 76.5003 73.6994 78.7003 72.2494 77.5003C71.4994 76.8503 71.1994 74.4503 71.8494 73.8503C72.4494 73.2003 73.8994 73.5003 74.1994 74.3003Z" fill="#021D38"/>
<path d="M80.3484 73.4003C79.3484 74.5003 79.2484 77.0503 80.0984 77.9003C81.0484 78.8503 83.3984 78.6503 83.9984 77.5503C84.7484 76.0503 84.5984 74.2503 83.5984 73.3503C82.3984 72.2503 81.3484 72.3003 80.3484 73.4003ZM83.3984 75.3003C83.5984 77.2003 82.3984 78.4503 81.2484 77.5003C80.4984 76.8503 80.1984 74.4503 80.8484 73.8003C81.0484 73.6003 81.6484 73.5003 82.2484 73.6003C82.9484 73.7003 83.2984 74.2003 83.3984 75.3003Z" fill="#021D38"/>
<path d="M86.598 73.1506C85.698 74.2506 85.448 75.8506 85.998 77.2506C86.448 78.4006 86.748 78.6006 88.048 78.4006C89.198 78.2006 89.498 78.3506 89.398 78.9506C89.298 79.4506 88.698 79.7506 87.848 79.7506C87.098 79.7006 86.498 79.8506 86.498 80.0506C86.498 80.7506 88.448 81.0506 89.498 80.5006C90.348 80.0506 90.498 79.5006 90.498 76.3506V72.7506L88.798 72.6506C87.898 72.5506 86.898 72.8006 86.598 73.1506ZM89.398 75.4506C89.598 77.2006 88.848 78.1006 87.648 77.6506C86.998 77.4006 86.748 74.4506 87.348 73.8006C88.198 73.0006 89.248 73.8506 89.398 75.4506Z" fill="#021D38"/>
<path d="M91.6518 73.1003C91.8018 73.4503 92.3518 74.9503 92.8018 76.4503C93.7018 79.0503 93.7018 79.1503 92.7518 79.8003C91.7018 80.5503 91.9518 81.2003 93.1018 80.7503C93.5518 80.5503 94.5018 78.8003 95.2018 76.8503C96.6518 72.9003 96.7018 72.5003 96.0518 72.5003C95.8018 72.5003 95.2518 73.4503 94.8518 74.6003C94.3518 76.0003 94.0018 76.5003 93.8018 76.0003C93.6518 75.6003 93.3018 74.6503 93.0518 73.8503C92.7518 73.1003 92.3018 72.5003 91.9518 72.5003C91.6518 72.5003 91.5518 72.8003 91.6518 73.1003Z" fill="#021D38"/>
<path d="M107.798 73.3003C106.848 74.2003 106.748 77.0503 107.598 77.9003C108.548 78.8503 110.898 78.6503 111.498 77.5503C112.248 76.0503 112.098 74.2503 111.098 73.3503C109.948 72.3003 108.798 72.2503 107.798 73.3003ZM110.698 74.3003C111.548 76.5003 110.198 78.7003 108.748 77.5003C107.998 76.8503 107.698 74.4503 108.348 73.8503C108.948 73.2003 110.398 73.5003 110.698 74.3003Z" fill="#021D38"/>
<path d="M116 74.901C116 77.551 116.6 78.501 118.35 78.501C119.85 78.501 119.85 77.601 118.4 77.401C117.4 77.251 117.25 76.901 117.1 74.851C116.9 71.751 116 71.801 116 74.901Z" fill="#021D38"/>
<path d="M119.897 75.001C119.747 77.751 119.847 78.501 120.547 78.501C120.797 78.501 120.997 77.151 120.997 75.501C120.997 71.851 120.147 71.501 119.897 75.001Z" fill="#021D38"/>
<path d="M125.999 75.501C125.999 77.151 126.199 78.501 126.499 78.501C126.799 78.501 126.999 77.151 126.999 75.501C126.999 73.851 126.799 72.501 126.499 72.501C126.199 72.501 125.999 73.851 125.999 75.501Z" fill="#021D38"/>
<path d="M129.5 73.501C127.65 75.351 128.8 78.501 131.35 78.501C133.6 78.501 134.6 74.551 132.75 73.201C131.45 72.251 130.65 72.351 129.5 73.501ZM132.4 75.551C132.55 77.651 131.5 78.451 130.25 77.201C129.35 76.251 129.3 74.901 130.1 74.101C131.2 73.001 132.25 73.651 132.4 75.551Z" fill="#021D38"/>
<path d="M134.998 75.501C134.998 79.051 135.898 79.551 136.098 76.101C136.248 74.101 136.398 73.751 137.398 73.601C138.398 73.451 138.498 73.601 138.498 75.951C138.498 77.901 138.698 78.501 139.248 78.501C140.048 78.501 140.248 76.301 139.698 74.151C139.348 72.801 137.698 72.201 136.748 73.001C136.198 73.451 135.998 73.451 135.998 73.051C135.998 72.751 135.798 72.501 135.498 72.501C135.198 72.501 134.998 73.851 134.998 75.501Z" fill="#021D38"/>
<path d="M142.151 72.8507C141.801 72.9507 141.501 73.6007 141.501 74.2507C141.501 75.1007 141.901 75.5507 143.001 75.9507C144.551 76.4507 144.901 77.2007 143.951 77.7507C143.701 77.9507 143.001 77.7007 142.451 77.2007C141.301 76.2007 140.551 76.6007 141.501 77.7507C142.551 79.0007 145.201 78.5507 145.401 77.1007C145.551 76.2007 145.251 75.8007 144.051 75.3507C143.201 75.0507 142.501 74.5007 142.501 74.1507C142.501 73.3007 144.351 73.3007 144.651 74.1007C144.751 74.4507 145.051 74.6007 145.251 74.4007C145.451 74.2007 145.351 73.7007 145.001 73.2507C144.401 72.5007 143.301 72.3507 142.151 72.8507Z" fill="#021D38"/>
<path d="M157.502 73.2502C157.152 73.7002 157.052 74.2002 157.252 74.4002C157.452 74.6002 157.752 74.4502 157.852 74.1002C158.152 73.3002 160.002 73.3002 160.002 74.1502C160.002 74.5002 159.252 75.0002 158.402 75.2502C157.102 75.6502 156.752 76.0002 156.752 77.0002C156.752 78.1502 156.952 78.2502 159.052 78.3502L161.352 78.4502L161.102 75.8502C160.952 74.4002 160.602 73.1002 160.302 72.9002C159.402 72.3002 158.152 72.4502 157.502 73.2502ZM160.002 76.7502C160.002 77.2002 159.552 77.5002 158.752 77.5002C157.552 77.5002 157.152 77.0002 157.852 76.3502C158.452 75.7002 160.002 76.0002 160.002 76.7502Z" fill="#021D38"/>
<path d="M162.999 75.601C162.999 77.201 163.199 78.501 163.499 78.501C163.799 78.501 163.999 77.501 163.999 76.251C163.999 74.701 164.249 73.901 164.749 73.701C165.949 73.251 165.599 72.601 164.249 72.701C163.049 72.751 162.999 72.901 162.999 75.601Z" fill="#021D38"/>
<path d="M170.497 75.6008C170.497 79.0508 171.397 79.5008 171.597 76.1008C171.747 74.1508 171.897 73.7508 172.747 73.7508C173.597 73.7508 173.747 74.1508 173.897 76.1008C174.097 79.2508 174.997 79.2008 174.997 76.0508C174.997 73.3008 174.447 72.6508 172.147 72.6508H170.497V75.6008Z" fill="#021D38"/>
<path d="M177.347 73.4C176.347 74.5 176.247 77.05 177.097 77.9C177.847 78.65 180.347 78.7 180.797 77.9C181.047 77.5 180.797 77.45 179.997 77.65C178.797 77.95 177.497 77.3 177.497 76.45C177.497 76.2 178.297 76 179.247 76C180.747 76 180.997 75.85 180.997 74.85C180.997 72.6 178.847 71.75 177.347 73.4ZM179.897 74.35C179.997 74.75 179.597 75 178.797 75C177.547 75 177.147 74.5 177.847 73.8C178.347 73.3 179.647 73.65 179.897 74.35Z" fill="#021D38"/>
<path d="M182.497 75.601C182.497 77.201 182.697 78.501 182.997 78.501C183.297 78.501 183.497 77.501 183.497 76.301C183.497 74.601 183.747 73.951 184.597 73.401C185.647 72.701 185.647 72.651 184.097 72.651H182.497V75.601Z" fill="#021D38"/>
<path d="M8.14914 75.3508C8.59914 75.4508 9.39914 75.4508 9.89914 75.3508C10.3491 75.2008 9.94914 75.1008 8.99914 75.1008C8.04914 75.1008 7.64914 75.2008 8.14914 75.3508Z" fill="#021D38"/>
<path d="M189.899 75.3508C190.499 75.4508 191.399 75.4508 191.899 75.3508C192.349 75.2008 191.849 75.1008 190.749 75.1508C189.649 75.1508 189.249 75.2508 189.899 75.3508Z" fill="#021D38"/>
</svg>
