<svg width="180" height="54" viewBox="0 0 180 54" fill="none" xmlns="http://www.w3.org/2000/svg">
<rect width="180" height="54" fill="white"/>
<path d="M34.1583 46.983C33.1598 47.0448 32.0449 46.9268 30.9329 46.8094C30.5059 46.7639 30.0901 46.6161 29.6754 46.479C29.2286 46.3259 28.773 46.2002 28.311 46.1025C27.7615 45.9901 27.2659 45.7249 26.7276 45.5968C26.1314 45.4574 25.6633 45.0956 25.1481 44.8101C24.821 44.628 24.4558 44.514 24.1181 44.3398C23.5365 44.0397 23.0505 43.6048 22.4936 43.2665C21.5659 42.7001 20.7888 41.9534 20.0088 41.2004C19.297 40.5053 18.6376 39.7586 18.036 38.9662C17.3409 38.0621 16.6925 37.1119 16.1991 36.0842C15.9018 35.4661 15.5748 34.848 15.4051 34.1653C15.3079 33.7753 15.0618 33.4348 14.9269 33.0465C14.7157 32.4402 14.6257 31.8103 14.4561 31.1922C14.2161 30.3275 14.1824 29.4391 14.1099 28.5513C14.0537 27.8826 13.9706 27.2162 14.0105 26.5458C14.0554 25.7766 14.1285 25.0084 14.2032 24.242C14.2408 23.8548 14.2397 23.4553 14.3543 23.0844C14.5285 22.5186 14.6168 21.932 14.7696 21.3656C14.9129 20.8357 15.209 20.3378 15.3838 19.8169C15.7243 18.8055 16.2491 17.8868 16.6958 16.9293C16.7406 16.8482 16.7923 16.7711 16.8503 16.6989C17.3207 16.0111 17.7584 15.2981 18.2703 14.6429C18.6766 14.1254 19.1772 13.6792 19.6267 13.1965C20.2387 12.5408 20.9017 11.9367 21.5704 11.3422C21.9699 10.9882 22.4492 10.7208 22.9077 10.4387C23.0909 10.3263 23.2893 10.2381 23.4309 10.0729C23.5941 9.8922 23.7992 9.75442 24.0282 9.67167C24.6019 9.44185 25.1385 9.13898 25.6774 8.84173C25.9021 8.71699 26.1533 8.67934 26.391 8.59955C26.8692 8.4394 27.3019 8.17811 27.7784 8.01235C28.2549 7.84659 28.7589 7.74938 29.2517 7.62857C29.636 7.53416 30.0198 7.43695 30.4014 7.33019C30.6374 7.26389 30.8807 7.28861 31.1206 7.2549C32.3113 7.08633 33.5065 6.95259 34.7134 7.01609C35.2709 7.04531 35.8288 7.08464 36.3744 7.20489C36.6329 7.26108 36.8925 7.24591 37.151 7.28018C37.8135 7.36728 38.4541 7.5381 39.1036 7.67801C39.9285 7.8567 40.677 8.21689 41.4597 8.49503C42.0627 8.70968 42.5835 9.10639 43.2213 9.22551C43.2582 9.23374 43.2927 9.25005 43.3225 9.27327C43.8686 9.68347 44.5126 9.93183 45.0582 10.3516C45.6937 10.841 46.445 11.1798 46.9569 11.8322C47.0456 11.9288 47.153 12.0062 47.2727 12.0598C47.7851 12.3289 48.0537 12.8526 48.4757 13.2078C49.5299 14.0945 50.2013 15.2767 50.9908 16.3657C51.3881 16.9147 51.6089 17.5794 51.9787 18.1458C52.4793 18.9168 52.7541 19.7754 53.0244 20.6267C53.2699 21.4032 53.5515 22.1719 53.7144 22.9749C53.888 23.8279 54.0358 24.6808 54.0976 25.554C54.1538 26.3295 54.137 27.1021 54.1341 27.8753C54.1243 28.4779 54.0693 29.079 53.9695 29.6734C53.8824 30.2404 53.8122 30.809 53.7009 31.3732C53.6105 31.8345 53.3705 32.2396 53.2699 32.6931C53.0766 33.5584 52.7294 34.3726 52.3889 35.1829C52.1304 35.7976 51.7533 36.3629 51.4286 36.9496C51.3836 37.0299 51.328 37.1058 51.2903 37.1895C50.9728 37.9065 50.3946 38.4425 49.9743 39.0876C49.6827 39.5371 49.336 39.9339 48.9798 40.3278C48.3159 41.0548 47.6071 41.7394 46.8574 42.3776C46.1781 42.962 45.4077 43.4132 44.6851 43.9335C44.1917 44.2868 43.6543 44.5741 43.0865 44.7882C42.6768 44.9433 42.356 45.2669 41.9424 45.422C41.4226 45.6187 40.9029 45.8154 40.3724 45.9839C39.7903 46.1637 39.1997 46.3098 38.6193 46.5037C37.9201 46.731 37.1967 46.8755 36.4638 46.9341C35.7384 46.9931 35.0107 46.9954 34.1583 46.983ZM53.4222 23.5682C53.4222 23.5025 53.4447 23.4283 53.366 23.3856C53.1328 22.5742 52.8839 21.7673 52.6721 20.9503C52.5383 20.4345 52.2619 19.9687 52.1663 19.4438C52.1281 19.2303 52.0939 19.0202 51.9416 18.855C51.6292 18.5116 51.4359 18.1071 51.2589 17.6806C51.1285 17.3709 51.0144 17.0254 50.8015 16.7708C50.3289 16.2044 49.9845 15.556 49.5568 14.9615C49.3214 14.635 49.0831 14.317 48.7775 14.0579C48.4527 13.7804 48.1436 13.4949 47.8908 13.1403C47.7297 12.9133 47.5332 12.7137 47.3086 12.5492C46.922 12.2643 46.5298 11.9806 46.1927 11.6339C46.064 11.5132 45.9279 11.4006 45.7853 11.2967C45.3037 10.9118 44.7059 10.7095 44.2322 10.3156C43.6787 9.85541 43.0522 9.55536 42.3666 9.34183C42.0357 9.23844 41.7592 8.99794 41.3996 8.92545C40.8208 8.80858 40.332 8.43322 39.7594 8.2978C38.7598 8.06124 37.7697 7.78197 36.7414 7.6679C35.889 7.5735 35.0332 7.55945 34.1791 7.51337C33.2845 7.46561 32.3933 7.61059 31.4988 7.63475C31.2211 7.64383 30.9442 7.66878 30.6694 7.70948C30.3412 7.75668 30.0434 7.88536 29.7287 7.96403C29.191 8.09889 28.615 8.07641 28.1104 8.3495C27.2968 8.78835 26.3652 8.88837 25.5257 9.27777C24.5738 9.71831 23.6882 10.2617 22.8229 10.8292C21.8851 11.4439 21.0428 12.1946 20.2527 13.0049C19.7329 13.5382 19.1851 14.0512 18.7221 14.63C17.8663 15.6976 17.0925 16.8253 16.4958 18.0655C15.8046 19.4961 15.2405 20.9655 14.855 22.5119C14.4965 23.9515 14.3847 25.4107 14.3493 26.8801C14.3285 27.7629 14.4167 28.6451 14.4999 29.5262C14.5802 30.3724 14.8072 31.1866 14.9809 32.0126C15.1365 32.7555 15.4776 33.4342 15.7243 34.1479C15.9912 34.9171 16.3536 35.6392 16.7059 36.368C16.9217 36.8147 17.2409 37.1968 17.4926 37.6193C17.7651 38.0762 18.0467 38.5353 18.3866 38.9314C18.9912 39.6355 19.5357 40.398 20.2555 41.0009C20.3679 41.0948 20.4803 41.1987 20.5927 41.2903C20.8242 41.483 20.968 41.7443 21.1894 41.9444C21.5266 42.2478 21.9199 42.4574 22.2778 42.7282C22.9066 43.2075 23.5658 43.6454 24.2513 44.0392C24.6704 44.2808 25.1503 44.4291 25.5493 44.6887C26.3646 45.2192 27.2912 45.4428 28.1846 45.7564C28.76 45.9575 29.377 46.0238 29.9653 46.2121C30.8466 46.4848 31.7615 46.6335 32.6838 46.6537C33.8076 46.688 34.9315 46.8605 36.0648 46.7279C36.9426 46.6259 37.81 46.4488 38.6575 46.1986C38.9424 46.1143 39.2194 45.998 39.5127 45.944C39.8622 45.88 40.2078 45.8041 40.532 45.6552C41.081 45.4029 41.712 45.3703 42.2211 45.0017C42.4218 44.8495 42.6419 44.725 42.8757 44.6314C43.5607 44.3746 44.1844 44.0004 44.7862 43.5879C45.2358 43.2761 45.6662 42.9305 46.1196 42.622C46.3398 42.4828 46.5479 42.3253 46.7417 42.1511C47.4216 41.4999 48.1358 40.8852 48.7707 40.1845C49.0939 39.8366 49.3964 39.4699 49.6765 39.0865C49.9524 38.701 50.1727 38.2768 50.507 37.9295C50.6768 37.7435 50.821 37.5356 50.9358 37.3114C51.2167 36.799 51.4229 36.2399 51.7539 35.7651C52.2664 35.0306 52.4141 34.1591 52.7738 33.3696C52.8524 33.1966 52.83 32.9791 52.9036 32.8015C53.5402 31.2282 53.7751 29.5908 53.7633 27.9084C53.7532 26.5385 53.8369 25.1641 53.5947 23.8031C53.5722 23.6885 53.5975 23.5576 53.4222 23.5682Z" fill="#F1B087"/>
<path d="M103.89 26.6136C103.89 24.5757 103.89 22.5375 103.89 20.4989C103.89 19.7875 104.212 19.5352 104.814 19.4829C105.464 19.4267 106.112 19.4268 106.754 19.574C106.954 19.6183 107.136 19.7211 107.277 19.8693C107.418 20.0175 107.512 20.2044 107.546 20.4062C107.551 20.4337 107.546 20.4624 107.552 20.4904C107.577 20.6377 107.591 20.8012 107.761 20.8546C107.917 20.9029 108.042 20.7984 108.121 20.6905C108.303 20.4298 108.56 20.2719 108.813 20.096C109.524 19.5934 110.364 19.3067 111.234 19.2705C112.415 19.2206 113.582 19.553 114.56 20.2185C114.872 20.4281 115.016 20.7804 115.234 21.0664C115.428 21.3209 115.571 21.3423 115.796 21.1153C116.042 20.872 116.278 20.618 116.526 20.3792C116.885 20.0347 117.308 19.8139 117.772 19.6167C118.515 19.3003 119.277 19.2368 120.045 19.3093C121.131 19.4121 122.227 19.6465 122.946 20.5416C123.527 21.2681 124.042 22.0424 124.095 23.0735C124.263 26.418 124.115 29.7603 124.17 33.1064C124.176 33.4807 123.938 33.6829 123.533 33.7408C122.74 33.8532 121.946 33.7903 121.153 33.7942C120.967 33.7912 120.783 33.761 120.606 33.7043C120.213 33.5846 120.063 33.2817 120.061 32.8929C120.058 32.2186 120.061 31.5443 120.061 30.8734C120.061 28.9753 120.061 27.0771 120.051 25.179C120.051 24.6941 119.925 24.2238 119.79 23.7624C119.631 23.2146 119.203 23.0218 118.683 22.9864C118.226 22.9543 117.767 23.0174 117.335 23.1719C117.013 23.2876 116.788 23.5399 116.622 23.8153C116.218 24.4828 116.06 25.2082 116.071 26C116.1 28.2156 116.077 30.4317 116.082 32.6479C116.082 33.6268 115.711 33.7408 114.959 33.7869C114.178 33.8352 113.39 33.8431 112.608 33.7408C112.215 33.6903 111.969 33.425 111.968 33.003C111.968 30.6464 111.968 28.2901 111.968 25.9342C111.968 25.338 111.973 24.7385 111.843 24.1563C111.623 23.1657 110.898 22.8943 110.033 22.9977C109.662 23.0421 109.276 23.0612 108.96 23.3348C108.426 23.795 108.103 24.362 108.067 25.0616C107.931 27.666 108.016 30.2733 108.007 32.8794C108.007 33.4267 107.743 33.6762 107.23 33.738C106.365 33.8425 105.501 33.8217 104.633 33.7504C104.144 33.7099 103.89 33.3481 103.887 32.8429C103.885 30.7655 103.89 28.6898 103.89 26.6136ZM104.258 26.7636C104.258 28.8112 104.258 30.8588 104.258 32.9064C104.258 33.2492 104.406 33.4003 104.735 33.4239C105.545 33.4801 106.356 33.4318 107.166 33.4239C107.465 33.4205 107.626 33.2475 107.627 32.9497C107.63 32.1208 107.619 31.2909 107.63 30.4621C107.655 28.6522 107.528 26.8372 107.743 25.0329C107.861 24.0389 108.274 23.205 109.278 22.8123C110.04 22.515 110.795 22.5189 111.493 22.9938C111.805 23.2073 112.06 23.4731 112.14 23.8967C112.277 24.6182 112.258 25.347 112.271 26.068C112.31 28.3398 112.284 30.6121 112.286 32.8839C112.286 33.2458 112.363 33.3267 112.71 33.375C113.493 33.484 114.279 33.42 115.063 33.42C115.503 33.42 115.658 33.2289 115.658 32.7895C115.658 30.4801 115.658 28.1706 115.658 25.8612C115.658 25.4189 115.714 24.9829 115.891 24.5789C116.121 24.0603 116.323 23.5034 116.784 23.1432C117.409 22.6549 118.147 22.5122 118.919 22.6701C119.353 22.7589 119.784 22.9263 119.973 23.377C120.193 23.9001 120.405 24.4446 120.419 25.0127C120.439 25.7864 120.514 26.5585 120.49 27.3345C120.474 27.8576 120.487 28.3813 120.487 28.905C120.487 29.9993 120.487 31.0933 120.487 32.1871C120.487 32.4911 120.388 32.7918 120.484 33.1014C120.548 33.3104 120.665 33.4183 120.88 33.4262C121.737 33.4565 122.594 33.4767 123.452 33.4262C123.737 33.4082 123.851 33.2947 123.856 33.003C123.861 32.7344 123.856 32.4664 123.856 32.1978C123.856 29.4392 123.856 26.681 123.856 23.9231C123.856 23.0365 123.666 22.2093 123.2 21.4232C122.797 20.7489 122.289 20.2202 121.558 19.9903C120.55 19.6734 119.5 19.6577 118.455 19.8044C117.632 19.9195 116.935 20.2702 116.426 20.958C116.252 21.1779 116.059 21.3819 115.849 21.5676C115.548 21.8486 115.082 21.7109 114.906 21.226C114.625 20.4629 113.972 20.1859 113.312 19.9583C112.491 19.674 111.616 19.6892 110.761 19.7566C110.296 19.7931 109.812 19.8561 109.388 20.1005C108.896 20.3848 108.451 20.7186 108.111 21.1895C107.839 21.5659 107.458 21.4929 107.276 21.0675C107.225 20.949 107.235 20.8298 107.231 20.7096C107.212 20.1263 107.049 19.9538 106.472 19.9061C106.425 19.9027 106.38 19.8864 106.334 19.883C105.756 19.8459 105.177 19.8055 104.603 19.91C104.299 19.9662 104.205 20.1224 104.236 20.4309C104.249 20.5606 104.256 20.691 104.255 20.8214C104.258 22.8008 104.259 24.7816 104.258 26.7636Z" fill="#9D9D9D"/>
<path d="M138.936 40.2004C138.248 40.2044 137.704 40.2319 137.169 40.1296C136.413 39.9841 136.08 39.7756 136.186 38.7957C136.227 38.4136 136.27 38.0292 136.38 37.6494C136.576 36.9751 136.952 36.7548 137.636 36.9526C138.335 37.1554 138.998 37.0217 139.609 36.6362C139.755 36.5441 139.845 36.3935 139.913 36.2401C140.186 35.6192 140.463 34.9988 140.665 34.351C140.841 33.789 140.688 33.6334 140.096 33.7154C139.753 33.7603 139.405 33.7638 139.06 33.7261C138.636 33.6823 138.316 33.4277 138.238 33.008C138.121 32.3747 137.869 31.783 137.718 31.1661C137.566 30.5491 137.477 29.9175 137.218 29.3494C136.798 28.4284 136.706 27.4164 136.329 26.4837C136.187 26.1342 136.157 25.7307 136.048 25.3565C135.909 24.8732 135.624 24.4366 135.543 23.945C135.409 23.1459 135.066 22.4087 134.917 21.6153C134.841 21.2085 134.678 20.8179 134.549 20.4212C134.387 19.9217 134.522 19.6346 135.036 19.5379C135.76 19.3966 136.503 19.3723 137.235 19.466C137.485 19.4991 137.737 19.4738 137.989 19.5165C138.527 19.607 138.727 19.7554 138.831 20.2954C138.952 20.9438 139.151 21.5686 139.355 22.1907C139.57 22.8481 139.6 23.5449 139.804 24.1967C140.099 25.1295 140.197 26.1032 140.472 27.0394C140.655 27.662 140.907 28.2655 140.994 28.9167C141.043 29.291 141.055 29.6742 141.198 30.0321C141.254 30.1732 141.297 30.3131 141.497 30.3131C141.704 30.3131 141.729 30.1569 141.784 30.0231C142.03 29.418 142.148 28.7807 142.251 28.1385C142.313 27.7451 142.564 27.4024 142.615 27.004C142.745 25.9881 143.145 25.0373 143.33 24.0349C143.431 23.4921 143.712 22.9914 143.858 22.4615C144.041 21.7928 144.175 21.1129 144.363 20.4386C144.558 19.7464 144.715 19.6154 145.375 19.53C145.864 19.4677 146.361 19.4143 146.851 19.4368C147.319 19.4581 147.802 19.4446 148.256 19.6374C148.593 19.7801 148.688 19.9251 148.556 20.2611C148.43 20.5808 148.351 20.9202 148.174 21.2197C148.066 21.4006 148.048 21.608 148.027 21.8097C147.968 22.3716 147.647 22.8633 147.578 23.41C147.478 24.1826 147.103 24.8676 146.959 25.629C146.832 26.2949 146.523 26.927 146.285 27.571C146.144 27.9547 146.136 28.3672 145.988 28.751C145.624 29.7012 145.466 30.7176 145.071 31.6611C144.742 32.4478 144.548 33.2839 144.34 34.102C144.112 34.9865 143.735 35.8108 143.495 36.6829C143.397 37.0409 143.273 37.3911 143.124 37.7308C142.618 38.876 141.841 39.7037 140.595 40.0549C139.988 40.2229 139.391 40.183 138.936 40.2004ZM136.44 19.8526C136.038 19.8526 135.635 19.8486 135.232 19.8526C134.888 19.8571 134.737 20.0464 134.856 20.3583C135.009 20.7782 135.124 21.2107 135.2 21.6507C135.29 22.1193 135.537 22.5391 135.604 23.0111C135.665 23.3972 135.772 23.7745 135.923 24.1349C136.092 24.5563 136.303 24.9777 136.378 25.42C136.526 26.3027 136.85 27.1344 137.059 27.9986C137.284 28.9336 137.772 29.7911 137.902 30.7637C137.973 31.2852 138.285 31.7521 138.34 32.2848C138.368 32.5607 138.489 32.8023 138.591 33.0501C138.698 33.3075 138.888 33.4328 139.183 33.4266C139.556 33.4193 139.924 33.3491 140.3 33.3704C140.891 33.4008 141.069 33.7003 140.975 34.2245C140.852 34.8836 140.56 35.4776 140.3 36.0816C140.072 36.6143 139.691 37.061 139.12 37.2459C138.576 37.4229 138.001 37.4212 137.438 37.2931C137.018 37.1981 136.886 37.247 136.703 37.6303C136.454 38.159 136.43 38.7282 136.458 39.2958C136.472 39.5576 136.647 39.7189 136.93 39.7689C137.142 39.7996 137.356 39.8183 137.57 39.8251C138.602 39.8897 139.636 39.9751 140.653 39.7015C141.515 39.4694 142.127 38.9367 142.58 38.1697C143.005 37.4499 143.184 36.6497 143.45 35.8771C143.608 35.4197 143.819 34.978 143.933 34.5094C144.163 33.5682 144.471 32.6506 144.72 31.7167C144.86 31.193 145.116 30.7137 145.256 30.19C145.572 29.0038 145.893 27.8188 146.3 26.659C146.396 26.387 146.504 26.119 146.586 25.8425C147.127 24.0079 147.58 22.1463 148.221 20.3409C148.3 20.1206 148.23 19.9734 148.013 19.9099C147.77 19.8458 147.521 19.8097 147.27 19.8026C146.615 19.7672 145.964 19.8509 145.311 19.8588C144.966 19.8638 144.83 19.9852 144.739 20.3201C144.573 20.9303 144.398 21.5377 144.269 22.1581C144.079 23.0796 143.669 23.9332 143.467 24.8552C143.129 26.3797 142.695 27.8817 142.307 29.3949C142.176 29.9289 142.006 30.4523 141.797 30.961C141.741 31.0891 141.667 31.229 141.503 31.2234C141.362 31.2183 141.292 31.0997 141.218 30.9834C141.055 30.712 140.938 30.4157 140.871 30.1063C140.746 29.5905 140.764 29.0471 140.596 28.5431C140.277 27.5878 139.926 26.6477 139.835 25.6346C139.787 25.1019 139.498 24.6266 139.438 24.0961C139.391 23.6628 139.303 23.2348 139.176 22.8178C138.933 22.0311 138.6 21.263 138.563 20.4212C138.55 20.1262 138.357 19.9352 138.114 19.9026C137.56 19.8312 137 19.8571 136.44 19.8526Z" fill="#9D9D9D"/>
<path d="M85.881 33.8055C85.4146 33.8021 84.9493 33.8027 84.4835 33.7454C83.9165 33.6751 83.7232 33.5251 83.5929 32.9711C83.494 32.5507 83.1995 32.2119 83.0939 31.7944C82.8759 30.9341 82.3825 30.1857 82.11 29.3428C81.915 28.7376 81.6683 28.1448 81.4447 27.5447C81.3823 27.3761 81.3194 27.1705 81.0761 27.18C80.8451 27.1884 80.7727 27.3795 80.7092 27.5526C80.4462 28.2673 80.1793 28.9809 79.9399 29.7036C79.7921 30.1491 79.4904 30.5234 79.3701 30.9735C79.1763 31.6927 78.7745 32.3344 78.6009 33.0553C78.4947 33.4953 78.189 33.6791 77.8097 33.7296C76.8177 33.8498 75.815 33.8517 74.8226 33.7353C74.436 33.6931 74.2854 33.3633 74.4057 32.9008C74.5068 32.5131 74.7681 32.2102 74.9434 31.863C75.0558 31.6382 75.1502 31.4101 75.2508 31.1819C75.5834 30.4295 75.8127 29.6322 76.2414 28.9191C76.6106 28.3044 76.8213 27.6132 77.1068 26.9592C77.3135 26.4849 77.1922 25.9809 77.0039 25.5224C76.6482 24.6576 76.4235 23.7361 75.9105 22.9376C75.8942 22.9147 75.8819 22.8893 75.8739 22.8623C75.7363 22.2746 75.4699 21.7323 75.2794 21.1631C75.183 20.8623 75.0636 20.5694 74.9221 20.2871C74.8842 20.2206 74.8631 20.1459 74.8604 20.0695C74.8578 19.993 74.8737 19.917 74.9069 19.8481C74.94 19.7792 74.9894 19.7193 75.0508 19.6736C75.1121 19.6279 75.1837 19.5978 75.2592 19.5858C76.3606 19.3847 77.4641 19.4122 78.561 19.5993C78.7344 19.6276 78.8935 19.7127 79.0133 19.8411C79.1332 19.9695 79.2071 20.1341 79.2235 20.309C79.2892 20.9468 79.6286 21.4817 79.7994 22.0745C80.0635 22.9915 80.4175 23.8822 80.6086 24.8206C80.6546 25.0382 80.7156 25.2525 80.7912 25.4617C80.8305 25.5741 80.9036 25.6825 81.0463 25.6938C81.189 25.705 81.2587 25.6061 81.3216 25.4949C81.4902 25.1987 81.5425 24.8616 81.611 24.543C81.742 23.9311 82.0044 23.3686 82.1881 22.7775C82.2235 22.6728 82.2496 22.5653 82.2662 22.456C82.3438 21.8379 82.7157 21.3216 82.8742 20.7299C82.8933 20.6585 82.913 20.5888 82.927 20.5163C83.0641 19.8066 83.3389 19.5824 84.0542 19.5184C84.4251 19.4852 84.801 19.4498 85.1668 19.4465C85.7484 19.4414 86.3429 19.4465 86.9132 19.6027C87.297 19.7089 87.3964 19.996 87.2026 20.3528C87.1118 20.5247 87.0445 20.7081 87.0025 20.8979C86.9722 21.0243 86.9576 21.1631 86.893 21.2704C86.616 21.7301 86.539 22.2661 86.321 22.7426C85.967 23.5158 85.7383 24.3351 85.3134 25.0875C84.9038 25.8129 84.8195 26.6456 85.2179 27.4475C85.3208 27.6537 85.4725 27.8352 85.5843 28.0375C85.9383 28.6809 86.176 29.3754 86.4474 30.0547C86.5165 30.2273 86.5631 30.4099 86.6592 30.57C86.9525 31.0583 87.034 31.6376 87.3464 32.1198C87.5268 32.4007 87.724 32.671 87.8016 33.007C87.8937 33.4099 87.6926 33.6864 87.2751 33.7465C86.8126 33.8105 86.3474 33.8027 85.881 33.8055ZM85.9445 33.4728C86.3283 33.4728 86.712 33.4728 87.0953 33.4728C87.5324 33.4728 87.678 33.2509 87.4745 32.8677C87.279 32.4985 87.002 32.1619 86.8638 31.7736C86.5929 31.0128 86.2114 30.2981 85.9445 29.5423C85.6253 28.6432 85.0848 27.8504 84.7538 26.9609C84.6701 26.7361 84.5324 26.5001 84.6206 26.263C84.8454 25.6623 84.9797 25.0268 85.3084 24.4649C85.5 24.1368 85.6527 23.7876 85.7635 23.4242C85.9557 22.7971 86.2131 22.1925 86.4575 21.5862C86.6261 21.1653 86.7587 20.7349 86.9149 20.3118C86.9823 20.1275 86.966 19.9539 86.7463 19.928C86.535 19.9039 86.3271 19.8522 86.1097 19.8544C85.3629 19.8617 84.6167 19.8426 83.871 19.9106C83.562 19.9381 83.3906 20.0488 83.3091 20.3495C83.2529 20.5742 83.2271 20.8052 83.1226 21.0192C82.6798 21.9262 82.4769 22.9174 82.1527 23.8653C81.8976 24.6104 81.7212 25.387 81.4784 26.141C81.4082 26.3608 81.3908 26.5675 81.4908 26.7878C81.6263 27.074 81.7425 27.3689 81.8386 27.6706C82.0454 28.3673 82.4005 29.0102 82.5691 29.7193C82.5947 29.8184 82.6351 29.9131 82.6888 30.0002C83.1816 30.8206 83.376 31.7663 83.7918 32.6187C83.8328 32.723 83.8587 32.8325 83.8688 32.9441C83.9216 33.2649 84.0374 33.37 84.347 33.4228C84.8802 33.5111 85.4135 33.4594 85.9445 33.4728ZM77.0461 19.9061C76.6157 19.9061 76.1847 19.8982 75.7537 19.9061C75.3042 19.9162 75.248 20.0606 75.3783 20.4787C75.5469 21.0237 75.8245 21.5238 75.9678 22.0751C76.0863 22.5308 76.2971 22.9443 76.5404 23.3444C76.6421 23.513 76.7477 23.6883 76.7719 23.8816C76.814 24.2148 76.9899 24.493 77.095 24.7986C77.2776 25.3313 77.5529 25.8371 77.5821 26.4186C77.5973 26.7164 77.4625 26.9597 77.3546 27.2165C77.1056 27.8082 76.9157 28.4381 76.6005 28.9849C76.1307 29.8002 75.852 30.6858 75.4694 31.5309C75.357 31.7849 75.2665 32.0484 75.1052 32.2822C74.9684 32.4826 74.8496 32.6947 74.7501 32.916C74.6377 33.1672 74.7327 33.3447 74.9676 33.3739C75.7874 33.474 76.6117 33.4464 77.4321 33.4155C77.9429 33.3959 78.1733 33.3548 78.2969 32.8845C78.4789 32.1883 78.8228 31.5522 79.0352 30.8673C79.1566 30.4739 79.3965 30.1312 79.541 29.7502C79.8551 28.9343 80.118 28.0976 80.4529 27.2907C80.6704 26.7665 80.7732 26.2793 80.5153 25.7415C80.4198 25.5432 80.381 25.3162 80.3282 25.0993C80.1068 24.1867 79.7904 23.3012 79.5258 22.4021C79.3212 21.707 78.9639 21.0642 78.8515 20.3354C78.8049 20.0308 78.6082 19.9117 78.2812 19.9072C77.8698 19.9022 77.458 19.9061 77.0461 19.9061Z" fill="#9D9D9D"/>
<path d="M68.6478 28.0154C67.4116 28.0154 66.1765 28.0154 64.9425 28.0154C64.534 28.0154 64.4284 28.1362 64.5531 28.5273C64.829 29.3915 65.3061 30.0489 66.2484 30.3226C66.9828 30.5356 67.7172 30.6839 68.4736 30.617C69.0917 30.5608 69.7098 30.5013 70.3121 30.3361C70.6583 30.2406 71.0145 30.1771 71.3652 30.0911C71.7068 30.0068 72.1372 30.3557 72.2181 30.7654C72.308 31.2233 72.507 31.6526 72.5851 32.1055C72.6974 32.7663 72.6665 33.1591 71.9035 33.4153C71.1404 33.6716 70.3301 33.7396 69.5356 33.8795C68.6697 34.0318 67.8066 33.9306 66.9429 33.9638C66.3731 33.9857 65.8258 33.8121 65.2718 33.7092C64.8054 33.6221 64.3475 33.4951 63.935 33.2434C63.352 32.8964 62.7917 32.5124 62.2577 32.0937C61.6924 31.6408 61.4755 30.9334 61.0777 30.3563C60.6585 29.7472 60.6479 29.033 60.5029 28.348C60.4003 27.8412 60.3342 27.3276 60.3051 26.8112C60.2868 26.4033 60.3266 25.9948 60.4231 25.5981C60.5112 25.2006 60.5757 24.7984 60.6164 24.3933C60.6844 23.7359 61.026 23.2094 61.339 22.6626C61.5683 22.262 61.7762 21.8518 62.0762 21.4916C62.2605 21.2708 62.5179 21.1511 62.7067 20.9511C63.0813 20.547 63.5251 20.2131 64.0171 19.9649C64.3542 19.7964 64.711 19.7053 65.0628 19.5918C65.9056 19.321 66.7755 19.2547 67.6566 19.2968C68.4848 19.3356 69.2541 19.5924 70.0166 19.9042C70.6392 20.1599 71.0842 20.6313 71.5776 21.0573C72.2221 21.6124 72.5294 22.3306 72.8699 23.0717C73.2886 23.9753 73.2959 24.9052 73.2981 25.8532C73.2981 26.2735 73.3127 26.696 73.2981 27.1147C73.27 27.8007 73.0475 27.989 72.3873 28.0058C71.1376 28.0384 69.8924 28.0154 68.6478 28.0154ZM68.704 27.5383H72.4687C72.8621 27.5383 72.9666 27.4445 72.9745 27.0444C72.984 26.6241 72.966 26.2016 72.9823 25.7824C73.0189 24.8569 72.8975 23.9595 72.5328 23.1026C72.2738 22.4924 72.008 21.881 71.4933 21.4338C71.232 21.209 70.9875 20.9634 70.7358 20.7286C70.637 20.6432 70.5292 20.5687 70.4144 20.5066C69.4816 19.9599 68.4584 19.7632 67.3919 19.7362C66.8592 19.7227 66.3333 19.7924 65.8039 19.8368C64.3362 19.9554 63.2635 20.7668 62.2791 21.754C62.247 21.7861 62.2336 21.8355 62.2043 21.8715C61.8874 22.2586 61.7391 22.7436 61.4682 23.1526C61.2368 23.5027 61.0679 23.8904 60.9693 24.2984C60.7945 25.0126 60.7816 25.7537 60.7321 26.4859C60.6956 27.0264 60.8035 27.5625 60.8282 28.1008C60.8653 28.9201 61.1249 29.6494 61.4862 30.3833C61.8947 31.2127 62.4415 31.8813 63.2034 32.3876C64.275 33.1001 65.4466 33.5255 66.7435 33.5339C67.6026 33.539 68.4612 33.5738 69.3215 33.4934C70.12 33.4187 70.9139 33.353 71.6815 33.0883C72.117 32.9377 72.3187 32.7034 72.2367 32.3191C72.135 31.8465 72.0181 31.3762 71.8838 30.9115C71.7714 30.5238 71.5601 30.4119 71.1825 30.5361C69.9154 30.9519 68.6225 31.0626 67.2947 30.9688C66.5985 30.9193 65.9815 30.6783 65.3999 30.3507C64.7667 29.9944 64.5009 29.3303 64.216 28.7043C64.1927 28.6434 64.1753 28.5803 64.1643 28.5161C64.0058 27.8665 64.2503 27.5423 64.915 27.54C66.1754 27.535 67.4391 27.5383 68.7028 27.5383H68.704Z" fill="#9D9D9D"/>
<path d="M127.182 21.9231C127.182 19.5383 127.182 17.154 127.182 14.77C127.182 14.1519 127.35 13.8844 127.981 13.8237C128.423 13.7816 128.863 13.6658 129.311 13.7023C129.745 13.7377 130.179 13.7782 130.609 13.8394C131.15 13.917 131.271 14.2687 131.318 14.6885C131.323 14.7634 131.323 14.8384 131.318 14.9133C131.318 19.4572 131.318 24.0014 131.318 28.5457C131.318 29.0015 131.422 29.4514 131.621 29.8612C131.807 30.2545 132.146 30.3669 132.527 30.4C132.786 30.4231 133.05 30.404 133.313 30.4045C133.772 30.4045 134.104 30.6731 134.17 31.1165C134.269 31.784 134.254 32.4566 134.233 33.1275C134.226 33.3714 134.09 33.545 133.844 33.617C133.541 33.7046 133.23 33.7855 132.919 33.7895C132.22 33.7951 131.521 33.8417 130.821 33.7434C129.947 33.6299 129.14 33.2133 128.542 32.5662C128.336 32.3493 128.121 32.1408 127.915 31.9234C127.619 31.6093 127.582 31.1929 127.465 30.804C127.159 29.7853 127.18 28.7452 127.184 27.7017C127.186 25.775 127.182 23.8487 127.182 21.9231ZM127.619 22.1776C127.619 23.6262 127.607 25.0754 127.623 26.5234C127.636 27.6894 127.551 28.8576 127.679 30.0219C127.758 30.7405 127.904 31.4126 128.43 31.9857C129.233 32.8618 130.176 33.3905 131.373 33.422C132.046 33.4458 132.718 33.4296 133.388 33.3737C133.71 33.3439 133.908 33.1613 133.917 32.8387C133.932 32.41 133.912 31.9808 133.857 31.5553C133.78 30.976 133.622 30.8383 133.042 30.8406C132.911 30.8406 132.779 30.8496 132.649 30.8406C132.128 30.7967 131.683 30.6304 131.377 30.1584C131.049 29.6527 130.937 29.102 130.937 28.512C130.94 23.9606 130.94 19.4091 130.937 14.8576C130.937 14.3766 130.783 14.2182 130.319 14.1788C129.604 14.1243 128.885 14.1255 128.17 14.1822C127.736 14.2131 127.617 14.3412 127.617 14.7773C127.618 17.2433 127.619 19.7101 127.619 22.1776Z" fill="#9D9D9D"/>
<path d="M100.757 28.2082C100.757 29.6013 100.757 30.9939 100.757 32.386C100.757 32.908 100.515 33.2165 100.02 33.3704C99.13 33.6469 98.2051 33.7233 97.2925 33.8762C96.2968 34.0414 95.3017 33.9515 94.3077 33.9515C93.766 33.9515 93.2248 33.8301 92.6967 33.693C92.3752 33.6093 92.0319 33.6098 91.7335 33.4401C91.1041 33.0782 90.526 32.6335 90.0147 32.1179C89.7337 31.8404 89.5696 31.5251 89.4218 31.1627C89.1571 30.5075 89.0286 29.8053 89.0442 29.0988C89.051 28.505 89.1894 27.92 89.4494 27.3861C89.8865 26.4809 90.5872 25.8549 91.4419 25.3632C92.0544 25.0098 92.7096 24.8199 93.3979 24.6738C94.3453 24.4726 95.2944 24.549 96.2434 24.531C96.7632 24.5215 96.9587 24.1725 96.7334 23.6882C96.5227 23.2336 96.1367 23.0139 95.7062 22.838C95.4646 22.7408 95.2118 22.6627 94.9443 22.693C94.7263 22.7172 94.5201 22.6301 94.306 22.6369C93.5755 22.6571 92.845 22.6582 92.1381 22.9015C91.8864 22.9886 91.6139 23.0218 91.3481 23.0594C91.0671 23.0987 90.857 22.9987 90.6788 22.7593C90.3659 22.3402 90.3473 21.8401 90.2406 21.3647C90.1844 21.1214 90.1192 20.8702 90.1282 20.6252C90.1456 20.2043 90.4299 19.9262 90.8991 19.8234C92.4196 19.4862 93.9463 19.1952 95.5169 19.3047C96.3086 19.3609 97.0661 19.5818 97.8151 19.8279C98.2601 19.974 98.6388 20.2386 99.0075 20.5303C99.3726 20.8186 99.691 21.1617 99.9515 21.5473C99.988 21.6035 100.05 21.6423 100.072 21.7001C100.38 22.4868 100.763 23.2454 100.758 24.1214C100.75 25.479 100.757 26.8439 100.757 28.2082ZM100.44 28.1278C100.44 26.922 100.431 25.7155 100.44 24.5097C100.45 23.3814 100.163 22.348 99.4778 21.445C99.1761 21.0408 98.7962 20.7014 98.3607 20.4471C97.5088 19.9594 96.5626 19.7857 95.5972 19.7464C94.6319 19.7071 93.6558 19.7059 92.6899 19.8492C92.1016 19.9369 91.5054 19.9756 90.9384 20.1802C90.5524 20.3195 90.4074 20.5539 90.4816 20.9506C90.4917 21.0068 90.49 21.0629 90.4985 21.1191C90.5653 21.5512 90.6108 21.989 90.8356 22.3784C91.0278 22.711 91.1862 22.7661 91.5504 22.6335C91.6026 22.6149 91.6588 22.6065 91.7128 22.5919C92.677 22.3284 93.6631 22.2778 94.6543 22.3211C95.2876 22.3492 95.8905 22.4497 96.439 22.8537C96.961 23.2387 97.156 23.7107 97.1194 24.3147C97.0942 24.7294 96.9059 24.8929 96.4929 24.9042C95.7371 24.9249 94.9819 24.8834 94.2239 24.9429C93.2293 25.0216 92.3005 25.2677 91.4273 25.7487C90.6856 26.1578 90.0849 26.7281 89.7337 27.4794C89.1268 28.7785 89.2707 30.1204 89.8573 31.3751C90.2675 32.2517 91.1222 32.7276 91.9695 33.1339C92.8169 33.5401 93.7677 33.5177 94.6802 33.5783C95.3238 33.614 95.9692 33.6044 96.6115 33.5497C97.6167 33.4755 98.6136 33.3811 99.5935 33.1361C100.283 32.9619 100.436 32.7855 100.436 32.0831L100.44 28.1278Z" fill="#9D9D9D"/>
<path d="M53.4231 23.5693C53.5984 23.5587 53.5731 23.6896 53.5917 23.798C53.8333 25.159 53.7496 26.5334 53.7602 27.9034C53.772 29.5857 53.5355 31.2254 52.9005 32.7965C52.8286 32.974 52.8494 33.1898 52.7707 33.3645C52.4111 34.154 52.265 35.0255 51.7509 35.76C51.4199 36.2348 51.2125 36.7939 50.9327 37.3063C50.8179 37.5305 50.6738 37.7384 50.504 37.9244C50.1668 38.2717 49.9494 38.6959 49.6735 39.0814C49.3933 39.4648 49.0909 39.8315 48.7677 40.1794C48.1327 40.8784 47.4191 41.4931 46.7386 42.1461C46.5448 42.3202 46.3368 42.4777 46.1166 42.6169C45.6631 42.9254 45.235 43.271 44.7832 43.5829C44.1836 43.9953 43.5599 44.3695 42.8727 44.6263C42.6389 44.7199 42.4187 44.8445 42.2181 44.9966C41.7107 45.3624 41.0802 45.395 40.5307 45.6473C40.2064 45.7962 39.8609 45.8721 39.5113 45.9361C39.218 45.9923 38.941 46.1047 38.6561 46.1907C37.8086 46.4409 36.9412 46.618 36.0635 46.72C34.9301 46.8526 33.808 46.6801 32.6825 46.6458C31.7611 46.6253 30.8471 46.4767 29.9668 46.2042C29.3784 46.0159 28.7615 45.9496 28.1861 45.7485C27.2932 45.4366 26.366 45.213 25.5507 44.6808C25.1518 44.4212 24.6719 44.2729 24.2527 44.0313C23.5672 43.6375 22.908 43.1996 22.2793 42.7203C21.9236 42.4495 21.5263 42.2399 21.1909 41.9365C20.9695 41.7364 20.8256 41.4751 20.5941 41.2824C20.4817 41.1908 20.3693 41.0869 20.257 40.993C19.5372 40.3901 18.9927 39.6276 18.3881 38.9235C18.0481 38.5274 17.7666 38.0683 17.4941 37.6115C17.2423 37.1889 16.9232 36.8068 16.7074 36.3601C16.3551 35.6296 15.9926 34.9092 15.7257 34.14C15.4791 33.4286 15.138 32.7498 14.9823 32.0047C14.8087 31.1787 14.5817 30.3645 14.5013 29.5183C14.4182 28.6372 14.3299 27.755 14.3507 26.8722C14.385 25.4029 14.4968 23.9436 14.8565 22.504C15.2419 20.9576 15.8061 19.4882 16.4972 18.0576C17.0962 16.8174 17.8677 15.6897 18.7235 14.6221C19.1871 14.0433 19.735 13.5303 20.2542 12.997C21.0442 12.1867 21.8865 11.436 22.8243 10.8213C23.6885 10.2577 24.5724 9.71378 25.5277 9.27381C26.3705 8.8844 27.3005 8.78439 28.1125 8.34554C28.6182 8.07357 29.193 8.09492 29.7308 7.96006C30.0454 7.8814 30.3432 7.75272 30.6714 7.70552C30.9462 7.66482 31.2231 7.63986 31.5008 7.63078C32.3953 7.60662 33.2865 7.46221 34.1811 7.50941C35.0352 7.55549 35.891 7.56954 36.7434 7.66394C37.7717 7.77632 38.7618 8.05727 39.7614 8.29384C40.334 8.42926 40.8228 8.80461 41.4016 8.92149C41.7612 8.99398 42.0377 9.23447 42.3687 9.33787C43.0536 9.55139 43.6807 9.85145 44.2342 10.3117C44.7079 10.705 45.3058 10.9078 45.7873 11.2927C45.9299 11.3966 46.066 11.5092 46.1947 11.6299C46.5318 11.9766 46.9252 12.2604 47.3106 12.5452C47.5352 12.7114 47.7314 12.9127 47.8917 13.1414C48.1434 13.4982 48.4536 13.7837 48.7812 14.0613C49.0868 14.3203 49.3251 14.6384 49.5605 14.9648C49.9881 15.5593 50.3326 16.2078 50.8052 16.7742C51.0181 17.0287 51.1322 17.3743 51.2626 17.6839C51.4418 18.1104 51.6329 18.515 51.9453 18.8583C52.0953 19.0235 52.1296 19.2336 52.17 19.4472C52.265 19.972 52.5415 20.4378 52.6758 20.9537C52.8876 21.7707 53.1365 22.5776 53.3697 23.389C53.2478 23.4047 53.2394 23.3176 53.1882 23.2333C52.9949 22.9164 52.9348 22.5321 52.6825 22.2472C52.4763 22.0123 52.4617 21.6476 52.2139 21.4605C51.7688 21.129 51.5834 20.6148 51.2423 20.2108C50.722 19.5983 50.4332 18.8027 49.7432 18.325C49.7156 18.3065 49.7078 18.2604 49.6903 18.2273C49.6187 17.8894 49.4713 17.5722 49.2594 17.2996C48.8261 16.7185 48.3698 16.1555 47.9934 15.5324C47.7478 15.1244 47.2668 15.0547 46.9257 15.3896C46.075 16.2325 45.0445 16.8506 44.1758 17.6687C43.8841 17.9435 43.5992 17.8896 43.3475 17.544C43.2586 17.4125 43.1509 17.2947 43.0278 17.1945C42.5968 16.8703 42.1742 16.5292 41.7702 16.1797C40.8892 15.4194 39.8367 14.9631 38.8118 14.5035C37.3165 13.8292 35.6943 13.5786 34.0462 13.573C33.5894 13.573 33.1331 13.5949 32.6763 13.6146C31.6418 13.6584 30.6495 13.8837 29.6661 14.1798C29.0744 14.358 28.5328 14.644 27.9725 14.8957C27.0106 15.3273 26.1211 15.8577 25.3316 16.5421C24.6708 17.1012 24.0528 17.709 23.4829 18.3604C22.8389 19.1112 22.2 19.8551 21.8241 20.7834C21.6898 21.116 21.3887 21.3537 21.2898 21.6971C21.1296 22.2511 20.8751 22.7782 20.7543 23.3378C20.516 24.4392 20.2345 25.5388 20.3362 26.6891C20.3705 27.0751 20.3042 27.4757 20.3177 27.8601C20.3486 28.7395 20.5104 29.6116 20.7267 30.4645C20.9386 31.2984 21.1313 32.1446 21.6595 32.8656C21.9174 33.2173 22.0365 33.6522 22.2557 34.0327C22.5838 34.6036 23.007 35.0907 23.4284 35.5863C23.693 35.8976 23.8847 36.2775 24.2184 36.5213C24.5359 36.7529 24.8107 37.031 25.1209 37.2687C25.5041 37.562 25.7951 37.9508 26.2728 38.1537C27.0128 38.4672 27.7101 38.8842 28.4193 39.2674C28.8761 39.5152 29.3824 39.6169 29.8662 39.786C30.8872 40.1429 31.9559 40.2507 33.0219 40.3227C34.2446 40.4053 35.4611 40.2861 36.667 40.0552C37.3522 39.9208 38.0246 39.7272 38.6764 39.4764C39.2484 39.259 39.7816 38.9376 40.3261 38.651C40.791 38.4119 41.2353 38.1347 41.6545 37.8222C42.1506 37.4446 42.6328 37.0484 43.1048 36.6422C43.3487 36.4394 43.568 36.2087 43.7583 35.9549C44.0347 35.5684 44.3601 35.2245 44.6354 34.8367C45.0344 34.2748 45.4569 33.7298 45.6879 33.0724C45.7548 32.8797 45.842 32.6948 45.948 32.5206C46.202 32.107 46.2447 31.6738 46.1166 31.2057C46.0329 30.9017 45.7693 30.7 45.6952 30.401C46.216 30.7258 46.5139 31.685 46.2273 32.2846C46.0272 32.7037 45.8306 33.1235 45.6401 33.5472C45.1906 34.544 44.4376 35.3357 43.7689 36.1735C43.161 36.9355 42.3479 37.5255 41.5415 38.0677C40.3525 38.8679 39.1017 39.5675 37.6947 39.9569C36.5914 40.2592 35.4577 40.4368 34.3148 40.4862C32.7863 40.5599 31.2565 40.3698 29.7926 39.9243C29.2599 39.7624 28.6985 39.6489 28.2226 39.3444C27.8638 39.1091 27.4738 38.9255 27.0639 38.7988C26.9437 38.9494 26.9898 39.0797 27.0903 39.2247C27.246 39.4455 27.4966 39.5523 27.6787 39.7349C28.5541 40.6107 29.4236 41.4929 30.287 42.3815C30.6585 42.7636 31.1198 43.0446 31.4671 43.4491C31.6744 43.6896 31.8722 43.9397 32.1155 44.1437C32.4644 44.4364 32.8376 44.7016 33.105 45.0809C33.1685 45.1719 33.2281 45.2787 33.3163 45.3377C33.7658 45.6338 34.1294 46.0277 34.4913 46.411C34.6716 46.6031 34.807 46.6318 35.0442 46.6217C36.0612 46.5801 37.076 46.4643 38.042 46.1688C38.8949 45.9075 39.7839 45.7912 40.6166 45.4383C41.1032 45.2332 41.6359 45.1405 42.0989 44.8651C42.3158 44.737 42.5316 44.5977 42.7648 44.5095C43.3188 44.2993 43.8195 43.9931 44.3117 43.6761C44.9298 43.2789 45.5159 42.8333 46.1346 42.436C46.6751 42.0899 47.0786 41.5971 47.5601 41.1903C48.1265 40.7109 48.5716 40.1181 49.102 39.6068C49.318 39.3875 49.5024 39.1392 49.6499 38.869C49.8184 38.5723 50.0432 38.3071 50.2444 38.0261C50.4596 37.7227 50.7158 37.4507 50.8821 37.1114C51.1226 36.6208 51.3924 36.1443 51.63 35.6504C51.7649 35.3722 52.0127 35.1559 52.0886 34.8547C52.2701 34.1338 52.6117 33.4713 52.787 32.742C52.959 32.0238 53.2365 31.3243 53.4147 30.6028C53.6394 29.6925 53.5894 28.7535 53.6361 27.8275C53.6728 27.0166 53.6627 26.2042 53.6057 25.3944C53.5669 24.7842 53.5422 24.1728 53.4231 23.5693Z" fill="#FE6F16"/>
<path d="M53.4214 23.5686C53.5406 24.1721 53.5664 24.7835 53.6057 25.3965C53.6627 26.2063 53.6729 27.0187 53.6361 27.8296C53.5895 28.7556 53.6395 29.6946 53.4147 30.6049C53.236 31.3264 52.959 32.0259 52.7871 32.744C52.6117 33.4745 52.2701 34.1359 52.0886 34.8568C52.0127 35.158 51.7649 35.3743 51.6301 35.6525C51.3924 36.1442 51.1244 36.6207 50.8822 37.1135C50.7136 37.4506 50.4596 37.7248 50.2444 38.0282C50.0455 38.3092 49.8202 38.5733 49.6499 38.8711C49.5022 39.1405 49.3179 39.388 49.102 39.6066C48.571 40.118 48.1266 40.7108 47.5602 41.1901C47.0786 41.5969 46.6752 42.0892 46.1346 42.4359C45.5165 42.8326 44.9299 43.2787 44.3118 43.676C43.8195 43.9929 43.3189 44.2992 42.7648 44.5093C42.5316 44.5975 42.3153 44.7341 42.099 44.865C41.636 45.1403 41.1033 45.233 40.6167 45.4381C39.7856 45.7888 38.895 45.9051 38.042 46.1686C37.0761 46.4642 36.0613 46.5799 35.0442 46.6215C34.8071 46.6316 34.6717 46.603 34.4913 46.4108C34.1294 46.0276 33.7653 45.6337 33.3163 45.3376C33.2281 45.2786 33.1685 45.1718 33.1051 45.0808C32.8376 44.7015 32.4645 44.4363 32.1155 44.1435C31.8722 43.9395 31.6744 43.6895 31.4671 43.449C31.1181 43.0444 30.6568 42.7635 30.2871 42.3814C29.4232 41.4935 28.5538 40.6113 27.6787 39.7348C27.4966 39.5521 27.246 39.4454 27.0904 39.2245C26.9898 39.0813 26.9437 38.9492 27.064 38.7986C27.4739 38.9242 27.8641 39.1067 28.2232 39.3409C28.6991 39.6454 29.2605 39.7589 29.7932 39.9208C31.2571 40.3663 32.7869 40.5564 34.3154 40.4827C35.4583 40.4332 36.592 40.2557 37.6953 39.9533C39.1001 39.5639 40.3531 38.8644 41.5421 38.0642C42.3485 37.522 43.1615 36.932 43.7695 36.17C44.4382 35.3322 45.1934 34.5405 45.6407 33.5436C45.8312 33.12 46.0278 32.7008 46.2279 32.281C46.5145 31.6815 46.2166 30.7223 45.6952 30.3975L45.6733 30.3318C45.6754 30.3036 45.6705 30.2754 45.6589 30.2497C45.6473 30.224 45.6295 30.2016 45.607 30.1846C44.9788 29.6519 44.1196 29.349 43.2998 29.88C42.7772 30.2171 42.4176 30.6667 42.1479 31.2387C41.655 32.3128 40.9111 33.2527 39.9789 33.9791C39.6552 34.2292 39.417 34.5764 39.036 34.7596C38.861 34.8434 38.6678 34.8821 38.4741 34.872C38.296 34.8641 38.3376 34.672 38.2572 34.5792C38.2005 34.5054 38.1369 34.4371 38.0673 34.3753C37.4492 33.8909 36.9648 33.2689 36.39 32.7396C36.0528 32.4372 35.7528 32.0922 35.4156 31.7961C35.0195 31.45 34.62 31.1168 34.4604 30.5886C34.5406 30.5654 34.6157 30.5273 34.6818 30.4762C35.0965 30.1615 35.4684 29.798 35.8792 29.4754C36.8727 28.6949 37.8313 27.8706 38.8528 27.1244C39.0922 26.9496 39.2844 26.7114 39.5159 26.5243C40.2756 25.9107 41.0471 25.3117 41.8073 24.6998C42.6333 24.035 43.4515 23.3613 44.2741 22.6932C45.1378 21.9914 46.0351 21.3317 46.8701 20.5944C46.9758 20.4892 47.0884 20.3912 47.2073 20.3011C47.6119 20.0331 48.0226 19.7757 48.3468 19.4066C48.5087 19.2223 48.7211 19.1026 48.9138 18.957C49.1948 18.7435 49.537 18.5811 49.6921 18.2266C49.7095 18.2597 49.7173 18.3058 49.7449 18.3243C50.4349 18.802 50.7237 19.5976 51.244 20.2101C51.5851 20.6113 51.7706 21.1283 52.2167 21.4603C52.4645 21.6447 52.4791 22.0093 52.6853 22.247C52.9348 22.5319 52.995 22.9163 53.1911 23.2332C53.2422 23.3175 53.2506 23.4046 53.3726 23.3888C53.4439 23.4287 53.4198 23.5029 53.4214 23.5686Z" fill="#C84C02"/>
<path d="M104.257 26.7639C104.257 24.7815 104.257 22.7993 104.257 20.8173C104.258 20.6868 104.251 20.5565 104.238 20.4267C104.207 20.1182 104.301 19.9609 104.605 19.9058C105.179 19.8013 105.758 19.8418 106.336 19.8789C106.382 19.8822 106.427 19.8985 106.473 19.9019C107.051 19.9497 107.213 20.1222 107.233 20.7054C107.237 20.8257 107.227 20.9448 107.278 21.0634C107.46 21.4887 107.839 21.5618 108.113 21.1853C108.453 20.7139 108.899 20.3807 109.39 20.0963C109.813 19.8519 110.298 19.789 110.762 19.7524C111.618 19.685 112.493 19.6698 113.314 19.9542C113.974 20.1817 114.629 20.4599 114.908 21.2218C115.084 21.7068 115.55 21.8467 115.851 21.5635C116.061 21.3778 116.254 21.1737 116.428 20.9538C116.937 20.266 117.634 19.9154 118.457 19.8002C119.502 19.6535 120.552 19.6693 121.56 19.9862C122.291 20.216 122.799 20.7425 123.201 21.4191C123.668 22.2057 123.857 23.0323 123.858 23.919C123.864 26.6776 123.864 29.4358 123.858 32.1937C123.858 32.4623 123.862 32.7303 123.858 32.9989C123.853 33.2905 123.739 33.404 123.454 33.422C122.596 33.4754 121.739 33.4552 120.882 33.422C120.667 33.4141 120.55 33.3063 120.486 33.0972C120.39 32.7876 120.486 32.487 120.489 32.183C120.489 31.0888 120.489 29.9947 120.489 28.9009C120.489 28.3772 120.476 27.8535 120.492 27.3303C120.516 26.5543 120.441 25.7823 120.421 25.0085C120.407 24.4388 120.196 23.896 119.975 23.3728C119.786 22.9233 119.357 22.7547 118.921 22.6659C118.148 22.508 117.41 22.6508 116.786 23.1391C116.325 23.4992 116.123 24.0561 115.893 24.5747C115.714 24.9788 115.66 25.4148 115.66 25.857C115.66 28.1665 115.66 30.4759 115.66 32.7854C115.66 33.2248 115.504 33.4164 115.064 33.4158C114.278 33.4158 113.494 33.4799 112.712 33.3709C112.365 33.3225 112.288 33.2416 112.288 32.8798C112.288 30.608 112.312 28.3356 112.273 26.0638C112.26 25.3429 112.279 24.6141 112.142 23.8926C112.062 23.4689 111.805 23.2031 111.495 22.9896C110.8 22.5148 110.042 22.5109 109.28 22.8081C108.275 23.2014 107.863 24.0347 107.744 25.0288C107.529 26.8331 107.655 28.648 107.632 30.4579C107.621 31.2867 107.632 32.1167 107.629 32.9455C107.629 33.2433 107.467 33.4164 107.168 33.4198C106.358 33.4293 105.547 33.4799 104.737 33.4198C104.408 33.3962 104.26 33.245 104.26 32.9022C104.258 30.8576 104.257 28.8115 104.257 26.7639Z" fill="#474747"/>
<path d="M136.44 19.8529C137.002 19.8574 137.56 19.8316 138.118 19.9063C138.361 19.9389 138.555 20.1311 138.568 20.425C138.605 21.2678 138.937 22.0354 139.181 22.8215C139.308 23.2385 139.395 23.6665 139.442 24.0998C139.504 24.6303 139.791 25.1057 139.839 25.6384C139.93 26.6498 140.281 27.5938 140.6 28.5468C140.769 29.0525 140.75 29.5942 140.875 30.11C140.942 30.4194 141.06 30.7158 141.223 30.9872C141.296 31.1035 141.366 31.222 141.507 31.2271C141.671 31.2327 141.747 31.0928 141.801 30.9647C142.01 30.4561 142.181 29.9326 142.312 29.3986C142.699 27.8854 143.136 26.3834 143.471 24.859C143.674 23.9346 144.083 23.0811 144.273 22.1618C144.402 21.5437 144.577 20.934 144.743 20.3238C144.834 19.9867 144.971 19.8675 145.315 19.8625C145.968 19.8529 146.619 19.7692 147.274 19.8063C147.525 19.8135 147.774 19.8495 148.017 19.9136C148.234 19.9771 148.304 20.1243 148.226 20.3446C147.584 22.15 147.131 24.0116 146.59 25.8463C146.508 26.1227 146.4 26.3907 146.304 26.6627C145.898 27.8225 145.574 29.0076 145.26 30.1938C145.121 30.7174 144.864 31.1968 144.724 31.7205C144.474 32.6543 144.165 33.5719 143.937 34.5131C143.825 34.9801 143.612 35.4234 143.454 35.8808C143.188 36.6535 143.009 37.4542 142.584 38.1734C142.131 38.9404 141.516 39.4731 140.657 39.7052C139.64 39.9788 138.606 39.8934 137.574 39.8288C137.36 39.8221 137.147 39.8033 136.935 39.7726C136.654 39.7226 136.476 39.5613 136.463 39.2995C136.434 38.732 136.458 38.1627 136.708 37.634C136.89 37.248 137.022 37.1991 137.442 37.2968C138.004 37.425 138.58 37.4266 139.124 37.2496C139.694 37.0648 140.075 36.6181 140.304 36.0854C140.562 35.4813 140.855 34.8874 140.979 34.2283C141.076 33.704 140.898 33.4045 140.304 33.3742C139.928 33.3545 139.56 33.4247 139.187 33.4303C138.892 33.4365 138.702 33.3112 138.596 33.0539C138.493 32.8061 138.371 32.5644 138.344 32.2885C138.288 31.7559 137.977 31.2889 137.906 30.7675C137.774 29.7948 137.288 28.9373 137.063 28.0023C136.854 27.1381 136.531 26.3065 136.382 25.4237C136.308 24.982 136.101 24.56 135.927 24.1386C135.776 23.7783 135.669 23.4009 135.609 23.0148C135.539 22.5428 135.294 22.123 135.205 21.6544C135.128 21.2144 135.013 20.782 134.861 20.362C134.742 20.0496 134.892 19.8602 135.237 19.8563C135.635 19.849 136.038 19.8529 136.44 19.8529Z" fill="#474747"/>
<path d="M85.9453 33.4734C85.4143 33.4599 84.8811 33.5116 84.3517 33.4217C84.041 33.3689 83.9264 33.2638 83.8736 32.9429C83.8635 32.8314 83.8376 32.7218 83.7966 32.6176C83.3808 31.7652 83.1863 30.8195 82.6935 29.9991C82.6399 29.9119 82.5995 29.8172 82.5739 29.7181C82.4053 29.009 82.0507 28.3662 81.8434 27.6694C81.7467 27.3671 81.63 27.0716 81.4939 26.785C81.3938 26.5647 81.4113 26.3579 81.4815 26.1382C81.7214 25.3841 81.8979 24.6076 82.1558 23.8625C82.48 22.9145 82.6829 21.9233 83.1257 21.0164C83.2302 20.8023 83.2538 20.5708 83.3122 20.3466C83.3909 20.046 83.5623 19.9353 83.8741 19.9078C84.6198 19.8403 85.366 19.8594 86.1128 19.8516C86.3302 19.8516 86.5381 19.901 86.7494 19.9252C86.9742 19.951 86.9877 20.1247 86.918 20.309C86.7618 20.7321 86.6292 21.1625 86.4606 21.5834C86.2184 22.1897 85.9588 22.7943 85.7666 23.4214C85.6557 23.7861 85.5026 24.1367 85.3104 24.466C84.9816 25.0279 84.8462 25.6617 84.6226 26.2641C84.5344 26.5012 84.672 26.7361 84.7558 26.962C85.0867 27.8515 85.6273 28.6415 85.9464 29.5434C86.2133 30.2991 86.5949 31.0139 86.8657 31.7747C87.004 32.163 87.281 32.4996 87.4765 32.8688C87.6799 33.252 87.5327 33.4734 87.0972 33.4739C86.7129 33.4739 86.3291 33.4734 85.9453 33.4734Z" fill="#474747"/>
<path d="M77.0458 19.9038C77.4577 19.9038 77.8696 19.8999 78.282 19.9038C78.6091 19.9083 78.8057 20.0274 78.8524 20.332C78.9647 21.0625 79.3249 21.7036 79.5267 22.3987C79.7913 23.2977 80.1077 24.1833 80.3291 25.0958C80.3819 25.3127 80.4206 25.5398 80.5162 25.7381C80.7741 26.273 80.6713 26.763 80.4538 27.2873C80.1167 28.0942 79.8559 28.9309 79.5418 29.7468C79.3952 30.1277 79.1552 30.4711 79.0361 30.8638C78.8237 31.5488 78.4798 32.1849 78.2978 32.8811C78.1741 33.3514 77.9438 33.3924 77.433 33.4121C76.6126 33.443 75.7883 33.4683 74.9684 33.3705C74.7336 33.3413 74.6369 33.1637 74.751 32.9126C74.8505 32.6912 74.9693 32.4791 75.1061 32.2787C75.2674 32.045 75.3556 31.7814 75.4702 31.5275C75.8529 30.6846 76.1316 29.7968 76.6013 28.9815C76.9166 28.4347 77.1071 27.8048 77.3554 27.2131C77.4633 26.9563 77.5982 26.713 77.583 26.4152C77.5538 25.8336 77.2785 25.3279 77.0958 24.7952C76.9908 24.4895 76.8149 24.2114 76.7727 23.8782C76.7486 23.6849 76.6429 23.509 76.5412 23.341C76.2979 22.9409 76.0872 22.5274 75.9686 22.0717C75.8254 21.5204 75.5466 21.0203 75.3792 20.4753C75.2505 20.0572 75.3039 19.9134 75.7546 19.9027C76.185 19.8931 76.616 19.9027 77.0469 19.9027L77.0458 19.9038Z" fill="#474747"/>
<path d="M68.7042 27.5395C67.4405 27.5395 66.1756 27.5361 64.913 27.5395C64.2482 27.5395 64.0038 27.866 64.1623 28.5155C64.1733 28.5798 64.1906 28.6429 64.214 28.7038C64.5017 29.3297 64.7646 29.9962 65.3979 30.3502C65.9795 30.6783 66.5965 30.9194 67.2927 30.9683C68.6205 31.0621 69.9134 30.9514 71.1805 30.5356C71.5581 30.4114 71.77 30.5232 71.8818 30.911C72.0161 31.3757 72.133 31.846 72.2347 32.3185C72.3167 32.7029 72.115 32.9366 71.6795 33.0878C70.9136 33.3525 70.1196 33.4182 69.3195 33.4929C68.4592 33.5733 67.6006 33.5384 66.7414 33.5334C65.449 33.525 64.2747 33.0996 63.2014 32.3871C62.4406 31.8814 61.8927 31.2121 61.4842 30.3828C61.1229 29.6489 60.8633 28.9218 60.8262 28.1003C60.8015 27.562 60.6936 27.0259 60.7301 26.4854C60.7796 25.7549 60.7925 25.012 60.9673 24.2978C61.0659 23.8899 61.2347 23.5022 61.4662 23.1521C61.7371 22.743 61.8854 22.2581 62.2023 21.871C62.2316 21.835 62.245 21.7855 62.2771 21.7535C63.2615 20.7662 64.3342 19.9554 65.8019 19.8363C66.3312 19.7936 66.8572 19.7239 67.3899 19.7357C68.4575 19.7627 69.4796 19.9605 70.4124 20.5061C70.5272 20.5682 70.635 20.6426 70.7338 20.728C70.9861 20.9629 71.23 21.2062 71.4913 21.4332C72.006 21.8828 72.2717 22.4919 72.5308 23.1021C72.8943 23.959 73.0157 24.8564 72.9803 25.7818C72.964 26.2022 72.9803 26.6247 72.9724 27.0439C72.9629 27.444 72.8601 27.5373 72.4667 27.5378L68.7042 27.5395ZM66.9831 25.3481C67.7135 25.3481 68.444 25.3542 69.1706 25.3481C69.6476 25.3419 69.9011 25.0036 69.7887 24.5445C69.7375 24.3366 69.6707 24.1332 69.6201 23.9264C69.4347 23.1358 68.8671 22.6902 68.1805 22.375C67.3848 22.0103 66.5768 22.1261 65.7896 22.4154C65.3552 22.5692 64.9842 22.8629 64.7349 23.2504C64.5195 23.6097 64.347 23.9929 64.2207 24.3922C64.024 24.9772 64.2275 25.3868 64.9624 25.3587C65.6362 25.3278 66.3105 25.3481 66.9831 25.3481Z" fill="#474747"/>
<path d="M127.619 22.1811C127.619 19.714 127.619 17.2466 127.619 14.7791C127.619 14.3431 127.738 14.2172 128.172 14.184C128.887 14.1273 129.605 14.1262 130.321 14.1807C130.784 14.22 130.939 14.3785 130.939 14.8595C130.939 19.4109 130.939 23.9624 130.939 28.5139C130.939 29.1039 131.051 29.6528 131.379 30.1603C131.684 30.6323 132.129 30.7986 132.651 30.8424C132.78 30.8531 132.912 30.8424 133.044 30.8424C133.623 30.8424 133.781 30.9778 133.859 31.5572C133.914 31.9826 133.934 32.4118 133.919 32.8406C133.909 33.1631 133.712 33.3463 133.39 33.3755C132.72 33.4315 132.047 33.4476 131.375 33.4238C130.178 33.3929 129.235 32.8619 128.431 31.9876C127.906 31.4144 127.757 30.7424 127.681 30.0237C127.553 28.8594 127.638 27.6912 127.625 26.5253C127.606 25.0789 127.619 23.6297 127.619 22.1811Z" fill="#474747"/>
<path d="M100.44 28.1268V32.0821C100.44 32.7845 100.286 32.9609 99.5968 33.1351C98.6169 33.3823 97.62 33.4722 96.6148 33.5487C95.9725 33.6034 95.3271 33.613 94.6835 33.5773C93.7693 33.5166 92.8247 33.5414 91.9729 33.1329C91.121 32.7243 90.2708 32.2507 89.8606 31.3741C89.274 30.1188 89.1302 28.7775 89.737 27.4784C90.0882 26.7271 90.6889 26.1567 91.4306 25.7477C92.3038 25.2667 93.2327 25.0206 94.2272 24.9419C94.9853 24.8823 95.7405 24.9239 96.4962 24.9031C96.9092 24.8919 97.0975 24.7284 97.1228 24.3137C97.1593 23.7074 96.9643 23.2354 96.4423 22.8527C95.8939 22.4487 95.2909 22.347 94.6577 22.32C93.6665 22.2768 92.6803 22.3273 91.7161 22.5909C91.6599 22.6055 91.6037 22.6139 91.5537 22.6325C91.1896 22.7651 91.0311 22.71 90.8389 22.3773C90.6142 21.9879 90.5675 21.5502 90.5018 21.1181C90.4933 21.0619 90.495 21.0057 90.4849 20.9495C90.4108 20.5528 90.5557 20.3185 90.9418 20.1792C91.5087 19.9746 92.1049 19.9358 92.6932 19.8482C93.6591 19.7049 94.6313 19.706 95.6005 19.7454C96.5698 19.7847 97.511 19.9583 98.364 20.4461C98.7995 20.7004 99.1794 21.0398 99.4811 21.444C100.167 22.347 100.454 23.3804 100.443 24.5087C100.43 25.7145 100.44 26.9209 100.44 28.1268ZM97.1761 28.959H97.1705C97.1705 28.5095 97.1778 28.0599 97.1705 27.6104C97.1632 27.253 96.9941 26.9687 96.7345 26.9361C95.7871 26.8237 94.8341 26.7507 93.9176 27.1047C93.4614 27.28 93.0225 27.539 92.7803 27.9672C92.4819 28.4949 92.4943 29.1051 92.632 29.6777C92.8185 30.4537 93.4333 30.8217 94.1491 30.9897C94.851 31.1538 95.5719 31.1493 96.2889 31.0544C97.0306 30.9555 97.1711 30.7976 97.1728 30.0491C97.1754 29.6868 97.1765 29.3235 97.1761 28.959Z" fill="#474747"/>
<path d="M49.6888 18.2252C49.5338 18.5781 49.1932 18.7405 48.9106 18.9557C48.7179 19.1012 48.5055 19.2209 48.3436 19.4052C48.0194 19.7744 47.6087 20.0317 47.2041 20.2998C47.0852 20.3898 46.9726 20.4878 46.8669 20.5931C46.0364 21.3286 45.1374 21.9883 44.2726 22.6918C43.45 23.3599 42.6318 24.0337 41.8058 24.6984C41.0456 25.3103 40.2741 25.9093 39.5144 26.5229C39.2828 26.71 39.0907 26.9483 38.8513 27.123C37.8297 27.8693 36.8711 28.6936 35.8777 29.4741C35.4675 29.7966 35.0949 30.1602 34.6802 30.4748C34.6144 30.5262 34.5392 30.5643 34.4589 30.5872C34.1858 30.5245 33.9372 30.3828 33.7441 30.1798C33.0024 29.4213 32.2579 28.6627 31.4897 27.9322C31.0925 27.554 30.6469 27.2242 30.2794 26.814C29.9748 26.4718 29.6551 26.1459 29.3326 25.8217C29.0516 25.5368 28.7611 25.2558 28.479 24.9692C28.1419 24.6321 28.1233 24.4073 28.3975 24.0106C28.7976 23.4274 29.4247 23.0689 29.8725 22.5306C30.0514 22.316 30.2419 22.1115 30.4434 21.9181C30.6654 21.704 30.9632 21.7287 31.147 21.967C31.3307 22.2052 31.5403 22.4114 31.746 22.6283C32.1174 23.0217 32.6062 23.2925 32.9411 23.7207C33.362 24.259 33.9189 24.6602 34.3645 25.1727C34.5094 25.3412 34.7578 25.3598 34.8887 25.1845C35.0994 24.9035 35.4023 24.7602 35.658 24.5495C36.2306 24.0781 36.7632 23.5482 37.3797 23.1447C38.3973 22.4794 39.1913 21.5388 40.2381 20.9145C40.5078 20.7538 40.5455 20.4054 40.3347 20.2161C39.9139 19.8379 39.4981 19.444 39.0305 19.1293C38.3652 18.6798 37.6061 18.4061 36.8447 18.1567C36.5638 18.0645 36.2581 18.0471 35.9805 17.9488C35.4079 17.747 34.8005 17.7279 34.2144 17.624C33.7649 17.5447 33.289 17.5897 32.8203 17.6498C31.5991 17.7983 30.4111 18.149 29.305 18.6877C28.7875 18.9428 28.2936 19.2254 27.8643 19.6379C27.435 20.0503 26.9326 20.3683 26.5342 20.8448C26.0452 21.4295 25.6269 22.0698 25.2879 22.7525C24.8946 23.533 24.6603 24.3641 24.4288 25.1929C24.1304 26.2605 24.1433 27.3529 24.3299 28.452C24.4423 29.1116 24.717 29.714 24.9098 30.3445C25.1157 31.0212 25.4203 31.6638 25.8139 32.2516C26.0386 32.5887 26.3044 32.8843 26.5595 33.1917C27.1265 33.8761 27.812 34.4279 28.5363 34.9426C28.9016 35.201 29.3342 35.3078 29.7079 35.5315C30.24 35.8501 30.7716 36.131 31.4049 36.2057C32.2073 36.303 32.994 36.5249 33.8115 36.5081C34.324 36.4974 34.8263 36.3771 35.3349 36.3457C36.6076 36.2676 37.6645 35.6191 38.7625 35.0814C39.5683 34.688 40.1813 34.03 40.8163 33.4164C41.0484 33.1917 41.2051 32.8922 41.4271 32.6562C41.7597 32.3015 42.0267 31.8905 42.2154 31.4424C42.4166 30.9665 42.6757 30.5434 43.0746 30.2197C43.6107 29.7859 44.1922 29.573 44.8873 29.8713C45.1733 29.9938 45.393 30.2119 45.674 30.3321L45.6959 30.3979C45.7706 30.6996 46.0331 30.8985 46.1179 31.2025C46.246 31.6706 46.2033 32.1016 45.9493 32.5174C45.8433 32.6916 45.7561 32.8765 45.6892 33.0692C45.4582 33.7266 45.0357 34.2739 44.6367 34.8336C44.3614 35.219 44.036 35.564 43.7596 35.9518C43.5685 36.2059 43.3482 36.4368 43.1033 36.6395C42.6313 37.0464 42.148 37.4425 41.653 37.8195C41.2348 38.1325 40.7914 38.4103 40.3274 38.65C39.7829 38.9366 39.2497 39.258 38.6777 39.4755C38.0253 39.7257 37.3524 39.9188 36.6666 40.0526C35.4607 40.2835 34.2442 40.4026 33.0215 40.32C31.9539 40.2481 30.8862 40.1402 29.8658 39.7834C29.382 39.6148 28.8757 39.5126 28.4189 39.2648C27.7098 38.8804 27.0141 38.4646 26.2724 38.1511C25.7925 37.9482 25.5037 37.5594 25.1205 37.2661C24.8103 37.0284 24.5355 36.7502 24.2181 36.5187C23.8843 36.2749 23.6927 35.895 23.428 35.5837C23.0066 35.0881 22.5851 34.6009 22.2553 34.03C22.0362 33.6479 21.9182 33.2147 21.6591 32.8629C21.1309 32.142 20.9382 31.2958 20.7264 30.4619C20.51 29.6089 20.3482 28.7368 20.3173 27.8575C20.3038 27.4725 20.3701 27.0708 20.3358 26.6864C20.2341 25.5362 20.5156 24.4388 20.7539 23.3352C20.8747 22.7733 21.1292 22.2485 21.2894 21.6944C21.3883 21.3511 21.6895 21.1134 21.8238 20.7808C22.1997 19.8525 22.8386 19.1085 23.4825 18.3578C24.0524 17.7064 24.6704 17.0986 25.3312 16.5395C26.1224 15.8551 27.0119 15.3246 27.9722 14.8931C28.5341 14.6414 29.0741 14.3553 29.6658 14.1772C30.6491 13.8811 31.6414 13.6558 32.6759 13.6119C33.1327 13.5923 33.589 13.5692 34.0458 13.5704C35.6939 13.576 37.3162 13.8294 38.8114 14.5009C39.8363 14.9605 40.8905 15.4168 41.7699 16.1771C42.1739 16.5266 42.5964 16.8676 43.0274 17.1919C43.1505 17.2921 43.2582 17.4099 43.3471 17.5414C43.5989 17.8869 43.8838 17.9409 44.1754 17.6661C45.0441 16.8474 46.0746 16.2276 46.9254 15.387C47.2625 15.0499 47.7452 15.1218 47.993 15.5297C48.3695 16.1529 48.8257 16.7159 49.259 17.2969C49.4706 17.5699 49.6176 17.8873 49.6888 18.2252ZM23.9006 27.1034C23.8641 26.2909 23.9079 25.53 24.1484 24.7917C24.4479 23.8718 24.7918 22.9728 25.2458 22.1209C25.3155 21.9906 25.3216 21.836 25.4262 21.7158C25.6824 21.4208 25.8959 21.0926 26.1454 20.7898C26.7967 19.9992 27.535 19.3046 28.4032 18.7669C29.1336 18.3174 29.89 17.9117 30.7216 17.6712C30.9902 17.5931 31.2622 17.5284 31.5291 17.4464C32.0708 17.2747 32.6307 17.1664 33.1974 17.1239C34.1925 17.0581 35.159 17.2042 36.1193 17.4824C36.8815 17.6974 37.6276 17.9663 38.3518 18.287C39.2267 18.6804 39.9139 19.3361 40.6275 19.9435C41.0826 20.3312 41.036 20.7926 40.5747 21.1235C40.0128 21.5259 39.4958 21.972 38.9682 22.4131C38.1191 23.1222 37.2027 23.7555 36.3575 24.472C35.9474 24.8198 35.4804 25.0968 35.1163 25.5047C34.8213 25.8351 34.4302 25.8273 34.1217 25.4648C33.8284 25.1204 33.4632 24.8574 33.1665 24.5248C32.5309 23.8128 31.7926 23.2082 31.1183 22.5373C30.8935 22.3125 30.6761 22.2856 30.476 22.4811C29.9315 23.0082 29.3916 23.5403 28.8684 24.0876C28.6184 24.3495 28.6437 24.5371 28.8915 24.7956C29.4573 25.3789 30.0383 25.9475 30.5991 26.5375C31.1835 27.1523 31.8353 27.7035 32.4455 28.2935C32.99 28.8189 33.521 29.3611 34.0571 29.8933C34.2335 30.0697 34.4589 30.1838 34.6477 29.9832C35.0607 29.5432 35.5866 29.2527 36.0356 28.8593C36.611 28.3576 37.183 27.8406 37.8163 27.4192C38.7063 26.8264 39.4458 26.0565 40.2887 25.4103C41.0753 24.8074 41.871 24.1994 42.6088 23.5257C43.0611 23.1121 43.6011 22.7952 44.063 22.3912C44.939 21.6231 45.9207 20.9864 46.768 20.1851C47.1288 19.8441 47.6008 19.6468 47.9323 19.2704C48.1349 19.0493 48.3678 18.8581 48.624 18.7023C48.7495 18.6221 48.8698 18.5341 48.9842 18.4387C49.1708 18.2831 49.2123 18.096 49.123 17.8617C49.0061 17.5554 48.8027 17.3205 48.5853 17.0862C48.2341 16.7081 48.0295 16.2271 47.7154 15.8219C47.5154 15.564 47.2597 15.564 47.0333 15.8017C46.827 16.018 46.6321 16.2552 46.3921 16.4282C45.6984 16.9319 45.0305 17.4703 44.3912 18.0415C44.0029 18.3865 43.6045 18.4163 43.319 18.1022C42.9744 17.7236 42.6025 17.3707 42.2065 17.0463C41.7519 16.6715 41.2692 16.3394 40.7961 15.9922C40.3095 15.6342 39.7352 15.4477 39.1963 15.192C38.8839 15.0442 38.6074 14.8251 38.2725 14.7228C36.8678 14.2935 35.431 14.0306 33.9576 14.0041C33.2271 13.9912 32.5079 14.0766 31.783 14.1531C30.1417 14.3261 28.6734 14.9751 27.2423 15.7264C26.1094 16.322 25.1593 17.1654 24.2714 18.0741C23.8602 18.4937 23.4755 18.9384 23.1195 19.4058C22.8335 19.7828 22.6093 20.2065 22.3632 20.6128C22.2621 20.7813 22.2812 20.9954 22.1485 21.1544C21.5164 21.9153 21.3529 22.8795 21.0938 23.7814C20.8387 24.6709 20.8342 25.6216 20.7831 26.5505C20.7404 27.3152 20.8483 28.076 20.882 28.8386C20.9281 29.8702 21.2478 30.8361 21.5591 31.7953C21.7659 32.4325 22.1918 32.9916 22.4879 33.6058C22.8976 34.456 23.5943 35.1184 24.1523 35.8725C24.4063 36.2147 24.7878 36.4131 25.0946 36.6974C26.0431 37.5762 27.0799 38.3208 28.2734 38.8495C28.7071 39.0417 29.1342 39.2339 29.5849 39.3878C30.9059 39.8374 32.2725 39.9818 33.6531 40.0352C34.3723 40.0633 35.0865 39.979 35.7979 39.8767C36.9914 39.7031 38.1641 39.4581 39.2379 38.8759C39.8689 38.5343 40.5219 38.2342 41.1326 37.8533C41.6131 37.5532 41.9446 37.0795 42.4172 36.7817C43.1336 36.3322 43.5882 35.6354 44.0995 35.001C44.7434 34.2002 45.2729 33.3139 45.6729 32.3673C46.0033 31.5936 45.7173 30.8148 45.1885 30.4422C44.5536 29.9927 43.7663 30.0416 43.1836 30.5799C42.8414 30.8963 42.6492 31.28 42.4666 31.6947C42.1446 32.4252 41.5968 33.022 41.0815 33.6114C40.4705 34.3079 39.7533 34.9036 38.9564 35.3764C38.6046 35.5865 38.2175 35.7276 37.8786 35.9557C37.6813 36.0957 37.4622 36.202 37.2302 36.2704C36.5924 36.4389 35.9693 36.6637 35.3135 36.7626C34.2602 36.9186 33.1894 36.9151 32.137 36.7525C30.9486 36.5783 29.8506 36.1175 28.8178 35.5017C28.2815 35.1833 27.7753 34.8165 27.3057 34.4059C26.5148 33.723 25.8364 32.9195 25.2958 32.0251C24.9828 31.5009 24.803 30.921 24.5625 30.3664C24.1029 29.3077 23.8113 28.2233 23.9006 27.1034Z" fill="#F1B087"/>
<path d="M45.6722 30.3338C45.3912 30.2136 45.1737 29.9967 44.8855 29.8731C44.1904 29.5747 43.6088 29.7877 43.0728 30.2215C42.6738 30.5445 42.4148 30.9682 42.2136 31.4442C42.0241 31.8918 41.7566 32.3022 41.4236 32.6562C41.1988 32.8922 41.0448 33.1923 40.8128 33.4165C40.1778 34.0301 39.5648 34.6869 38.759 35.0814C37.6644 35.6158 36.608 36.2659 35.3353 36.3463C34.8296 36.3777 34.3238 36.498 33.8119 36.5087C32.9944 36.5255 32.2077 36.3036 31.4053 36.2063C30.772 36.1299 30.2404 35.849 29.7083 35.5321C29.3346 35.3073 28.902 35.2017 28.5367 34.9432C27.8124 34.4302 27.1269 33.8755 26.5599 33.1923C26.3048 32.8849 26.0379 32.5871 25.8143 32.2522C25.42 31.6633 25.1149 31.0193 24.909 30.3411C24.7163 29.7107 24.4415 29.1083 24.3292 28.4486C24.1426 27.3518 24.1297 26.2572 24.428 25.1896C24.6596 24.3607 24.8956 23.5297 25.2872 22.7492C25.6262 22.0665 26.0445 21.4262 26.5335 20.8415C26.9319 20.3661 27.4326 20.0481 27.8636 19.6345C28.2945 19.221 28.7868 18.9394 29.3043 18.6843C30.4104 18.1457 31.5984 17.795 32.8196 17.6465C33.2882 17.5864 33.767 17.5414 34.2137 17.6206C34.8015 17.7246 35.4072 17.7437 35.9798 17.9454C36.2574 18.0438 36.5636 18.0612 36.844 18.1533C37.6054 18.4028 38.3645 18.677 39.0298 19.126C39.4973 19.4407 39.9131 19.8346 40.334 20.2127C40.5447 20.4021 40.5071 20.7505 40.2374 20.9112C39.1905 21.5355 38.3966 22.4761 37.3789 23.1414C36.7608 23.5448 36.2298 24.0747 35.6572 24.5462C35.4016 24.7569 35.0987 24.9013 34.888 25.1811C34.7559 25.3564 34.5087 25.3362 34.3637 25.1693C33.9181 24.6569 33.3613 24.2557 32.9404 23.7174C32.6033 23.2892 32.1167 23.0195 31.7452 22.625C31.5413 22.4081 31.3289 22.2002 31.1462 21.9636C30.9636 21.7271 30.6647 21.7007 30.4427 21.9147C30.2412 22.1082 30.0506 22.3126 29.8718 22.5272C29.4223 23.0655 28.7969 23.4263 28.3968 24.0073C28.1226 24.4062 28.144 24.6254 28.4783 24.9659C28.7592 25.2525 29.0486 25.5334 29.3318 25.8183C29.6544 26.1426 29.9741 26.4685 30.2786 26.8107C30.6445 27.2209 31.0917 27.5507 31.489 27.9289C32.2571 28.6593 33.0017 29.4174 33.7434 30.1765C33.9372 30.3807 34.187 30.523 34.4615 30.5856C34.6211 31.1143 35.0206 31.4475 35.4167 31.7937C35.7573 32.0909 36.0562 32.4359 36.3888 32.7422C36.9637 33.2715 37.4475 33.8935 38.0662 34.3779C38.1358 34.4397 38.1994 34.508 38.2561 34.5819C38.3364 34.6746 38.2948 34.8668 38.473 34.8746C38.6667 34.8847 38.8599 34.846 39.0349 34.7622C39.413 34.5791 39.653 34.2318 39.9778 33.9817C40.9099 33.2553 41.6538 32.3154 42.1467 31.2413C42.4165 30.667 42.7761 30.2214 43.2986 29.8826C44.1185 29.3516 44.9776 29.6545 45.6058 30.1872C45.6283 30.2042 45.6461 30.2265 45.6576 30.2521C45.6692 30.2777 45.6742 30.3058 45.6722 30.3338Z" fill="#FE6F16"/>
<path d="M66.9817 25.3489C66.3074 25.3489 65.6331 25.3287 64.9628 25.3545C64.2278 25.3826 64.0244 24.973 64.2211 24.388C64.3473 23.9887 64.5199 23.6055 64.7352 23.2462C64.9849 22.8595 65.3559 22.5666 65.7899 22.4135C66.5766 22.1241 67.3852 22.0083 68.1808 22.373C68.8675 22.6882 69.435 23.1338 69.6204 23.9244C69.6693 24.1323 69.7362 24.3358 69.789 24.5425C69.9014 25.0016 69.648 25.3399 69.1709 25.3461C68.4404 25.3545 67.71 25.3461 66.9834 25.3461L66.9817 25.3489ZM68.7798 24.9151C69.2962 24.9629 69.4659 24.7634 69.367 24.3015C69.2108 23.571 68.7731 23.0782 68.1207 22.7427C67.6493 22.5006 67.1497 22.591 66.6597 22.5967C65.6416 22.6085 64.6841 23.5244 64.5947 24.538C64.5734 24.7785 64.6661 24.8876 64.9189 24.9224C65.1999 24.9617 65.4752 24.9162 65.7528 24.9157C66.7613 24.9142 67.7699 24.914 68.7787 24.9151H68.7798Z" fill="#9D9D9D"/>
<path d="M97.1752 28.9618C97.1752 29.3259 97.1752 29.6904 97.1752 30.0553C97.1752 30.8037 97.0331 30.9616 96.2913 31.0605C95.5743 31.1555 94.8534 31.16 94.1516 30.9959C93.4329 30.8273 92.8182 30.4599 92.6344 29.6839C92.4968 29.1113 92.4844 28.5039 92.7828 27.9734C93.025 27.5452 93.4638 27.2862 93.9201 27.1109C94.8365 26.758 95.7895 26.8333 96.7369 26.9423C96.9965 26.9726 97.1657 27.257 97.173 27.6166C97.182 28.0661 97.173 28.5157 97.173 28.9652L97.1752 28.9618ZM96.8021 28.9652C96.8021 28.619 96.8088 28.2735 96.8021 27.9279C96.7942 27.5908 96.6335 27.3851 96.3397 27.3592C95.7159 27.3031 95.0827 27.2648 94.4758 27.4272C93.0795 27.7998 92.944 28.2392 93.0075 29.2894C93.0075 29.299 93.0075 29.3085 93.0075 29.3175C93.0238 29.6951 93.1682 29.9918 93.497 30.2092C94.3651 30.7757 95.3142 30.7712 96.2807 30.6082C96.6847 30.5413 96.7993 30.37 96.8032 29.9463C96.8049 29.6192 96.8027 29.2922 96.8021 28.9652Z" fill="#9D9D9D"/>
</svg>
