<svg width="119" height="54" viewBox="0 0 119 54" fill="none" xmlns="http://www.w3.org/2000/svg">
<path d="M31.6789 7.01387C35.9459 7.02714 39.4857 8.66242 42.3565 11.798C42.5409 11.9994 42.5704 12.1048 42.3329 12.3047C41.1591 13.2916 39.9976 14.2938 38.8484 15.3112C38.6124 15.52 38.5135 15.4801 38.3078 15.2647C35.6325 12.4618 32.3936 11.542 28.741 12.81C25.1673 14.0506 23.1352 16.7141 22.7959 20.4885C22.3319 25.6517 26.422 30.0707 31.6081 30.0936C34.2509 30.1054 36.4859 29.1074 38.2716 27.1535C38.5047 26.8975 38.6257 26.8673 38.8971 27.1085C40.0338 28.1205 41.1918 29.1082 42.3513 30.0936C42.5438 30.2573 42.5615 30.354 42.3882 30.5516C37.0855 36.5779 27.8293 37.0684 21.9779 31.5968C19.1831 28.9842 17.6533 25.7454 17.4667 21.9121C17.131 15.0058 21.671 8.96852 28.3832 7.36054C29.4609 7.09553 30.5697 6.9789 31.6789 7.01387Z" fill="#1442A3"/>
<path d="M103.484 34.016C102.58 34.4896 101.704 34.8547 100.772 35.0892C94.5346 36.6566 88.2959 32.2812 87.6697 25.8927C87.0936 20.0177 91.3238 14.8773 97.2136 14.2843C97.4902 14.2563 97.5691 14.3042 97.5661 14.5948C97.5514 16.1526 97.5543 17.7112 97.5661 19.269C97.5661 19.5065 97.5123 19.5914 97.2578 19.6378C94.6024 20.1468 92.6957 22.6074 92.9384 25.1883C93.201 27.9816 95.3998 30.0455 98.1717 30.1023C100.654 30.1532 102.917 28.2996 103.387 25.8087C103.439 25.5298 103.541 25.4576 103.812 25.4598C105.348 25.4721 106.884 25.4721 108.419 25.4598C108.694 25.4598 108.795 25.5121 108.794 25.816C108.785 32.2327 108.785 38.6499 108.794 45.0676C108.794 45.3781 108.685 45.4268 108.413 45.4246C106.89 45.4135 105.366 45.4106 103.84 45.4246C103.537 45.4283 103.477 45.3302 103.478 45.0506C103.486 41.5175 103.488 37.9841 103.483 34.4505L103.484 34.016Z" fill="#1441A3"/>
<path d="M59.5323 24.7982C59.5323 21.4126 59.5375 18.027 59.5234 14.6414C59.5234 14.3065 59.6201 14.2364 59.9365 14.2401C61.4353 14.2563 62.9351 14.2563 64.4359 14.2401C64.7442 14.2401 64.8785 14.2925 64.8541 14.6377C64.8224 15.1112 64.8475 15.1134 65.2819 14.9327C70.8789 12.6373 77.1788 16.242 78.0012 22.2166C78.0562 22.6298 78.0835 23.0463 78.0831 23.4631C78.089 27.2906 78.0831 31.1173 78.0942 34.9447C78.0942 35.2877 78.0293 35.4043 77.6597 35.3984C76.1734 35.3755 74.6872 35.3799 73.2009 35.3984C72.8749 35.3984 72.7664 35.3305 72.7679 34.9794C72.7819 31.1888 72.7782 27.3983 72.776 23.6077C72.776 21.5166 71.3746 19.8946 69.3137 19.5819C67.1267 19.2499 64.95 21.0231 64.8822 23.236C64.7892 26.2646 64.8637 29.2947 64.8467 32.324C64.8416 33.2438 64.8379 34.168 64.8512 35.0841C64.8512 35.3246 64.7826 35.3976 64.5406 35.3961C62.9917 35.3866 61.4427 35.3836 59.8937 35.3961C59.5987 35.3961 59.5249 35.3165 59.5249 35.0273C59.5352 31.6186 59.5377 28.2089 59.5323 24.7982Z" fill="#1442A3"/>
<path d="M44.6365 21.2278C44.6365 16.6276 44.6338 12.0274 44.6284 7.42717C44.6284 7.08345 44.7228 7.00747 45.0526 7.0119C46.5875 7.02886 48.1232 7.02517 49.6589 7.0119C49.9186 7.0119 49.9835 7.08565 49.9835 7.33865C49.9766 16.576 49.9766 25.8133 49.9835 35.0506C49.9835 35.3272 49.9097 35.4017 49.6346 35.3994C48.0871 35.3872 46.5381 35.3872 44.9877 35.3994C44.6882 35.3994 44.6262 35.3065 44.627 35.0255C44.6378 30.4272 44.641 25.828 44.6365 21.2278Z" fill="#1543A3"/>
<path d="M98.8658 16.8727C98.8658 16.1122 98.8776 15.3517 98.8599 14.592C98.8533 14.3198 98.9263 14.2335 99.2074 14.2364C100.509 14.2505 101.811 14.2364 103.113 14.2497C103.425 14.2497 103.508 14.1553 103.505 13.8536C103.491 12.5658 103.505 11.2779 103.494 9.99004C103.494 9.71196 103.553 9.60648 103.856 9.60944C105.38 9.62419 106.903 9.62419 108.424 9.60944C108.733 9.60944 108.785 9.72007 108.782 9.99299C108.77 11.2808 108.786 12.5687 108.77 13.8558C108.767 14.1568 108.844 14.2549 109.156 14.2505C110.446 14.2335 111.738 14.2505 113.025 14.2372C113.315 14.2372 113.433 14.291 113.429 14.6148C113.412 16.1358 113.414 17.6567 113.429 19.1769C113.429 19.4646 113.355 19.5516 113.06 19.5457C111.784 19.5303 110.506 19.5561 109.229 19.5288C108.838 19.5199 108.763 19.6461 108.77 20.0053C108.79 21.2681 108.77 22.5316 108.784 23.7951C108.784 24.0739 108.721 24.1757 108.419 24.1728C106.896 24.158 105.373 24.1602 103.851 24.1728C103.579 24.1728 103.491 24.1027 103.494 23.8231C103.508 22.5227 103.494 21.2231 103.507 19.9234C103.507 19.6143 103.417 19.5295 103.112 19.5339C101.822 19.5494 100.53 19.5339 99.2428 19.548C98.9278 19.5524 98.8518 19.4528 98.8599 19.1533C98.8799 18.3936 98.8658 17.6331 98.8658 16.8727Z" fill="#40C3F1"/>
<path d="M85.5125 24.8367C85.5125 28.2083 85.5051 31.5799 85.5228 34.9515C85.5228 35.3425 85.4078 35.4103 85.0515 35.4059C83.5416 35.386 82.031 35.3919 80.5204 35.4059C80.2637 35.4059 80.1907 35.3373 80.1914 35.0777C80.1983 28.2489 80.1983 21.4199 80.1914 14.5906C80.1914 14.3074 80.2755 14.2439 80.5455 14.2461C82.0797 14.258 83.6144 14.258 85.1496 14.2461C85.4402 14.2461 85.5184 14.3199 85.5184 14.615C85.5088 18.0197 85.5125 21.4282 85.5125 24.8367Z" fill="#1442A3"/>
<path d="M15.3336 24.8397C15.3336 28.2238 15.3299 31.608 15.341 34.9914C15.341 35.3048 15.2798 35.4096 14.9427 35.4052C13.4202 35.3852 11.8978 35.3897 10.3747 35.4052C10.0848 35.4052 10.0059 35.3218 10.0059 35.0364C10.0137 28.2322 10.0137 21.4273 10.0059 14.6216C10.0059 14.3428 10.0634 14.2432 10.3658 14.2462C11.9005 14.2614 13.4355 14.2614 14.9707 14.2462C15.2657 14.2462 15.3395 14.3317 15.3395 14.615C15.3306 18.0232 15.3287 21.4314 15.3336 24.8397Z" fill="#1442A3"/>
<path d="M52.1358 24.7965C52.1358 21.4116 52.141 18.026 52.127 14.6411C52.127 14.3107 52.2147 14.2347 52.5363 14.2384C54.0462 14.2561 55.5605 14.2517 57.0682 14.2384C57.3352 14.2384 57.4488 14.2738 57.4481 14.5902C57.4377 21.4092 57.4377 28.2284 57.4481 35.0478C57.4481 35.3273 57.3743 35.3959 57.0992 35.3937C55.564 35.3804 54.0287 35.3804 52.4935 35.3937C52.1985 35.3937 52.1299 35.3045 52.1306 35.0212C52.141 31.615 52.1427 28.2067 52.1358 24.7965Z" fill="#1442A3"/>
<path d="M54.7847 7.02054C56.1065 6.89662 57.432 8.09376 57.4401 9.62208C57.4482 11.0825 56.229 12.3025 54.7722 12.2871C53.2763 12.2716 52.1633 11.1069 52.1257 9.61028C52.0925 8.31283 53.297 6.8922 54.7847 7.02054Z" fill="#1543A3"/>
<path d="M82.8621 7.01895C84.0422 6.88692 85.4938 7.93875 85.5086 9.62639C85.5091 9.9766 85.4403 10.3234 85.3062 10.647C85.1721 10.9705 84.9753 11.2642 84.7272 11.5114C84.4791 11.7585 84.1846 11.9542 83.8605 12.087C83.5365 12.2199 83.1894 12.2873 82.8392 12.2855C82.1383 12.2829 81.4668 12.0034 80.9711 11.5077C80.4755 11.0121 80.1959 10.3406 80.1934 9.63967C80.1853 8.10103 81.5108 6.89135 82.8621 7.01895Z" fill="#1543A3"/>
<path d="M10.0117 9.63489C10.0117 8.18844 11.155 7.08351 12.5756 7.00385C13.9963 6.92419 15.3247 8.0896 15.3299 9.63489C15.3358 11.0843 14.1497 12.2674 12.687 12.2903C12.3368 12.2924 11.9896 12.2253 11.6653 12.0929C11.3411 11.9605 11.0462 11.7653 10.7976 11.5185C10.549 11.2718 10.3516 10.9784 10.2167 10.6551C10.0819 10.3319 10.0122 9.98514 10.0117 9.63489Z" fill="#1442A3"/>
<path d="M69.016 42.3126C69.016 43.2316 69.0064 44.1514 69.0219 45.0705C69.0263 45.339 68.9621 45.4349 68.6767 45.4275C68.0866 45.4127 68.0866 45.4275 68.0866 44.8499C68.0866 44.2252 68.0814 43.6004 68.0866 42.9749C68.0866 42.775 68.0652 42.6644 67.8129 42.6681C66.868 42.6836 65.9232 42.6806 64.9783 42.6681C64.7445 42.6681 64.6833 42.7588 64.6892 42.9727C64.698 43.6712 64.6803 44.3698 64.6987 45.0683C64.7054 45.336 64.6397 45.4673 64.3543 45.4186C64.342 45.4179 64.3297 45.4179 64.3174 45.4186C63.7671 45.4186 63.7671 45.4186 63.7671 44.8831C63.7671 43.1062 63.7738 41.3286 63.7598 39.5517C63.7598 39.2567 63.8225 39.1136 64.1374 39.1674C64.1983 39.1766 64.2602 39.1766 64.3211 39.1674C64.5999 39.1291 64.7113 39.2205 64.6995 39.5259C64.6759 40.1742 64.6995 40.8248 64.6877 41.4739C64.6818 41.7099 64.7467 41.7933 64.9938 41.7896C65.9261 41.7771 66.8592 41.7756 67.7923 41.7896C68.0512 41.794 68.0925 41.693 68.0873 41.4695C68.0755 40.8204 68.0947 40.1706 68.0777 39.5207C68.0711 39.2611 68.1212 39.1519 68.4156 39.1608C69.1377 39.1903 69.0056 39.087 69.013 39.7722C69.0219 40.6212 69.016 41.4665 69.016 42.3126Z" fill="#1A47A5"/>
<path d="M82.2254 44.7976C82.2254 45.4172 82.2158 46.0383 82.2306 46.6579C82.2357 46.8961 82.1959 47.0068 81.9178 47.0009C81.3218 46.9891 81.3211 47.0053 81.3211 46.3975C81.3211 44.6199 81.3277 42.8422 81.3145 41.0646C81.3145 40.788 81.3882 40.7076 81.6633 40.7157C82.2143 40.7319 82.2143 40.7157 82.2247 41.2512C82.2278 41.2847 82.2332 41.318 82.2409 41.3508C82.3478 41.3906 82.3729 41.2962 82.4179 41.2505C83.4646 40.1972 85.119 40.4494 85.7762 41.7838C86.2033 42.6505 86.1967 43.5437 85.7512 44.4038C85.0873 45.6887 83.4513 45.9247 82.4319 44.8979C82.3941 44.8489 82.3629 44.7951 82.339 44.7379L82.2254 44.7976ZM82.2342 43.0783C82.2401 43.8542 82.6355 44.465 83.2603 44.6619C84.0252 44.9038 84.8004 44.4768 85.0504 43.6765C85.3529 42.7095 84.9103 41.7071 84.0768 41.4681C83.0928 41.187 82.2261 41.9446 82.2342 43.0783Z" fill="#1A47A5"/>
<path d="M33.1479 44.1074C33.2836 44.0336 33.2954 43.9008 33.3404 43.7931C33.9571 42.3637 34.5685 40.9327 35.1845 39.5047C35.239 39.3793 35.242 39.1853 35.4338 39.1779C35.7155 39.1661 36.0039 39.1477 36.2761 39.2008C36.4059 39.2266 36.2761 39.3882 36.24 39.4752C35.7369 40.6598 35.2304 41.8424 34.7205 43.0231C34.4203 43.7216 34.1098 44.4149 33.8236 45.1186C33.7314 45.3465 33.6133 45.4306 33.3626 45.4262C32.6441 45.4137 32.6486 45.4262 32.366 44.7624C31.6211 43.0285 30.8741 41.2956 30.1252 39.5637C29.9541 39.1676 29.9548 39.161 30.3664 39.1676C31.1505 39.1801 30.9476 39.0393 31.2596 39.7577C31.8497 41.1053 32.4243 42.4581 33.0063 43.8079C33.052 43.9075 33.1 44.0048 33.1479 44.1074Z" fill="#1A47A5"/>
<path d="M24.4575 43.3938C23.9537 43.3938 23.4492 43.4123 22.9469 43.3872C22.6024 43.371 22.6201 43.5111 22.716 43.756C22.8362 44.0818 23.068 44.3546 23.3702 44.5258C23.6724 44.697 24.0255 44.7556 24.3668 44.6913C24.6324 44.6442 24.8902 44.5601 25.1324 44.4412C25.2563 44.3822 25.3471 44.1676 25.5012 44.2745C25.6768 44.4086 25.8338 44.5653 25.9681 44.7407C26.0419 44.8322 25.9357 44.8882 25.8759 44.9465C25.0867 45.6841 23.52 45.7306 22.6194 45.0365C21.6775 44.3107 21.3986 42.9299 21.9747 41.8434C22.2343 41.3488 22.6631 40.964 23.1828 40.7594C23.7026 40.5548 24.2786 40.544 24.8056 40.7288C25.7195 41.0372 26.0957 41.7689 26.2543 42.6466C26.39 43.3938 26.3827 43.3953 25.6369 43.3953L24.4575 43.3938ZM24.0009 42.6562C24.3793 42.6562 24.7592 42.6437 25.1376 42.6606C25.3972 42.6717 25.4164 42.5766 25.3456 42.359C25.1509 41.7622 24.6699 41.4074 24.0511 41.4274C23.4138 41.4473 22.8178 41.9024 22.6769 42.46C22.6275 42.6555 22.7256 42.6592 22.8643 42.6584C23.2427 42.6511 23.6218 42.6533 24.0009 42.6533V42.6562Z" fill="#1A47A5"/>
<path d="M17.1771 41.3284C17.7347 40.7383 18.3248 40.5067 19.0336 40.638C19.845 40.7856 20.4166 41.4273 20.4351 42.2512C20.4557 43.2189 20.4351 44.1881 20.4454 45.1559C20.4454 45.372 20.3716 45.4458 20.1688 45.4207C20.1197 45.4177 20.0704 45.4177 20.0213 45.4207C19.5426 45.4207 19.5426 45.4207 19.5426 44.9552C19.5426 44.1955 19.5426 43.4358 19.5426 42.6753C19.5426 41.8971 19.1192 41.4044 18.4642 41.4059C17.7 41.4059 17.183 41.9288 17.18 42.7078C17.18 43.5051 17.1689 44.3017 17.1852 45.0983C17.1903 45.3609 17.1033 45.4553 16.8496 45.4229C16.7516 45.4103 16.6525 45.4103 16.5545 45.4229C16.3192 45.4531 16.2668 45.344 16.2676 45.1278C16.2745 43.2032 16.2745 41.2788 16.2676 39.3546C16.2676 39.1119 16.3355 39.0433 16.5781 39.047C17.1793 39.0551 17.1793 39.0426 17.1793 39.6496L17.1771 41.3284Z" fill="#1A47A5"/>
<path d="M56.0214 44.9065C55.5552 45.3491 55.0153 45.56 54.3854 45.5327C53.4641 45.4922 52.8246 44.9375 52.7781 44.1313C52.7309 43.3044 53.3033 42.6494 54.2024 42.4938C54.7475 42.4001 55.2793 42.4695 55.8008 42.6244C56.0221 42.69 56.0848 42.6421 56.0619 42.4112C56.0007 41.7886 55.6054 41.4088 54.9769 41.3785C54.5578 41.3648 54.1424 41.4614 53.7724 41.6588C53.352 41.8727 53.4412 41.4375 53.3084 41.2959C53.1477 41.127 53.262 41.0319 53.442 40.9559C54.0733 40.6889 54.721 40.5281 55.4114 40.635C56.3024 40.7722 56.8976 41.3608 56.9449 42.2533C56.9965 43.2307 56.9699 44.2132 56.981 45.1927C56.981 45.3402 56.9389 45.4309 56.773 45.414C56.7361 45.414 56.6992 45.414 56.6623 45.414C56.118 45.4302 56.118 45.4302 56.0214 44.9065ZM56.0708 43.6651C56.0332 43.5456 56.1608 43.3502 55.9137 43.2919C55.3973 43.1702 54.8759 43.0765 54.3507 43.224C53.8956 43.3509 53.6382 43.6836 53.6684 44.0642C53.6979 44.433 53.9834 44.6992 54.4407 44.7811C55.2823 44.9331 56.07 44.402 56.0708 43.6651Z" fill="#1A47A5"/>
<path d="M96.5377 44.8229C95.8377 45.4867 95.1318 45.6608 94.3359 45.4513C93.7178 45.2891 93.2826 44.8177 93.2207 44.266C93.1469 43.5771 93.4235 43.0357 94.032 42.7089C94.7187 42.3401 95.4335 42.4301 96.1497 42.5909C96.5288 42.6757 96.5495 42.6588 96.4728 42.2715C96.3621 41.7154 95.9896 41.407 95.418 41.3812C94.9986 41.3666 94.5828 41.463 94.2127 41.6608C93.8262 41.8577 93.8764 41.4808 93.7598 41.334C93.6197 41.157 93.6743 41.039 93.8882 40.9541C94.5107 40.7004 95.1458 40.5374 95.8237 40.6333C96.7501 40.7646 97.3689 41.4107 97.3985 42.3408C97.428 43.2842 97.3984 44.2291 97.4102 45.1733C97.4102 45.3717 97.3365 45.441 97.1521 45.4204C97.1031 45.4141 97.0535 45.4141 97.0046 45.4204C96.6299 45.4794 96.3953 45.3909 96.5377 44.8229ZM96.5008 43.6656C96.5805 43.3779 96.4182 43.2739 96.1408 43.2333C95.8141 43.1759 95.4826 43.15 95.151 43.1559C94.9035 43.162 94.6629 43.2388 94.4576 43.3772C93.9332 43.7386 93.976 44.4098 94.5557 44.6768C95.0794 44.9166 95.5884 44.8244 96.0634 44.5212C96.3636 44.3287 96.5362 44.0595 96.5008 43.6656Z" fill="#1A47A5"/>
<path d="M75.2626 43.055C75.2632 43.3809 75.1994 43.7036 75.0749 44.0047C74.9504 44.3058 74.7677 44.5794 74.5372 44.8097C74.3067 45.04 74.033 45.2224 73.7318 45.3466C73.4306 45.4708 73.1078 45.5344 72.782 45.5335C72.1307 45.5306 71.5067 45.2718 71.0447 44.8128C70.5826 44.3538 70.3197 43.7315 70.3125 43.0802C70.3164 42.4221 70.5795 41.7919 71.0448 41.3265C71.5101 40.861 72.1401 40.5978 72.7982 40.5938C73.4493 40.6003 74.0719 40.8616 74.5325 41.3217C74.9932 41.7818 75.2553 42.404 75.2626 43.055ZM74.3443 43.055C74.3384 42.1699 73.6155 41.4094 72.7879 41.4109C71.9419 41.4109 71.2227 42.1884 71.2323 43.0905C71.2419 43.9925 71.9463 44.7273 72.7872 44.7317C73.628 44.7362 74.3472 43.9594 74.3472 43.0514L74.3443 43.055Z" fill="#1A47A5"/>
<path d="M50.5741 44.824C50.0334 45.4288 49.4249 45.625 48.7219 45.5004C47.9792 45.3683 47.3943 44.7628 47.3596 44.0134C47.3139 42.9859 47.3404 41.9547 47.3301 40.9257C47.3301 40.7583 47.4038 40.7288 47.5514 40.7185C48.2307 40.669 48.23 40.6646 48.23 41.3484C48.23 42.0594 48.2263 42.7705 48.23 43.4815C48.2351 44.2472 48.6681 44.7355 49.3283 44.7281C50.0814 44.7207 50.5866 44.2118 50.5874 43.4506C50.5874 42.6539 50.5999 41.8566 50.5807 41.0607C50.5733 40.7775 50.6655 40.6808 50.9355 40.7192C51.0209 40.7317 51.1076 40.7317 51.1929 40.7192C51.454 40.6823 51.5234 40.793 51.5212 41.0467C51.5094 42.395 51.5094 43.7434 51.5212 45.0917C51.5212 45.3418 51.4614 45.4605 51.1951 45.4237C51.1097 45.4119 51.0231 45.4119 50.9377 45.4237C50.67 45.4613 50.5401 45.3676 50.5866 45.0829C50.5893 44.9964 50.5852 44.9098 50.5741 44.824Z" fill="#1A47A5"/>
<path d="M78.3164 45.5387C77.6538 45.5397 77.0041 45.3547 76.4414 45.0047C76.2585 44.8926 76.2157 44.7974 76.35 44.602C76.6347 44.1874 76.6229 44.1793 77.0551 44.4139C77.4874 44.6484 77.9402 44.7753 78.4337 44.7229C78.7568 44.689 79.0563 44.5673 79.1101 44.2066C79.164 43.8459 78.8888 43.6903 78.5938 43.5907C78.1652 43.4432 77.7234 43.3311 77.3052 43.16C76.6642 42.8974 76.406 42.519 76.437 41.9798C76.4717 41.3713 76.8309 40.9117 77.4483 40.7185C78.2501 40.4669 78.9972 40.6447 79.7164 41.0283C79.8927 41.1212 79.9119 41.2186 79.7946 41.3713C79.7285 41.4597 79.6718 41.5549 79.6257 41.6552C79.5482 41.8168 79.4538 41.8219 79.3056 41.7356C79.0287 41.575 78.7238 41.4684 78.4072 41.4214C78.2621 41.3945 78.1133 41.3945 77.9683 41.4214C77.6828 41.4819 77.3996 41.5593 77.3649 41.9112C77.3302 42.263 77.6128 42.3633 77.865 42.4563C78.2338 42.5913 78.6152 42.6871 78.9825 42.8251C79.7813 43.1201 80.0653 43.5177 80.0196 44.2265C79.9797 44.8417 79.5032 45.3211 78.7656 45.4805C78.6171 45.508 78.4671 45.5274 78.3164 45.5387Z" fill="#1A47A5"/>
<path d="M12.0431 42.727C12.0431 41.9555 12.0269 41.1825 12.0505 40.4117C12.0608 40.0938 11.9539 40.0156 11.6551 40.0311C11.203 40.0554 10.7471 40.0259 10.2935 40.0421C10.0648 40.0502 9.97709 39.9735 10.008 39.7471C10.0177 39.6736 10.0177 39.5992 10.008 39.5258C9.97193 39.2647 10.053 39.1644 10.3437 39.1681C11.8041 39.1836 13.2646 39.1799 14.725 39.1681C14.9714 39.1681 15.0747 39.2227 15.0636 39.4919C15.0356 40.1299 15.1374 40.0215 14.5097 40.0303C14.1047 40.0362 13.6983 40.0466 13.2948 40.0259C13.044 40.0134 12.9865 40.1048 12.988 40.3394C12.9968 41.9083 12.9836 43.4764 12.9998 45.0453C12.9998 45.3581 12.9068 45.4355 12.6074 45.4237C12.0438 45.4016 12.0431 45.4193 12.0431 44.8535V42.727Z" fill="#1A47A5"/>
<path d="M90.1253 43.0174C90.1253 42.6258 90.1061 42.2319 90.1312 41.8417C90.1496 41.557 90.0479 41.4729 89.7779 41.4987C89.6672 41.5105 89.4888 41.5725 89.4504 41.4249C89.3854 41.2131 89.3892 40.9861 89.4615 40.7766C89.5072 40.6623 89.6879 40.7117 89.8037 40.7242C90.067 40.753 90.1548 40.6453 90.1283 40.3923C90.1113 40.2337 90.1113 40.0737 90.1283 39.9151C90.1452 39.7543 90.0257 39.5094 90.2109 39.4504C90.4322 39.3766 90.694 39.426 90.9389 39.4305C91.0126 39.4305 91.0326 39.5042 91.037 39.5647C91.0414 39.6252 91.037 39.7122 91.037 39.786C91.054 40.081 90.9204 40.4336 91.0908 40.6438C91.2612 40.854 91.6212 40.7176 91.8956 40.7132C92.2216 40.7132 92.1331 40.9344 92.125 41.0908C92.1168 41.2472 92.2503 41.5238 91.8956 41.5053C91.8712 41.5053 91.8469 41.5053 91.8218 41.5053C91.0362 41.5208 91.0363 41.5208 91.0363 42.2924C91.0363 42.8928 91.0296 43.4932 91.0363 44.0936C91.0444 44.6328 91.3225 44.8312 91.8203 44.6505C92.1788 44.5177 92.0932 44.8674 92.2135 44.9861C92.3462 45.1174 92.3108 45.2384 92.1397 45.3313C91.689 45.5718 91.2295 45.6264 90.767 45.3911C90.3164 45.1594 90.1423 44.7486 90.1253 44.2684C90.1135 43.8502 90.1253 43.4334 90.1253 43.0174Z" fill="#1A47A5"/>
<path d="M44.0423 43.0784C44.0423 42.6742 44.0254 42.2671 44.0482 41.8651C44.0645 41.5789 43.9745 41.4631 43.6794 41.4963C43.5644 41.5081 43.3696 41.5811 43.3379 41.393C43.3033 41.1924 43.2885 40.963 43.3556 40.7793C43.405 40.6436 43.6241 40.7181 43.765 40.7255C43.9701 40.7365 44.06 40.6709 44.0431 40.457C44.0291 40.2615 44.063 40.0616 44.035 39.8669C43.9796 39.4892 44.1235 39.3956 44.496 39.3985C44.8685 39.4015 44.943 39.5121 44.9326 39.8573C44.9075 40.6967 44.9253 40.7181 45.7492 40.7063C46.1268 40.7011 46.0398 40.9276 46.0545 41.1326C46.0722 41.3709 46.0464 41.5132 45.7329 41.5088C44.9216 41.4977 44.9216 41.5147 44.9216 42.3401C44.9216 42.9302 44.909 43.5203 44.9297 44.1052C44.9489 44.6481 45.2247 44.8266 45.7322 44.6422C46.0597 44.5241 45.9926 44.8413 46.101 44.9571C46.2094 45.0729 46.267 45.199 46.0634 45.3104C45.6031 45.5612 45.1377 45.6313 44.6619 45.3842C44.2275 45.1555 44.0423 44.7742 44.0401 44.2962C44.0409 43.8876 44.0423 43.4834 44.0423 43.0784Z" fill="#1A47A5"/>
<path d="M99.8266 42.246C99.8266 43.1901 99.8163 44.1342 99.8332 45.0776C99.8377 45.3542 99.7595 45.4642 99.4821 45.4243C99.3843 45.411 99.285 45.411 99.1871 45.4243C98.9548 45.4538 98.8958 45.3506 98.8965 45.1293C98.9034 43.2046 98.9034 41.28 98.8965 39.3553C98.8965 39.1104 98.9703 39.044 99.2092 39.047C99.8266 39.0536 99.8266 39.0411 99.8266 39.6702V42.246Z" fill="#1A47A5"/>
<path d="M40.8659 41.5072C41.2479 40.957 41.7127 40.7003 42.2873 40.6221C42.5086 40.5911 42.5824 40.6339 42.5979 40.878C42.6163 41.2468 42.5557 41.429 42.1154 41.4799C41.3158 41.5714 40.8519 42.1718 40.8489 42.981C40.8489 43.692 40.8386 44.4031 40.8533 45.1134C40.8585 45.3516 40.7936 45.4313 40.5472 45.4313C39.9121 45.4313 39.9122 45.4424 39.9122 44.8213C39.9122 43.5718 39.9195 42.3215 39.9062 41.0713C39.9062 40.8087 39.9543 40.6693 40.2434 40.7217C40.2557 40.7228 40.268 40.7228 40.2803 40.7217C40.8387 40.7217 40.8387 40.7217 40.8483 41.2771C40.849 41.3213 40.8548 41.37 40.8659 41.5072Z" fill="#1A47A5"/>
<path d="M58.4787 42.2475C58.4787 41.2886 58.4868 40.3356 58.4728 39.3796C58.4728 39.1289 58.5282 39.0108 58.7937 39.0521C58.867 39.0633 58.9416 39.0633 59.015 39.0521C59.2982 39.0101 59.3882 39.1097 59.3838 39.4092C59.369 41.2967 59.3639 43.1842 59.3838 45.0718C59.3889 45.4723 59.175 45.4258 58.9272 45.4236C58.6794 45.4214 58.4514 45.49 58.4655 45.0791C58.5009 44.1365 58.4787 43.1916 58.4787 42.2475Z" fill="#1A47A5"/>
<path d="M87.3463 43.0883C87.3463 42.403 87.353 41.7185 87.3463 41.0333C87.3463 40.812 87.3847 40.7088 87.6414 40.711C88.2698 40.7161 88.2698 40.7014 88.2698 41.3165C88.2698 42.5638 88.2602 43.8111 88.2772 45.0584C88.2772 45.3535 88.1946 45.4589 87.9084 45.4176C87.8104 45.4053 87.7113 45.4053 87.6133 45.4176C87.4024 45.4405 87.3389 45.3483 87.3419 45.1433C87.353 44.461 87.3471 43.7757 87.3463 43.0883Z" fill="#1543A3"/>
<path d="M37.4574 43.0546C37.4574 42.3804 37.4662 41.7062 37.4522 41.032C37.447 40.7967 37.5097 40.7134 37.7583 40.7149C38.3749 40.7149 38.375 40.7038 38.375 41.3367C38.375 42.5375 38.375 43.7383 38.375 44.9399C38.375 45.4887 38.4391 45.3942 37.8778 45.4282C37.5363 45.4488 37.4352 45.3426 37.4507 45.0026C37.4765 44.3542 37.4574 43.7036 37.4574 43.0546Z" fill="#1A47A5"/>
<path d="M38.4604 39.4212C38.46 39.4942 38.4448 39.5663 38.4156 39.6333C38.3865 39.7002 38.344 39.7604 38.2908 39.8104C38.2376 39.8604 38.1748 39.899 38.1061 39.9239C38.0375 39.9488 37.9646 39.9594 37.8917 39.9552C37.751 39.946 37.6186 39.8854 37.5198 39.7848C37.4209 39.6843 37.3624 39.551 37.3555 39.4102C37.3597 39.2626 37.4208 39.1224 37.5262 39.0189C37.6315 38.9155 37.7729 38.8569 37.9205 38.8555C37.9935 38.8557 38.0658 38.8707 38.1329 38.8995C38.2 38.9284 38.2605 38.9705 38.311 39.0233C38.3614 39.0761 38.4006 39.1386 38.4263 39.207C38.452 39.2754 38.4636 39.3482 38.4604 39.4212Z" fill="#1A47A5"/>
</svg>
