<svg width="180" height="54" viewBox="0 0 180 54" fill="none" xmlns="http://www.w3.org/2000/svg">
<rect width="180" height="54" fill="white"/>
<path d="M14.8184 48.9947C16.5566 48.7204 18.3149 48.5672 20.0773 48.543C20.3717 48.543 20.6621 48.547 21.0331 48.5631C22.3841 48.6196 23.7311 48.7648 25.062 48.9947" stroke="#A28100"/>
<path d="M13.3594 46.8462C15.6823 46.5679 18.0174 46.4187 20.3525 46.3945C20.7437 46.3945 21.1308 46.3986 21.6228 46.4147C23.3772 46.4752 25.1073 46.8341 26.7406 47.4713" stroke="#A28100"/>
<path d="M10 45.3881C10 45.3881 16.9447 43.9766 20.3525 43.9766C20.7437 43.9766 21.1349 43.9806 21.6269 43.9967C24.4621 44.0734 29.4065 45.5857 29.4065 45.5857" stroke="#A28100"/>
<path d="M19.5371 33.9141H20.0735V44.1779L20.3437 46.2508H19.8073L19.5371 44.1496V33.9141Z" fill="#A28100"/>
<path d="M12.9082 27.3127C12.9082 27.3127 14.3117 30.5874 15.9853 32.1804C17.0057 33.1362 18.3164 33.7331 19.7077 33.8742C19.7077 33.8742 23.0026 33.0273 24.7691 31.3214C25.9305 30.0551 26.7008 28.7323 27.092 27.0586" stroke="#A28100" stroke-width="0.8"/>
<path d="M16.2031 26.727C16.3604 28.2393 16.7234 29.5823 17.3041 30.9898C17.9091 32.1029 18.7398 33.0788 19.7481 33.8532C20.8773 32.8933 21.8573 31.7722 22.6639 30.526C23.8012 28.6588 24.0552 25.7188 24.0552 25.7188" stroke="#A28100" stroke-width="0.8"/>
<path d="M20.4654 26.1367C20.0904 27.1772 19.8403 28.2621 19.7234 29.3631C19.6185 30.7464 19.6347 32.2869 19.7395 33.6702" stroke="#A28100" stroke-width="0.8"/>
<path d="M19.7049 23.409C19.3891 24.6754 19.7516 25.8563 20.5145 26.0465C21.2774 26.2367 22.1518 25.3642 22.4675 24.0978C22.7833 22.8313 22.4208 21.6505 21.6579 21.4603C20.895 21.2701 20.0206 22.1425 19.7049 23.409Z" stroke="#A28100" stroke-width="0.6"/>
<path d="M21.5314 21.4219C21.5314 21.4219 21.2168 22.3898 20.9506 23.5714C20.6844 24.7531 20.4707 26.1525 20.4707 26.1525" stroke="#A28100" stroke-width="0.6"/>
<path d="M24.9365 17.2578C23.6389 17.7301 22.8049 18.7119 23.0738 19.4508C23.3427 20.1896 24.6127 20.4056 25.9103 19.9333C27.208 19.461 28.042 18.4792 27.7731 17.7404C27.5041 17.0015 26.2342 16.7855 24.9365 17.2578Z" stroke="#A28100" stroke-width="0.6"/>
<path d="M27.7915 17.6749C27.0793 18.1553 26.3232 18.5632 25.5297 18.8941C24.7002 19.186 23.8366 19.3842 22.959 19.4751" stroke="#A28100" stroke-width="0.4"/>
<path d="M18.616 14.8066C18.9462 14.257 20.4457 14.3298 21.3583 14.8782C22.2709 15.4266 22.7448 16.3135 22.4146 16.8632C22.0842 17.4128 21.0786 17.4108 20.166 16.8625C19.2534 16.3141 18.2857 15.3563 18.616 14.8066Z" fill="#A28100"/>
<path d="M18.9407 15.0019C18.8348 15.1782 19.3517 15.931 20.3611 16.5375C21.1216 16.9945 21.9004 16.9825 22.0894 16.6679C22.2784 16.3534 21.9234 15.6601 21.1628 15.2032C20.786 14.9767 20.246 14.8263 19.7535 14.808C19.2569 14.7966 18.9906 14.9189 18.9407 15.0019ZM18.6158 14.8066C18.946 14.257 20.4455 14.3298 21.3615 14.8803C22.2776 15.4307 22.746 16.3191 22.4178 16.8653C22.0896 17.4115 21.0819 17.4129 20.1693 16.8645C19.2567 16.3162 18.2855 15.3563 18.6158 14.8066Z" fill="#A28100"/>
<path d="M18.7861 14.9158C19.5102 15.0992 20.2119 15.3559 20.8796 15.6824C21.4198 16.012 21.8765 16.3667 22.3226 16.811" fill="#A28100"/>
<path d="M18.7861 14.9158C19.5102 15.0992 20.2119 15.3559 20.8796 15.6824C21.4198 16.012 21.8765 16.3667 22.3226 16.811" stroke="#EEEFEF" stroke-width="0.2"/>
<path d="M15.3247 24.2155C15.0536 25.4917 15.457 26.6587 16.2258 26.822C16.9946 26.9853 17.8376 26.0831 18.1087 24.8069C18.3798 23.5307 17.9764 22.3637 17.2076 22.2004C16.4388 22.0371 15.5958 22.9393 15.3247 24.2155Z" stroke="#A28100" stroke-width="0.599568" stroke-miterlimit="3.9985"/>
<path d="M17.0776 22.1504C17.0776 22.1504 16.7972 23.1283 16.5727 24.3181C16.3481 25.5079 16.1836 26.9134 16.1836 26.9134" stroke="#A28100" stroke-width="0.599568" stroke-miterlimit="3.9985"/>
<path d="M11.7892 25.2902C11.7499 26.4187 12.2648 27.3525 12.9391 27.3759C13.6135 27.3994 14.1921 26.5037 14.2313 25.3752C14.2706 24.2468 13.7557 23.313 13.0813 23.2895C12.407 23.2661 11.8284 24.1618 11.7892 25.2902Z" stroke="#A28100" stroke-width="0.599824" stroke-miterlimit="3.9995"/>
<path d="M12.9775 23.2834C12.9775 23.2834 12.8815 24.1695 12.8723 25.231C12.8591 26.2933 12.9632 27.4997 12.9632 27.4997" stroke="#A28100" stroke-width="0.599824" stroke-miterlimit="3.9995"/>
<path d="M23.7393 23.7443C23.3706 24.705 23.5335 25.6611 24.1033 25.8798C24.673 26.0985 25.4338 25.497 25.8026 24.5363C26.1714 23.5757 26.0084 22.6196 25.4387 22.4009C24.8689 22.1822 24.1081 22.7837 23.7393 23.7443Z" stroke="#A28100" stroke-width="0.6"/>
<path d="M25.3427 22.3269C25.3427 22.3269 24.9957 23.0684 24.6681 23.9831C24.3399 24.9017 24.0312 25.9934 24.0312 25.9934" stroke="#A28100" stroke-width="0.6"/>
<path d="M27.033 24.8924C26.503 25.7745 26.4975 26.7443 27.0206 27.0586C27.5437 27.373 28.3974 26.9127 28.9274 26.0307C29.4574 25.1486 29.4629 24.1788 28.9398 23.8645C28.4167 23.5501 27.563 24.0104 27.033 24.8924Z" stroke="#A28100" stroke-width="0.6"/>
<path d="M28.8731 23.7998C28.8731 23.7998 28.4026 24.4699 27.9211 25.3137C27.4396 26.1575 27.0703 27.1032 27.0703 27.1032" stroke="#A28100" stroke-width="0.6"/>
<path d="M16.8845 17.935C16.4809 18.2283 16.5285 18.9817 16.9908 19.6177C17.453 20.2537 18.1549 20.5315 18.5585 20.2382C18.9621 19.9448 18.9145 19.1915 18.4523 18.5555C17.99 17.9195 17.2881 17.6417 16.8845 17.935Z" stroke="#A28100" stroke-width="0.600168" stroke-miterlimit="4.0005"/>
<path d="M24.1686 13.8376C23.8486 14.5562 23.9028 15.2784 24.2896 15.4507C24.6764 15.6229 25.2493 15.18 25.5693 14.4613C25.8893 13.7427 25.8352 13.0205 25.4484 12.8483C25.0616 12.6761 24.4886 13.119 24.1686 13.8376Z" stroke="#A28100" stroke-width="0.600614" stroke-miterlimit="4.0021"/>
<path d="M28.8178 20.1656C28.5587 20.2548 28.4975 20.759 28.6809 21.2919C28.8644 21.8247 29.2231 22.1843 29.4821 22.0951C29.7412 22.0059 29.8024 21.5017 29.619 20.9689C29.4355 20.436 29.0768 20.0764 28.8178 20.1656Z" stroke="#A28100" stroke-width="0.6"/>
<path d="M28.2796 12.9993C28.0206 13.0885 27.9399 13.5364 28.0995 13.9997C28.259 14.463 28.5983 14.7663 28.8573 14.6771C29.1164 14.5879 29.197 14.14 29.0375 13.6767C28.878 13.2134 28.5387 12.9101 28.2796 12.9993Z" stroke="#A28100" stroke-width="0.6"/>
<path d="M21.6214 9.39776C21.3624 9.48696 21.2817 9.93485 21.4413 10.3982C21.6008 10.8615 21.9401 11.1648 22.1991 11.0756C22.4582 10.9864 22.5388 10.5385 22.3793 10.0752C22.2198 9.61185 21.8805 9.30857 21.6214 9.39776Z" stroke="#A28100" stroke-width="0.6"/>
<path d="M37.5156 39.9961V28.6718H39.8021V33.7005L44.4215 28.6718H47.4958L43.2319 33.0826L47.7276 39.9961H44.7691L41.656 34.6816L39.8021 36.5741V39.9961H37.5156ZM48.3996 35.7785C48.3996 35.0575 48.5773 34.3597 48.9326 33.6851C49.288 33.0105 49.7901 32.4955 50.4389 32.1402C51.0929 31.7848 51.8216 31.6072 52.625 31.6072C53.8661 31.6072 54.8831 32.0114 55.6762 32.8199C56.4693 33.6233 56.8658 34.6404 56.8658 35.8712C56.8658 37.1122 56.4641 38.1422 55.6608 38.961C54.8625 39.7747 53.8558 40.1815 52.6404 40.1815C51.8886 40.1815 51.1702 40.0115 50.4853 39.6717C49.8055 39.3318 49.288 38.8348 48.9326 38.1808C48.5773 37.5216 48.3996 36.7209 48.3996 35.7785ZM50.6243 35.8943C50.6243 36.708 50.8174 37.3311 51.2037 37.7637C51.5899 38.1963 52.0662 38.4125 52.6327 38.4125C53.1992 38.4125 53.673 38.1963 54.054 37.7637C54.4403 37.3311 54.6334 36.7028 54.6334 35.8789C54.6334 35.0755 54.4403 34.4575 54.054 34.025C53.673 33.5924 53.1992 33.3761 52.6327 33.3761C52.0662 33.3761 51.5899 33.5924 51.2037 34.025C50.8174 34.4575 50.6243 35.0807 50.6243 35.8943ZM60.6509 39.9961H58.4802V31.7926H60.4964V32.959C60.8414 32.408 61.1504 32.0449 61.4233 31.8698C61.7014 31.6947 62.0155 31.6072 62.3657 31.6072C62.8601 31.6072 63.3364 31.7436 63.7948 32.0166L63.1227 33.9091C62.7571 33.6722 62.4172 33.5538 62.1031 33.5538C61.7992 33.5538 61.5418 33.6387 61.3306 33.8087C61.1195 33.9735 60.9521 34.2747 60.8285 34.7125C60.7101 35.1502 60.6509 36.0668 60.6509 37.4624V39.9961ZM66.3593 34.2953L64.3896 33.94C64.611 33.1469 64.9921 32.5599 65.5328 32.1788C66.0735 31.7977 66.8769 31.6072 67.9429 31.6072C68.911 31.6072 69.632 31.723 70.1058 31.9548C70.5796 32.1814 70.9117 32.4723 71.1022 32.8277C71.2979 33.1778 71.3958 33.8241 71.3958 34.7665L71.3726 37.3002C71.3726 38.0212 71.4061 38.5542 71.473 38.8992C71.5451 39.2391 71.6764 39.6047 71.867 39.9961H69.7195C69.6629 39.8519 69.5934 39.6382 69.511 39.355C69.4749 39.2262 69.4492 39.1412 69.4337 39.1C69.063 39.4605 68.6664 39.7309 68.2441 39.9111C67.8219 40.0914 67.3713 40.1815 66.8923 40.1815C66.0478 40.1815 65.3809 39.9523 64.8917 39.494C64.4076 39.0357 64.1656 38.4563 64.1656 37.756C64.1656 37.2925 64.2763 36.8805 64.4977 36.52C64.7191 36.1544 65.0281 35.8763 65.4247 35.6858C65.8263 35.4901 66.4031 35.3201 67.155 35.1759C68.1695 34.9854 68.8724 34.8077 69.2638 34.6429V34.4267C69.2638 34.0095 69.1608 33.7134 68.9548 33.5383C68.7488 33.3581 68.36 33.268 67.7884 33.268C67.4022 33.268 67.1009 33.3452 66.8846 33.4997C66.6683 33.649 66.4932 33.9143 66.3593 34.2953ZM69.2638 36.0565C68.9857 36.1492 68.5454 36.26 67.9429 36.3887C67.3404 36.5174 66.9464 36.6436 66.761 36.7672C66.4778 36.968 66.3362 37.223 66.3362 37.5319C66.3362 37.8358 66.4495 38.0984 66.676 38.3199C66.9026 38.5413 67.191 38.652 67.5412 38.652C67.9326 38.652 68.3059 38.5233 68.6613 38.2658C68.9239 38.0701 69.0964 37.8306 69.1788 37.5474C69.2355 37.362 69.2638 37.0092 69.2638 36.4891V36.0565ZM73.466 39.9961V28.6718H75.6366V34.6816L78.178 31.7926H80.8507L78.0467 34.7897L81.0515 39.9961H78.711L76.6485 36.3115L75.6366 37.3697V39.9961H73.466ZM82.272 39.9961V28.6718H84.4426V34.6816L86.984 31.7926H89.6568L86.8527 34.7897L89.8576 39.9961H87.517L85.4546 36.3115L84.4426 37.3697V39.9961H82.272ZM92.7775 34.2953L90.8077 33.94C91.0292 33.1469 91.4102 32.5599 91.951 32.1788C92.4917 31.7977 93.2951 31.6072 94.361 31.6072C95.3292 31.6072 96.0502 31.723 96.5239 31.9548C96.9977 32.1814 97.3299 32.4723 97.5204 32.8277C97.7161 33.1778 97.8139 33.8241 97.8139 34.7665L97.7908 37.3002C97.7908 38.0212 97.8242 38.5542 97.8912 38.8992C97.9633 39.2391 98.0946 39.6047 98.2851 39.9961H96.1377C96.0811 39.8519 96.0115 39.6382 95.9291 39.355C95.8931 39.2262 95.8673 39.1412 95.8519 39.1C95.4811 39.4605 95.0846 39.7309 94.6623 39.9111C94.24 40.0914 93.7894 40.1815 93.3105 40.1815C92.4659 40.1815 91.7991 39.9523 91.3098 39.494C90.8257 39.0357 90.5837 38.4563 90.5837 37.756C90.5837 37.2925 90.6944 36.8805 90.9159 36.52C91.1373 36.1544 91.4463 35.8763 91.8428 35.6858C92.2445 35.4901 92.8213 35.3201 93.5731 35.1759C94.5876 34.9854 95.2906 34.8077 95.682 34.6429V34.4267C95.682 34.0095 95.579 33.7134 95.373 33.5383C95.167 33.3581 94.7782 33.268 94.2066 33.268C93.8203 33.268 93.5191 33.3452 93.3028 33.4997C93.0865 33.649 92.9114 33.9143 92.7775 34.2953ZM95.682 36.0565C95.4039 36.1492 94.9636 36.26 94.361 36.3887C93.7585 36.5174 93.3646 36.6436 93.1792 36.7672C92.8959 36.968 92.7543 37.223 92.7543 37.5319C92.7543 37.8358 92.8676 38.0984 93.0942 38.3199C93.3208 38.5413 93.6092 38.652 93.9594 38.652C94.3507 38.652 94.7241 38.5233 95.0794 38.2658C95.3421 38.0701 95.5146 37.8306 95.597 37.5474C95.6536 37.362 95.682 37.0092 95.682 36.4891V36.0565ZM102.04 39.9961H99.8687V31.7926H101.885V32.959C102.23 32.408 102.539 32.0449 102.812 31.8698C103.09 31.6947 103.404 31.6072 103.754 31.6072C104.249 31.6072 104.725 31.7436 105.183 32.0166L104.511 33.9091C104.146 33.6722 103.806 33.5538 103.492 33.5538C103.188 33.5538 102.93 33.6387 102.719 33.8087C102.508 33.9735 102.341 34.2747 102.217 34.7125C102.099 35.1502 102.04 36.0668 102.04 37.4624V39.9961ZM110.56 39.9961V28.6718H118.323V30.5875H112.846V33.268H117.574V35.1837H112.846V39.9961H110.56ZM121.822 34.2953L119.852 33.94C120.074 33.1469 120.455 32.5599 120.996 32.1788C121.536 31.7977 122.34 31.6072 123.406 31.6072C124.374 31.6072 125.095 31.723 125.569 31.9548C126.042 32.1814 126.375 32.4723 126.565 32.8277C126.761 33.1778 126.859 33.8241 126.859 34.7665L126.836 37.3002C126.836 38.0212 126.869 38.5542 126.936 38.8992C127.008 39.2391 127.139 39.6047 127.33 39.9961H125.182C125.126 39.8519 125.056 39.6382 124.974 39.355C124.938 39.2262 124.912 39.1412 124.897 39.1C124.526 39.4605 124.129 39.7309 123.707 39.9111C123.285 40.0914 122.834 40.1815 122.355 40.1815C121.511 40.1815 120.844 39.9523 120.355 39.494C119.87 39.0357 119.628 38.4563 119.628 37.756C119.628 37.2925 119.739 36.8805 119.961 36.52C120.182 36.1544 120.491 35.8763 120.888 35.6858C121.289 35.4901 121.866 35.3201 122.618 35.1759C123.632 34.9854 124.335 34.8077 124.727 34.6429V34.4267C124.727 34.0095 124.624 33.7134 124.418 33.5383C124.212 33.3581 123.823 33.268 123.251 33.268C122.865 33.268 122.564 33.3452 122.348 33.4997C122.131 33.649 121.956 33.9143 121.822 34.2953ZM124.727 36.0565C124.449 36.1492 124.008 36.26 123.406 36.3887C122.803 36.5174 122.409 36.6436 122.224 36.7672C121.941 36.968 121.799 37.223 121.799 37.5319C121.799 37.8358 121.912 38.0984 122.139 38.3199C122.366 38.5413 122.654 38.652 123.004 38.652C123.395 38.652 123.769 38.5233 124.124 38.2658C124.387 38.0701 124.559 37.8306 124.642 37.5474C124.698 37.362 124.727 37.0092 124.727 36.4891V36.0565ZM131.084 39.9961H128.913V31.7926H130.93V32.959C131.275 32.408 131.584 32.0449 131.856 31.8698C132.135 31.6947 132.449 31.6072 132.799 31.6072C133.293 31.6072 133.77 31.7436 134.228 32.0166L133.556 33.9091C133.19 33.6722 132.85 33.5538 132.536 33.5538C132.232 33.5538 131.975 33.6387 131.764 33.8087C131.553 33.9735 131.385 34.2747 131.262 34.7125C131.143 35.1502 131.084 36.0668 131.084 37.4624V39.9961ZM135.008 31.7926H137.009V32.9126C137.725 32.0423 138.577 31.6072 139.566 31.6072C140.091 31.6072 140.547 31.7153 140.933 31.9316C141.319 32.1479 141.636 32.4749 141.883 32.9126C142.244 32.4749 142.632 32.1479 143.049 31.9316C143.467 31.7153 143.912 31.6072 144.386 31.6072C144.988 31.6072 145.498 31.7308 145.915 31.9779C146.332 32.22 146.644 32.5779 146.85 33.0517C146.999 33.4019 147.074 33.9683 147.074 34.7511V39.9961H144.903V35.3073C144.903 34.4936 144.829 33.9683 144.679 33.7314C144.479 33.4225 144.17 33.268 143.752 33.268C143.449 33.268 143.163 33.3607 142.895 33.546C142.627 33.7314 142.434 34.0044 142.316 34.3649C142.197 34.7202 142.138 35.2841 142.138 36.0565V39.9961H139.967V35.5004C139.967 34.7022 139.929 34.1872 139.851 33.9554C139.774 33.7237 139.653 33.5512 139.488 33.4379C139.329 33.3246 139.11 33.268 138.832 33.268C138.497 33.268 138.196 33.3581 137.928 33.5383C137.66 33.7186 137.467 33.9786 137.349 34.3185C137.235 34.6584 137.179 35.2223 137.179 36.0102V39.9961H135.008V31.7926ZM148.48 37.6555L150.658 37.3234C150.751 37.7457 150.939 38.0675 151.222 38.289C151.505 38.5052 151.902 38.6134 152.412 38.6134C152.973 38.6134 153.395 38.5104 153.679 38.3044C153.869 38.1602 153.964 37.9671 153.964 37.7251C153.964 37.5603 153.913 37.4238 153.81 37.3157C153.702 37.2127 153.46 37.1174 153.084 37.0298C151.333 36.6436 150.223 36.2909 149.754 35.9716C149.106 35.5287 148.781 34.9133 148.781 34.1254C148.781 33.4147 149.062 32.8174 149.623 32.3333C150.184 31.8492 151.055 31.6072 152.234 31.6072C153.357 31.6072 154.191 31.79 154.737 32.1556C155.283 32.5212 155.659 33.062 155.865 33.7778L153.818 34.1563C153.73 33.837 153.563 33.5924 153.315 33.4225C153.073 33.2525 152.726 33.1675 152.273 33.1675C151.701 33.1675 151.292 33.2474 151.044 33.407C150.88 33.5203 150.797 33.6671 150.797 33.8473C150.797 34.0018 150.869 34.1331 151.014 34.2413C151.209 34.3855 151.884 34.5889 153.037 34.8515C154.196 35.1141 155.005 35.436 155.463 35.8171C155.916 36.2033 156.143 36.7415 156.143 37.4315C156.143 38.1834 155.829 38.8297 155.2 39.3704C154.572 39.9111 153.642 40.1815 152.412 40.1815C151.294 40.1815 150.408 39.9549 149.754 39.5017C149.106 39.0485 148.681 38.4331 148.48 37.6555Z" fill="#A28100"/>
</svg>
