<svg width="180" height="54" viewBox="0 0 180 54" fill="none" xmlns="http://www.w3.org/2000/svg">
<rect width="180" height="54" fill="white"/>
<path d="M33.6677 24.297C33.6677 25.9981 33.6632 27.6992 33.6732 29.4003C33.6732 29.6238 33.6135 29.6841 33.3939 29.6741C32.6604 29.6411 31.9213 29.7355 31.1922 29.6227C30.1 29.4551 29.5721 28.8288 29.5598 27.7143C29.5498 26.8406 29.5598 25.9668 29.5598 25.0931C29.5598 23.2432 29.5598 21.3934 29.5598 19.5439C29.5598 18.7618 29.3649 18.0534 28.7369 17.5255C28.5224 17.3458 28.2713 17.2148 28.0012 17.1417C27.1073 16.8931 26.2135 16.878 25.3464 17.2205C24.5822 17.5221 24.2107 18.1462 24.0984 18.9344C24.0689 19.1744 24.0562 19.4161 24.0604 19.6579C24.0582 22.8832 24.0596 26.1085 24.0649 29.3339C24.0649 29.5718 24.0196 29.6484 23.7643 29.645C22.6012 29.6294 21.4375 29.6311 20.2749 29.645C20.0386 29.6478 19.9861 29.5797 19.9866 29.3523C19.9937 26.0897 19.9956 22.8272 19.9922 19.5646C19.9955 19.1642 19.9297 18.7662 19.7978 18.388C19.5492 17.688 19.0475 17.2456 18.3375 17.0534C17.607 16.8493 16.8349 16.8462 16.1028 17.0445C15.0866 17.321 14.5626 18.0232 14.4788 19.1551C14.4688 19.2936 14.4699 19.4344 14.4699 19.573C14.4699 22.8262 14.4714 26.0795 14.4743 29.3327C14.4743 29.564 14.4436 29.6478 14.1777 29.6395C13.0157 29.6031 11.852 29.5914 10.6894 29.5836C10.49 29.5836 10.419 29.5378 10.4162 29.3238C10.3727 26.0702 10.3542 22.8171 10.3984 19.564C10.4168 18.2383 10.7218 16.9629 11.471 15.8378C12.3604 14.5009 13.6716 13.8193 15.214 13.5473C16.9302 13.2428 18.6386 13.2679 20.3163 13.8054C20.8832 13.9872 21.4176 14.258 21.8995 14.6076C21.9783 14.6635 22.0341 14.7383 22.1593 14.6489C23.4207 13.7467 24.8732 13.4819 26.3799 13.4277C27.671 13.3814 28.9436 13.4936 30.1637 13.9663C31.9079 14.6422 32.928 15.9378 33.3872 17.7143C33.6146 18.5936 33.6727 19.4914 33.6716 20.3959C33.6678 21.6957 33.6665 22.9961 33.6677 24.297Z" fill="#233E7F"/>
<path d="M49.2423 15.0642C49.2423 14.5949 49.2501 14.1799 49.2383 13.7648C49.2339 13.5927 49.2881 13.5458 49.4618 13.5469C50.7082 13.5536 51.9551 13.557 53.2015 13.5469C53.4344 13.5469 53.4249 13.6586 53.4249 13.8195C53.4112 16.7652 53.3989 19.7108 53.3881 22.6564C53.378 24.9609 53.3624 27.2653 53.3618 29.5698C53.3618 29.8251 53.2937 29.8961 53.0389 29.8871C52.4724 29.867 51.9037 29.8653 51.3367 29.8843C50.535 29.9117 50.0652 29.462 49.7233 28.8134C49.5411 28.4676 49.5467 28.467 49.2305 28.7145C48.2065 29.5156 47.0238 29.9251 45.7512 30.0989C44.1959 30.3111 42.6529 30.2625 41.1356 29.824C39.1082 29.238 37.7367 27.9435 37.0065 25.9732C36.4305 24.4212 36.3272 22.805 36.392 21.1687C36.4356 20.0396 36.6026 18.934 36.9858 17.8648C37.7758 15.6603 39.3445 14.3279 41.6093 13.8262C43.3048 13.4471 45.0648 13.4635 46.7529 13.8743C47.6585 14.0874 48.5076 14.4933 49.2423 15.0642ZM48.0171 21.7637C47.9976 21.1246 47.9613 20.4944 47.8087 19.8771C47.5478 18.8218 47.0428 17.938 46.0104 17.4648C45.1724 17.0804 44.2836 17.0463 43.3847 17.1799C42.1328 17.3664 41.2205 18.0257 40.7713 19.2123C40.1221 20.9273 40.1439 22.6732 40.7316 24.3994C41.021 25.248 41.5847 25.8916 42.4255 26.2642C43.1518 26.5871 43.9177 26.6553 44.6942 26.5782C46.035 26.443 47.0026 25.7799 47.5311 24.5111C47.9004 23.6279 47.9797 22.6966 48.0171 21.7637Z" fill="#233E7F"/>
<path d="M78.7325 15.8263C79.1129 15.2503 79.5012 14.7822 79.9883 14.4068C81.0911 13.5554 82.3548 13.2827 83.7174 13.3906C85.2777 13.514 86.6783 14.0129 87.7626 15.1973C88.5738 16.0839 89.0476 17.1481 89.3023 18.3062C89.7962 20.5408 89.861 22.7878 89.2727 25.014C88.6051 27.5375 86.9716 29.0967 84.4079 29.6325C82.3369 30.0649 80.2811 30.0146 78.2945 29.2151C76.6855 28.5682 75.6543 27.3716 75.1191 25.7325C74.795 24.7414 74.6967 23.7213 74.6978 22.6822C74.7012 17.5425 74.6997 12.4028 74.6934 7.26318C74.6934 7.0453 74.7531 7.00396 74.9548 7.00955C75.466 7.02407 75.9805 7.04474 76.4894 7.00955C77.2911 6.95033 77.7878 7.36262 78.1509 8.00284C78.5537 8.71346 78.7263 9.49 78.7297 10.3006C78.7375 12.0291 78.7325 13.7582 78.7325 15.4866V15.8263ZM78.7554 21.8163C78.7554 22.0861 78.7369 22.3565 78.7587 22.6241C78.8274 23.4621 78.9755 24.2839 79.4034 25.0263C80.0179 26.0911 80.99 26.4788 82.1721 26.4537C83.7219 26.4246 84.7922 25.6006 85.2185 24.1185C85.6179 22.7319 85.638 21.3313 85.3716 19.9286C85.2269 19.1649 84.9626 18.4403 84.4124 17.8615C83.7006 17.1084 82.7962 16.9308 81.809 16.9989C80.6688 17.0783 79.8537 17.6325 79.3509 18.6531C78.8582 19.6436 78.7442 20.7196 78.7554 21.814V21.8163Z" fill="#233E7F"/>
<path d="M99.1526 24.6566C100.095 21.3823 101.026 18.1443 101.956 14.9063C102.172 14.156 102.749 13.6443 103.555 13.6136C104.577 13.575 105.6 13.6046 106.65 13.6046C106.476 14.1303 106.309 14.6404 106.136 15.1487C105.068 18.3145 103.998 21.4802 102.929 24.646C102.152 26.9409 101.376 29.2353 100.6 31.5292C100.36 32.2421 100.112 32.9493 99.7822 33.6281C99.1945 34.8376 98.2504 35.5672 96.9213 35.7772C95.8314 35.9499 94.7348 35.9482 93.6364 35.8661C93.4046 35.8488 93.3258 35.7666 93.3297 35.5231C93.3454 34.594 93.3409 33.6644 93.3297 32.7348C93.3297 32.5448 93.3727 32.4789 93.5744 32.4828C94.1889 32.4934 94.8035 32.5119 95.4124 32.4074C96.4906 32.2231 97.0956 31.4907 97.0392 30.4264C97.027 30.2317 97.0011 30.0381 96.9616 29.8471C96.7996 29.0231 96.4649 28.2532 96.1934 27.4644C95.2214 24.6387 94.2405 21.816 93.251 18.9962C92.6711 17.3311 92.0893 15.6664 91.5057 14.0024C91.3644 13.599 91.3621 13.5996 91.775 13.5996C93.0873 13.5996 94.4007 13.6035 95.7113 13.5957C95.8929 13.5957 95.966 13.6482 96.0158 13.8247C96.7137 16.2903 97.4163 18.754 98.1236 21.2158C98.4428 22.3331 98.7636 23.4482 99.0861 24.561C99.1047 24.5953 99.127 24.6273 99.1526 24.6566Z" fill="#233E7F"/>
<path d="M123.211 24.4319C123.825 25.2615 124.598 25.7944 125.583 26.0151C126.7 26.2654 127.785 26.0827 128.852 25.747C129.686 25.4854 130.483 25.1204 131.227 24.6604C131.355 24.5805 131.421 24.576 131.502 24.7235C131.97 25.5779 132.446 26.4283 132.928 27.2749C133.003 27.4045 132.933 27.4615 132.872 27.538C132.363 28.1749 131.714 28.6363 130.987 28.9861C129.627 29.6408 128.18 29.9632 126.677 29.9978C123.385 30.0738 120.681 28.2363 119.495 25.1676C118.99 23.8661 118.72 22.4854 118.696 21.0894C118.665 19.3375 119.311 17.8185 120.392 16.4822C121.677 14.8928 123.349 13.9196 125.38 13.6386C128.775 13.1693 131.562 14.7889 132.828 17.871C133.143 18.6462 133.352 19.4602 133.449 20.2911C133.478 20.5207 133.426 20.6358 133.2 20.719C131.326 21.4062 129.455 22.0998 127.586 22.8C126.136 23.3386 124.686 23.881 123.211 24.4319ZM122.675 20.5213C122.675 20.6051 122.671 20.6889 122.675 20.7721C122.693 21.0939 122.696 21.0995 123.01 20.9956C123.792 20.7296 124.575 20.4559 125.353 20.1889C126.591 19.7665 127.829 19.3442 129.07 18.9308C129.272 18.8632 129.283 18.7833 129.173 18.6229C129.025 18.3982 128.85 18.1919 128.653 18.0084C127.558 17.0246 125.834 16.8749 124.493 17.6581C123.395 18.2967 122.707 19.2046 122.675 20.5213Z" fill="#233E7F"/>
<path d="M56.4277 29.6383C56.8478 29.0076 57.2406 28.4154 57.6361 27.8249C58.9739 25.8268 60.3136 23.8294 61.6551 21.8327C61.7467 21.6964 61.7462 21.6093 61.659 21.4707C60.0467 18.9094 58.4383 16.3454 56.8339 13.7785C56.8054 13.7333 56.7819 13.6852 56.7339 13.5992H57.0048C58.3819 13.5992 59.759 13.6026 61.1389 13.5953C61.2107 13.5887 61.2828 13.6032 61.3464 13.6371C61.41 13.6709 61.4624 13.7226 61.497 13.7858C62.4069 15.1769 63.3214 16.5648 64.2406 17.9495C64.2752 18.0026 64.3154 18.0523 64.3618 18.1171C65.0618 17.1149 65.7484 16.1232 66.4445 15.1383C66.811 14.6204 67.2065 14.1271 67.7802 13.8165C68.0923 13.6467 68.4417 13.5571 68.797 13.5556C69.9484 13.5472 71.1004 13.5523 72.3266 13.5523C72.064 13.9433 71.8512 14.2629 71.6344 14.5802C70.0624 16.8797 68.4884 19.1782 66.9126 21.4757C66.8054 21.6311 66.8434 21.7288 66.9316 21.8668C68.5775 24.4068 70.221 26.9486 71.8624 29.4919C71.8858 29.5283 71.902 29.5696 71.9383 29.6406H70.5802C69.5378 29.6406 68.4953 29.6288 67.4518 29.6484C67.183 29.6534 67.0372 29.5651 66.8981 29.3461C66.0601 28.0299 65.211 26.7204 64.3652 25.4121C64.335 25.3657 64.3032 25.3204 64.2534 25.2473C63.7674 25.9886 63.2925 26.7137 62.8171 27.4383C62.3741 28.1137 61.9233 28.7858 61.4897 29.4662C61.4026 29.6026 61.3087 29.6445 61.1546 29.6439C59.5976 29.6361 58.0451 29.6383 56.4277 29.6383Z" fill="#233E7F"/>
<path d="M116.355 25.5156C116.531 26.2642 116.701 26.9843 116.87 27.7044C116.936 27.9837 116.992 28.2681 117.071 28.5424C117.118 28.71 117.08 28.7821 116.915 28.8513C115.54 29.437 114.039 29.6653 112.551 29.515C112.081 29.4687 111.602 29.4553 111.148 29.3044C109.797 28.8575 108.821 27.577 108.724 26.1295C108.715 25.9904 108.713 25.8502 108.713 25.7117C108.713 19.5873 108.711 13.4629 108.705 7.33849C108.705 7.04128 108.794 6.9843 109.059 7.00329C109.577 7.04184 110.107 6.93792 110.613 7.08987C111.739 7.42842 112.34 8.25468 112.634 9.34127C112.734 9.71055 112.751 10.0916 112.746 10.4748C112.739 11.4318 112.751 12.3893 112.737 13.3463C112.735 13.5625 112.799 13.6033 113.002 13.6011C114.044 13.5904 115.086 13.6011 116.127 13.591C116.351 13.591 116.396 13.6564 116.403 13.8703C116.434 14.6865 116.339 15.4659 115.863 16.1608C115.443 16.7754 114.905 17.1569 114.117 17.105C113.746 17.0804 113.372 17.1133 112.999 17.096C112.794 17.086 112.735 17.1396 112.736 17.3525C112.744 18.9323 112.736 20.5122 112.736 22.0921C112.736 23.0027 112.731 23.9133 112.731 24.824C112.731 25.5603 113.018 25.8854 113.756 25.9363C114.645 25.9999 115.525 25.9742 116.355 25.5156Z" fill="#233E7F"/>
<path d="M140.448 27.1696C140.545 28.5534 139.323 30.0836 137.534 30.0797C135.914 30.0758 134.629 28.7669 134.629 27.1378C134.624 25.5467 135.938 24.2372 137.539 24.2266C139.256 24.2149 140.563 25.7199 140.448 27.1696Z" fill="#72BE44"/>
<path d="M47.4861 45.6305C48.0543 45.952 48.7039 46.1007 49.3554 46.0584C50.2492 46.0098 50.7967 45.545 50.9755 44.6886C51.0559 44.2975 51.0314 43.9026 51.0392 43.4249C50.6481 43.9998 50.1621 44.2931 49.5593 44.3802C48.3436 44.5551 47.2531 43.8579 46.8878 42.6824C46.4632 41.3176 46.847 39.8847 47.8431 39.1148C48.7492 38.4143 50.0777 38.4444 50.8135 39.1897C50.9163 39.2942 51.0023 39.4132 51.1364 39.5774C51.1498 39.3299 51.1665 39.1271 51.1699 38.9238C51.1699 38.7964 51.2157 38.7523 51.3498 38.7444C52.1168 38.6981 52.0917 38.6936 52.0794 39.4489C52.0559 40.8422 52.0626 42.2366 52.0615 43.6305C52.0698 44.1048 52.0189 44.5783 51.9101 45.04C51.6464 46.0774 50.9314 46.6333 49.9135 46.816C49.1406 46.96 48.3431 46.8897 47.6073 46.6126C47.2191 46.4662 47.2057 46.445 47.3347 46.059C47.3744 45.9193 47.4302 45.7819 47.4861 45.6305ZM51.0152 41.4964C51.0152 41.3104 51.0185 41.1249 51.0152 40.9377C50.999 40.2674 50.5984 39.7126 49.9772 39.5009C49.6793 39.4042 49.3594 39.3989 49.0585 39.4856C48.7576 39.5724 48.4896 39.7471 48.2889 39.9875C47.723 40.6579 47.6096 41.9188 48.0481 42.7539C48.3464 43.3227 48.8241 43.6143 49.4677 43.6154C50.0934 43.6154 50.5464 43.3154 50.8431 42.7774C51.0615 42.3735 51.0096 41.9282 51.0135 41.4942L51.0152 41.4964Z" fill="#233E7F"/>
<path d="M69.6451 39.509C69.6451 38.4275 69.6563 37.4269 69.6384 36.4269C69.6334 36.1504 69.6943 36.0358 69.9837 36.0794C70.2071 36.1146 70.5155 35.98 70.6496 36.1353C70.7613 36.266 70.692 36.5593 70.692 36.78C70.692 38.9368 70.692 41.0936 70.692 43.2504C70.692 43.4453 70.7049 43.6414 70.6982 43.8358C70.6915 44.0303 70.8099 44.3342 70.6853 44.3817C70.4502 44.4722 70.158 44.4185 69.8893 44.4191C69.7775 44.4191 69.7943 44.3258 69.7898 44.2554C69.7731 44.0068 69.7591 43.7576 69.7407 43.4493C69.5228 43.7766 69.301 44.0375 68.9987 44.2185C67.8524 44.9057 66.4138 44.5275 65.7094 43.3509C65.039 42.2297 65.1786 40.456 66.0189 39.4671C66.801 38.5481 68.2043 38.3297 69.1474 38.9777C69.33 39.1018 69.4731 39.2587 69.6451 39.509ZM69.6451 41.6319C69.6451 41.3604 69.6513 41.1655 69.6451 40.971C69.6189 40.2141 69.1278 39.6168 68.4038 39.4548C67.7032 39.2984 66.9764 39.6543 66.6462 40.328C66.2982 41.0375 66.2686 41.7805 66.4987 42.5235C66.7038 43.1856 67.1407 43.6303 67.8641 43.7051C68.5245 43.7733 69.0462 43.5208 69.4038 42.9587C69.6764 42.5258 69.6608 42.0398 69.6434 41.6319H69.6451Z" fill="#233E7F"/>
<path d="M25.2106 39.69C25.6184 39.061 26.1899 38.7023 26.9245 38.6286C28.0385 38.5168 28.9513 39.0196 29.3893 40.0543C29.8871 41.2275 29.8363 42.4006 29.1312 43.4889C28.3703 44.6621 26.6067 44.9191 25.6027 44.0319C25.5005 43.942 25.4139 43.8336 25.3106 43.7241C25.2491 43.7884 25.2804 43.8643 25.2804 43.9291C25.2804 44.7934 25.2743 45.6576 25.2804 46.5219C25.2804 46.7023 25.2368 46.7727 25.0474 46.7582C24.7893 46.7381 24.4553 46.8375 24.2905 46.7096C24.115 46.5733 24.2379 46.2241 24.2346 45.9688C24.21 43.637 24.2793 41.3046 24.1843 38.9733C24.1765 38.7844 24.2312 38.742 24.4111 38.7414C25.1078 38.7414 25.1061 38.7342 25.1575 39.4118C25.167 39.4951 25.1391 39.5895 25.2106 39.69ZM28.6463 41.6107C28.6318 41.0755 28.5452 40.5956 28.2681 40.1688C27.8972 39.5973 27.248 39.3269 26.6083 39.4694C26.2668 39.5484 25.9579 39.7309 25.7238 39.9919C25.4898 40.253 25.342 40.5799 25.3005 40.928C25.2555 41.3808 25.2528 41.8368 25.2927 42.29C25.3826 43.4839 26.7743 44.1554 27.777 43.4945C28.4698 43.0386 28.5988 42.3241 28.6463 41.6107Z" fill="#233E7F"/>
<path d="M114.118 40.8195C114.098 41.8027 114.006 42.6765 113.509 43.4513C112.959 44.3089 112.14 44.6178 111.163 44.5435C110.243 44.4737 109.592 43.9625 109.237 43.1401C108.631 41.7379 108.6 40.2988 109.213 38.8943C110.017 37.0457 112.219 37.0508 113.171 38.0005C113.769 38.5966 113.989 39.3541 114.076 40.1636C114.103 40.4105 114.108 40.6619 114.118 40.8195ZM113.03 40.9536C113.03 40.7396 113.043 40.5256 113.027 40.3128C112.989 39.7915 112.89 39.282 112.632 38.8178C112.121 37.8982 110.947 37.8642 110.375 38.7508C110.18 39.057 110.047 39.3987 109.984 39.7563C109.785 40.8334 109.772 41.9005 110.218 42.9267C110.438 43.4329 110.798 43.7921 111.388 43.8239C112.015 43.858 112.423 43.5267 112.683 42.9921C112.993 42.3474 113.052 41.6552 113.03 40.9536Z" fill="#233E7F"/>
<path d="M41.4502 39.6166C41.6636 39.3931 41.8569 39.1736 42.1016 39.0021C43.2273 38.2244 45.1581 38.5199 45.4061 40.5194C45.4754 41.0747 45.4374 41.6334 45.4424 42.1903C45.4486 42.8501 45.4379 43.5099 45.4474 44.1697C45.4474 44.3518 45.4206 44.449 45.2095 44.4255C44.9447 44.3948 44.5983 44.5373 44.4318 44.3697C44.2799 44.2138 44.391 43.8736 44.3893 43.6149C44.3849 42.816 44.3893 42.0166 44.386 41.2172C44.3858 41.0221 44.3695 40.8274 44.3374 40.635C44.2083 39.8982 43.7843 39.4959 43.1273 39.473C42.7951 39.4619 42.4686 39.5619 42.1996 39.7572C41.9305 39.9525 41.7343 40.2319 41.6419 40.5512C41.5981 40.7224 41.5778 40.8987 41.5815 41.0753C41.5815 42.1065 41.5759 43.1384 41.5877 44.1702C41.5877 44.3842 41.5268 44.4496 41.3201 44.4283C41.1343 44.4109 40.9472 44.4109 40.7614 44.4283C40.5569 44.4479 40.519 44.3646 40.5178 44.1764C40.5095 42.4294 40.5603 40.682 40.4832 38.9356C40.4765 38.7926 40.5111 38.7473 40.662 38.7417C41.4368 38.7132 41.4363 38.7082 41.4491 39.482C41.4536 39.5272 41.4502 39.5719 41.4502 39.6166Z" fill="#233E7F"/>
<path d="M60.0426 39.6785C60.7872 38.6729 61.8303 38.3528 62.8263 38.7975C63.6358 39.1589 63.9587 39.8634 63.9912 40.6824C64.0381 41.8701 64.009 43.0606 64.0174 44.25C64.0174 44.3824 63.9777 44.4316 63.8426 44.4254C63.629 44.4128 63.4148 44.4128 63.2012 44.4254C63.0046 44.4405 62.9509 44.3746 62.9526 44.1779C62.9632 43.1651 62.9576 42.1522 62.9576 41.1394C62.9576 40.764 62.9152 40.393 62.7219 40.0645C62.2939 39.3383 61.2286 39.2606 60.6034 39.8969C60.2872 40.2209 60.1504 40.6098 60.152 41.0578C60.1554 42.0897 60.1453 43.1209 60.1593 44.1522C60.1621 44.3818 60.0895 44.4433 59.88 44.4215C59.6325 44.3964 59.3107 44.5226 59.1537 44.3729C58.9967 44.2232 59.1068 43.898 59.1034 43.6511C59.085 42.0718 59.1375 40.4919 59.0632 38.9131C59.0565 38.7718 59.0956 38.7455 59.2269 38.7371C59.9805 38.6964 59.9805 38.693 60.0297 39.4321C60.0314 39.4986 60.0347 39.5595 60.0426 39.6785Z" fill="#233E7F"/>
<path d="M91.0859 38.7482C91.4306 38.7482 91.7373 38.7527 92.044 38.7482C92.1714 38.7482 92.2362 38.7772 92.2848 38.9108C92.8077 40.3393 93.3926 41.7449 93.8491 43.2175C93.9714 43.094 93.9731 42.9309 94.02 42.7918C94.4565 41.5095 94.8887 40.2259 95.3167 38.9409C95.3602 38.8113 95.4122 38.7398 95.5669 38.7465C95.8636 38.7599 96.1614 38.7504 96.4943 38.7504C96.3535 39.1214 96.2273 39.4728 96.0871 39.8191C95.477 41.3331 94.9413 42.8767 94.2764 44.3689C94.0156 44.9549 93.7178 45.5231 93.2943 46.0119C92.9173 46.452 92.4301 46.784 91.8826 46.9739C91.729 47.0298 91.6424 47.0102 91.6033 46.837C91.5535 46.6298 91.4172 46.4186 91.4418 46.2225C91.4686 46.0124 91.7608 46.0242 91.9273 45.9225C92.4952 45.5782 92.9449 45.0692 93.2167 44.4633C93.3061 44.2722 93.2636 44.1063 93.191 43.9298C92.5035 42.2471 91.8169 40.5637 91.1312 38.8795C91.1178 38.8465 91.1066 38.8119 91.0859 38.7482Z" fill="#233E7F"/>
<path d="M13.8544 39.6846C14.6125 38.489 16.113 38.3505 16.9711 38.9901C17.5477 39.4197 17.7817 40.0354 17.8024 40.7125C17.8382 41.8918 17.8164 43.0723 17.8242 44.2527C17.8242 44.3901 17.7756 44.4298 17.646 44.4259C17.4225 44.4186 17.1991 44.413 16.9756 44.4259C16.7985 44.4371 16.7588 44.37 16.76 44.2024C16.7672 43.1806 16.76 42.1583 16.7644 41.1365C16.7644 40.7879 16.7197 40.4471 16.565 40.1343C16.1778 39.3522 15.0493 39.2332 14.4063 39.9019C14.2595 40.0512 14.1443 40.2286 14.0675 40.4234C13.9907 40.6183 13.9539 40.8266 13.9594 41.0359C13.965 42.0767 13.956 43.1175 13.9661 44.1583C13.9661 44.3583 13.9315 44.4499 13.7108 44.4253C13.4538 44.3963 13.1186 44.5298 12.9566 44.3739C12.7946 44.2181 12.9108 43.8818 12.9069 43.6253C12.8834 42.0555 12.9499 40.4845 12.8622 38.9158C12.8544 38.7773 12.8991 38.7482 13.0298 38.7393C13.7762 38.6991 13.7756 38.6957 13.8337 39.4332C13.8398 39.4968 13.8449 39.5589 13.8544 39.6846Z" fill="#233E7F"/>
<path d="M76.2761 43.5312C75.8817 44.1256 75.3392 44.4686 74.6432 44.5457C73.4309 44.6798 72.5934 43.9725 72.4348 42.682C72.4045 42.4237 72.3896 42.1638 72.3901 41.9038C72.3851 40.9373 72.3945 39.9703 72.3828 39.0038C72.3828 38.7915 72.4387 38.7245 72.6476 38.7434C72.8426 38.7605 73.0387 38.7605 73.2337 38.7434C73.4124 38.7289 73.4493 38.7993 73.4482 38.9669C73.4407 39.9245 73.4407 40.8818 73.4482 41.839C73.4486 42.0805 73.4673 42.3216 73.504 42.5602C73.5778 43.0317 73.761 43.4474 74.2515 43.6161C74.7867 43.7999 75.2811 43.6909 75.708 43.3183C76.0588 43.0122 76.2052 42.6189 76.2018 42.1541C76.1934 41.1127 76.2068 40.0719 76.1929 39.0312C76.1895 38.7926 76.2621 38.72 76.489 38.7468C76.7353 38.7753 77.0554 38.644 77.2113 38.8027C77.3549 38.9468 77.2482 39.2624 77.251 39.5021C77.2672 41.0725 77.2163 42.644 77.2951 44.2138C77.3041 44.3865 77.2582 44.4328 77.0851 44.4373C76.3487 44.4457 76.3499 44.4518 76.3286 43.7217C76.327 43.6641 76.3554 43.6049 76.2761 43.5312Z" fill="#233E7F"/>
<path d="M105.241 44.4937C104.875 44.4937 104.562 44.4892 104.248 44.4937C104.097 44.4937 104.043 44.382 103.968 44.2926C103.443 43.6317 102.919 42.9697 102.377 42.2853C101.915 42.863 101.433 43.4065 101.021 43.9982C100.742 44.3959 100.428 44.5663 99.96 44.4903C99.8332 44.4697 99.7008 44.487 99.5176 44.487C99.7567 44.1825 99.9734 43.9043 100.193 43.6278C100.69 43.0026 101.183 42.3747 101.689 41.7563C101.8 41.6177 101.78 41.5328 101.677 41.4049C101.038 40.6077 100.408 39.8043 99.7773 39.0026C99.7287 38.9406 99.6572 38.8909 99.6494 38.7792C99.9684 38.7792 100.281 38.7864 100.594 38.7758C100.751 38.7702 100.8 38.8875 100.873 38.9753C101.376 39.6054 101.879 40.2389 102.392 40.8887C102.913 40.2378 103.428 39.6037 103.928 38.9635C103.971 38.8988 104.031 38.847 104.101 38.8139C104.171 38.7808 104.249 38.7676 104.326 38.7758C104.592 38.7892 104.861 38.7792 105.18 38.7792C104.883 39.1523 104.611 39.4959 104.338 39.8406C103.927 40.3563 103.522 40.8764 103.1 41.3825C102.988 41.516 102.984 41.5892 103.092 41.7261C103.8 42.63 104.502 43.5412 105.241 44.4937Z" fill="#233E7F"/>
<path d="M83.9449 41.3425C83.9449 40.8223 83.9326 40.3017 83.9504 39.7821C83.9583 39.5642 83.8862 39.4966 83.6851 39.5318C83.6665 39.5335 83.6478 39.5335 83.6292 39.5318C82.9963 39.5318 83.0002 39.5318 83.0443 38.9028C83.0527 38.781 83.0896 38.7385 83.208 38.7436C83.3566 38.7503 83.5085 38.7263 83.6549 38.7492C83.918 38.7911 83.9661 38.6743 83.9504 38.4419C83.9309 38.1458 83.9505 37.8475 83.9438 37.548C83.9438 37.4279 83.9761 37.3614 84.1052 37.3363C84.2868 37.3006 84.4633 37.2391 84.6438 37.1961C84.9789 37.1145 84.9817 37.1162 84.9789 37.4754C84.9789 37.8106 84.9957 38.1458 84.9734 38.4782C84.9583 38.7106 85.0471 38.7575 85.2527 38.7458C85.5778 38.7296 85.9041 38.7492 86.2292 38.738C86.3968 38.7324 86.4739 38.7626 86.4728 38.9615C86.4728 39.5285 86.4806 39.5285 85.9097 39.5285C85.6862 39.5285 85.4627 39.5413 85.2393 39.5251C85.0426 39.5106 84.9667 39.5531 84.97 39.7754C84.984 40.714 84.9756 41.652 84.9767 42.5905C84.9767 42.6832 84.9806 42.776 84.9873 42.8698C85.032 43.4844 85.3225 43.7352 85.9331 43.6872C86.0167 43.6841 86.0997 43.6731 86.1812 43.6542C86.3259 43.614 86.3722 43.6542 86.384 43.8084C86.4331 44.448 86.4192 44.4788 85.7694 44.5346C85.2035 44.5816 84.6672 44.5151 84.2784 44.0318C84.0058 43.6967 83.9616 43.2838 83.9488 42.8743C83.9331 42.3637 83.9449 41.8525 83.9449 41.3413V41.3425Z" fill="#233E7F"/>
<path d="M21.2885 38.6174C21.7103 38.5973 22.1019 38.7079 22.4857 38.857C22.6354 38.9129 22.7181 38.9861 22.627 39.1654C22.5512 39.334 22.4845 39.5065 22.427 39.6822C22.265 39.6207 22.1041 39.5565 21.941 39.4984C21.6215 39.3921 21.2809 39.3657 20.9488 39.4213C20.7868 39.4461 20.6362 39.5201 20.5176 39.6334C20.399 39.7466 20.318 39.8935 20.2857 40.0542C20.2337 40.3514 20.3812 40.6246 20.6924 40.814C21.0913 41.057 21.5527 41.1604 21.96 41.3883C22.6583 41.7794 22.9818 42.3565 22.8835 43.0766C22.7935 43.7375 22.2952 44.2526 21.574 44.4352C20.7879 44.6347 20.0265 44.5593 19.2835 44.2459C19.1449 44.19 19.1013 44.1263 19.1661 43.9788C19.2438 43.8012 19.2421 43.5431 19.3706 43.4447C19.5231 43.3274 19.6997 43.5621 19.8784 43.6123C20.3215 43.7425 20.7617 43.8453 21.2192 43.7151C21.5572 43.6202 21.8064 43.4274 21.8639 43.0621C21.9243 42.6811 21.7656 42.3978 21.4455 42.19C21.2008 42.0308 20.9293 41.9352 20.66 41.8336C20.4163 41.7433 20.1849 41.6228 19.9712 41.4749C19.5058 41.1492 19.2187 40.7213 19.2801 40.1341C19.3455 39.509 19.6924 39.0727 20.2606 38.8118C20.5816 38.6622 20.935 38.5954 21.2885 38.6174Z" fill="#233E7F"/>
<path d="M80.7576 38.6169C81.1973 38.5991 81.5878 38.7108 81.971 38.8616C82.1073 38.9175 82.1889 38.9789 82.1045 39.1499C82.0202 39.3208 82.0241 39.5655 81.9006 39.6527C81.7632 39.7477 81.5799 39.5449 81.4084 39.4924C81.0956 39.3993 80.7664 39.3741 80.4431 39.4186C80.1079 39.4616 79.814 39.7365 79.7632 40.0331C79.7073 40.3594 79.8352 40.6404 80.1716 40.8153C80.5833 41.0259 81.0207 41.1879 81.4313 41.3996C82.1196 41.7549 82.4436 42.3421 82.3615 43.0253C82.2771 43.7292 81.7872 44.2544 81.0487 44.4398C80.2854 44.6343 79.479 44.5674 78.7582 44.2499C78.6218 44.194 78.5704 44.1382 78.6352 43.9851C78.7118 43.8069 78.7095 43.551 78.8375 43.4505C78.9917 43.3287 79.1671 43.5622 79.3453 43.618C79.7783 43.7465 80.2079 43.8471 80.6598 43.7298C81.0241 43.6376 81.2838 43.4343 81.3414 43.0465C81.3989 42.6588 81.2202 42.389 80.9023 42.1856C80.6565 42.0287 80.3844 41.9359 80.1163 41.8331C79.8818 41.7446 79.6588 41.6283 79.452 41.4868C78.9654 41.1516 78.6827 40.7046 78.7593 40.0951C78.8358 39.4856 79.1788 39.0756 79.7224 38.8225C80.0442 38.6666 80.4006 38.5958 80.7576 38.6169Z" fill="#233E7F"/>
<path d="M88.5435 39.7894C88.8155 39.3241 89.1127 38.9358 89.6049 38.7336C89.6726 38.7033 89.742 38.677 89.8127 38.6548C90.3809 38.5 90.4898 38.581 90.4882 39.1576C90.4882 39.2967 90.5278 39.4637 90.4653 39.5665C90.3876 39.6928 90.2133 39.5794 90.0809 39.5894C89.4999 39.6319 89.0356 39.9805 88.8356 40.5498C88.7305 40.848 88.6776 41.1621 88.6792 41.4783C88.6792 42.3794 88.6742 43.2799 88.6848 44.181C88.6848 44.376 88.6345 44.447 88.4379 44.4269C88.1809 44.4012 87.8468 44.5324 87.6848 44.3766C87.5228 44.2207 87.6368 43.8838 87.6345 43.6274C87.6239 42.0676 87.6228 40.5073 87.6099 38.9475C87.6099 38.7894 87.6451 38.7447 87.806 38.7414C88.5088 38.7269 88.5094 38.7213 88.5412 39.4079C88.5468 39.5352 88.5435 39.6626 88.5435 39.7894Z" fill="#233E7F"/>
<path d="M34.6902 39.8086C34.9019 39.479 35.0907 39.1673 35.3946 38.9422C35.6912 38.7121 36.0605 38.5961 36.4354 38.6153C36.5835 38.6226 36.6678 38.6584 36.6438 38.8237C36.6407 38.87 36.6407 38.9165 36.6438 38.9628C36.6438 39.1578 36.7036 39.3841 36.6253 39.5405C36.5276 39.7349 36.2834 39.5701 36.1019 39.6019C35.5242 39.7031 35.1823 40.0539 34.9812 40.5718C34.876 40.8608 34.8261 41.1671 34.8343 41.4746C34.8343 42.3762 34.8304 43.2774 34.8399 44.1785C34.8399 44.369 34.798 44.45 34.5952 44.4293C34.3388 44.4025 34.003 44.5343 33.8421 44.3785C33.6812 44.2226 33.7952 43.8857 33.7929 43.6293C33.7779 42.0589 33.8192 40.488 33.7594 38.9181C33.7538 38.7757 33.7991 38.7505 33.927 38.7444C34.6706 38.7058 34.6712 38.7031 34.6902 39.4366C34.6935 39.5606 34.6902 39.6846 34.6902 39.8086Z" fill="#233E7F"/>
<path d="M37.7402 41.5609C37.7402 40.6978 37.7453 39.8347 37.7363 38.9715C37.7363 38.79 37.7827 38.7257 37.9682 38.7403C38.1727 38.7557 38.3781 38.7557 38.5827 38.7403C38.7548 38.7291 38.8062 38.7894 38.8023 38.9598C38.7933 39.6743 38.7983 40.3894 38.7983 41.104C38.7983 42.1252 38.7922 43.1464 38.8039 44.1671C38.8039 44.3799 38.7481 44.4464 38.5391 44.4269C38.3445 44.4098 38.1488 44.4098 37.9542 44.4269C37.7766 44.4408 37.7369 44.3743 37.738 44.2067C37.7442 43.3246 37.7402 42.4431 37.7402 41.5609Z" fill="#233E7F"/>
<path d="M56.3126 41.5609C56.3126 40.6978 56.3176 39.8352 56.3092 38.9721C56.3092 38.79 56.3595 38.7257 56.545 38.7403C56.7495 38.7569 56.955 38.7569 57.1595 38.7403C57.3416 38.7257 57.3723 38.8006 57.3723 38.9637C57.3675 40.7079 57.3675 42.452 57.3723 44.1961C57.3723 44.3788 57.3232 44.4419 57.1388 44.4274C56.9342 44.4122 56.7288 44.4122 56.5243 44.4274C56.3477 44.4397 56.307 44.3715 56.3086 44.204C56.3193 43.3235 56.3126 42.4419 56.3126 41.5609Z" fill="#233E7F"/>
<path d="M32.0584 41.6233C32.0584 42.4775 32.0517 43.3311 32.0634 44.1848C32.0634 44.3859 32.0036 44.4445 31.812 44.4267C31.555 44.4032 31.2221 44.53 31.0578 44.3792C30.8936 44.2283 31.007 43.8892 31.0059 43.6339C31.0008 42.0931 31.0059 40.5523 30.9975 39.0121C30.9975 38.7842 31.0651 38.7233 31.2768 38.7417C31.5249 38.763 31.8494 38.6674 32.0031 38.792C32.1662 38.9239 32.0517 39.2607 32.0545 39.5077C32.0629 40.2127 32.0584 40.9183 32.0584 41.6233Z" fill="#233E7F"/>
<path d="M11.1761 41.5909C11.1761 42.454 11.1705 43.3177 11.1811 44.1809C11.1811 44.3775 11.128 44.4423 10.9325 44.4267C10.675 44.406 10.3403 44.5049 10.1772 44.3764C10.0029 44.2401 10.1213 43.8909 10.1213 43.6362C10.1152 42.0948 10.1213 40.554 10.1124 39.0127C10.1124 38.7892 10.1739 38.7211 10.3917 38.7406C10.6398 38.7624 10.9716 38.6613 11.118 38.787C11.2895 38.9339 11.1688 39.2742 11.1739 39.53C11.1817 40.2166 11.1761 40.9054 11.1761 41.5909Z" fill="#233E7F"/>
<path d="M107.947 43.814C107.947 44.2464 107.64 44.5609 107.221 44.5559C106.814 44.5514 106.527 44.2447 106.525 43.814C106.524 43.3832 106.836 43.0614 107.252 43.0665C107.644 43.0737 107.947 43.3983 107.947 43.814Z" fill="#233E7F"/>
<path d="M38.244 37.7921C38.1584 37.7921 38.0736 37.7749 37.9947 37.7416C37.9158 37.7083 37.8444 37.6595 37.7847 37.5981C37.725 37.5367 37.6782 37.4639 37.6471 37.3841C37.6161 37.3042 37.6013 37.219 37.6038 37.1334C37.6056 37.0476 37.6244 36.963 37.6592 36.8846C37.694 36.8062 37.7441 36.7354 37.8064 36.6765C37.8688 36.6176 37.9423 36.5717 38.0226 36.5415C38.1029 36.5113 38.1884 36.4973 38.2742 36.5004C38.36 36.4995 38.4451 36.5161 38.5244 36.5491C38.6036 36.5822 38.6753 36.631 38.7351 36.6926C38.7949 36.7542 38.8415 36.8273 38.8721 36.9075C38.9028 36.9877 38.9168 37.0733 38.9133 37.1591C38.9115 37.2448 38.8927 37.3293 38.858 37.4076C38.8232 37.486 38.7733 37.5566 38.711 37.6155C38.6487 37.6744 38.5754 37.7204 38.4952 37.7507C38.4151 37.781 38.3297 37.795 38.244 37.7921Z" fill="#233E7F"/>
<path d="M10.6497 36.5C11.024 36.5 11.2922 36.7793 11.2899 37.1598C11.2899 37.5246 10.9989 37.7966 10.6196 37.7916C10.2603 37.7866 9.99944 37.5123 10 37.1453C10 36.767 10.2693 36.5 10.6497 36.5Z" fill="#233E7F"/>
<path d="M56.8332 37.7914C56.664 37.793 56.5008 37.7285 56.3785 37.6116C56.2561 37.4948 56.1841 37.3348 56.1779 37.1657C56.1761 37.0796 56.1914 36.994 56.2229 36.9139C56.2543 36.8338 56.3014 36.7606 56.3613 36.6988C56.4212 36.6369 56.4927 36.5875 56.5718 36.5535C56.6509 36.5194 56.7359 36.5014 56.822 36.5003C57.2013 36.4892 57.4728 36.7529 57.4796 37.1389C57.4857 37.5149 57.2164 37.7869 56.8332 37.7914Z" fill="#233E7F"/>
<path d="M32.1724 37.1666C32.1696 37.5308 31.8808 37.8006 31.502 37.7923C31.4182 37.7905 31.3357 37.7723 31.259 37.7385C31.1823 37.7048 31.113 37.6562 31.0551 37.5957C30.9973 37.5351 30.9519 37.4637 30.9217 37.3855C30.8915 37.3074 30.877 37.2241 30.8791 37.1403C30.8787 37.054 30.8959 36.9684 30.9295 36.8889C30.9632 36.8094 31.0127 36.7375 31.0749 36.6777C31.1372 36.6179 31.211 36.5714 31.2918 36.5409C31.3726 36.5105 31.4588 36.4968 31.545 36.5006C31.9199 36.5057 32.178 36.7755 32.1724 37.1666Z" fill="#233E7F"/>
</svg>
