<svg width="250" height="58" viewBox="0 0 250 58" fill="none" xmlns="http://www.w3.org/2000/svg">
<path d="M70.0093 24.864C70.0181 29.8692 70.027 34.8745 69.9074 40.0023C68.6131 40.1259 67.4462 40.0972 66.2817 40.1376C65.3952 40.1684 64.9982 39.8522 65.0001 38.9158C65.0185 29.7137 65.0186 20.5115 65 11.3094C64.9981 10.3687 65.4032 10.0651 66.2856 10.0924C67.6169 10.1336 68.9501 10.1095 70.2825 10.1132C72.8682 15.4964 75.9826 20.6428 77.6362 26.6099C78.9176 20.9346 81.9528 16.1228 84.0503 10.9219C84.3895 10.0808 84.9072 9.53929 85.9765 9.62878C87.2523 9.73555 88.5438 9.65395 90.0123 9.65395C90.0123 19.86 90.0123 29.9888 89.8943 40.1972C88.6173 40.2299 87.4544 40.101 86.3007 40.1583C85.0913 40.2184 84.7178 39.7588 84.7319 38.5728C84.785 34.1257 84.7614 29.6775 84.7433 25.2298C84.7408 24.6153 84.6077 24.0013 84.535 23.3871C84.6256 22.219 84.7161 21.051 84.791 20.0838C83.149 23.9196 81.4575 27.8901 79.7462 31.8521C79.4052 32.6416 79.0601 33.4477 78.5764 34.1493C78.3328 34.5027 77.7981 34.7463 77.3519 34.8459C76.8031 34.9685 76.2955 34.9408 75.9565 34.2061C73.8654 29.673 71.1476 25.4213 69.8604 20.5281C69.8313 20.4178 69.7313 20.3261 69.5951 20.1219C69.5607 20.4648 69.5371 20.6994 69.4666 21.1087C69.6162 22.4768 69.8128 23.6704 70.0093 24.864Z" fill="#021D38"/>
<path d="M148.996 18.8607C150.147 23.5936 151.297 28.3265 152.449 33.0592C152.484 33.2053 152.527 33.3495 152.545 33.414C153.45 28.9877 154.364 24.5213 155.364 19.8993C155.818 19.0621 156.363 18.7832 157.155 18.8552C157.885 18.9217 158.642 18.7788 159.357 18.9014C159.855 18.9868 160.303 19.3651 160.773 19.6126C158.441 27.833 156.119 36.0563 153.761 44.2695C153.512 45.1369 153.102 45.9683 152.688 46.7758C151.194 49.685 148.542 50.2298 145.44 48.7581C145.726 47.3285 146.016 45.8815 146.302 44.4512C149.252 44.2754 150.67 42.0555 149.686 39.2175C147.677 33.4257 145.655 27.6388 143.637 21.8505C143.573 21.6688 143.491 21.4939 143.364 21.1882C143.227 23.5776 143.241 23.1738 141.264 23.209C140.603 23.2207 139.941 23.2108 139.138 23.2108C139.108 23.7328 139.063 24.1687 139.061 24.6047C139.052 27.396 139.039 30.1874 139.061 32.9784C139.067 33.6338 139.15 34.3009 139.296 34.94C139.529 35.9589 140.447 36.3638 141.7 36.0362C142.126 35.9249 142.53 35.7306 143.085 35.5211C143.325 37.0266 143.544 38.3979 143.773 39.8295C141.573 41.1149 139.202 41.2601 136.812 40.8012C135.137 40.4797 134.039 38.8174 133.858 36.6651C133.875 36.4731 133.856 36.4182 133.808 36.3705C133.777 33.0853 133.743 29.8 133.716 26.5147C133.707 25.4794 133.714 24.444 133.714 23.2669C132.901 23.2669 132.176 23.2669 131.367 23.2669C131.367 21.6531 131.367 20.1792 131.367 18.5675C132.078 18.513 132.837 18.4546 133.725 18.3865C133.725 17.2245 133.683 16.1062 133.752 14.9947C133.771 14.6863 134.057 14.2238 134.324 14.1296C135.838 13.5976 137.383 13.1561 139.032 12.6484C139.032 14.5959 139.032 16.4206 139.104 18.4258C139.65 18.6926 140.122 18.8501 140.595 18.8538C143.395 18.8759 146.196 18.8623 148.996 18.8607Z" fill="#021D38"/>
<path d="M233.019 24.6082C233.858 20.4209 236.763 16.6639 243.794 18.3333C243.794 15.6524 243.794 12.996 243.927 10.2242C245.058 10.1101 246.056 10.11 247.054 10.1131C248.767 10.1184 248.772 10.1192 248.772 11.8594C248.774 19.6348 248.766 27.4101 248.788 35.1854C248.79 35.7347 249.007 36.2834 249.125 36.8324C249.259 38.0061 249.393 39.1798 249.539 40.4547C248.228 40.4547 247.01 40.4547 245.7 40.4547C245.471 39.7398 245.225 38.9712 244.965 38.1609C242.669 42.5167 236.404 41.6807 234.323 38.4376C233.759 37.5594 233.452 36.5169 233.055 35.3723C232.912 34.5006 232.741 33.8064 232.57 33.1122C232.56 32.7675 232.551 32.4229 232.571 31.8814C232.568 30.4914 232.536 29.2982 232.504 28.1049C232.518 27.6788 232.532 27.2528 232.618 26.664C232.8 25.8703 232.909 25.2393 233.019 24.6082ZM239.291 35.4949C241.471 36.8052 243.734 35.7067 243.775 33.2639C243.826 30.2732 243.809 27.2807 243.759 24.29C243.753 23.9327 243.437 23.4239 243.121 23.2548C241.432 22.3511 239.432 23.0756 238.706 24.8622C238.401 25.614 238.171 26.4431 238.132 27.2479C238 29.9979 237.611 32.8001 239.291 35.4949Z" fill="#021D38"/>
<path d="M176.428 14.3805C172.285 13.7976 170.208 15.8832 169.312 19.439C168.39 23.0974 168.386 26.8289 169.309 30.4774C170.662 35.8264 175.058 37.4579 179.896 34.3509C180.269 35.9068 180.661 37.3915 180.951 38.8958C180.997 39.139 180.653 39.5638 180.383 39.7456C176.102 42.625 168.378 41.1977 165.524 36.9309C164.157 34.8869 163.414 32.5623 163.106 30.1063C162.524 25.4658 162.466 20.8572 164.05 16.3769C165.078 13.4697 166.765 11.0048 169.744 9.87445C173.152 8.5815 176.648 8.82228 180.08 9.94391C180.308 10.0184 180.593 10.4919 180.551 10.7261C180.291 12.1759 179.946 13.6103 179.622 15.0798C178.527 14.8343 177.535 14.6116 176.428 14.3805Z" fill="#021D38"/>
<path d="M107.441 39.0373C105.452 40.9304 103.09 41.2699 100.586 41.0445C96.1947 40.6492 94.2535 37.9149 93.533 34.6527C92.6673 30.7335 92.6172 26.8394 93.9792 22.9682C95.4655 18.7438 99.4322 17.4308 103.287 17.9625C107.197 18.5019 109.222 20.9635 109.941 24.6209C110.706 28.5164 110.843 32.4296 109.293 36.1926C108.879 37.1955 108.112 38.0526 107.441 39.0373ZM100.244 35.7293C101.791 36.7405 103.69 36.2268 104.204 34.4424C105.157 31.1327 105.263 27.7711 104.079 24.4647C103.722 23.4667 103.103 22.7774 101.898 22.8063C100.415 22.842 99.3917 23.4199 99.0843 25.034C98.7169 26.9627 98.539 28.9626 98.5857 30.9244C98.625 32.573 98.7716 34.3234 100.244 35.7293Z" fill="#021D38"/>
<path d="M205.451 18.3742C209.334 19.9917 210.395 23.3214 210.696 26.9375C210.918 29.6044 210.921 32.3068 210.136 34.9563C208.844 39.3106 205.465 41.6154 200.97 41.0577C197.113 40.5791 195.016 38.7654 193.968 34.8979C192.939 31.1025 193.007 27.2849 194.116 23.53C195.333 19.4105 199.208 17.1704 203.555 17.9386C204.16 18.0456 204.755 18.213 205.451 18.3742ZM203.366 35.8686C203.824 35.2551 204.536 34.7012 204.696 34.0179C205.414 30.9515 205.562 27.8573 204.593 24.7897C204.255 23.7197 203.672 22.9161 202.48 22.8056C201.029 22.671 200.042 23.123 199.616 24.4483C198.527 27.8364 198.452 31.2823 199.744 34.6374C200.348 36.2077 201.627 36.588 203.366 35.8686Z" fill="#021D38"/>
<path d="M226.449 40.5485C225.925 39.635 225.509 38.7268 225.09 37.8099C224.641 38.3619 224.209 39.1225 223.575 39.6318C221.507 41.294 219.152 41.5159 216.695 40.6563C214.938 40.0413 214.164 38.5683 213.859 36.8795C213.596 35.4208 213.441 33.9249 213.422 32.4431C213.366 28.07 213.401 23.6957 213.404 19.3219C213.404 19.0811 213.429 18.8404 213.446 18.5427C215.291 18.5427 217.058 18.5427 218.925 18.5427C218.949 18.9985 218.99 19.4005 218.989 19.8024C218.978 24.259 218.965 28.7155 218.945 33.1721C218.938 34.7527 219.538 35.9346 220.526 36.0937C221.476 36.2465 223.076 35.9285 223.55 34.2894C223.796 33.4369 224.169 32.5733 224.184 31.7096C224.252 27.7535 224.214 23.7956 224.214 19.8383C224.214 19.4275 224.214 19.0167 224.214 18.542C226.004 18.542 227.696 18.542 229.502 18.542C229.853 25.8307 229.098 33.13 230.09 40.5539C228.934 40.5539 227.746 40.5539 226.449 40.5485Z" fill="#021D38"/>
<path d="M126.286 18.3278C126.673 18.5318 127.061 18.7358 127.529 19.0628C127.673 19.2417 127.737 19.2975 127.8 19.3534C127.877 19.3784 127.938 19.4238 128.026 19.6357C129.018 21.8443 129.079 24.0276 129.044 26.251C128.985 29.9122 129.043 33.5751 129.023 37.2372C129.006 40.505 129.45 40.0493 126.065 40.1428C124.864 40.176 124.473 39.7666 124.492 38.5691C124.552 34.7414 124.529 30.9121 124.495 27.0837C124.491 26.5914 124.236 26.1012 124.097 25.6101C124.072 25.4242 124.047 25.2382 124.061 24.8905C123.832 24.2715 123.563 23.8143 123.294 23.357C122.604 23.1949 121.914 23.0327 121.058 22.8172C120.598 22.9516 120.304 23.1394 120.01 23.3271C120.01 23.3271 120.009 23.3579 119.962 23.3956C119.87 23.4816 119.819 23.5234 119.763 23.5585C119.763 23.5585 119.746 23.6157 119.698 23.6506C119.617 23.7304 119.574 23.7622 119.521 23.7808C119.472 23.8649 119.424 23.949 119.231 24.106C118.815 24.9238 118.322 25.6645 118.308 26.4143C118.23 30.526 118.246 34.6401 118.287 38.7529C118.297 39.7808 117.945 40.1771 116.913 40.1246C115.712 40.0634 114.504 40.114 113.3 40.116C113.288 33.1091 113.277 26.1022 113.397 18.9816C114.021 18.8683 114.515 18.8914 115.006 18.8648C116.311 18.7941 117.626 18.6725 117.821 20.5163C117.826 20.5661 118.272 20.5693 118.513 20.5943C118.513 20.5943 118.52 20.6084 118.559 20.5647C118.652 20.4542 118.706 20.3874 118.759 20.3206C118.76 20.2366 118.797 20.1725 119.001 20.0921C119.259 19.894 119.384 19.7323 119.508 19.5705C121.209 17.7607 123.325 17.6577 125.693 18.1936C125.971 18.3029 126.128 18.3153 126.286 18.3278Z" fill="#021D38"/>
<path d="M189.44 35.876C190.238 35.876 191.036 35.876 191.977 35.876C192.132 37.1405 192.322 38.4665 192.427 39.7991C192.442 39.9878 192.08 40.3053 191.83 40.4001C189.962 41.1098 188.015 41.1896 186.088 40.7977C184.494 40.4737 183.532 38.7794 183.529 36.5802C183.52 30.9171 183.525 25.254 183.526 19.5909C183.526 16.5095 183.529 13.4281 183.662 10.2306C184.793 10.1144 185.792 10.1122 186.792 10.1148C188.516 10.1193 188.521 10.1205 188.521 11.8554C188.523 18.7676 188.515 25.6798 188.537 32.5919C188.539 33.0986 188.749 33.6046 188.862 34.1109C188.911 34.3786 188.959 34.6464 188.97 35.0758C189.102 35.4503 189.271 35.6631 189.44 35.876Z" fill="#021D38"/>
<path d="M3.68493 27.9945C3.68493 29.5607 3.68493 31.1269 3.68493 32.6931C3.55838 32.7562 3.43184 32.8193 3.30529 32.8825C3.02054 32.4188 2.59493 31.9887 2.47532 31.4858C1.94434 29.2533 1.46109 27.0074 1.03854 24.7517C0.687536 22.878 0.445291 20.9839 0.0646532 19.1744C-0.0255618 15.5781 -0.0255618 11.9062 0.0912959 8.12557C4.06867 8.10105 7.90039 7.88858 11.6801 7.01382C16.2843 5.94823 20.5346 4.14164 24.2017 1.10748C24.5359 0.830951 24.7204 0.373459 24.9744 0C25.2411 2.5e-07 25.5078 2.5332e-07 25.8744 2.5332e-07C26.1069 0.289547 26.1654 0.66227 26.3831 0.856081C29.3358 3.48449 32.8064 5.1648 36.5512 6.32656C40.8633 7.66428 45.2913 8.10405 49.786 8.02042C50.1537 8.01358 50.5217 8.01952 50.955 8.01952C50.955 10.5151 50.955 12.9127 50.955 15.4535C52.5287 15.4535 54.1288 15.4535 55.729 15.4535C55.7507 15.5702 55.7724 15.687 55.7941 15.8037C38.3205 18.4421 21.9175 24.3366 6.10322 32.0233C17.0857 24.1232 28.371 16.9415 42.4997 16.2592C42.4722 16.1414 42.4446 16.0236 42.4171 15.9058C41.1912 15.7682 39.9556 15.6879 38.7412 15.4825C34.3965 14.748 30.2323 13.4619 26.4282 11.1847C25.7359 10.7703 25.194 10.7587 24.5018 11.1619C20.0034 13.7819 15.1161 15.2324 9.96018 15.7305C8.1517 15.9052 6.31217 15.7584 4.25797 15.7584C4.14491 17.5272 4.03808 19.1986 3.79268 21.025C3.66438 23.4515 3.67465 25.723 3.68493 27.9945Z" fill="#021D38"/>
<path d="M32.4709 53.7479C30.7755 55.0033 29.0786 56.2567 27.3873 57.5178C27.2401 57.6275 27.13 57.7872 27.1134 57.962C26.3009 58.0003 25.3777 58.0003 24.3393 58.0003C24.0919 57.8024 24.0057 57.5221 23.8206 57.4187C19.9402 55.2514 16.6734 52.355 13.8307 48.9716C11.9161 46.6929 10.0047 44.405 8.2284 42.0195C7.40081 40.9081 6.85854 39.5737 6.25788 38.3067C5.65157 37.0278 6.02075 35.9225 6.93921 34.8834C8.92773 32.6337 11.4589 31.1535 14.0396 29.7377C19.1926 26.9107 24.6034 24.6722 30.2214 22.9806C35.2396 21.4696 40.3145 20.1459 45.3731 18.7716C45.9007 18.6282 46.4872 18.7018 47.0464 18.6748C47.0728 18.8214 47.0991 18.968 47.1255 19.1146C45.6091 19.6649 44.0691 20.1581 42.5805 20.7754C36.4248 23.3279 30.2003 25.7382 24.1733 28.5677C21.0266 30.045 18.2043 32.2355 15.3078 34.2099C14.4807 34.7737 13.8509 35.6664 13.2298 36.4837C12.278 37.7361 12.2574 39.0128 13.1504 40.3884C14.8968 43.0789 17.4318 44.8355 20.0905 46.4479C21.0381 47.0227 22.1009 47.4056 23.1029 47.893C24.8603 48.7479 26.4932 48.4229 28.0104 47.3366C33.072 43.7123 38.1277 40.0796 43.1662 36.4233C44.4631 35.4822 45.6886 34.4427 47.0246 33.5134C44.6207 39.3117 41.7205 44.7786 36.9702 49.2374C36.8216 49.4014 36.7728 49.462 36.7234 49.522C36.7234 49.522 36.7321 49.507 36.6635 49.5322C36.4774 49.7157 36.3598 49.8741 36.2423 50.0325C36.2423 50.0325 36.2313 50.0057 36.1978 50.0481C36.1051 50.1565 36.0458 50.2226 35.9865 50.2887C35.0438 51.2575 34.101 52.2264 33.0074 53.2482C32.728 53.45 32.5995 53.5989 32.4709 53.7479Z" fill="#021D38"/>
</svg>
