<svg width="180" height="54" viewBox="0 0 180 54" fill="none" xmlns="http://www.w3.org/2000/svg">
<g clip-path="url(#clip0_4611_2668)">
<path d="M10.0591 25.6157C10.0591 22.6911 10.0576 19.7665 10.0544 16.8418C10.0544 16.6223 10.0977 16.5414 10.3366 16.5472C11.0667 16.5638 11.7968 16.5586 12.5269 16.5498C12.7355 16.5498 12.8711 16.6077 12.9989 16.7907C14.1603 18.4538 15.3368 20.106 16.504 21.7649C17.7556 23.5439 19.0043 25.3249 20.25 27.1078C20.2807 27.1603 20.3173 27.2091 20.359 27.2533C20.456 27.3383 20.5321 27.3305 20.5494 27.1844C20.552 27.141 20.552 27.0975 20.5494 27.0541C20.5494 23.6524 20.5467 20.2506 20.5415 16.8486C20.5415 16.6123 20.6291 16.5487 20.8471 16.5503C21.8552 16.5571 22.8628 16.5586 23.8719 16.5503C24.116 16.5503 24.1786 16.6395 24.1786 16.8747C24.173 22.7062 24.173 28.5381 24.1786 34.3704C24.1786 34.5904 24.1097 34.6614 23.8969 34.6593C23.1321 34.652 22.3672 34.652 21.6023 34.6593C21.4312 34.6593 21.3316 34.5868 21.2404 34.4564C19.8347 32.4465 18.4278 30.4376 17.0198 28.4298C16.0341 27.0256 15.0469 25.6223 14.0581 24.2202C14.0059 24.1498 13.9715 24.07 13.9209 23.9996C13.8776 23.9391 13.8484 23.8327 13.7587 23.8546C13.669 23.8765 13.692 23.9818 13.6915 24.0569C13.6915 24.1873 13.6915 24.3177 13.6915 24.4475C13.6915 27.7626 13.6932 31.0779 13.6967 34.3933C13.6967 34.6019 13.6325 34.6608 13.4297 34.6593C12.3866 34.6515 11.3436 34.6494 10.3006 34.6593C10.0821 34.6593 10.0503 34.5805 10.0508 34.3886C10.0595 31.4661 10.0623 28.5418 10.0591 25.6157Z" fill="#040404"/>
<path d="M57.5623 34.8844C56.4426 34.8886 55.3459 34.7342 54.3003 34.3295C52.7175 33.7172 51.5154 32.6674 50.7608 31.1321C50.6841 30.9756 50.6194 30.8161 50.5386 30.6627C50.4411 30.4797 50.4499 30.3634 50.6575 30.2455C51.5524 29.7371 52.4364 29.2103 53.323 28.6873C53.4695 28.6007 53.5592 28.6252 53.6239 28.7879C54.0192 29.7788 54.6909 30.5198 55.663 30.9741C56.0021 31.1323 56.3642 31.2354 56.7357 31.2797C57.6359 31.384 58.5334 31.4153 59.4007 31.0601C60.0593 30.79 60.4703 30.33 60.5433 29.6129C60.6153 28.9094 60.2857 28.3952 59.7089 28.0265C59.1738 27.6833 58.5834 27.4627 57.9811 27.2651C56.7816 26.8713 55.5441 26.5871 54.3936 26.0536C53.4737 25.6275 52.6304 25.0904 52.0228 24.2466C51.3699 23.3397 51.1582 22.3128 51.1884 21.2218C51.2086 20.2102 51.5314 19.2279 52.1151 18.4015C52.6262 17.675 53.2995 17.1457 54.0833 16.7431C55.2187 16.159 56.4379 15.9691 57.6917 16.0547C60.1282 16.2205 62.0051 17.3418 63.2812 19.4361C63.349 19.5472 63.4106 19.662 63.4752 19.7746C63.6666 20.1084 63.663 20.1266 63.3386 20.3138C62.5042 20.7926 61.6698 21.2646 60.8421 21.7537C60.67 21.8554 60.5965 21.8398 60.5021 21.6667C60.2189 21.1483 59.9013 20.6586 59.4241 20.2826C58.8964 19.8653 58.3076 19.6192 57.6426 19.5801C56.9777 19.541 56.331 19.5358 55.7172 19.8716C54.5584 20.5042 54.4703 21.99 55.5608 22.7326C56.1907 23.1613 56.899 23.4195 57.616 23.6474C58.7785 24.0166 59.9535 24.3498 61.058 24.8682C62.1297 25.3699 63.0627 26.0395 63.639 27.1133C63.9467 27.687 64.0979 28.3102 64.1438 28.9501C64.21 29.869 64.0917 30.7697 63.7125 31.6182C63.3146 32.5131 62.6805 33.2166 61.8627 33.7475C60.8223 34.4255 59.6687 34.753 58.4348 34.8395C58.1501 34.8609 57.8575 34.887 57.5623 34.8844Z" fill="#040404"/>
<path d="M66.2591 21.5534C66.7889 21.5534 67.3188 21.5576 67.8486 21.5508C67.9978 21.5508 68.0839 21.5873 68.1407 21.739C68.4265 22.4989 68.7232 23.2546 69.0174 24.0113C69.3334 24.8255 69.65 25.6393 69.967 26.4525C70.2452 27.1697 70.5233 27.887 70.8015 28.6042C70.9636 29.0214 71.1217 29.4439 71.2823 29.8637C71.3068 29.9278 71.325 30.004 71.4168 29.9946C71.4872 29.9873 71.5128 29.9263 71.5316 29.8679C71.6912 29.3735 71.8445 28.877 72.0093 28.3842C72.2393 27.6869 72.4786 26.9917 72.706 26.2945C72.9334 25.605 73.1535 24.913 73.3803 24.2235C73.6015 23.5508 73.8267 22.8796 74.051 22.2079C74.0593 22.1834 74.075 22.1615 74.0849 22.1375C74.3154 21.5534 74.3154 21.5534 74.9475 21.5534C75.8334 21.5534 76.7199 21.5534 77.6072 21.5534C77.8826 21.5534 77.8825 21.5649 77.7876 21.8287C77.4153 22.8598 77.0533 23.8945 76.6773 24.9244C76.3013 25.9544 75.9107 26.9776 75.5347 28.0071C75.2077 28.9005 74.8964 29.7995 74.572 30.6939C74.2007 31.7177 73.82 32.7383 73.4476 33.762C73.1576 34.5583 72.8807 35.3599 72.4797 36.1088C71.8612 37.2666 71.0857 38.2814 69.9144 38.9385C69.2822 39.3036 68.5827 39.5373 67.858 39.6254C67.4299 39.6744 67.0064 39.7594 66.5694 39.7396C66.3795 39.7312 66.2919 39.6733 66.2919 39.4929C66.2919 38.5729 66.2919 37.6532 66.2919 36.7336C66.2919 36.5417 66.4056 36.5177 66.5689 36.5218C67.323 36.5396 68.0155 36.3513 68.596 35.8527C69.1024 35.4173 69.4106 34.8447 69.6239 34.2241C69.7235 33.9351 69.5117 33.6905 69.4095 33.4418C69.0267 32.5031 68.6273 31.5763 68.2309 30.6465C67.8033 29.6441 67.3668 28.646 66.9417 27.6426C66.4155 26.4014 65.8987 25.1555 65.3772 23.9138C65.0914 23.2358 64.7947 22.5646 64.5084 21.8882C64.3728 21.568 64.3853 21.5539 64.7248 21.5534C65.2355 21.5527 65.747 21.5527 66.2591 21.5534Z" fill="#040404"/>
<path d="M83.1681 34.89C82.0025 34.8754 80.8614 34.671 79.8221 34.066C78.9748 33.58 78.2901 32.8542 77.8544 31.98C77.7746 31.8235 77.8179 31.7401 77.9524 31.6671C78.8126 31.1838 79.6722 30.6998 80.5313 30.2152C80.6309 30.1588 80.7097 30.1432 80.7577 30.2715C81.1936 31.4324 82.3467 31.9158 83.5149 31.812C83.9217 31.7755 84.3123 31.7077 84.633 31.447C85.1545 31.024 85.092 30.3836 84.4985 30.0238C84.1193 29.7933 83.6953 29.665 83.2724 29.5388C82.1772 29.2133 81.0633 28.9536 80.0625 28.3701C78.7832 27.6248 78.2372 26.5077 78.3217 25.0501C78.3591 24.1566 78.7199 23.3072 79.3371 22.66C79.8231 22.1442 80.4322 21.7933 81.1034 21.5523C82.074 21.205 83.0763 21.1429 84.0828 21.2634C85.7376 21.4616 87.0612 22.2397 87.9884 23.6452C88.197 23.9638 88.197 23.9695 87.8622 24.1542C87.0753 24.5896 86.2836 25.0167 85.4998 25.4579C85.3079 25.5659 85.2463 25.4371 85.177 25.3223C84.9684 24.9729 84.7019 24.6793 84.3347 24.4947C83.651 24.1515 82.9501 24.1114 82.2617 24.4592C81.9321 24.6256 81.7564 24.9171 81.7877 25.3145C81.82 25.7265 82.1157 25.9174 82.4275 26.0655C83.032 26.3528 83.6865 26.4989 84.329 26.6783C85.3068 26.951 86.2732 27.2519 87.1003 27.8777C88.0854 28.6188 88.4615 29.6436 88.4437 30.8337C88.4296 31.7552 88.1381 32.5844 87.5212 33.2848C87.0215 33.8527 86.389 34.2235 85.6912 34.4843C84.8875 34.7852 84.0453 34.8837 83.1681 34.89Z" fill="#040404"/>
<path d="M42.7023 27.7984C42.7023 26.905 42.6971 26.0112 42.706 25.1178C42.706 24.9092 42.6314 24.8383 42.4332 24.8409C41.8684 24.8466 41.3036 24.8372 40.7394 24.8477C40.5161 24.8518 40.4301 24.7736 40.4317 24.5452C40.44 23.6339 40.44 22.723 40.4317 21.8125C40.4317 21.6138 40.5052 21.5517 40.6924 21.5517C41.2661 21.5559 41.8397 21.5465 42.4134 21.5559C42.634 21.5595 42.7185 21.4959 42.7122 21.2576C42.695 20.5796 42.7122 19.9043 42.7008 19.2279C42.6971 19.0192 42.7978 18.9238 42.9714 18.8727C43.8762 18.6057 44.7811 18.3376 45.6875 18.0774C46.1047 17.9585 46.1047 17.9658 46.1047 18.4007C46.1047 19.3634 46.1104 20.3267 46.0989 21.2894C46.0989 21.498 46.1646 21.5585 46.367 21.5564C47.1493 21.5475 47.9315 21.5601 48.7138 21.5486C48.9438 21.5455 49.0095 21.6185 49.0058 21.8485C48.9928 22.735 49.0011 23.6179 49.0006 24.503C49.0006 24.8352 48.9902 24.843 48.6689 24.8425C47.9133 24.8425 47.1566 24.8487 46.4025 24.8372C46.1798 24.8341 46.0995 24.8925 46.101 25.1293C46.1109 26.8122 46.1068 28.4951 46.1068 30.178C46.1068 30.9494 46.4171 31.3254 47.1879 31.4511C47.7047 31.5345 48.2283 31.4996 48.7477 31.474C48.9563 31.4636 49.0048 31.5293 49.0038 31.716C48.9985 32.5667 48.9985 33.417 49.0038 34.2667C49.0038 34.4498 48.9516 34.5176 48.7571 34.5431C47.7088 34.6792 46.6627 34.686 45.6238 34.491C44.3201 34.2448 43.3876 33.5397 42.973 32.2485C42.7785 31.6425 42.7263 31.0078 42.7122 30.3757C42.6945 29.5173 42.7081 28.6578 42.7081 27.7989L42.7023 27.7984Z" fill="#040404"/>
<path d="M114.576 28.9312H109.286C108.911 28.9312 108.884 28.951 108.973 29.3124C109.368 30.9182 110.27 32.0973 111.844 32.7205C113.002 33.1795 114.187 33.2692 115.39 32.974C116.47 32.7085 117.358 32.1338 117.995 31.204C118.176 30.9396 118.22 30.937 118.493 31.1059C118.81 31.3015 119.139 31.4772 119.458 31.6686C119.711 31.8209 119.711 31.8632 119.543 32.1083C118.651 33.4121 117.405 34.2235 115.893 34.6115C114.756 34.9031 113.601 34.9093 112.437 34.6898C111.119 34.4405 109.975 33.8658 109.021 32.9411C108.382 32.3141 107.887 31.5555 107.57 30.7179C107.101 29.5184 106.981 28.272 107.158 27.0152C107.454 24.9187 108.468 23.2525 110.325 22.1651C111.706 21.3583 113.215 21.0892 114.787 21.3151C116.96 21.628 118.524 22.8154 119.522 24.7612C120.119 25.9242 120.335 27.1643 120.289 28.4593C120.289 28.4681 120.289 28.477 120.289 28.4853C120.206 28.9943 120.332 28.9302 119.813 28.9307C118.067 28.9331 116.322 28.9333 114.576 28.9312ZM113.689 27.2483H118.169C118.453 27.2483 118.49 27.2081 118.443 26.9265C118.357 26.4037 118.191 25.8973 117.951 25.4251C117.097 23.7609 115.334 22.7862 113.361 22.9802C112.061 23.108 110.959 23.6061 110.081 24.5787C109.479 25.2467 109.131 26.0389 108.952 26.9109C108.891 27.2076 108.942 27.2483 109.233 27.2483H113.689Z" fill="#454646"/>
<path d="M144.411 28.0435C144.411 30.0909 144.408 32.1384 144.415 34.1858C144.415 34.4169 144.363 34.5175 144.11 34.5066C143.712 34.4883 143.312 34.4967 142.911 34.5066C142.732 34.5097 142.666 34.4466 142.669 34.2625C142.68 33.6555 142.676 33.0484 142.675 32.4409C142.675 32.3699 142.713 32.2688 142.608 32.2432C142.531 32.225 142.488 32.3027 142.448 32.3574C141.822 33.2023 141.044 33.8662 140.083 34.3C139.53 34.5521 138.942 34.7171 138.338 34.7892C137.47 34.8904 136.602 34.8643 135.756 34.6328C134.445 34.2761 133.324 33.5965 132.425 32.5686C131.571 31.5913 131.027 30.456 130.837 29.1788C130.635 27.8192 130.776 26.4914 131.348 25.2153C131.935 23.8775 132.949 22.7724 134.232 22.0737C135.374 21.4335 136.683 21.1542 137.987 21.2727C139.333 21.3838 140.53 21.8463 141.545 22.747C141.875 23.0293 142.169 23.3514 142.42 23.706C142.468 23.7754 142.521 23.8735 142.619 23.839C142.709 23.8072 142.672 23.7029 142.672 23.6304C142.672 23.0234 142.677 22.4158 142.666 21.8088C142.663 21.6184 142.723 21.5418 142.918 21.548C143.318 21.5574 143.718 21.5611 144.118 21.548C144.35 21.5402 144.412 21.6304 144.412 21.8542C144.408 23.9141 144.411 25.9788 144.411 28.0435ZM142.638 28.0596C142.631 25.0422 140.281 22.8763 137.479 22.9561C134.521 23.0406 132.455 25.2638 132.512 28.1499C132.57 31.1183 134.852 33.2012 137.736 33.1308C140.579 33.062 142.648 30.7684 142.64 28.0596H142.638Z" fill="#454646"/>
<path d="M36.9545 34.6328C36.2421 34.6328 35.5298 34.6296 34.8163 34.6328C34.7441 34.6387 34.6717 34.6243 34.6072 34.5913C34.5428 34.5583 34.4887 34.508 34.4513 34.4461C33.7493 33.4249 33.0369 32.4122 32.3298 31.3936C32.1389 31.1193 32.1039 31.1204 31.9193 31.3853C31.2273 32.3814 30.5284 33.3733 29.8374 34.3704C29.8112 34.4146 29.7732 34.4507 29.7278 34.4747C29.6823 34.4987 29.6311 34.5098 29.5798 34.5066C28.2159 34.5066 26.852 34.5066 25.488 34.5066C25.4202 34.5066 25.3415 34.5248 25.3055 34.4435C25.2695 34.3621 25.3337 34.3188 25.3733 34.262C26.3506 32.8518 27.3271 31.4409 28.3026 30.0294C28.7412 29.3957 29.1788 28.7605 29.6231 28.1305C29.7384 27.9663 29.7843 27.8302 29.6518 27.6408C28.502 26.0023 27.3568 24.36 26.2161 22.7141C25.9882 22.3871 25.7618 22.0596 25.5308 21.7352C25.4182 21.5788 25.4698 21.5157 25.6461 21.5162C27.0098 21.5162 28.3736 21.5193 29.7378 21.5162C29.8818 21.5162 29.9564 21.5871 30.0299 21.6925C30.6578 22.5964 31.2873 23.4993 31.9183 24.4012C32.1029 24.6656 32.1269 24.6651 32.3079 24.4069C32.9629 23.4682 33.6215 22.5332 34.2698 21.5908C34.3642 21.4536 34.4607 21.3952 34.6291 21.3957C36.0711 21.4015 37.5131 21.3983 38.9577 21.3989C39.0328 21.3989 39.1235 21.3702 39.1663 21.4604C39.1965 21.523 39.1475 21.571 39.1141 21.6221C38.0276 23.1779 36.9424 24.7346 35.8583 26.2922C35.5266 26.7684 35.1965 27.2461 34.8596 27.7186C34.7793 27.8317 34.7976 27.9167 34.8711 28.0226C35.5237 28.9613 36.1737 29.9028 36.821 30.8471C37.6335 32.0236 38.4459 33.2002 39.258 34.3767C39.3013 34.4388 39.366 34.5055 39.3144 34.5853C39.2711 34.6531 39.1897 34.6312 39.1219 34.6312H36.9587L36.9545 34.6328ZM36.7397 34.3199C37.3039 34.3199 37.8682 34.3199 38.433 34.3199C38.5253 34.3199 38.6416 34.3605 38.699 34.2677C38.7564 34.1749 38.6599 34.093 38.6077 34.0174C37.264 32.0704 35.9193 30.1246 34.5738 28.1801C34.3683 27.8828 34.3652 27.8844 34.1457 28.1942C33.5793 29.003 33.0171 29.8145 32.4476 30.6213C32.3433 30.7647 32.3522 30.8774 32.4523 31.0197C33.1699 32.0398 33.8826 33.063 34.5905 34.0893C34.6368 34.1671 34.7038 34.2304 34.784 34.2723C34.8642 34.3142 34.9545 34.333 35.0447 34.3266C35.6106 34.3157 36.1749 34.3214 36.7397 34.3214V34.3199ZM36.5597 21.7045C35.9777 21.7045 35.3962 21.7045 34.8142 21.7045C34.6802 21.7045 34.5702 21.718 34.4794 21.8495C33.8056 22.8268 33.1235 23.7983 32.4419 24.7699C32.3584 24.8893 32.3376 25.0098 32.4205 25.1319C33.0154 25.9847 33.6115 26.8365 34.2088 27.6873C34.299 27.8156 34.3845 27.8437 34.4878 27.692C35.1334 26.7584 35.7811 25.8265 36.4309 24.8961C37.1138 23.9146 37.7968 22.9333 38.4799 21.9522C38.5185 21.8959 38.5905 21.8515 38.5613 21.7738C38.5248 21.6784 38.432 21.7045 38.3574 21.7039C37.7584 21.7046 37.1591 21.7053 36.5597 21.706V21.7045Z" fill="#090909"/>
<path d="M125.831 27.4947C125.831 28.7958 125.822 30.097 125.835 31.3982C125.841 31.9551 125.992 32.4714 126.513 32.7802C126.841 32.9752 127.214 33.0196 127.592 33.0154C128.13 33.0091 128.668 33.0091 129.209 32.9914C129.447 32.9841 129.56 33.0435 129.54 33.3121C129.522 33.6326 129.522 33.9538 129.54 34.2743C129.546 34.4485 129.476 34.5351 129.313 34.5591C129.083 34.6026 128.85 34.6298 128.617 34.6404C127.872 34.6508 127.132 34.6889 126.389 34.5288C125.825 34.411 125.31 34.1249 124.912 33.7083C124.514 33.2918 124.251 32.7643 124.159 32.1956C124.072 31.6307 124.031 31.0597 124.036 30.4881C124.041 28.1983 124.042 25.9084 124.038 23.6182C124.038 23.2428 124.038 23.2438 123.661 23.2443C122.983 23.2443 122.305 23.237 121.627 23.2485C121.387 23.2527 121.306 23.1708 121.318 22.9304C121.337 22.5664 121.337 22.2017 121.318 21.8378C121.305 21.5974 121.403 21.5432 121.62 21.5458C122.324 21.5551 123.028 21.5411 123.73 21.5536C123.965 21.5583 124.048 21.4983 124.043 21.248C124.026 20.424 124.043 19.6 124.032 18.776C124.032 18.5465 124.109 18.4355 124.339 18.3771C124.75 18.2727 125.153 18.1392 125.555 18.0036C125.79 17.9244 125.83 17.939 125.83 18.1898C125.83 19.2136 125.837 20.2373 125.824 21.2605C125.821 21.4962 125.899 21.5557 126.122 21.5536C127.147 21.5437 128.171 21.5489 129.196 21.5494C129.526 21.5494 129.529 21.5557 129.528 21.8837C129.528 22.2305 129.513 22.5784 129.533 22.9241C129.549 23.1849 129.442 23.2511 129.2 23.2485C128.175 23.2396 127.151 23.2516 126.126 23.2386C125.891 23.2386 125.826 23.3173 125.827 23.5379C125.834 24.8574 125.831 26.1763 125.831 27.4947Z" fill="#454646"/>
<path d="M153.257 25.0594C153.257 22.0232 153.255 18.9871 153.252 15.9512C153.252 15.7061 153.327 15.6346 153.565 15.6456C153.946 15.6639 154.329 15.6487 154.712 15.6508C155.016 15.6508 155.058 15.6983 155.058 15.9919C155.058 22.0553 155.06 28.1188 155.064 34.1822C155.064 34.4294 154.972 34.5066 154.751 34.5051C154.334 34.5019 153.916 34.4962 153.499 34.5077C153.298 34.5134 153.254 34.4326 153.254 34.2469C153.259 31.1839 153.259 28.1214 153.257 25.0594Z" fill="#454646"/>
<path d="M147.976 28.042C147.976 25.9507 147.975 23.8595 147.973 21.7682C147.973 21.5914 148.043 21.5445 148.206 21.5471C148.623 21.5544 149.04 21.5565 149.457 21.5471C149.676 21.5419 149.738 21.6316 149.738 21.8433C149.733 25.9737 149.733 30.1044 149.738 34.2355C149.738 34.4477 149.659 34.5093 149.463 34.5056C149.046 34.4989 148.629 34.4973 148.212 34.5056C148.029 34.5098 147.974 34.4472 147.975 34.2631C147.981 32.1891 147.979 30.115 147.979 28.041L147.976 28.042Z" fill="#454646"/>
<path d="M150.101 17.63C150.101 17.7947 150.069 17.9579 150.006 18.1101C149.943 18.2624 149.851 18.4006 149.734 18.517C149.618 18.6334 149.479 18.7255 149.327 18.7881C149.174 18.8506 149.011 18.8824 148.846 18.8816C148.057 18.8759 147.579 18.2787 147.554 17.6242C147.527 16.9311 148.137 16.3418 148.824 16.3439C148.993 16.3412 149.161 16.3727 149.318 16.4365C149.475 16.5003 149.617 16.595 149.736 16.7151C149.855 16.8352 149.949 16.9782 150.012 17.1354C150.074 17.2926 150.105 17.4608 150.101 17.63Z" fill="#454646"/>
<path d="M93.097 25.4873C93.097 22.5804 93.0956 19.6733 93.0928 16.766C93.0928 16.5506 93.1382 16.4531 93.3792 16.4531C95.8303 16.463 98.2814 16.4427 100.728 16.4761C101.796 16.4912 102.758 16.8969 103.597 17.5525C104.411 18.1887 105.043 18.9705 105.384 19.9619C105.694 20.8594 105.802 21.7663 105.645 22.7165C105.501 23.6165 105.13 24.4652 104.569 25.1832C103.94 26 103.08 26.608 102.1 26.9277C101.872 27.0038 101.839 27.0737 101.953 27.2651C102.342 27.9101 102.727 28.5566 103.111 29.2046C103.741 30.2685 104.37 31.3331 104.999 32.3984C105.364 33.0164 105.723 33.639 106.102 34.2482C106.226 34.4474 106.151 34.4615 105.978 34.4604C105.466 34.4604 104.953 34.45 104.441 34.4646C104.247 34.4698 104.145 34.3973 104.052 34.2377C103.292 32.9282 102.524 31.6224 101.758 30.3154C101.19 29.3451 100.624 28.374 100.058 27.4023C99.9565 27.2265 99.7917 27.2297 99.6263 27.2291C98.4533 27.2291 97.2804 27.2291 96.1077 27.2291C95.7776 27.2291 95.4475 27.2323 95.1168 27.2291C94.9187 27.2265 94.8352 27.3178 94.8357 27.5139C94.8409 29.7611 94.8415 32.0083 94.8529 34.2555C94.8529 34.4119 94.8055 34.4604 94.6683 34.4604C94.2078 34.4604 93.7473 34.4563 93.2868 34.4604C93.0923 34.463 93.0918 34.3499 93.0918 34.2054C93.0949 32.1315 93.0949 30.0576 93.0918 27.9838L93.097 25.4873ZM94.9077 21.8398C94.9077 22.9673 94.9119 24.0948 94.9046 25.2224C94.9046 25.4492 94.9619 25.5473 95.2128 25.5457C96.9411 25.5363 98.6689 25.5572 100.397 25.5342C101.407 25.5212 102.274 25.117 102.937 24.3546C104.085 23.0346 104.256 21.3715 103.342 19.8769C102.684 18.8005 101.689 18.1804 100.397 18.1652C98.6756 18.1454 96.9578 18.1652 95.2383 18.1559C94.9922 18.1559 94.9009 18.2289 94.9035 18.4829C94.914 19.602 94.9077 20.7196 94.9077 21.8398Z" fill="#454646"/>
</g>
<defs>
<clipPath id="clip0_4611_2668">
<rect width="145.346" height="40" fill="white" transform="translate(10 7)"/>
</clipPath>
</defs>
</svg>
