<svg width="208" height="71" viewBox="0 0 208 71" fill="none" xmlns="http://www.w3.org/2000/svg">
<path d="M12.8817 39.0403C15.7042 39.0403 17.9179 41.1744 18.7317 43.6447C18.901 44.1566 19.0963 44.6596 19.321 45.1567C20.1999 47.0942 21.4858 48.8562 23.1103 50.3414C24.7347 51.8266 26.6587 53.0022 28.7812 53.8058C30.9005 54.6094 33.176 55.0231 35.4711 55.0231C37.7662 55.0231 40.0385 54.6094 42.161 53.8058C44.2803 53.0022 46.2075 51.8266 47.832 50.3414C49.4564 48.8562 50.7423 47.0972 51.6213 45.1567C51.8459 44.6626 52.0412 44.1566 52.2105 43.6447C53.0244 41.1744 55.2381 39.0403 58.0605 39.0403H70.4312C70.4312 43.2369 69.5261 47.3919 67.7715 51.27C66.0135 55.1482 63.4417 58.6721 60.1928 61.6395C56.9472 64.6069 53.0927 66.9611 48.8509 68.5684C44.6091 70.1756 40.0645 71 35.4744 71C30.8842 71 26.3397 70.1726 22.0978 68.5684C17.856 66.9611 14.0016 64.6069 10.7559 61.6395C7.51027 58.6721 4.93523 55.1482 3.1773 51.27C1.41937 47.3919 0.517613 43.2369 0.517613 39.0403H12.8882H12.8817ZM68.7709 12.9976C72.7946 18.4799 75.1418 25.0784 75.1418 32.1769C75.1418 33.9002 75.0018 35.5938 74.7348 37.2486C72.6774 37.445 70.6037 37.5105 68.5365 37.4391L67.1236 37.3915C66.5572 37.3915 66.0396 37.3587 65.561 37.2992C64.2523 37.1295 62.9372 36.8498 61.6285 36.695C61.2313 36.6474 60.8309 36.5938 60.4435 36.5105L58.1875 36.0283C57.0579 35.7872 55.9543 35.4568 54.8897 35.0372C53.6071 34.5342 52.2268 34.1235 51.2469 33.2157C51.0321 33.0163 50.8335 32.8198 50.6447 32.6502C49.5346 31.6353 49.0853 30.1679 49.4564 28.775L49.6745 27.9536C49.8341 27.3523 50.1043 26.7809 50.4689 26.26L50.7391 25.8731C50.9572 25.5606 51.2013 25.26 51.4618 24.9772C52.318 24.0516 53.3564 23.2807 54.2614 22.3938C55.5571 21.1199 57.0188 19.9979 58.614 19.0514L60.5477 17.9055C61.0067 17.6317 61.4429 17.3281 61.8531 16.9977C63.8291 15.4024 66.5116 14.2327 68.7709 13.0005V12.9976ZM7.85209 15.2625L12.2241 17.715L13.3993 18.5544C15.3265 19.9294 17.0649 21.5069 18.5852 23.2569L20.9877 26.2303C21.4272 26.7749 21.6681 27.4387 21.6681 28.1173C21.6681 28.6828 21.5021 29.2363 21.1896 29.7245L20.8543 30.2453C20.2813 31.1382 19.4414 31.8615 18.429 32.3317L15.613 33.6383C14.3532 34.2217 13.0184 34.6592 11.6381 34.936L4.67154 36.3349L0.374374 37.0581C0.126962 35.5164 0 33.9419 0 32.3377C0 25.5814 2.26903 19.3103 6.14299 14.1226L7.84883 15.2625H7.85209ZM47.0181 1.79472C53.8708 3.97636 59.7664 8.0301 63.9659 13.2833L61.1174 14.9887L56.6444 17.6228L54.3819 18.7686C52.1845 19.8788 49.8796 20.7985 47.4934 21.5128L45.615 22.0753L43.5674 22.5248C43.2809 22.5873 42.9814 22.5843 42.6982 22.5158L42.5484 22.4801C41.6271 22.2599 41.103 21.3729 41.4025 20.5485C41.4286 20.4741 41.4481 20.3997 41.4644 20.3253L42.3368 15.6257L43.7269 10.4498L45.3644 5.73834C45.8299 4.39602 46.3833 3.08049 47.0181 1.79472ZM24.4483 4.27101L25.044 6.63123L26.7336 14.078L27.5409 16.959C27.7265 17.6257 27.6907 18.3311 27.4367 18.977L27.3977 19.0752C26.8345 20.5128 25.2654 21.4116 23.6018 21.2539C21.7365 21.0753 19.9395 20.5187 18.3378 19.6258L14.2588 17.3489L11.6056 15.8697C10.0235 14.9857 8.50968 14.0036 7.0773 12.9261C11.2963 7.79497 17.1496 3.84838 23.9274 1.73222L24.445 4.27101H24.4483ZM35.38 0.00297632C38.8568 0.00297632 42.2164 0.461329 45.3904 1.31553L44.225 3.81861L42.6363 7.54198L41.0477 12.7178L39.7292 16.0126C39.3581 16.9442 38.6973 17.7597 37.8313 18.3579L36.744 19.1079C35.725 19.8133 34.3578 19.9383 33.2053 19.4294C32.678 19.1972 32.2222 18.8431 31.8869 18.4026L30.7475 16.9084C30.3276 16.3549 29.9662 15.7655 29.6732 15.1494L28.524 12.7178C27.5344 10.6701 26.8768 8.50333 26.5643 6.28003L26.3364 5.26808L25.4867 1.28279C28.625 0.449424 31.9455 0 35.38 0V0.00297632Z" fill="#FF5023"/>
<path d="M182.502 64.2814C182.502 65.963 181.348 67.1542 179.634 67.1542H169.245C168.16 67.1542 167.636 66.6286 167.636 65.5426C167.636 64.4566 168.16 63.8961 169.245 63.8961H178.689C179.039 63.8961 179.249 63.6859 179.249 63.3355V60.0074H169.28C167.111 60.0074 165.817 58.7461 165.817 56.5741V47.8859C165.817 43.6119 168.055 41.4748 172.568 41.4748H182.502V64.2814ZM107.933 33.5222C109.017 33.5222 109.577 34.0828 109.577 35.1688V60.0074H96.3196C94.046 60.0074 92.8916 58.8863 92.8916 56.6792V47.7107C92.8916 43.5418 95.1653 41.4748 99.7826 41.4748H106.324V35.1688C106.324 34.0828 106.848 33.5222 107.933 33.5222ZM129.286 41.4748C130.161 41.4748 130.896 42.2105 130.896 43.0863V50.3382C130.896 51.4242 130.371 51.9498 129.286 51.9498H117.708V53.9817C117.708 55.8034 118.828 56.7493 121.101 56.7493H129.286C130.371 56.7493 130.896 57.2748 130.896 58.3608C130.896 59.4468 130.371 60.0074 129.286 60.0074H120.122C116.344 60.0074 114.455 58.1156 114.455 54.2619V43.0863C114.455 42.2105 115.19 41.4748 116.064 41.4748H129.286ZM159.301 41.4748C160.386 41.4748 160.945 42.0003 160.945 43.0863V58.3608C160.945 59.4468 160.386 60.0074 159.301 60.0074C158.217 60.0074 157.657 59.4468 157.657 58.3608V44.7329H140.501C139.592 44.7329 139.137 45.1182 139.137 45.924V47.6757C139.137 48.4114 139.592 48.7967 140.501 48.7967H148.651C151.1 48.7967 152.324 49.9528 152.324 52.1599V53.3861C152.324 57.8003 150.155 60.0073 145.853 60.0074H137.843C136.548 60.0073 135.884 59.4469 135.884 58.3959C135.884 57.2749 136.548 56.7493 137.843 56.7493H146.623C148.267 56.7493 149.071 55.8384 149.071 54.0517V51.9498H140.676C137.458 51.9498 135.884 50.4783 135.884 47.5706V45.889C135.884 42.9462 137.458 41.4748 140.676 41.4748H159.301ZM198.749 41.4748C202.107 41.4748 203.821 43.1564 203.821 46.5897V58.3608C203.821 59.4468 203.296 60.0074 202.212 60.0074C201.092 60.0073 200.568 59.4468 200.568 58.3608V46.5897C200.568 45.3635 199.938 44.7329 198.749 44.7329H190.633V58.3608C190.633 59.4468 190.074 60.0073 188.989 60.0074C187.905 60.0074 187.38 59.4468 187.38 58.3608V41.4748H198.749ZM172.533 44.7329C170.224 44.7329 169.07 45.889 169.07 48.2011V56.7843L179.249 56.7493V44.7329H172.533ZM99.4677 44.7329C97.264 44.7329 96.1447 45.854 96.1447 48.1312V56.7493H106.324V44.7329H99.4677ZM117.708 49.0069H127.643V44.7329H117.708V49.0069ZM158.917 33.5222C160.316 33.5222 161.505 34.6784 161.505 36.1147C161.505 37.5861 160.316 38.7422 158.917 38.7422C157.482 38.7422 156.258 37.5861 156.258 36.1147C156.258 34.6783 157.482 33.5222 158.917 33.5222ZM184.762 33.7525C184.762 35.4341 183.608 36.6252 181.894 36.6252H171.505C170.421 36.6252 169.896 36.0997 169.896 35.0137C169.896 33.9277 170.421 33.3671 171.505 33.3671H180.95C181.299 33.3671 181.509 33.1569 181.509 32.8066V29.4784H171.54C169.371 29.4784 168.077 28.2172 168.077 26.0451V17.357C168.077 13.0829 170.316 10.9458 174.828 10.9458H184.762V33.7525ZM205.821 10.9458C207.01 10.9459 207.675 11.6465 207.675 12.5223C207.675 12.8026 207.64 12.9778 207.535 13.188L199.28 34.2779C198.65 35.8544 197.776 36.6252 196.552 36.6252H193.753C192.844 36.6252 192.179 35.8544 192.179 34.9786C192.179 33.8576 192.914 33.332 194.383 33.332H196.097L197.601 29.4434C196.727 29.4434 196.097 29.093 195.817 28.4274L189.766 13.188C189.696 12.9778 189.661 12.8025 189.661 12.5573C189.661 11.6465 190.325 10.9458 191.515 10.9458C192.214 10.9459 192.704 11.2963 192.984 11.9619L198.72 26.4306L204.317 11.9619C204.597 11.2962 205.052 10.9458 205.821 10.9458ZM103.351 10.9458C107.513 10.9458 109.577 13.0128 109.577 17.1817V23.5227C109.577 27.4815 107.513 29.4784 103.351 29.4784H99.083C94.9204 29.4784 92.8916 27.4815 92.8916 23.5227V17.1817C92.8916 13.0128 94.9204 10.9458 99.083 10.9458H103.351ZM138.858 10.9458C140.467 10.9458 141.831 12.5223 141.831 14.0638V29.4784H127.14C126.265 29.4784 125.531 28.7427 125.531 27.8318V22.0164C125.531 20.2998 126.65 19.1085 128.294 18.7582L138.543 16.6563V14.2039H119.547C118.358 14.2039 117.728 14.8345 117.728 16.0607V27.8318C117.728 28.9178 117.169 29.4784 116.084 29.4784C115 29.4784 114.475 28.9178 114.475 27.8318V16.0607C114.475 12.6274 116.189 10.9458 119.547 10.9458H138.858ZM158.087 10.9458C161.445 10.9458 163.159 12.6274 163.159 16.0607V27.8318C163.159 28.9178 162.634 29.4784 161.55 29.4784C160.43 29.4784 159.906 28.9178 159.906 27.8318V16.0607C159.906 14.8345 159.276 14.2039 158.087 14.2039H149.971V27.8318C149.971 28.9178 149.412 29.4784 148.328 29.4784C147.243 29.4784 146.718 28.9178 146.718 27.8318V10.9458H158.087ZM174.793 14.2039C172.484 14.2039 171.33 15.36 171.33 17.6722V26.2553L181.509 26.2203V14.2039H174.793ZM98.6982 14.2039C96.9842 14.2039 96.1447 15.0447 96.1447 16.7964V23.9082C96.1447 25.4496 96.9843 26.2203 98.6982 26.2203H103.735C105.449 26.2203 106.324 25.4496 106.324 23.9082V16.7964C106.324 15.0447 105.449 14.2039 103.735 14.2039H98.6982ZM128.784 21.7711V26.2203H138.543V19.8092L128.784 21.7711Z" fill="#021D38"/>
</svg>
