<svg width="246" height="107" viewBox="0 0 246 107" fill="none" xmlns="http://www.w3.org/2000/svg">
<path d="M34.2412 32.9285C34.2412 32.2879 34.7702 31.7686 35.4228 31.7686H41.7246C42.3771 31.7686 42.9061 32.2879 42.9061 32.9285V35.2482C42.9061 35.8888 42.3771 36.4082 41.7246 36.4082H35.4228C34.7702 36.4082 34.2412 35.8888 34.2412 35.2482V32.9285Z" fill="#021D38"/>
<path d="M34.2412 32.9285C34.2412 32.2879 34.7702 31.7686 35.4228 31.7686H41.7246C42.3771 31.7686 42.9061 32.2879 42.9061 32.9285V35.2482C42.9061 35.8888 42.3771 36.4082 41.7246 36.4082H35.4228C34.7702 36.4082 34.2412 35.8888 34.2412 35.2482V32.9285Z" fill="#021D38"/>
<path d="M49.208 32.9285C49.208 32.2879 49.737 31.7686 50.3896 31.7686H56.6914C57.3439 31.7686 57.8729 32.2879 57.8729 32.9285V35.2482C57.8729 35.8888 57.3439 36.4082 56.6914 36.4082H50.3896C49.737 36.4082 49.208 35.8888 49.208 35.2482V32.9285Z" fill="#021D38"/>
<path d="M49.208 32.9285C49.208 32.2879 49.737 31.7686 50.3896 31.7686H56.6914C57.3439 31.7686 57.8729 32.2879 57.8729 32.9285V35.2482C57.8729 35.8888 57.3439 36.4082 56.6914 36.4082H50.3896C49.737 36.4082 49.208 35.8888 49.208 35.2482V32.9285Z" fill="#021D38"/>
<path fill-rule="evenodd" clip-rule="evenodd" d="M52.5148 24.0358C53.8869 23.0098 54.7211 21.6548 54.7211 20.1696C54.7211 16.9666 50.8418 14.3701 46.0562 14.3701C41.2708 14.3701 37.3913 16.9666 37.3913 20.1696C37.3913 21.6548 38.2257 23.0098 39.5977 24.0358H30.3018C28.1267 24.0358 26.3633 25.7668 26.3633 27.9022V44.9139C26.3633 47.0493 28.1267 48.7803 30.3018 48.7803H61.8107C63.9859 48.7803 65.7494 47.0493 65.7494 44.9139V27.9022C65.7494 25.7668 63.9859 24.0358 61.8107 24.0358H52.5148ZM31.0895 33.3151C31.0895 30.7526 33.2056 28.6754 35.8159 28.6754H56.2967C58.907 28.6754 61.023 30.7526 61.023 33.3151V34.8616C61.023 37.4239 58.907 39.501 56.2967 39.501H35.8159C33.2056 39.501 31.0895 37.4239 31.0895 34.8616V33.3151Z" fill="#021D38"/>
<path fill-rule="evenodd" clip-rule="evenodd" d="M52.5148 24.0358C53.8869 23.0098 54.7211 21.6548 54.7211 20.1696C54.7211 16.9666 50.8418 14.3701 46.0562 14.3701C41.2708 14.3701 37.3913 16.9666 37.3913 20.1696C37.3913 21.6548 38.2257 23.0098 39.5977 24.0358H30.3018C28.1267 24.0358 26.3633 25.7668 26.3633 27.9022V44.9139C26.3633 47.0493 28.1267 48.7803 30.3018 48.7803H61.8107C63.9859 48.7803 65.7494 47.0493 65.7494 44.9139V27.9022C65.7494 25.7668 63.9859 24.0358 61.8107 24.0358H52.5148ZM31.0895 33.3151C31.0895 30.7526 33.2056 28.6754 35.8159 28.6754H56.2967C58.907 28.6754 61.023 30.7526 61.023 33.3151V34.8616C61.023 37.4239 58.907 39.501 56.2967 39.501H35.8159C33.2056 39.501 31.0895 37.4239 31.0895 34.8616V33.3151Z" fill="#021D38"/>
<path fill-rule="evenodd" clip-rule="evenodd" d="M26.3636 54.1936C26.3636 52.0582 28.1271 50.3271 30.3021 50.3271H61.811C63.9863 50.3271 65.7497 52.0582 65.7497 54.1936V56.8999C65.7497 55.4053 66.9841 54.1936 68.5067 54.1936C70.0294 54.1936 71.2638 55.4053 71.2638 56.8999V74.6849C71.2638 76.1797 70.0294 77.3914 68.5067 77.3914C66.9841 77.3914 65.7497 76.1797 65.7497 74.6849V81.2577C65.7497 82.788 64.8439 84.1108 63.5299 84.7374H68.1128C70.5056 84.7374 72.4454 86.6414 72.4454 88.9902V89.377C72.4454 91.7258 70.5056 93.6299 68.1128 93.6299H59.054C56.6613 93.6299 54.7215 91.7258 54.7215 89.377V88.9902C54.7215 87.2746 55.7564 85.7965 57.2467 85.1239H34.8667C36.357 85.7965 37.3917 87.2746 37.3917 88.9902V89.377C37.3917 91.7258 35.4521 93.6299 33.0593 93.6299H24.0005C21.6077 93.6299 19.668 91.7258 19.668 89.377V88.9902C19.668 86.6414 21.6077 84.7374 24.0005 84.7374H28.5832C27.2693 84.1108 26.3636 82.788 26.3636 81.2577V74.6849C26.3636 76.1797 25.1292 77.3914 23.6065 77.3914C22.0839 77.3914 20.8495 76.1797 20.8495 74.6849V56.8999C20.8495 55.4053 22.0839 54.1936 23.6065 54.1936C25.1292 54.1936 26.3636 55.4053 26.3636 56.8999V54.1936ZM30.3021 57.2865C30.3021 55.5783 31.7129 54.1936 33.4531 54.1936H58.6602C60.4005 54.1936 61.811 55.5783 61.811 57.2865V78.1646C61.811 79.8728 60.4005 81.2577 58.6602 81.2577H33.4531C31.7129 81.2577 30.3021 79.8728 30.3021 78.1646V57.2865Z" fill="#021D38"/>
<path fill-rule="evenodd" clip-rule="evenodd" d="M26.3636 54.1936C26.3636 52.0582 28.1271 50.3271 30.3021 50.3271H61.811C63.9863 50.3271 65.7497 52.0582 65.7497 54.1936V56.8999C65.7497 55.4053 66.9841 54.1936 68.5067 54.1936C70.0294 54.1936 71.2638 55.4053 71.2638 56.8999V74.6849C71.2638 76.1797 70.0294 77.3914 68.5067 77.3914C66.9841 77.3914 65.7497 76.1797 65.7497 74.6849V81.2577C65.7497 82.788 64.8439 84.1108 63.5299 84.7374H68.1128C70.5056 84.7374 72.4454 86.6414 72.4454 88.9902V89.377C72.4454 91.7258 70.5056 93.6299 68.1128 93.6299H59.054C56.6613 93.6299 54.7215 91.7258 54.7215 89.377V88.9902C54.7215 87.2746 55.7564 85.7965 57.2467 85.1239H34.8667C36.357 85.7965 37.3917 87.2746 37.3917 88.9902V89.377C37.3917 91.7258 35.4521 93.6299 33.0593 93.6299H24.0005C21.6077 93.6299 19.668 91.7258 19.668 89.377V88.9902C19.668 86.6414 21.6077 84.7374 24.0005 84.7374H28.5832C27.2693 84.1108 26.3636 82.788 26.3636 81.2577V74.6849C26.3636 76.1797 25.1292 77.3914 23.6065 77.3914C22.0839 77.3914 20.8495 76.1797 20.8495 74.6849V56.8999C20.8495 55.4053 22.0839 54.1936 23.6065 54.1936C25.1292 54.1936 26.3636 55.4053 26.3636 56.8999V54.1936ZM30.3021 57.2865C30.3021 55.5783 31.7129 54.1936 33.4531 54.1936H58.6602C60.4005 54.1936 61.811 55.5783 61.811 57.2865V78.1646C61.811 79.8728 60.4005 81.2577 58.6602 81.2577H33.4531C31.7129 81.2577 30.3021 79.8728 30.3021 78.1646V57.2865Z" fill="#021D38"/>
<path d="M46.0561 77.0046C48.5631 77.0046 50.9676 76.027 52.7403 74.2868C54.513 72.5465 55.509 70.1864 55.509 67.7254C55.509 65.2644 54.513 62.9042 52.7403 61.1641C50.9676 59.424 48.5631 58.4463 46.0561 58.4463C43.5491 58.4463 41.1449 59.424 39.3722 61.1641C37.5994 62.9042 36.6035 65.2644 36.6035 67.7254C36.6035 70.1864 37.5994 72.5465 39.3722 74.2868C41.1449 76.027 43.5491 77.0046 46.0561 77.0046ZM45.1701 70.9152V68.5954H42.8068C42.3157 68.5954 41.9207 68.2075 41.9207 67.7254C41.9207 67.2433 42.3157 66.8555 42.8068 66.8555H45.1701V64.5358C45.1701 64.0537 45.5651 63.6657 46.0561 63.6657C46.5474 63.6657 46.9424 64.0537 46.9424 64.5358V66.8555H49.3055C49.7967 66.8555 50.1918 67.2433 50.1918 67.7254C50.1918 68.2075 49.7967 68.5954 49.3055 68.5954H46.9424V70.9152C46.9424 71.3972 46.5474 71.785 46.0561 71.785C45.5651 71.785 45.1701 71.3972 45.1701 70.9152Z" fill="#021D38"/>
<path d="M46.0561 77.0046C48.5631 77.0046 50.9676 76.027 52.7403 74.2868C54.513 72.5465 55.509 70.1864 55.509 67.7254C55.509 65.2644 54.513 62.9042 52.7403 61.1641C50.9676 59.424 48.5631 58.4463 46.0561 58.4463C43.5491 58.4463 41.1449 59.424 39.3722 61.1641C37.5994 62.9042 36.6035 65.2644 36.6035 67.7254C36.6035 70.1864 37.5994 72.5465 39.3722 74.2868C41.1449 76.027 43.5491 77.0046 46.0561 77.0046ZM45.1701 70.9152V68.5954H42.8068C42.3157 68.5954 41.9207 68.2075 41.9207 67.7254C41.9207 67.2433 42.3157 66.8555 42.8068 66.8555H45.1701V64.5358C45.1701 64.0537 45.5651 63.6657 46.0561 63.6657C46.5474 63.6657 46.9424 64.0537 46.9424 64.5358V66.8555H49.3055C49.7967 66.8555 50.1918 67.2433 50.1918 67.7254C50.1918 68.2075 49.7967 68.5954 49.3055 68.5954H46.9424V70.9152C46.9424 71.3972 46.5474 71.785 46.0561 71.785C45.5651 71.785 45.1701 71.3972 45.1701 70.9152Z" fill="#021D38"/>
<path d="M117.175 40.3281V44.0137H109.852V67.8707H105.34V44.0137H97.9775V40.3281H117.175ZM120.241 56.8537C120.241 54.6608 120.69 52.7189 121.587 51.0281C122.51 49.3373 123.751 48.0295 125.308 47.1048C126.891 46.1537 128.633 45.6781 130.533 45.6781C132.248 45.6781 133.739 46.0215 135.006 46.7085C136.299 47.3689 137.328 48.2011 138.093 49.2052V46.0348H142.645V67.8707H138.093V64.6211C137.328 65.6515 136.285 66.51 134.966 67.197C133.647 67.884 132.142 68.2274 130.454 68.2274C128.58 68.2274 126.865 67.7518 125.308 66.8007C123.751 65.8232 122.51 64.4758 121.587 62.7585C120.69 61.0148 120.241 59.0466 120.241 56.8537ZM138.093 56.9329C138.093 55.427 137.776 54.1192 137.143 53.0096C136.536 51.9 135.731 51.0545 134.729 50.4733C133.726 49.8921 132.644 49.6015 131.483 49.6015C130.322 49.6015 129.24 49.8921 128.237 50.4733C127.234 51.0281 126.416 51.8603 125.783 52.97C125.176 54.0533 124.872 55.3478 124.872 56.8537C124.872 58.3596 125.176 59.6807 125.783 60.8166C126.416 61.9526 127.234 62.8245 128.237 63.4322C129.266 64.0134 130.348 64.3041 131.483 64.3041C132.644 64.3041 133.726 64.0134 134.729 63.4322C135.731 62.851 136.536 62.0055 137.143 60.8959C137.776 59.7599 138.093 58.4389 138.093 56.9329ZM147.068 56.9329C147.068 54.6873 147.516 52.7189 148.414 51.0281C149.337 49.3108 150.604 47.9899 152.214 47.0652C153.823 46.1404 155.671 45.6781 157.755 45.6781C160.394 45.6781 162.571 46.3122 164.287 47.5803C166.028 48.8221 167.202 50.6055 167.809 52.9303H162.941C162.545 51.8471 161.912 51.0018 161.041 50.3941C160.17 49.7863 159.075 49.4826 157.755 49.4826C155.908 49.4826 154.43 50.143 153.322 51.464C152.24 52.7586 151.699 54.5815 151.699 56.9329C151.699 59.2844 152.24 61.1204 153.322 62.4415C154.43 63.7625 155.908 64.4229 157.755 64.4229C160.368 64.4229 162.096 63.2737 162.941 60.9752H167.809C167.176 63.1944 165.989 64.9645 164.247 66.2855C162.505 67.58 160.341 68.2274 157.755 68.2274C155.671 68.2274 153.823 67.7651 152.214 66.8403C150.604 65.8892 149.337 64.5682 148.414 62.8774C147.516 61.16 147.068 59.1786 147.068 56.9329ZM187.031 53.7229C188.509 53.9871 189.762 54.7666 190.792 56.0611C191.821 57.3556 192.335 58.8219 192.335 60.46C192.335 61.8603 191.966 63.1284 191.227 64.2644C190.514 65.3741 189.472 66.2592 188.1 66.9196C186.728 67.5537 185.131 67.8707 183.31 67.8707H172.306V40.3281H182.796C184.669 40.3281 186.279 40.6452 187.625 41.2792C188.971 41.9133 189.987 42.7719 190.673 43.8552C191.359 44.9119 191.702 46.1008 191.702 47.4218C191.702 49.007 191.28 50.3281 190.435 51.3848C189.591 52.4415 188.456 53.221 187.031 53.7229ZM176.819 51.9H182.4C183.878 51.9 185.026 51.5697 185.844 50.9092C186.688 50.2223 187.11 49.2448 187.11 47.9766C187.11 46.7348 186.688 45.7707 185.844 45.0837C185.026 44.3703 183.878 44.0137 182.4 44.0137H176.819V51.9ZM182.915 64.1852C184.445 64.1852 185.646 63.8152 186.517 63.0755C187.387 62.3358 187.823 61.3055 187.823 59.9844C187.823 58.637 187.361 57.567 186.437 56.7744C185.514 55.9818 184.287 55.5855 182.756 55.5855H176.819V64.1852H182.915ZM206.7 68.2274C204.642 68.2274 202.781 67.7651 201.119 66.8403C199.456 65.8892 198.15 64.5682 197.199 62.8774C196.249 61.16 195.774 59.1786 195.774 56.9329C195.774 54.7137 196.263 52.7455 197.239 51.0281C198.215 49.3108 199.547 47.9899 201.238 47.0652C202.926 46.1404 204.812 45.6781 206.898 45.6781C208.982 45.6781 210.868 46.1404 212.558 47.0652C214.246 47.9899 215.578 49.3108 216.556 51.0281C217.532 52.7455 218.021 54.7137 218.021 56.9329C218.021 59.1522 217.518 61.1204 216.517 62.8378C215.513 64.5551 214.142 65.8892 212.4 66.8403C210.684 67.7651 208.784 68.2274 206.7 68.2274ZM206.7 64.3041C207.86 64.3041 208.942 64.0266 209.946 63.4718C210.975 62.917 211.806 62.0848 212.44 60.9752C213.073 59.8655 213.39 58.5181 213.39 56.9329C213.39 55.3478 213.085 54.0136 212.479 52.9303C211.872 51.8207 211.066 50.9885 210.065 50.4337C209.061 49.8789 207.979 49.6015 206.819 49.6015C205.657 49.6015 204.574 49.8789 203.573 50.4337C202.595 50.9885 201.817 51.8207 201.238 52.9303C200.656 54.0136 200.367 55.3478 200.367 56.9329C200.367 59.2844 200.96 61.1073 202.148 62.4018C203.361 63.67 204.879 64.3041 206.7 64.3041ZM227.746 49.7203V61.8074C227.746 62.6263 227.93 63.2208 228.3 63.5907C228.696 63.9341 229.355 64.1059 230.28 64.1059H233.05V67.8707H229.488C227.455 67.8707 225.898 67.3952 224.817 66.444C223.735 65.4929 223.194 63.9474 223.194 61.8074V49.7203H220.621V46.0348H223.194V40.6055H227.746V46.0348H233.05V49.7203H227.746Z" fill="#021D38"/>
<path d="M117.175 40.3281V44.0137H109.852V67.8707H105.34V44.0137H97.9775V40.3281H117.175ZM120.241 56.8537C120.241 54.6608 120.69 52.7189 121.587 51.0281C122.51 49.3373 123.751 48.0295 125.308 47.1048C126.891 46.1537 128.633 45.6781 130.533 45.6781C132.248 45.6781 133.739 46.0215 135.006 46.7085C136.299 47.3689 137.328 48.2011 138.093 49.2052V46.0348H142.645V67.8707H138.093V64.6211C137.328 65.6515 136.285 66.51 134.966 67.197C133.647 67.884 132.142 68.2274 130.454 68.2274C128.58 68.2274 126.865 67.7518 125.308 66.8007C123.751 65.8232 122.51 64.4758 121.587 62.7585C120.69 61.0148 120.241 59.0466 120.241 56.8537ZM138.093 56.9329C138.093 55.427 137.776 54.1192 137.143 53.0096C136.536 51.9 135.731 51.0545 134.729 50.4733C133.726 49.8921 132.644 49.6015 131.483 49.6015C130.322 49.6015 129.24 49.8921 128.237 50.4733C127.234 51.0281 126.416 51.8603 125.783 52.97C125.176 54.0533 124.872 55.3478 124.872 56.8537C124.872 58.3596 125.176 59.6807 125.783 60.8166C126.416 61.9526 127.234 62.8245 128.237 63.4322C129.266 64.0134 130.348 64.3041 131.483 64.3041C132.644 64.3041 133.726 64.0134 134.729 63.4322C135.731 62.851 136.536 62.0055 137.143 60.8959C137.776 59.7599 138.093 58.4389 138.093 56.9329ZM147.068 56.9329C147.068 54.6873 147.516 52.7189 148.414 51.0281C149.337 49.3108 150.604 47.9899 152.214 47.0652C153.823 46.1404 155.671 45.6781 157.755 45.6781C160.394 45.6781 162.571 46.3122 164.287 47.5803C166.028 48.8221 167.202 50.6055 167.809 52.9303H162.941C162.545 51.8471 161.912 51.0018 161.041 50.3941C160.17 49.7863 159.075 49.4826 157.755 49.4826C155.908 49.4826 154.43 50.143 153.322 51.464C152.24 52.7586 151.699 54.5815 151.699 56.9329C151.699 59.2844 152.24 61.1204 153.322 62.4415C154.43 63.7625 155.908 64.4229 157.755 64.4229C160.368 64.4229 162.096 63.2737 162.941 60.9752H167.809C167.176 63.1944 165.989 64.9645 164.247 66.2855C162.505 67.58 160.341 68.2274 157.755 68.2274C155.671 68.2274 153.823 67.7651 152.214 66.8403C150.604 65.8892 149.337 64.5682 148.414 62.8774C147.516 61.16 147.068 59.1786 147.068 56.9329ZM187.031 53.7229C188.509 53.9871 189.762 54.7666 190.792 56.0611C191.821 57.3556 192.335 58.8219 192.335 60.46C192.335 61.8603 191.966 63.1284 191.227 64.2644C190.514 65.3741 189.472 66.2592 188.1 66.9196C186.728 67.5537 185.131 67.8707 183.31 67.8707H172.306V40.3281H182.796C184.669 40.3281 186.279 40.6452 187.625 41.2792C188.971 41.9133 189.987 42.7719 190.673 43.8552C191.359 44.9119 191.702 46.1008 191.702 47.4218C191.702 49.007 191.28 50.3281 190.435 51.3848C189.591 52.4415 188.456 53.221 187.031 53.7229ZM176.819 51.9H182.4C183.878 51.9 185.026 51.5697 185.844 50.9092C186.688 50.2223 187.11 49.2448 187.11 47.9766C187.11 46.7348 186.688 45.7707 185.844 45.0837C185.026 44.3703 183.878 44.0137 182.4 44.0137H176.819V51.9ZM182.915 64.1852C184.445 64.1852 185.646 63.8152 186.517 63.0755C187.387 62.3358 187.823 61.3055 187.823 59.9844C187.823 58.637 187.361 57.567 186.437 56.7744C185.514 55.9818 184.287 55.5855 182.756 55.5855H176.819V64.1852H182.915ZM206.7 68.2274C204.642 68.2274 202.781 67.7651 201.119 66.8403C199.456 65.8892 198.15 64.5682 197.199 62.8774C196.249 61.16 195.774 59.1786 195.774 56.9329C195.774 54.7137 196.263 52.7455 197.239 51.0281C198.215 49.3108 199.547 47.9899 201.238 47.0652C202.926 46.1404 204.812 45.6781 206.898 45.6781C208.982 45.6781 210.868 46.1404 212.558 47.0652C214.246 47.9899 215.578 49.3108 216.556 51.0281C217.532 52.7455 218.021 54.7137 218.021 56.9329C218.021 59.1522 217.518 61.1204 216.517 62.8378C215.513 64.5551 214.142 65.8892 212.4 66.8403C210.684 67.7651 208.784 68.2274 206.7 68.2274ZM206.7 64.3041C207.86 64.3041 208.942 64.0266 209.946 63.4718C210.975 62.917 211.806 62.0848 212.44 60.9752C213.073 59.8655 213.39 58.5181 213.39 56.9329C213.39 55.3478 213.085 54.0136 212.479 52.9303C211.872 51.8207 211.066 50.9885 210.065 50.4337C209.061 49.8789 207.979 49.6015 206.819 49.6015C205.657 49.6015 204.574 49.8789 203.573 50.4337C202.595 50.9885 201.817 51.8207 201.238 52.9303C200.656 54.0136 200.367 55.3478 200.367 56.9329C200.367 59.2844 200.96 61.1073 202.148 62.4018C203.361 63.67 204.879 64.3041 206.7 64.3041ZM227.746 49.7203V61.8074C227.746 62.6263 227.93 63.2208 228.3 63.5907C228.696 63.9341 229.355 64.1059 230.28 64.1059H233.05V67.8707H229.488C227.455 67.8707 225.898 67.3952 224.817 66.444C223.735 65.4929 223.194 63.9474 223.194 61.8074V49.7203H220.621V46.0348H223.194V40.6055H227.746V46.0348H233.05V49.7203H227.746Z" fill="#021D38"/>
</svg>
