<svg width="263" height="79" viewBox="0 0 263 79" fill="none" xmlns="http://www.w3.org/2000/svg">
<path d="M173.145 38.7944V19.4459C173.145 18.9957 173.254 18.8858 173.707 18.8867C177.161 18.8867 180.614 18.8886 184.065 18.8927C184.737 18.9018 185.405 19.0182 186.04 19.2377C186.626 19.4307 187.225 19.5901 187.769 19.8853C188.542 20.2958 189.224 20.8594 189.772 21.5417C190.475 22.4327 190.976 23.4652 191.24 24.5684C191.531 25.7281 191.607 26.8893 191.603 28.0696C191.597 29.3667 191.588 30.6636 191.607 31.9545C191.625 33.1752 191.385 34.3562 191.01 35.4924C190.782 36.1943 190.371 36.8443 189.895 37.4516C189.418 38.0589 188.835 38.5197 188.201 38.9333C187.875 39.1454 187.871 39.4674 188.212 39.6573C189.481 40.3506 190.453 41.4845 190.945 42.8457C191.327 43.8689 191.612 44.9384 191.606 46.0608C191.593 48.6631 191.587 51.2663 191.606 53.8688C191.617 55.3505 191.74 56.8253 192.219 58.2444C192.295 58.4771 192.219 58.6015 192 58.6784C191.854 58.7219 191.702 58.7399 191.55 58.7318C189.823 58.7318 188.098 58.7258 186.368 58.7373C185.988 58.7373 185.758 58.6037 185.617 58.242C185.348 57.5683 185.264 56.8688 185.263 56.1578C185.257 53.2127 185.278 50.267 185.253 47.3219C185.244 46.385 185.111 45.4458 184.738 44.5753C184.47 43.9489 184.084 43.4415 183.428 43.0761C182.804 42.7289 182.176 42.7228 181.534 42.6656C181.017 42.6207 180.494 42.661 179.974 42.6473C179.613 42.6382 179.462 42.8053 179.477 43.1539C179.484 43.3186 179.483 43.4835 179.483 43.6491C179.483 48.4735 179.484 53.298 179.487 58.1224C179.487 58.6281 179.386 58.7327 178.897 58.7327H173.757C173.247 58.7327 173.147 58.635 173.147 58.1437V38.7952L173.145 38.7944ZM179.289 30.8062C179.289 32.6725 179.289 34.5381 179.289 36.4034C179.289 36.9107 179.44 37.0702 179.945 37.0586C180.69 37.0419 181.438 37.0289 182.182 37.0182C182.854 37.0083 183.381 36.7413 183.916 36.4483C184.357 36.1914 184.703 35.7959 184.899 35.323C185.304 34.3957 185.5 33.3904 185.472 32.3788C185.456 31.8019 185.454 31.2221 185.447 30.6446C185.43 29.1652 185.599 27.669 185.019 26.2317C184.674 25.3801 184.116 24.84 183.261 24.5875C183.071 24.5317 182.848 24.5981 182.658 24.5462C181.721 24.2922 180.77 24.4486 179.826 24.415C179.573 24.4059 179.405 24.5272 179.341 24.7965C179.303 24.9691 179.284 25.1459 179.287 25.3229C179.287 27.151 179.289 28.9787 179.289 30.8062Z" fill="#65686A"/>
<path d="M33.6268 23.5127L33.7076 23.4493L33.8235 23.3731C34.4506 22.7215 34.7973 21.8838 35.2766 21.1361C35.8116 20.3123 36.3969 19.5224 37.0292 18.7709C37.5929 18.1048 38.1975 17.4747 38.8396 16.8841C39.6336 16.1426 40.5313 15.5422 41.4381 14.9439C42.232 14.4213 43.1281 14.1322 43.9526 13.6843C44.3702 13.4554 44.8952 13.5424 45.3363 13.3349C45.8819 13.0778 46.4969 13.1213 47.0614 12.9488C48.4331 12.5269 49.8511 12.5384 51.2615 12.5796C52.0523 12.6142 52.8376 12.7269 53.6062 12.916C54.4513 13.1113 55.2673 13.4112 56.1208 13.5706C56.5734 13.6546 56.927 13.9712 57.362 14.12C58.3526 14.4595 59.2326 15.0477 60.096 15.6238C61.1034 16.2975 61.9804 17.1413 62.8308 18.0134C63.6811 18.8853 64.3549 19.8399 65.0048 20.8439C65.2539 21.2315 65.606 21.5701 65.6098 22.0775C65.4574 22.1676 65.2692 22.0516 65.1237 22.17C64.8876 22.058 64.6278 22.0055 64.367 22.0174C63.9859 22.0174 63.5974 22.057 63.2118 21.9249C62.9725 21.8433 62.7142 21.7518 62.4407 21.7968C62.0168 21.862 61.5844 21.849 61.1651 21.7587C60.3133 21.5877 59.4651 21.7434 58.614 21.7877C57.7758 21.8304 56.9377 21.8219 56.1298 22.0455C55.4174 22.2416 54.6981 22.4056 53.9918 22.646C52.9426 23.003 51.9062 23.3731 50.902 23.8377C50.0135 24.2482 49.2255 24.8418 48.414 25.3636C47.3434 26.0503 46.4573 27.004 45.6442 27.9851C44.9867 28.777 44.316 29.5873 44.0501 30.6303C44.0343 30.7002 43.9965 30.7631 43.942 30.8096C43.7012 30.9805 43.8878 31.1422 43.942 31.307C43.8962 31.6175 43.5739 31.6884 43.3978 31.8747C42.9047 32.3902 42.4849 32.9715 42.1505 33.602C41.973 33.9484 41.6262 34.1903 41.5286 34.5716C41.3954 35.0928 41.1523 35.5796 41.0715 36.1181C41.012 36.5225 40.6783 36.8506 40.7461 37.3023C40.7773 37.5113 40.7363 37.7303 40.7301 37.9447C40.7003 38.8915 40.6723 39.8452 40.9145 40.7676C41.0669 41.3558 41.1637 41.9564 41.448 42.5278C41.7101 43.0573 41.9889 43.5776 42.2716 44.0949C42.4529 44.4267 42.8051 44.6785 42.7143 45.1318C42.7155 45.1764 42.7279 45.22 42.7507 45.2584C42.7734 45.2969 42.8054 45.329 42.8439 45.3515C43.167 45.4324 43.2896 45.7025 43.4535 45.9397C43.1959 46.0069 43.1327 45.7345 42.9651 45.6422C42.584 45.4324 42.1536 45.3759 41.7862 45.1417C39.8872 43.9374 38.1926 42.437 36.7663 40.6975C36.6947 40.6105 36.636 40.4686 36.4722 40.5006L36.4637 40.4945C36.3411 40.0619 36.0279 39.7315 35.778 39.3898C35.2611 38.7071 34.8327 37.9616 34.5032 37.171C34.2845 36.6371 34.0574 36.1075 33.8578 35.5635C33.553 34.7242 33.3594 33.8644 33.1812 32.9931C32.8375 31.3208 33.0843 29.6362 33.0637 27.963C33.0671 27.8749 33.078 27.7874 33.0966 27.7013C33.3068 26.4714 33.5903 25.2599 33.9164 24.0537C33.9972 23.7407 33.9408 23.5798 33.6268 23.5127Z" fill="#021D38"/>
<path d="M33.6259 23.5098C33.9398 23.5769 33.9978 23.7387 33.9124 24.0538C33.5863 25.257 33.3029 26.4715 33.0925 27.7014C33.0741 27.7876 33.0631 27.8751 33.0597 27.9632C33.0803 29.6416 32.8311 31.3201 33.1771 32.9933C33.3553 33.8646 33.5459 34.7229 33.8537 35.5637C34.0533 36.1076 34.2805 36.6363 34.4991 37.1712C34.8287 37.9618 35.2571 38.7073 35.7739 39.3899C36.027 39.7302 36.3401 40.062 36.4597 40.4946C36.4133 40.4771 36.3524 40.4725 36.3211 40.4398C35.9507 40.0468 35.652 39.5921 35.3487 39.1541C34.6528 38.1406 34.1373 37.0141 33.8248 35.8246C33.8116 35.7495 33.782 35.6781 33.738 35.6159C33.694 35.5536 33.6367 35.502 33.5703 35.4645C33.4262 35.3881 33.3699 35.2676 33.3631 35.083C33.3515 34.7602 33.4202 34.4071 33.2342 34.1186C33.0263 33.7951 32.9995 33.451 32.963 33.0833C32.8647 32.1015 32.7633 31.121 32.8197 30.1338C32.8502 29.5852 32.9927 29.0412 32.8891 28.4881C32.7725 27.8654 32.8014 27.1673 33.0415 26.673C33.4392 25.8612 33.1695 24.9182 33.7075 24.1697C33.7836 24.0645 33.7669 23.8325 33.4949 23.9637C33.4186 24.0019 33.3264 24.0149 33.2449 24.0477C33.0727 24.1148 33.0765 24.2765 33.0543 24.4215C33.3257 24.4139 33.1702 24.5741 33.1832 24.6962C33.2251 25.0906 32.9166 25.3386 32.8076 25.6697C32.6452 26.1649 32.4912 26.6386 32.5393 27.1673C32.5979 27.7064 32.6197 28.2489 32.604 28.7909C32.5545 29.8858 32.604 30.9845 32.5767 32.0801C32.5576 32.7934 32.5294 33.5075 32.4623 34.2163C32.4281 34.587 32.3099 35.0243 32.7009 35.3012C33.3615 35.7712 33.3965 36.544 33.6624 37.2087C33.7387 37.3964 33.7691 37.7137 33.8911 37.7511C34.2782 37.8717 34.2903 38.1752 34.3886 38.4645C34.4564 38.6605 34.5768 38.8459 34.6538 39.0366C34.8367 39.4875 35.2261 39.7744 35.4691 40.1719C35.8928 40.8677 36.3424 41.5392 37.1357 41.8717C37.2454 41.9175 37.2279 42.0129 37.2445 42.0945C37.3314 42.5195 37.7017 42.7858 37.842 43.1825C37.8503 43.2077 37.842 43.2589 37.9067 43.2229C38.0972 43.1161 38.1918 43.2939 38.2465 43.3961C38.338 43.5663 38.4752 43.6251 38.6276 43.7105C39.2088 44.003 39.7435 44.3802 40.2141 44.8298C40.4563 45.0716 40.6293 45.3752 41.008 45.5316C41.5415 45.7522 42.0809 45.9895 42.567 46.3434C42.8027 46.5204 43.0939 46.6067 43.3878 46.5868C43.5591 46.5686 43.5714 46.4976 43.5081 46.4464C43.211 46.2015 43.0608 45.7537 42.6424 45.6934C42.2523 45.6377 41.9567 45.5636 41.61 45.2814C40.9616 44.7596 40.2781 44.2369 39.4955 43.8875C39.2871 43.7946 39.1125 43.6396 38.9957 43.4435C38.7357 42.9552 38.2031 42.7172 37.9486 42.2326C37.9011 42.1568 37.8354 42.0941 37.7574 42.0503C37.1478 41.6795 36.8697 41.0416 36.4711 40.5008C36.6349 40.4657 36.6937 40.6106 36.7653 40.6975C38.191 42.4367 39.8849 43.9368 41.783 45.141C42.1502 45.3752 42.5831 45.4317 42.9617 45.6415C43.1294 45.7338 43.1904 46.0062 43.451 45.939L43.5271 45.9971C43.5683 46.2259 43.7222 46.2558 43.9142 46.2259L44.0507 46.3068H44.0666C44.4042 46.5472 44.8287 46.6495 45.1198 46.9622C45.5061 47.3735 46.1614 47.327 46.5256 47.7816C46.5423 47.803 46.6018 47.8007 46.6354 47.7969C46.7862 47.7831 46.9383 47.8002 47.0823 47.847C47.2264 47.8938 47.3595 47.9695 47.4735 48.0693C47.6815 48.2363 47.9209 48.2676 48.1821 48.2646C48.5101 48.2559 48.8383 48.2697 49.1644 48.3058C50.0788 48.4195 51.0061 48.3218 51.9281 48.382C52.5879 48.4248 53.1617 48.0303 53.7706 47.8381C54.4121 47.6393 55.0227 47.3511 55.5841 46.982C56.2379 46.5479 56.8246 46.0619 57.3123 45.4516C57.4784 45.64 57.1431 45.7957 57.2772 45.9856L56.8894 46.3251C56.8446 46.3402 56.8013 46.3599 56.7606 46.3839C56.3797 46.6524 56.1351 47.0553 55.7099 47.2933C55.4393 47.4459 55.1276 47.79 55.1101 48.0655C55.0788 48.5491 54.6681 48.7994 54.5889 49.2266C54.5653 49.354 54.432 49.396 54.2536 49.3281C53.9047 49.1962 53.6288 49.4143 53.6776 49.7591C53.689 49.8355 53.6632 49.8355 53.6342 49.8806C53.2783 50.4489 52.7389 50.8319 52.245 51.2576C52.1788 51.3148 52.0606 51.3339 52.0165 51.4316C51.8198 51.9054 51.451 52.1824 51.0152 52.4325C50.7317 52.5951 50.3653 52.6736 50.1656 52.8979C49.4905 53.6549 48.5113 53.7616 47.6678 54.1485C47.5284 54.2125 47.3943 54.2476 47.3348 54.3843C47.2587 54.5559 47.5268 54.5108 47.5277 54.6406C47.2381 54.8862 46.8219 54.7336 46.537 54.9686C46.1415 55.2944 45.6547 55.376 45.1821 55.508C44.1597 55.7941 43.1088 55.6515 42.0725 55.7201C41.0538 55.788 40.0311 55.6935 39.0192 55.5675C38.562 55.5103 38.0972 55.4218 37.672 55.2113C37.0243 54.89 36.3135 54.8061 35.6146 54.713C35.1575 54.6527 34.7339 54.713 34.3002 54.3796C33.7402 53.9477 33.0628 53.6639 32.4554 53.278C31.6314 52.7682 30.8532 52.1874 30.1299 51.5422C28.8414 50.3657 27.6322 49.1077 26.7254 47.5939C26.6095 47.4001 26.4579 47.23 26.3649 47.0171C26.1455 46.5135 25.9077 46.0169 25.6791 45.518C25.3788 44.8538 25.1459 44.1611 24.9842 43.4504C24.8318 42.8079 24.8761 42.1282 24.642 41.491C24.5727 41.3019 24.4843 41.2568 24.3182 41.2622C24.3106 39.8546 24.2976 38.4469 24.2969 37.04C24.2969 36.3931 24.3175 35.7429 24.3296 35.0991C24.3296 34.938 24.3205 34.803 24.5453 34.7282C24.7823 34.652 24.7465 34.3644 24.7663 34.1644C24.8059 33.8395 24.8948 33.5226 25.0299 33.2244C25.2692 32.6575 25.4246 32.0609 25.6731 31.4926C25.8909 30.9936 26.1805 30.5412 26.4221 30.0597C26.9051 29.0954 27.581 28.2577 28.2821 27.4558C28.8376 26.8017 29.4604 26.2085 30.1406 25.6858C30.8998 25.1022 31.6882 24.5578 32.5028 24.0546C32.8631 23.828 33.2761 23.7378 33.6259 23.5098Z" fill="#021D38"/>
<path d="M110.079 38.814V19.5426C110.079 18.9994 110.195 18.8781 110.706 18.8781H126.471C126.623 18.8781 126.776 18.8705 126.928 18.8842C127.314 18.9215 127.462 19.0886 127.462 19.477C127.462 20.9754 127.46 22.4736 127.457 23.9715C127.457 24.5354 127.39 24.6231 126.839 24.7345C126.702 24.7555 126.563 24.7631 126.424 24.7574C123.288 24.7574 120.153 24.7574 117.018 24.7574C116.525 24.7574 116.361 24.9428 116.449 25.4341C116.476 25.5959 116.489 25.7599 116.487 25.924C116.487 28.5775 116.489 31.231 116.493 33.8846C116.497 34.1754 116.479 34.4661 116.44 34.7543C116.364 35.2533 116.529 35.4189 117.033 35.4189C119.458 35.4189 121.882 35.4189 124.306 35.4189C125.012 35.4189 125.17 35.5836 125.17 36.297C125.17 37.6938 125.17 39.0905 125.17 40.4872C125.17 41.1395 125.029 41.2891 124.366 41.2914C122.97 41.2967 121.574 41.2914 120.175 41.2914C119.083 41.2914 117.992 41.2974 116.899 41.2914C116.557 41.2914 116.402 41.4324 116.425 41.7696C116.556 43.7343 116.456 45.7012 116.481 47.6666C116.496 48.9491 116.484 50.2316 116.481 51.5134C116.486 51.7538 116.472 51.9941 116.438 52.232C116.362 52.6945 116.532 52.8668 117.018 52.8668H126.386C126.462 52.8615 126.538 52.8615 126.614 52.8668C127.265 52.9591 127.457 52.9622 127.452 53.7389C127.445 55.1733 127.431 56.6083 127.462 58.042C127.472 58.5188 127.258 58.7217 126.776 58.7371C126.142 58.7576 125.507 58.7431 124.871 58.7431H110.705C110.193 58.7431 110.068 58.6135 110.068 58.0831L110.079 38.814ZM110.356 38.814C110.356 45.2111 110.353 51.6088 110.348 58.0069C110.348 58.3838 110.474 58.4761 110.833 58.4754C116.01 58.4657 121.188 58.4631 126.367 58.4678C126.469 58.4678 126.571 58.4738 126.671 58.4678C126.927 58.4471 127.072 58.3532 126.993 58.0527C126.914 57.7208 126.891 57.3783 126.923 57.0387C127.006 55.9607 126.93 54.8848 126.961 53.8084C126.974 53.3506 126.801 53.2049 126.351 53.3086C126.141 53.3516 125.926 53.3698 125.711 53.3627C123.44 53.3627 121.168 53.3627 118.896 53.3627C118.223 53.3627 117.55 53.3682 116.878 53.3627C116.444 53.3627 116.256 53.1484 116.212 52.7166C116.181 52.4007 116.221 52.0894 116.22 51.7759C116.217 48.3746 116.217 44.9728 116.22 41.5705C116.22 41.0823 116.278 41.0243 116.769 41.0243C118.978 41.0243 121.186 41.0243 123.394 41.0243C123.712 41.0243 124.03 41.038 124.346 41.0197C124.689 40.9998 124.803 40.8458 124.72 40.52C124.686 40.3719 124.672 40.2201 124.677 40.0684C124.677 38.9391 124.677 37.8094 124.677 36.6793C124.677 35.9209 124.589 35.84 123.818 35.9163C123.73 35.9209 123.641 35.9209 123.553 35.9163C122.607 35.9111 121.667 35.811 120.714 35.8988C119.82 35.9811 118.913 35.9049 118.012 35.9225C117.637 35.9293 117.277 35.8264 116.886 35.8919C116.456 35.9683 116.281 35.7049 116.212 35.2578C116.16 34.9268 116.229 34.6079 116.222 34.2828C116.18 32.2175 116.279 30.1506 116.158 28.0846C116.098 27.0493 116.145 26.0086 116.215 24.971C116.252 24.4103 116.374 24.2629 116.953 24.2629C119.961 24.2629 122.969 24.2629 125.977 24.2629C126.116 24.2599 126.255 24.2691 126.392 24.2905C126.796 24.3667 127.008 24.2316 126.948 23.8327C126.878 23.3604 126.97 22.9041 126.963 22.441C126.949 21.5095 126.906 20.5757 126.945 19.6463C126.962 19.2214 126.815 19.1543 126.455 19.155C121.379 19.1616 116.302 19.1632 111.225 19.1595C111.098 19.1651 110.971 19.1617 110.844 19.1496C110.376 19.0855 110.354 19.1023 110.354 19.5845L110.356 38.814Z" fill="#021D38"/>
<path d="M130.428 38.8601C130.428 35.4451 130.428 32.0298 130.428 28.6144C130.428 27.2212 130.484 25.851 130.897 24.4944C131.266 23.2782 131.763 22.1629 132.603 21.2137C133.423 20.2859 134.362 19.4864 135.53 19.0554C136.409 18.7303 137.299 18.387 138.277 18.4213C139.228 18.4548 140.182 18.4311 141.133 18.4213C142.333 18.4128 143.431 18.7837 144.503 19.2818C145.668 19.8221 146.585 20.6698 147.333 21.6731C147.846 22.3596 148.206 23.1593 148.511 23.9847C149.126 25.6441 149.094 27.3548 149.098 29.0714C149.098 29.935 149.098 30.7979 149.098 31.6654C149.098 32.3735 148.946 32.532 148.229 32.5382C147.341 32.5458 146.452 32.5382 145.562 32.5382C144.953 32.5382 144.343 32.5382 143.734 32.5382C143.252 32.5382 143.064 32.3528 143.062 31.873C143.059 30.7687 143.059 29.6642 143.062 28.5594C143.066 27.7331 142.902 26.9388 142.676 26.1477C142.377 25.0995 141.551 24.4348 140.45 24.3021C140.011 24.2495 139.594 24.3021 139.17 24.3311C138.412 24.3852 137.512 25.2222 137.271 25.9402C136.89 27.0755 136.829 28.229 136.831 29.4155C136.845 36.1061 136.847 42.7966 136.835 49.4872C136.835 50.3493 137.043 51.1711 137.356 51.9554C137.696 52.8099 138.456 53.1563 139.306 53.3196C139.729 53.4012 140.156 53.3585 140.584 53.3272C141.455 53.2638 142.364 52.4879 142.641 51.6578C142.988 50.611 143.077 49.5444 143.065 48.4535C143.052 47.1206 143.055 45.7877 143.065 44.4548C143.07 43.8688 143.294 43.701 143.878 43.8002C143.941 43.809 144.005 43.8121 144.068 43.8093C145.501 43.791 146.936 43.8475 148.369 43.7811C148.854 43.7582 149.092 43.984 149.094 44.4846C149.098 46.5544 149.132 48.6243 149.081 50.6927C149.052 51.8638 148.834 53.0334 148.362 54.1122C147.897 55.1713 147.376 56.2263 146.476 56.9992C145.567 57.7901 144.517 58.4021 143.381 58.8029C141.487 59.4719 139.566 59.1805 137.658 59.1684C136.783 59.1629 135.932 58.7693 135.117 58.3825C134.233 57.9768 133.441 57.3944 132.79 56.6712C132.211 56.0215 131.734 55.2878 131.375 54.4952C130.998 53.6446 130.721 52.7531 130.55 51.8386C130.463 51.3402 130.424 50.8346 130.434 50.3287C130.424 46.5033 130.422 42.6805 130.428 38.8601ZM136.562 38.8898C136.562 34.9037 136.562 30.9169 136.562 26.9298C136.562 26.7772 136.549 26.6123 136.605 26.4811C136.845 25.9265 136.96 25.3183 137.474 24.8897C137.855 24.5691 138.19 24.1937 138.681 24.0352C139.07 23.9092 139.519 24.0236 139.876 23.7483C139.911 23.7328 139.949 23.7263 139.987 23.7294C140.025 23.7325 140.062 23.7451 140.094 23.7658C140.411 24.0458 140.821 23.9336 141.18 24.0259C141.375 24.0698 141.557 24.1564 141.714 24.2792C142.247 24.7049 142.696 25.1666 143.04 25.786C143.274 26.1835 143.4 26.6356 143.404 27.0968C143.414 28.6289 143.404 30.1601 143.412 31.6922C143.412 32.0576 143.506 32.1003 143.858 31.9416C143.949 31.8995 144.052 31.8901 144.15 31.9148C145.127 32.127 146.118 32.0109 147.102 32.037C147.154 32.0402 147.203 32.0313 147.25 32.0109C147.409 31.9214 147.589 31.8734 147.772 31.8712C147.954 31.8692 148.135 31.9129 148.296 31.9988C148.45 32.0752 148.526 31.9988 148.601 31.8714C148.683 31.7302 148.67 31.5783 148.67 31.4266C148.67 29.748 148.663 28.075 148.675 26.3995C148.675 26.0181 148.631 25.6709 148.435 25.3466C148.352 25.1929 148.296 25.025 148.274 24.8515C148.189 24.3807 148.27 23.8482 147.83 23.4889C147.789 23.4394 147.766 23.3786 147.763 23.3149C147.677 22.7853 147.367 22.3627 147.067 21.9491C146.606 21.3114 146.01 20.7887 145.438 20.2538C145.167 20.0006 144.833 19.764 144.486 19.658C144.184 19.5791 143.893 19.4625 143.62 19.311C143.441 19.2154 143.242 19.1632 143.039 19.1584C142.562 19.1186 142.084 19.0668 141.653 18.821C141.558 18.7574 141.448 18.7202 141.334 18.7135C140.098 18.7714 138.851 18.5609 137.623 18.8554C137.171 18.9645 136.729 19.124 136.251 19.1133C136.097 19.1176 135.949 19.175 135.833 19.2758C135.56 19.5207 135.24 19.5962 134.895 19.6306C134.822 19.6454 134.752 19.6735 134.69 19.7137C133.992 20.0746 133.461 20.6346 132.91 21.1778C132.008 22.0659 131.568 23.2073 131.153 24.3548C130.976 24.8468 131.001 25.3954 130.843 25.9082C130.701 26.3537 130.627 26.8177 130.621 27.2853C130.624 34.4332 130.624 41.5811 130.621 48.7288C130.621 49.9039 130.607 51.0681 130.905 52.233C131.159 53.2249 131.438 54.1893 131.928 55.0972C132.233 55.6625 132.628 56.144 133.042 56.6231C133.57 57.2403 134.224 57.6912 134.931 58.0552C135.717 58.4565 136.579 58.6655 137.44 58.8601C137.711 58.9219 137.969 59.0127 138.257 59.0066C139 58.9937 139.75 58.9387 140.484 59.021C141.178 59.0974 141.806 58.9219 142.451 58.7671C142.684 58.7113 142.908 58.6205 143.152 58.6045C143.234 58.6006 143.315 58.5781 143.388 58.5384C143.461 58.4988 143.524 58.4432 143.573 58.3756C143.734 58.1368 143.965 57.9781 144.237 57.9942C144.59 58.0186 144.792 57.8087 145.032 57.6271C145.431 57.322 145.87 57.0656 146.242 56.7337C146.851 56.1912 147.284 55.4993 147.633 54.7752C147.829 54.3709 147.947 53.9261 148.185 53.5339C148.227 53.4401 148.23 53.3341 148.197 53.2371C148.178 53.1712 148.172 53.102 148.179 53.0339C148.187 52.9655 148.208 52.8994 148.242 52.8396C148.603 52.0417 148.752 51.1639 148.675 50.2914C148.653 49.8983 148.651 49.5043 148.67 49.1111C148.707 47.6287 148.594 46.1448 148.729 44.6631C148.758 44.3579 148.555 44.1961 148.246 44.2815C147.94 44.367 147.624 44.3686 147.307 44.38C146.141 44.4234 144.978 44.3107 143.813 44.296C143.46 44.296 143.331 44.4044 143.325 44.7798C143.289 46.6529 143.385 48.5244 143.347 50.3982C143.324 51.5579 142.814 52.4185 141.984 53.1371C141.791 53.3051 141.612 53.5346 141.326 53.5645C140.877 53.611 140.411 53.569 140.002 53.8177C139.979 53.8278 139.953 53.8325 139.928 53.8316C139.902 53.8307 139.877 53.8242 139.854 53.8125C139.473 53.5835 139.06 53.5934 138.642 53.5797C138.477 53.5654 138.321 53.4947 138.202 53.3799C137.864 53.0845 137.478 52.8609 137.241 52.4406C136.943 51.9065 136.551 51.4404 136.556 50.7736C136.568 46.8116 136.56 42.8503 136.56 38.8898H136.562Z" fill="#021D38"/>
<path d="M204.982 18.882C206.238 18.882 207.495 18.882 208.753 18.882C209.578 18.882 209.881 19.1667 209.951 19.9944C210.027 20.8986 210.068 21.8041 210.355 22.6816C210.475 23.0455 210.48 23.4522 210.507 23.8413C210.594 25.0856 211.049 26.2706 211.051 27.5347C211.051 28.0497 211.28 28.5632 211.394 29.0805C211.537 29.748 211.44 30.4454 211.622 31.1084C212.039 32.616 212.161 34.1777 212.414 35.7113C212.629 37.0227 212.851 38.3435 213.035 39.6641C213.212 40.9322 213.352 42.2163 213.627 43.4667C213.926 44.8323 214.111 46.2194 214.312 47.5928C214.515 48.9661 214.881 50.3035 214.936 51.7012C214.962 52.349 215.263 52.9936 215.303 53.6575C215.383 55.0308 215.874 56.3476 215.9 57.7308C215.911 57.8436 215.934 57.9551 215.966 58.0635C216.077 58.5617 215.946 58.7357 215.423 58.7434C214.788 58.7524 214.154 58.7434 213.517 58.7434C212.375 58.7434 211.232 58.7379 210.088 58.7479C209.73 58.7479 209.549 58.6259 209.452 58.2557C209.16 57.1395 209.128 55.986 208.924 54.8614C208.751 53.92 208.563 52.9845 208.494 52.0301C208.468 51.6486 208.241 51.557 207.931 51.58C206.074 51.7173 204.214 51.6051 202.357 51.6417C202.007 51.6486 201.66 51.5586 201.307 51.6471C201.077 51.7043 200.934 51.7859 200.868 52.043C200.755 52.4931 200.82 52.9502 200.768 53.4027C200.698 54.0076 200.464 54.5714 200.413 55.178C200.36 55.8303 200.246 56.475 200.201 57.1319C200.167 57.6065 199.96 58.0291 199.863 58.484C199.822 58.6746 199.605 58.7441 199.399 58.7448C197.748 58.7448 196.098 58.751 194.445 58.7448C194.068 58.7448 193.963 58.5557 193.978 58.1345C194.01 57.2448 194.282 56.3979 194.416 55.5275C194.504 54.9674 194.501 54.3884 194.638 53.8421C194.891 52.8197 194.855 51.7485 195.115 50.7461C195.48 49.3377 195.528 47.8857 195.863 46.4735C196.045 45.7105 196.035 44.8712 196.235 44.0924C196.418 43.3874 196.409 42.6664 196.519 41.956C196.603 41.3938 196.852 40.8696 196.858 40.2928C196.874 38.8737 197.423 37.5317 197.463 36.1088C197.479 35.5275 197.715 34.9544 197.813 34.3716C197.943 33.6155 197.873 32.8242 198.133 32.0942C198.43 31.2679 198.263 30.3805 198.515 29.5603C198.82 28.5731 198.731 27.5209 198.992 26.5451C199.372 25.1147 199.401 23.6344 199.745 22.1963C199.93 21.4173 199.941 20.5751 200.106 19.7716C200.106 19.7595 200.106 19.7465 200.112 19.7343C200.315 18.8881 200.334 18.8751 201.203 18.876C202.465 18.882 203.726 18.8841 204.982 18.882ZM212.664 58.4671H214.194C214.549 58.4671 214.905 58.484 215.26 58.4625C215.443 58.451 215.737 58.471 215.683 58.1672C215.617 57.8011 215.662 57.4043 215.427 57.0716C215.29 56.8749 215.288 56.6185 215.236 56.3851C215.092 55.7617 215.268 55.1117 215.082 54.5005C214.891 53.8718 214.717 53.2463 214.661 52.5871C214.616 52.0491 214.702 51.4922 214.466 50.9772C214.204 50.4111 214.16 49.8114 214.173 49.1996C214.178 48.9858 214.207 48.7677 214.135 48.5572C213.78 47.5431 213.612 46.4728 213.64 45.3985C213.64 45.3224 213.62 45.2477 213.585 45.1802C213.272 44.5402 213.18 43.8543 213.193 43.1546C213.206 42.6872 213.132 42.2212 212.974 41.7813C212.791 41.3079 212.706 40.8016 212.728 40.2944C212.756 39.8212 212.667 39.3613 212.543 38.9111C212.401 38.4285 212.3 37.9346 212.243 37.4347C212.196 36.9724 212.309 36.4872 212.119 36.0448C211.782 35.2581 211.723 34.4326 211.739 33.5933C211.739 33.4407 211.765 33.2881 211.682 33.1455C211.35 32.5793 211.324 31.9492 211.277 31.3144C211.235 30.7582 211.263 30.1936 211.025 29.6564C210.917 29.4123 210.873 29.1284 210.814 28.8546C210.694 28.2442 210.807 27.6171 210.684 27.0036C210.614 26.6527 210.41 26.3582 210.363 25.9989C210.239 25.0559 210.338 24.0953 209.936 23.1707C209.698 22.6213 209.755 21.956 209.762 21.3395C209.762 21.148 209.762 20.9581 209.66 20.7872C209.448 20.427 209.387 20.0189 209.391 19.6183C209.396 19.2315 209.239 19.1544 208.894 19.1606C206.559 19.1727 204.225 19.1696 201.89 19.1606C201.561 19.1606 201.234 19.191 200.904 19.1262C200.645 19.0751 200.486 19.2925 200.518 19.5839C200.556 19.8974 200.546 20.2149 200.487 20.5255C200.344 21.2526 200.037 21.9408 200.072 22.7113C200.096 23.4201 199.964 24.1256 199.686 24.7782C199.615 24.9656 199.578 25.1648 199.578 25.3656C199.574 26.0843 199.542 26.8022 199.299 27.4844C199.166 27.8513 199.096 28.2384 199.092 28.6287C199.092 29.249 199.049 29.864 198.826 30.4554C198.735 30.6912 198.674 30.9374 198.643 31.1884C198.556 32.001 198.615 32.8403 198.314 33.6155C198.085 34.2067 198.108 34.8064 198.103 35.4122C198.098 35.513 198.084 35.613 198.057 35.7105C197.863 36.5291 197.581 37.321 197.619 38.1962C197.639 38.6281 197.596 39.1247 197.382 39.5237C197.188 39.8934 197.097 40.3078 197.116 40.7246C197.124 41.2686 197.166 41.8278 196.957 42.3375C196.706 42.9524 196.643 43.5834 196.659 44.2312C196.677 44.6107 196.608 44.9893 196.457 45.3382C196.276 45.7711 196.184 46.2366 196.189 46.7062C196.183 47.2449 196.17 47.795 195.987 48.3137C195.741 49.0189 195.629 49.7632 195.654 50.5095C195.663 50.8795 195.642 51.2893 195.457 51.6173C195.229 52.0301 195.214 52.4566 195.207 52.8984C195.196 53.556 195.161 54.209 194.872 54.8241C194.779 55.0246 194.774 55.2627 194.745 55.4893C194.638 56.3568 194.793 57.2707 194.277 58.0704C194.137 58.2878 194.223 58.4702 194.517 58.471C196.104 58.471 197.689 58.4786 199.276 58.4655C199.545 58.4655 199.703 58.3283 199.647 57.994C199.577 57.5543 199.619 57.1038 199.77 56.6848C199.973 56.1188 200.122 55.5526 200.09 54.9454C200.066 54.5272 200.142 54.1153 200.218 53.7062C200.34 53.057 200.619 52.4413 200.622 51.7653C200.622 51.3839 200.849 51.2382 201.212 51.2313C201.996 51.2145 202.78 51.2252 203.566 51.1749C205.147 51.0741 206.73 51.2297 208.314 51.2343C208.607 51.2343 208.772 51.3816 208.764 51.6768C208.766 51.905 208.802 52.1315 208.874 52.3482C209.157 53.3348 209.366 54.3319 209.299 55.3657C209.29 55.4928 209.317 55.6198 209.375 55.7327C209.761 56.4674 209.78 57.2541 209.701 58.0536C209.673 58.3435 209.838 58.5763 210.091 58.535C211 58.3824 211.913 58.5251 212.664 58.4671Z" fill="#021D38"/>
<path d="M93.1007 51.9415C93.1007 49.9359 93.1007 47.9299 93.1007 45.9233C93.1007 45.7607 93.1249 45.5937 93.0564 45.4351C92.6167 44.4135 92.4582 43.2987 92.0719 42.2719C91.7953 41.5372 91.649 40.7719 91.3983 40.0334C91.1393 39.2703 90.9305 38.4746 90.7065 37.6934C90.4648 36.8488 90.2036 36.0064 89.9543 35.1619C89.7052 34.3173 89.3767 33.4735 89.2129 32.5931C89.1985 32.5063 89.1742 32.4216 89.1406 32.3404C88.9477 31.8995 88.8716 31.418 88.7153 30.9763C88.4472 30.2134 88.3344 29.4092 87.9998 28.6722C87.9054 28.4624 87.8772 28.2358 87.8132 28.0191C87.5198 27.0219 87.1975 26.0355 86.9086 25.0352C86.6076 23.9983 86.293 22.966 85.9867 21.9316C85.7269 21.0534 85.4465 20.1767 85.2126 19.2924C85.169 19.1269 85.2574 19.056 85.3588 18.9812C85.5112 18.8675 85.6933 18.882 85.8717 18.882C87.6358 18.882 89.4001 18.882 91.1644 18.882C91.9081 18.882 92.0788 19.0071 92.1885 19.7373C92.2481 20.1748 92.3663 20.6023 92.5397 21.0083C92.6632 21.2883 92.6708 21.5989 92.6921 21.9003C92.7333 22.4534 93.0732 22.905 93.1706 23.4468C93.3803 24.598 93.7802 25.7073 94.0325 26.8464C94.2565 27.8665 94.5734 28.8584 94.8066 29.8738C95.0673 31.0122 95.4695 32.1161 95.6449 33.2782C95.6652 33.4155 95.7061 33.549 95.766 33.674C95.9697 34.0686 96.0848 34.503 96.1035 34.9467C96.1108 35.0859 96.1409 35.2232 96.1927 35.3526C96.2781 35.5814 96.2995 35.8982 96.6316 35.8866C96.9859 35.8738 96.957 35.5479 96.983 35.3107C97.0432 34.753 97.2823 34.2425 97.3906 33.7039C97.5741 32.7884 97.9431 31.9216 98.049 30.9901C98.1052 30.4963 98.3979 30.0746 98.4878 29.5862C98.692 28.4723 99.0684 27.3957 99.3161 26.2956C99.5203 25.3884 99.9256 24.5317 99.979 23.5849C99.9988 23.2567 100.229 22.9463 100.284 22.6143C100.436 21.6675 100.822 20.7833 100.953 19.8258C101.059 19.0628 101.316 18.8797 102.096 18.882C103.606 18.8866 105.116 18.882 106.627 18.882C106.803 18.882 106.982 18.8514 107.152 18.9278C107.363 19.0223 107.429 19.1307 107.37 19.3977C107.205 20.1355 106.94 20.8474 106.71 21.5584C106.432 22.419 106.21 23.2964 105.948 24.1594C105.7 24.9741 105.448 25.7951 105.201 26.61C104.972 27.3653 104.863 28.1617 104.51 28.8774C104.389 29.1216 104.362 29.3848 104.318 29.6442C104.28 29.9193 104.189 30.1847 104.05 30.4254C103.997 30.4965 103.961 30.579 103.944 30.6665C103.899 31.5912 103.436 32.4016 103.22 33.2812C103.039 34.0174 102.791 34.7514 102.57 35.4831C102.321 36.3109 101.977 37.1181 101.868 37.9863C101.869 38.0126 101.863 38.0386 101.853 38.0626C101.42 38.7668 101.479 39.6312 101.103 40.3514C101.047 40.4511 101.009 40.559 100.988 40.6711C100.912 41.2128 100.671 41.7102 100.547 42.2268C100.357 43.0234 99.9752 43.7657 99.896 44.592C99.8974 44.6805 99.8757 44.7678 99.8327 44.8452C99.4403 45.3535 99.5104 45.9446 99.5104 46.5238C99.5104 50.3828 99.5121 54.2421 99.5158 58.1016C99.5158 58.6165 99.3855 58.7478 98.8627 58.7478C97.1492 58.7478 95.4358 58.7478 93.7224 58.7478C93.2301 58.7478 93.096 58.6105 93.096 58.113C93.096 56.0566 93.096 54.0002 93.096 51.9438L93.1007 51.9415ZM88.5858 19.0887C87.7225 19.0887 86.86 19.0887 85.9951 19.0887C85.5287 19.0887 85.4083 19.281 85.5866 19.7228C85.6113 19.7951 85.6453 19.8638 85.688 19.9272C85.8668 20.1737 85.9767 20.4633 86.0065 20.7665C86.0355 21.003 86.0591 21.2579 86.1642 21.4639C86.5604 22.2382 86.5848 23.1255 86.9377 23.9145C87.0512 24.1684 86.9659 24.5073 87.1212 24.7536C87.3415 25.1077 87.4383 25.4937 87.5023 25.892C87.5503 26.2101 87.6852 26.4947 87.7834 26.7937C88.0006 27.4598 88.1012 28.1625 88.419 28.7981C88.4441 28.8499 88.419 28.9247 88.4304 28.9866C88.4737 29.2085 88.4738 29.4572 88.5828 29.6449C89.0011 30.3843 88.9485 31.2692 89.3493 32.0101C89.3912 32.1022 89.4146 32.2019 89.4179 32.3031C89.439 32.5944 89.5236 32.8775 89.6656 33.1325C89.7646 33.3109 89.8614 33.5001 89.8697 33.7008C89.9048 34.5485 90.3505 35.2801 90.5373 36.0897C90.756 37.0365 91.172 37.9444 91.3602 38.9072C91.4844 39.5427 91.755 40.1279 91.9432 40.7383C92.1778 41.5012 92.2479 42.3199 92.6609 43.0272C92.7371 43.1523 92.7371 43.317 92.7715 43.4651C92.8225 43.7107 92.8163 43.9847 92.9239 44.1998C93.3216 44.9811 93.381 45.825 93.3619 46.6634C93.3429 47.5018 93.346 48.3465 93.3619 49.1902C93.4062 51.5257 93.378 53.8626 93.3764 56.1988C93.3764 56.8541 93.3879 57.5111 93.3528 58.1649C93.3391 58.419 93.3794 58.4998 93.6401 58.5113C95.0986 58.5724 96.5569 58.5318 98.0154 58.525C98.2638 58.525 98.5031 58.4701 98.7606 58.525C99.147 58.6089 99.3862 58.364 99.3001 57.9741C99.2459 57.6881 99.2268 57.3966 99.243 57.1059C99.2674 55.7753 99.2551 54.4455 99.294 53.1142C99.3611 50.8185 99.3229 48.5189 99.3054 46.2208C99.3009 45.6632 99.2781 45.1153 99.544 44.6034C99.7725 44.1587 99.7123 43.6215 99.9249 43.1935C100.312 42.4145 100.365 41.5394 100.72 40.752C100.845 40.4781 100.804 40.1218 100.949 39.8403C101.316 39.1125 101.417 38.3014 101.644 37.5361C101.881 36.7366 102.266 35.9668 102.321 35.1115C102.33 34.9849 102.436 34.8598 102.511 34.743C102.601 34.6188 102.654 34.4718 102.663 34.3188C102.672 33.4407 103.17 32.696 103.326 31.8522C103.402 31.4234 103.692 31.0243 103.707 30.5551C103.722 30.086 104.094 29.7602 104.124 29.3115C104.178 28.5203 104.541 27.8086 104.762 27.0699C105.01 26.2437 105.091 25.3518 105.542 24.5858C105.597 24.4919 105.603 24.3684 105.628 24.2569C105.838 23.3651 106.134 22.5021 106.406 21.6255C106.618 20.9488 106.711 20.2446 107.059 19.5992C107.239 19.2634 107.059 19.0819 106.661 19.0811C105.1 19.0811 103.537 19.0811 101.977 19.0811C101.701 19.0811 101.557 19.1865 101.439 19.4527C101.037 20.3614 100.919 21.3516 100.677 22.297C100.448 23.166 100.058 24.0052 100.026 24.9268C100.012 25.3533 99.6552 25.6898 99.6415 26.1102C99.6263 26.5651 99.5202 27.0123 99.3298 27.4256C99.0342 28.0855 99.1103 28.8485 98.7674 29.4992C98.6608 29.703 98.6441 29.931 98.6342 30.1638C98.6359 30.366 98.5927 30.5663 98.5076 30.7497C98.2889 31.1479 98.2028 31.576 98.1266 32.0124C98.0893 32.249 98.0917 32.4908 97.991 32.7165C97.6291 33.5276 97.6177 34.4393 97.2641 35.2542C97.1048 35.6211 97.2641 36.0378 97.0956 36.4108C96.9273 36.7839 96.6827 36.8449 96.3779 36.5924C96.1059 36.3681 96.003 36.0713 95.9627 35.7288C95.8978 35.1802 95.8811 34.6187 95.5748 34.1265C95.498 33.9947 95.4526 33.847 95.4422 33.6947C95.366 32.7594 94.9995 31.8926 94.7938 30.9885C94.6718 30.4545 94.4234 29.9479 94.4371 29.3772C94.4368 29.2623 94.4067 29.1494 94.3495 29.0499C93.8785 28.2343 93.8465 27.2844 93.5958 26.4078C93.3398 25.5135 92.9917 24.624 92.9101 23.6703C92.8637 23.153 92.539 22.6898 92.4765 22.1504C92.3911 21.415 92.1321 20.7093 91.9576 19.9929C91.7351 19.0819 91.7458 19.0705 90.8039 19.0857C90.0588 19.098 89.3219 19.0887 88.5858 19.0887Z" fill="#021D38"/>
<path d="M163.502 41.7093V58.1182C163.502 58.6476 163.405 58.7468 162.888 58.7468H157.824C157.184 58.7468 157.082 58.6515 157.089 57.9915C157.101 56.9272 157.141 55.8636 157.141 54.7993C157.147 44.9624 157.149 35.1255 157.146 25.2892C157.146 24.8077 157.101 24.7619 156.627 24.7619H151.522C151.408 24.7673 151.294 24.7626 151.18 24.7482C150.593 24.6436 150.461 24.4919 150.458 23.8853C150.454 22.4387 150.454 20.9922 150.458 19.5456C150.458 19.1115 150.631 18.9238 151.068 18.8909C151.32 18.8726 151.575 18.8849 151.83 18.8849H169.269C169.483 18.8849 169.692 18.8849 169.897 18.9872C169.989 19.0294 170.066 19.1005 170.116 19.1901C170.166 19.2795 170.185 19.3825 170.172 19.4838C170.026 20.838 170.16 22.1946 170.112 23.5488C170.112 23.625 170.112 23.7014 170.112 23.7776C170.106 24.6437 169.989 24.7619 169.121 24.7619H164.016C163.503 24.7619 163.483 24.7833 163.483 25.302V41.7109L163.502 41.7093ZM163.22 41.3676V38.1685C163.22 33.8141 163.22 29.4599 163.22 25.106C163.22 24.4537 163.399 24.2667 164.01 24.2667C165.557 24.2667 167.108 24.2667 168.658 24.2667C168.797 24.2648 168.936 24.2762 169.073 24.3011C169.501 24.3851 169.618 24.2935 169.619 23.8433C169.619 23.1193 169.619 22.3937 169.619 21.6727C169.619 21.0379 169.593 20.4008 169.631 19.7653C169.668 19.155 169.697 19.1602 169.085 19.1602H151.76C151.595 19.1602 151.429 19.155 151.265 19.1602C151.019 19.168 150.897 19.2449 150.974 19.5418C151.021 19.692 151.046 19.8481 151.05 20.0057C151.022 21.3256 151.034 22.6454 151.034 23.9661C151.034 24.2508 151.206 24.3369 151.458 24.3194C151.557 24.3118 151.655 24.2714 151.754 24.2705C153.43 24.2705 155.108 24.2705 156.784 24.2667C157.112 24.2667 157.304 24.4064 157.367 24.7389C157.407 24.9239 157.429 25.1121 157.435 25.3013C157.435 35.8885 157.434 46.4761 157.431 57.0638C157.431 57.4293 157.381 57.794 157.361 58.1602C157.349 58.3937 157.456 58.4981 157.704 58.4959C159.01 58.4813 160.316 58.4715 161.623 58.4753C162.052 58.4753 162.482 58.4272 162.911 58.5226C163.153 58.576 163.347 58.3441 163.278 58.0831C163.215 57.842 163.228 57.6047 163.227 57.3659C163.221 52.0324 163.22 46.6996 163.22 41.3676Z" fill="#021D38"/>
<path d="M24.3193 41.2553C24.4855 41.2499 24.5739 41.295 24.6433 41.4843C24.8772 42.1212 24.8345 42.8011 24.9853 43.4435C25.1471 44.1543 25.38 44.847 25.6804 45.5111C25.9089 46.0101 26.1459 46.503 26.3661 47.0103C26.459 47.2232 26.6106 47.3917 26.7265 47.587C27.6333 49.1007 28.8425 50.3589 30.1311 51.5354C30.8544 52.1806 31.6325 52.7614 32.4567 53.2711C33.0663 53.6571 33.7413 53.941 34.3014 54.3728C34.735 54.7077 35.1617 54.646 35.6159 54.7062C36.3161 54.7993 37.0271 54.8832 37.6732 55.2044C38.0983 55.415 38.5633 55.5034 39.0205 55.5607C40.0323 55.6889 41.0549 55.7834 42.0737 55.7133C43.11 55.6446 44.1608 55.7895 45.1834 55.5012C45.6558 55.3692 46.1426 55.2876 46.5382 54.9618C46.824 54.7267 47.2399 54.8793 47.5288 54.6337C47.5288 54.504 47.2613 54.549 47.3359 54.3774C47.3954 54.2407 47.5295 54.2057 47.6689 54.1415C48.5124 53.7547 49.4917 53.6479 50.1668 52.8911C50.3664 52.6669 50.7329 52.586 51.0163 52.4258C51.4522 52.1754 51.8211 51.8985 52.0176 51.4247C52.0596 51.324 52.1776 51.3079 52.2463 51.2507C52.74 50.825 53.2794 50.442 53.6354 49.8736C53.6643 49.8271 53.6902 49.8302 53.6788 49.7523C53.63 49.4075 53.9074 49.1892 54.2549 49.3212C54.4331 49.3891 54.5665 49.3472 54.59 49.2198C54.6663 48.7925 55.0801 48.5423 55.1112 48.0585C55.1288 47.7832 55.4404 47.4375 55.711 47.2865C56.1362 47.0483 56.3846 46.6456 56.7617 46.377C56.8025 46.353 56.8457 46.3333 56.8906 46.3183C56.8837 46.4144 57.011 46.4572 56.9264 46.6081C56.7 47.0178 56.5062 47.4447 56.3465 47.8846C56.1743 48.3554 55.7947 48.6743 55.5525 49.0801C55.3102 49.4861 55.119 49.9111 54.7455 50.2345C54.1356 50.7752 53.561 51.3546 53.0249 51.9687C52.4283 52.6355 51.6313 52.9858 50.9791 53.5457C50.5302 53.931 49.9123 53.9944 49.4329 54.3354C49.3461 54.3973 49.2455 54.5124 49.1106 54.5703C48.6093 54.7886 48.0675 54.8977 47.5867 55.1709C47.2179 55.379 46.7927 55.5988 46.4064 55.6469C45.0721 55.814 43.7707 56.2169 42.425 56.2504C41.8107 56.2665 41.1874 56.2862 40.5665 56.2069C40.0567 56.1421 39.5926 55.9063 39.0707 55.8956C38.0549 55.8735 37.0797 55.6377 36.1149 55.3242C35.8345 55.2326 35.5008 55.1319 35.1868 55.2929C34.9827 55.2219 34.9583 54.9115 34.6999 54.9175L34.6237 54.8451L34.6153 54.8358C34.4241 54.8435 34.3388 54.7032 34.2473 54.5727C34.2305 54.5223 34.1902 54.5162 34.1444 54.5223C31.6886 53.3688 29.7189 51.5841 27.9113 49.6157C27.218 48.8613 26.6595 47.9845 26.1589 47.072C25.9045 46.6267 25.6738 46.1684 25.4678 45.6988C25.2094 45.0808 24.8862 44.4734 24.7819 43.7914C24.7293 43.4442 24.7445 43.0467 24.3956 42.7995C24.3141 42.7423 24.3392 42.6362 24.3376 42.55C24.3262 42.1174 24.3193 41.6894 24.3193 41.2553Z" fill="#65686A"/>
<path d="M65.1244 22.1694C65.2699 22.0503 65.4604 22.1694 65.6105 22.0762C66.3055 22.3813 66.9517 22.7721 67.6077 23.1513C67.9513 23.3495 68.3187 23.5106 68.6341 23.7617C69.1949 24.2026 69.8045 24.5735 70.3387 25.0586C70.962 25.6233 71.5289 26.2427 72.1278 26.8286C72.5378 27.2292 72.8502 27.7305 73.1947 28.1936C73.6092 28.7467 73.9421 29.3525 74.301 29.9415C74.7346 30.6518 75.0014 31.4369 75.3358 32.1907C75.6406 32.8774 75.6711 33.6403 76.078 34.282C76.1613 34.4252 76.198 34.5908 76.1831 34.7558C76.1198 35.3883 76.353 35.9765 76.4362 36.5815C76.5123 37.1239 76.6303 37.6588 76.5824 38.2195C76.5284 38.8543 76.6381 39.4967 76.5062 40.1338C76.4734 40.2909 76.4658 40.4589 76.417 40.6145C76.2646 41.1005 76.1625 41.5918 76.1945 42.1046C76.2212 42.5227 76.0978 42.9003 75.8897 43.2581C75.8402 43.3308 75.8075 43.4138 75.7937 43.5007C75.7579 44.2263 75.3602 44.8352 75.1171 45.4845C74.8456 46.2091 74.5021 46.9046 74.0915 47.5604C73.5237 48.4676 72.9546 49.377 72.2482 50.1812C71.5952 50.9251 70.8667 51.5979 70.1306 52.2618C69.521 52.8126 68.8353 53.2665 68.1495 53.6908C67.7686 53.9288 67.3967 54.2751 66.9083 54.3408L66.8557 54.3003C66.8647 54.2943 66.8732 54.2836 66.8822 54.2827C67.1109 54.2675 67.0744 54.1126 67.05 53.9647C67.0832 53.8991 67.1341 53.8444 67.1968 53.8064C67.2595 53.7683 67.3317 53.7486 67.405 53.7495C67.6115 53.735 67.8501 53.6937 68.0108 53.577C68.8756 52.9476 69.7634 52.3411 70.5605 51.6299C71.2888 50.9799 71.9839 50.2818 72.5264 49.4434C72.963 48.769 73.5055 48.1646 73.8934 47.4536C74.1036 47.0652 74.4176 46.7097 74.5304 46.2977C74.7118 45.6324 75.0576 45.0457 75.2969 44.4109C75.5553 43.7242 75.7214 43.0208 75.9233 42.3265C76.0902 41.7536 76.0681 41.1279 76.1518 40.529C76.3111 39.3426 76.4094 38.1585 76.1321 36.9744C76.1138 36.8758 76.106 36.7756 76.1084 36.6754C76.0963 35.9078 76.0925 35.1372 75.8037 34.4087C75.6169 33.9348 75.6787 33.3809 75.4287 32.9521C75.1019 32.389 74.9867 31.7573 74.7353 31.1721C74.3634 30.3093 73.8209 29.5646 73.3355 28.7818C72.9722 28.1982 72.5354 27.6588 72.1088 27.1171C71.6478 26.5312 71.0862 26.0383 70.5581 25.5149C70.0301 24.9914 69.3946 24.5849 68.836 24.0913C68.2775 23.5975 67.5871 23.2999 66.9311 22.9819C66.5028 22.7736 66.0807 22.4349 65.5389 22.4554C65.4429 22.4554 65.3104 22.3875 65.1877 22.3792C65.0132 22.3631 65.0551 22.2662 65.1244 22.1694Z" fill="#021D38"/>
<path d="M67.0495 53.9707C67.0738 54.1188 67.1105 54.2759 66.8818 54.2889C66.8727 54.2889 66.8643 54.3003 66.8552 54.3065L66.9078 54.3469C66.2814 54.7811 65.9864 55.47 65.6048 56.0834C65.0851 56.9225 64.4618 57.6771 63.8903 58.4759C63.5024 59.02 62.9988 59.4625 62.5788 59.9813C62.1979 60.4536 61.6782 60.8205 61.2118 61.2196C60.4498 61.8772 59.6025 62.4312 58.7514 62.9583C58.2976 63.245 57.826 63.5024 57.3394 63.7288C56.7436 63.9982 56.0791 64.0867 55.529 64.4521C55.3598 64.5643 55.1616 64.543 54.9781 64.5681C54.3897 64.6498 53.8801 64.9969 53.2697 65.0259C52.9047 65.0451 52.5389 65.0549 52.1732 65.0633C51.844 65.0702 51.5149 65.0587 51.1918 65.1396C50.3201 65.3548 49.4705 64.9801 48.601 65.0489C47.905 65.1131 47.205 64.981 46.5802 64.6673C46.4278 64.5872 46.257 64.6208 46.0978 64.5804C45.2368 64.3636 44.4063 64.06 43.5742 63.7518C43.0179 63.5451 42.4807 63.294 41.9533 63.0392C41.289 62.7233 40.6839 62.2663 40.0874 61.8254C39.3894 61.3088 38.6936 60.7908 38.0757 60.169C37.6368 59.7279 37.2847 59.2253 36.8961 58.7499C36.3922 58.1387 35.9511 57.4782 35.5794 56.7784C35.3348 56.3153 35.0307 55.8727 34.9004 55.3494C34.8632 55.1968 34.7679 55.0609 34.6992 54.9183C34.9606 54.9183 34.9819 55.2235 35.1862 55.293C35.1099 55.4097 35.1755 55.5218 35.2235 55.6141C35.5199 56.1788 35.7882 56.7647 36.1425 57.2927C37.0211 58.6011 37.9148 59.9011 39.1904 60.8785C39.9006 61.4225 40.6085 61.9704 41.3826 62.4166C42.1728 62.8745 43.0103 63.23 43.85 63.5916C44.5313 63.882 45.2351 64.1162 45.9546 64.2919C47.2813 64.6208 48.633 64.8885 50.0206 64.9245C51.5445 64.9634 53.0404 64.7795 54.5277 64.4568C55.0147 64.3515 55.4422 64.0845 55.9191 63.999C56.5661 63.8861 57.1382 63.5748 57.6816 63.2848C58.5951 62.7939 59.4728 62.2388 60.3081 61.6239C61.7125 60.5993 62.876 59.3587 63.952 58.0258C64.9197 56.8264 65.7243 55.5082 66.526 54.1943C66.6059 54.063 66.6913 54.1226 66.7813 54.118C66.8727 54.0753 66.9252 53.9577 67.0495 53.9707Z" fill="#021D38"/>
<path d="M34.1399 54.5264C34.1856 54.5202 34.226 54.5264 34.2428 54.5767C34.1665 54.6446 34.1314 54.6308 34.1399 54.5264Z" fill="#021D38"/>
<path d="M33.8249 23.3789L33.709 23.4551C33.7166 23.3789 33.7775 23.3872 33.8249 23.3789Z" fill="#021D38"/>
<path d="M179.285 30.8084V25.3265C179.284 25.1495 179.301 24.9728 179.341 24.8002C179.405 24.5294 179.569 24.408 179.826 24.4186C180.768 24.4523 181.721 24.2959 182.656 24.5499C182.846 24.6018 183.071 24.5354 183.259 24.5911C184.114 24.8436 184.674 25.3837 185.017 26.2353C185.599 27.6758 185.428 29.1689 185.445 30.6482C185.454 31.2258 185.456 31.8056 185.472 32.3824C185.499 33.3941 185.304 34.3994 184.899 35.3266C184.703 35.7996 184.357 36.195 183.914 36.4519C183.381 36.745 182.852 37.012 182.181 37.0219C181.437 37.0326 180.689 37.0456 179.943 37.0623C179.439 37.0738 179.287 36.9144 179.287 36.407C179.285 34.5407 179.285 32.6746 179.285 30.8084ZM179.541 31.1746C179.499 32.6501 179.602 34.4775 179.496 36.3032C179.474 36.6679 179.613 36.8098 179.988 36.8091C180.773 36.8091 181.562 36.8632 182.337 36.7053C183.164 36.5366 183.949 36.2887 184.446 35.5143C184.89 34.8231 185.055 34.0402 185.095 33.256C185.159 32.0405 185.095 30.8191 185.117 29.6015C185.136 28.5332 185.067 27.4895 184.811 26.4428C184.63 25.7065 183.739 24.9169 183.071 24.8277C182.073 24.6926 181.068 24.8009 180.068 24.7513C179.602 24.7285 179.475 24.9039 179.51 25.3799C179.531 25.6585 179.542 25.9362 179.544 26.214C179.542 27.752 179.541 29.2878 179.541 31.1746Z" fill="#021D38"/>
<path d="M67.0468 53.9739C66.9226 53.964 66.87 54.0814 66.7762 54.1265C66.6665 53.9372 66.8167 53.7671 66.8167 53.5924C66.8167 52.9058 67.126 52.268 67.0743 51.5668C67.0445 51.1745 67.2869 50.7931 67.3242 50.3812C67.3661 49.9303 67.4201 49.4733 67.4507 49.0269C67.4765 48.6539 67.5718 48.2861 67.5543 47.8978C67.523 47.1828 67.7258 45.8858 67.3196 45.2747C67.2233 45.1103 67.1734 44.9229 67.1748 44.7322C67.2 43.8564 66.915 43.0187 66.9044 42.1527C66.9006 41.8132 66.8563 41.4226 66.6292 41.2173C66.2619 40.8854 66.2079 40.4544 66.0372 40.0538C65.8521 39.6158 65.7255 39.1207 65.266 38.8453C65.1861 38.7973 65.1746 38.6813 65.1342 38.5996C64.9948 38.312 64.9726 37.9893 64.7532 37.7077C64.5901 37.4917 64.328 37.3896 64.2145 37.1379C64.1183 36.9161 63.995 36.7072 63.8473 36.5159C63.5668 36.1688 63.1714 35.9277 62.9771 35.4929C62.9008 35.322 62.6723 35.219 62.5199 35.0824C62.2082 34.8093 61.9788 34.4248 61.524 34.3423C61.5056 34.3423 61.4927 34.305 61.4775 34.2843C61.2695 34.0005 60.9441 33.8503 60.7078 33.5938C60.4853 33.3505 60.1257 33.3779 59.8697 33.1697C59.2669 32.6722 58.5369 32.393 57.8458 32.0466C57.8244 31.7483 57.5822 31.6895 57.3635 31.6277C57.2006 31.5942 57.0352 31.5736 56.8689 31.566C56.6914 31.408 56.4773 31.2768 56.3432 31.0876C55.8981 30.4581 55.2001 30.1621 54.551 29.9218C53.8179 29.6501 53.0887 29.3259 52.2886 29.2016C51.2005 29.0322 50.1169 29.0863 49.035 29.1252C48.046 29.1689 47.0787 29.4295 46.2012 29.8883C45.4098 30.3007 44.6537 30.7776 43.9402 31.3142C43.8878 31.1494 43.7011 30.9877 43.9402 30.8167C43.9947 30.7703 44.0327 30.7074 44.0485 30.6375C44.3144 29.596 44.9849 28.7842 45.6426 27.9923C46.4557 27.0111 47.3418 26.0597 48.4124 25.3708C49.2277 24.8459 50.0126 24.2522 50.9002 23.8449C51.9046 23.3803 52.9408 23.0102 53.9902 22.6532C54.6965 22.4128 55.4158 22.2487 56.1282 22.0527C56.9352 21.8291 57.7772 21.8376 58.6124 21.7947C59.4635 21.7506 60.3115 21.5949 61.1635 21.7658C61.5829 21.8562 62.0151 21.8692 62.4391 21.804C62.7126 21.7589 62.9725 21.8505 63.2102 21.9321C63.5958 22.0641 63.9821 22.0282 64.3654 22.0244C64.6262 22.0127 64.886 22.0651 65.122 22.177C65.0527 22.2747 65.0108 22.3716 65.1845 22.3861C65.3094 22.3967 65.4398 22.4684 65.5358 22.4624C66.0775 22.4418 66.4996 22.7805 66.9279 22.9888C67.581 23.307 68.2736 23.6068 68.8329 24.0982C69.3922 24.5896 70.0238 24.9931 70.555 25.5218C71.0861 26.0505 71.6447 26.5388 72.1056 27.124C72.5324 27.6658 72.969 28.2051 73.3324 28.7889C73.8194 29.5716 74.3604 30.3147 74.7323 31.1792C74.9837 31.7644 75.0987 32.3999 75.4256 32.959C75.6756 33.3878 75.6138 33.9417 75.8005 34.4156C76.0877 35.1443 76.0915 35.9148 76.1053 36.6823C76.1028 36.7825 76.1107 36.8829 76.129 36.9815C76.4063 38.1654 76.3079 39.3465 76.1487 40.536C76.068 41.135 76.0901 41.7567 75.9202 42.3336C75.7182 43.0277 75.5521 43.7344 75.2938 44.4178C75.0546 45.0526 74.7086 45.6387 74.5273 46.3046C74.4145 46.7167 74.1005 47.0722 73.8902 47.4605C73.5023 48.1717 72.9598 48.7759 72.5232 49.4503C71.9807 50.2896 71.2858 50.987 70.5573 51.637C69.7626 52.348 68.8725 52.9545 68.0077 53.584C67.8469 53.7008 67.6083 53.7419 67.4019 53.7564C67.3284 53.7558 67.2561 53.7758 67.1932 53.8143C67.1306 53.8526 67.0797 53.9079 67.0468 53.9739Z" fill="#021D38"/>
<path d="M57.855 32.042C58.5461 32.3884 59.2761 32.6677 59.8788 33.1651C60.1319 33.3734 60.4884 33.3459 60.7171 33.5894C60.951 33.8457 61.2787 33.9959 61.4866 34.2797C61.502 34.3004 61.5148 34.3347 61.5331 34.3378C61.9903 34.4202 62.2189 34.8047 62.5291 35.0778C62.6815 35.2144 62.91 35.3174 62.9863 35.4883C63.1805 35.9232 63.576 36.1643 63.8564 36.5115C64.0043 36.7026 64.1276 36.9115 64.2237 37.1333C64.3372 37.385 64.5994 37.4873 64.7624 37.7032C64.9788 37.9885 65.0009 38.3074 65.1435 38.595C65.1838 38.6767 65.1952 38.7927 65.2753 38.8407C65.7325 39.1161 65.8612 39.6114 66.0465 40.0492C66.2171 40.4529 66.275 40.8809 66.6385 41.2127C66.867 41.418 66.9097 41.8086 66.9135 42.1481C66.9241 43.0141 67.2092 43.8518 67.1841 44.7276C67.1826 44.9183 67.2326 45.1057 67.3289 45.2701C67.7349 45.8805 67.5323 47.1775 67.5635 47.8932C67.5811 48.2815 67.4873 48.6493 67.4599 49.0223C67.4294 49.4687 67.3753 49.9257 67.3334 50.3766C67.296 50.7885 67.0537 51.1701 67.0834 51.5622C67.1353 52.2634 66.8236 52.9019 66.826 53.5879C66.826 53.7626 66.6736 53.9327 66.7855 54.1219C66.6956 54.1219 66.6103 54.0662 66.5302 54.1983C65.7287 55.5127 64.924 56.8304 63.9562 58.0298C62.8804 59.3627 61.7167 60.6033 60.3125 61.6278C59.4772 62.2428 58.5995 62.7979 57.6858 63.2888C57.141 63.5788 56.5703 63.89 55.9234 64.0029C55.4478 64.0853 55.0189 64.3524 54.532 64.4607C53.0446 64.7834 51.5527 64.9673 50.0248 64.9284C48.6373 64.8925 47.2817 64.6232 45.9588 64.2959C45.2395 64.1202 44.5355 63.886 43.8542 63.5955C43.0161 63.2338 42.1779 62.8753 41.387 62.4206C40.6127 61.9742 39.9048 61.4287 39.1947 60.8824C37.9176 59.9059 37.0238 58.6057 36.1467 57.2965C35.7924 56.7694 35.5243 56.1834 35.2278 55.6181C35.1798 55.5272 35.1136 55.4136 35.1904 55.2968C35.5044 55.1366 35.8381 55.2374 36.1185 55.3289C37.0833 55.6425 38.0586 55.8782 39.0743 55.9004C39.5963 55.9111 40.0603 56.1468 40.5701 56.2116C41.1911 56.288 41.8144 56.2711 42.4286 56.2552C43.7743 56.2215 45.0757 55.8188 46.41 55.6516C46.7963 55.6036 47.2215 55.3839 47.5903 55.1755C48.0733 54.9024 48.6151 54.7941 49.1142 54.5751C49.2491 54.5172 49.3498 54.4019 49.4365 54.3402C49.9181 53.999 50.5338 53.9358 50.9827 53.5505C51.6349 52.9905 52.4305 52.6402 53.0285 51.9734C53.5627 51.3579 54.1356 50.7771 54.7439 50.2347C55.1172 49.9112 55.3061 49.4886 55.5507 49.0804C55.7953 48.6721 56.1726 48.3555 56.3448 47.8847C56.5044 47.4448 56.6983 47.0181 56.9246 46.6084C57.0092 46.4558 56.8819 46.4146 56.8888 46.3185L57.2767 45.9789C57.5175 45.8035 57.6059 45.5157 57.7529 45.2801C58.0302 44.8368 58.5331 44.608 58.7587 44.1128C58.9111 43.7777 59.0339 43.4001 59.2289 43.1209C60.0153 41.9765 59.843 40.6031 60.2331 39.3725C60.2843 39.2115 60.2331 39.02 60.2331 38.8385C60.2385 38.2975 60.1319 37.7756 60.0214 37.2469C59.8072 36.2253 59.7584 35.1603 59.1185 34.2714C59.0714 34.1958 59.0419 34.1105 59.0322 34.022C58.9272 33.3649 58.4989 32.934 58.0295 32.5158C57.9107 32.4036 57.6302 32.3053 57.855 32.042Z" fill="#021D38"/>
<path d="M36.4725 40.5011C36.8709 41.0421 37.1529 41.6799 37.7587 42.0507C37.8367 42.0945 37.9025 42.1572 37.95 42.233C38.2043 42.7175 38.7371 42.9556 38.9969 43.4439C39.1139 43.6399 39.2883 43.795 39.4967 43.8879C40.2793 44.2373 40.9628 44.76 41.6112 45.2818C41.9617 45.5642 42.2537 45.638 42.6438 45.6938C43.0621 45.7541 43.2122 46.2019 43.5093 46.4468C43.5726 46.498 43.5605 46.5689 43.389 46.5872C43.0948 46.6062 42.8035 46.5189 42.5684 46.3409C42.0821 45.9899 41.542 45.7495 41.0092 45.5291C40.6283 45.3765 40.4577 45.0713 40.2153 44.8271C39.7479 44.3773 39.2166 43.9991 38.6387 43.7047C38.4863 43.6224 38.3453 43.5606 38.2578 43.3905C38.2029 43.2882 38.1054 43.1105 37.918 43.2173C37.8524 43.2539 37.8616 43.2021 37.8531 43.1768C37.716 42.7801 37.3426 42.5137 37.2558 42.0889C37.239 42.0073 37.2558 41.9119 37.1468 41.8661C36.3498 41.5341 35.9025 40.8651 35.4765 40.1692C35.2335 39.7717 34.8441 39.4826 34.6612 39.0339C34.585 38.844 34.4638 38.6578 34.396 38.4618C34.2978 38.1725 34.2855 37.869 33.8985 37.7484C33.7781 37.711 33.7461 37.3937 33.6698 37.206C33.4039 36.5444 33.365 35.7715 32.7082 35.2986C32.3196 35.0216 32.4354 34.5845 32.4696 34.2136C32.5367 33.501 32.5649 32.7869 32.584 32.0774C32.6137 30.9818 32.562 29.8831 32.6114 28.7882C32.627 28.2462 32.6054 27.7037 32.5466 27.1648C32.4987 26.6361 32.6526 26.1622 32.8149 25.667C32.9239 25.3359 33.2325 25.0879 33.1905 24.6935C33.1775 24.5692 33.333 24.4112 33.0618 24.4188C33.0839 24.2731 33.0801 24.1136 33.2522 24.045C33.3337 24.0122 33.4237 23.9992 33.5022 23.961C33.7743 23.8298 33.7902 24.0618 33.7148 24.167C33.1768 24.9125 33.4465 25.8585 33.0488 26.6703C32.8073 27.1648 32.7784 27.8628 32.8964 28.4854C33 29.0385 32.8576 29.5825 32.827 30.1311C32.7706 31.1183 32.872 32.0988 32.9704 33.0807C33.0069 33.4483 33.0336 33.7924 33.2415 34.116C33.4275 34.4044 33.359 34.7577 33.3704 35.0804C33.3773 35.2689 33.4337 35.3932 33.5776 35.4618C33.6441 35.4993 33.7013 35.5509 33.7453 35.6132C33.7893 35.6756 33.819 35.7468 33.8321 35.822C34.1446 37.0114 34.6603 38.1379 35.3561 39.1514C35.6608 39.5894 35.958 40.0441 36.3284 40.4371C36.3597 40.4698 36.4206 40.4744 36.4671 40.4919L36.4725 40.5011Z" fill="#65686A"/>
<path d="M57.853 32.0426C57.6281 32.3051 57.9085 32.4043 58.0312 32.5158C58.4968 32.9337 58.9288 33.3649 59.034 34.0217C59.0436 34.1104 59.073 34.1955 59.1201 34.2713C59.7602 35.1631 59.8059 36.2282 60.023 37.2467C60.1335 37.7756 60.2403 38.2974 60.2349 38.8382C60.2349 39.016 60.2821 39.2075 60.2349 39.3724C59.8448 40.6038 60.017 41.9786 59.2307 43.1208C59.0356 43.4039 58.9129 43.7815 58.7605 44.1125C58.5318 44.6077 58.032 44.8367 57.7547 45.28C57.6075 45.5156 57.5191 45.8033 57.2783 45.9788C57.1443 45.7919 57.4795 45.6362 57.3134 45.4447C57.3736 45.1799 57.5992 45.0204 57.763 44.845C58.391 44.1721 58.7909 43.3595 59.1743 42.5508C59.5004 41.8641 59.7998 41.1386 59.7381 40.3382C59.7279 40.2399 59.7374 40.1406 59.7663 40.0461C60.0635 39.1899 59.8943 38.3439 59.8074 37.4742C59.7206 36.6043 59.4265 35.8193 59.2383 34.993C59.2314 34.9433 59.2171 34.8948 59.1956 34.8496C58.6858 34.0103 58.2812 33.1138 57.5511 32.4126C57.2831 32.1651 57.0565 31.876 56.8799 31.5566C57.046 31.565 57.2114 31.5859 57.3745 31.6193C57.5893 31.6855 57.8317 31.7443 57.853 32.0426Z" fill="#021D38"/>
<path d="M43.5244 45.998C43.6837 46.0239 43.7887 46.1416 43.9122 46.227C43.7195 46.2567 43.5655 46.2239 43.5244 45.998Z" fill="#021D38"/>
<path d="M110.358 38.8131V19.5829C110.358 19.1007 110.38 19.0839 110.848 19.148C110.974 19.1601 111.102 19.1633 111.229 19.1579C116.306 19.1579 121.383 19.1563 126.458 19.1532C126.819 19.1532 126.966 19.2197 126.948 19.6447C126.91 20.5739 126.952 21.5077 126.967 22.4394C126.974 22.9025 126.881 23.3549 126.951 23.8309C127.012 24.2331 126.799 24.365 126.396 24.2887C126.259 24.2673 126.12 24.2583 125.981 24.2613C122.972 24.2613 119.964 24.2613 116.957 24.2613C116.377 24.2613 116.255 24.4085 116.218 24.9693C116.148 26.0069 116.101 27.0475 116.162 28.0829C116.282 30.149 116.184 32.2159 116.226 34.2812C116.233 34.6062 116.163 34.925 116.215 35.2562C116.284 35.7033 116.46 35.9627 116.889 35.8903C117.28 35.8246 117.641 35.9276 118.016 35.9207C118.917 35.9031 119.824 35.9795 120.718 35.8971C121.67 35.8094 122.61 35.9093 123.556 35.9147C123.645 35.9192 123.733 35.9192 123.822 35.9147C124.592 35.8383 124.681 35.9147 124.681 36.6776C124.681 37.8078 124.681 38.9375 124.681 40.0666C124.676 40.2184 124.69 40.3702 124.723 40.5184C124.807 40.844 124.693 40.9982 124.349 41.018C124.033 41.0364 123.715 41.0226 123.398 41.0226C121.189 41.0226 118.981 41.0226 116.773 41.0226C116.281 41.0226 116.223 41.0806 116.223 41.5689C116.223 44.9706 116.223 48.3724 116.223 51.7741C116.223 52.0878 116.185 52.3989 116.216 52.7149C116.259 53.1467 116.444 53.3573 116.882 53.3611C117.554 53.368 118.227 53.3611 118.9 53.3611C121.171 53.3611 123.443 53.3611 125.715 53.3611C125.929 53.368 126.144 53.3499 126.355 53.3068C126.801 53.2031 126.974 53.3474 126.964 53.8066C126.934 54.8832 127.009 55.9589 126.926 57.037C126.894 57.3765 126.918 57.7191 126.996 58.0509C127.073 58.3516 126.931 58.4454 126.675 58.466C126.574 58.4736 126.472 58.466 126.37 58.466C121.193 58.466 116.015 58.4686 110.836 58.4736C110.477 58.4736 110.352 58.3822 110.352 58.0051C110.361 51.6086 110.363 45.2112 110.358 38.8131Z" fill="#65686A"/>
<path d="M136.561 38.8897C136.561 42.8503 136.567 46.8115 136.556 50.7728C136.556 51.4396 136.946 51.9081 137.241 52.4399C137.478 52.8602 137.864 53.0837 138.201 53.3789C138.321 53.4939 138.477 53.5644 138.642 53.5789C139.06 53.5927 139.48 53.5835 139.854 53.8115C139.877 53.8234 139.902 53.8298 139.927 53.8308C139.953 53.8317 139.978 53.827 140.002 53.8169C140.413 53.5682 140.877 53.6102 141.325 53.5636C141.611 53.5339 141.79 53.3042 141.984 53.1364C142.813 52.4176 143.323 51.5571 143.347 50.3974C143.385 48.5235 143.288 46.6521 143.324 44.7789C143.331 44.4037 143.46 44.2914 143.813 44.2953C144.978 44.3097 146.14 44.4227 147.308 44.3792C147.623 44.3678 147.936 44.3655 148.247 44.2808C148.557 44.1961 148.757 44.3571 148.73 44.6623C148.592 46.1439 148.708 47.6279 148.67 49.1103C148.651 49.5035 148.652 49.8975 148.674 50.2906C148.751 51.1631 148.602 52.0409 148.242 52.8388C148.208 52.8986 148.187 52.9646 148.179 53.0329C148.171 53.1013 148.177 53.1705 148.198 53.2363C148.231 53.3331 148.227 53.4394 148.185 53.5331C147.946 53.9252 147.828 54.3723 147.632 54.7745C147.283 55.4985 146.851 56.1905 146.241 56.7329C145.869 57.0649 145.431 57.3226 145.032 57.6264C144.792 57.8079 144.59 58.0177 144.237 57.9933C143.965 57.9743 143.733 58.133 143.573 58.3748C143.524 58.4422 143.461 58.498 143.388 58.5375C143.315 58.5771 143.234 58.5998 143.151 58.6038C142.905 58.6197 142.684 58.7106 142.451 58.7661C141.806 58.9187 141.178 59.0988 140.484 59.0203C139.75 58.9379 138.999 58.9928 138.256 59.0058C137.969 59.0111 137.711 58.9211 137.44 58.8593C136.579 58.6632 135.717 58.4557 134.931 58.0544C134.224 57.6935 133.57 57.2396 133.041 56.6223C132.628 56.1416 132.233 55.6603 131.928 55.0965C131.439 54.1885 131.158 53.2272 130.905 52.2323C130.607 51.0673 130.622 49.9029 130.621 48.728C130.621 41.5797 130.621 34.4318 130.621 27.2845C130.626 26.8169 130.701 26.3529 130.843 25.9073C131 25.3946 130.975 24.846 131.153 24.3539C131.568 23.2096 132.008 22.0651 132.909 21.1771C133.46 20.6337 133.991 20.0738 134.689 19.7129C134.752 19.6727 134.821 19.6445 134.894 19.6297C135.24 19.5955 135.56 19.5198 135.832 19.2749C135.95 19.1713 136.1 19.1122 136.256 19.1079C136.735 19.1185 137.177 18.9553 137.628 18.8501C138.856 18.5525 140.103 18.7661 141.339 18.7082C141.453 18.7149 141.563 18.7521 141.658 18.8157C142.089 19.0613 142.567 19.1133 143.045 19.1529C143.247 19.1577 143.446 19.21 143.625 19.3055C143.898 19.4571 144.189 19.5737 144.491 19.6527C144.838 19.7587 145.172 19.9951 145.443 20.2485C146.016 20.7825 146.611 21.306 147.073 21.9438C147.372 22.3572 147.682 22.783 147.768 23.3095C147.771 23.3731 147.794 23.434 147.834 23.4834C148.275 23.8427 148.195 24.3753 148.28 24.846C148.301 25.0195 148.355 25.1875 148.439 25.3412C148.636 25.6654 148.683 26.0164 148.68 26.3941C148.668 28.0726 148.675 29.7458 148.675 31.4212C148.675 31.5738 148.687 31.7264 148.607 31.8661C148.535 31.9911 148.453 32.0712 148.301 31.9933C148.141 31.9076 147.96 31.8637 147.777 31.8659C147.594 31.868 147.415 31.9161 147.255 32.0056C147.209 32.0258 147.159 32.0347 147.108 32.0315C146.123 32.0056 145.132 32.1216 144.155 31.9095C144.057 31.8846 143.954 31.8942 143.863 31.9361C143.511 32.0949 143.419 32.0522 143.417 31.6867C143.408 30.1547 143.417 28.6234 143.409 27.0914C143.405 26.6301 143.279 26.1781 143.045 25.7807C142.701 25.1612 142.251 24.6996 141.719 24.2739C141.562 24.151 141.38 24.0645 141.185 24.0205C140.826 23.9282 140.417 24.0404 140.099 23.7604C140.067 23.7396 140.03 23.7272 139.992 23.7241C139.955 23.721 139.916 23.7275 139.882 23.7428C139.523 24.0183 139.075 23.9039 138.686 24.0297C138.195 24.1884 137.862 24.5638 137.479 24.8842C136.965 25.313 136.85 25.921 136.61 26.4758C136.554 26.607 136.567 26.7741 136.567 26.9243C136.563 30.9151 136.561 34.9036 136.561 38.8897ZM148.487 26.5085C148.507 26.3232 148.57 26.1514 148.429 26.005C148.414 25.9975 148.398 25.9937 148.382 25.9937C148.366 25.9937 148.35 25.9975 148.336 26.005C148.247 26.182 148.336 26.3361 148.412 26.4887C148.417 26.4979 148.434 26.4971 148.487 26.5085Z" fill="#65686A"/>
<path d="M212.664 58.4678C211.914 58.5257 211 58.3831 210.091 58.5326C209.84 58.5739 209.673 58.3411 209.701 58.0513C209.777 57.2516 209.762 56.465 209.376 55.7303C209.317 55.6175 209.29 55.4904 209.299 55.3634C209.366 54.3281 209.157 53.3324 208.874 52.3459C208.804 52.1292 208.766 51.9026 208.764 51.6745C208.773 51.3792 208.606 51.2327 208.314 51.232C206.73 51.2275 205.147 51.0718 203.566 51.1724C202.78 51.2228 201.996 51.2121 201.213 51.2289C200.848 51.2365 200.623 51.3815 200.621 51.763C200.621 52.4389 200.341 53.0547 200.22 53.704C200.142 54.1129 200.066 54.5248 200.09 54.9429C200.122 55.5533 199.973 56.1164 199.77 56.6826C199.619 57.1014 199.577 57.5518 199.647 57.9918C199.702 58.3259 199.546 58.4609 199.276 58.4633C197.69 58.4761 196.104 58.4709 194.517 58.4685C194.223 58.4685 194.136 58.2855 194.277 58.068C194.793 57.2685 194.64 56.3544 194.746 55.487C194.774 55.2581 194.778 55.0224 194.873 54.8217C195.161 54.2068 195.196 53.5536 195.207 52.896C195.214 52.452 195.226 52.0277 195.458 51.615C195.642 51.2868 195.662 50.8772 195.654 50.5071C195.629 49.761 195.741 49.0165 195.987 48.3113C196.169 47.7926 196.183 47.2432 196.188 46.7038C196.184 46.2342 196.276 45.7688 196.457 45.3358C196.608 44.9869 196.676 44.6083 196.659 44.2288C196.643 43.5811 196.706 42.9502 196.957 42.3351C197.166 41.8256 197.125 41.267 197.116 40.7224C197.097 40.3054 197.189 39.8911 197.382 39.5214C197.597 39.1223 197.639 38.6256 197.62 38.1939C197.581 37.3188 197.864 36.5269 198.057 35.7082C198.084 35.6106 198.098 35.5107 198.102 35.4099C198.11 34.8041 198.085 34.2044 198.314 33.6131C198.618 32.8379 198.555 31.9987 198.643 31.1862C198.674 30.9351 198.735 30.6888 198.826 30.4529C199.049 29.8616 199.089 29.2467 199.092 28.6264C199.096 28.236 199.166 27.849 199.299 27.482C199.542 26.7999 199.574 26.0819 199.58 25.3633C199.578 25.1624 199.615 24.9632 199.686 24.7758C199.964 24.1231 200.095 23.4178 200.072 22.7089C200.037 21.9384 200.345 21.2502 200.489 20.5231C200.545 20.2126 200.556 19.8952 200.518 19.5817C200.487 19.2894 200.645 19.072 200.903 19.1239C201.234 19.1887 201.562 19.1574 201.89 19.1581C204.225 19.1636 206.561 19.1666 208.896 19.1581C209.242 19.1581 209.397 19.2345 209.393 19.6159C209.387 20.0165 209.449 20.4246 209.66 20.7848C209.762 20.9595 209.764 21.1457 209.762 21.3372C209.755 21.9575 209.699 22.6227 209.936 23.1683C210.338 24.093 210.241 25.0534 210.363 25.9965C210.409 26.3559 210.614 26.6504 210.684 27.0014C210.808 27.6117 210.694 28.238 210.816 28.8523C210.87 29.1262 210.916 29.41 211.025 29.6542C211.263 30.1881 211.235 30.7558 211.277 31.312C211.324 31.9444 211.353 32.5747 211.684 33.143C211.765 33.2842 211.741 33.4399 211.739 33.591C211.724 34.4302 211.783 35.2557 212.12 36.0423C212.309 36.4849 212.196 36.97 212.243 37.4324C212.3 37.9322 212.401 38.4262 212.544 38.9087C212.667 39.3589 212.756 39.819 212.728 40.292C212.708 40.7993 212.791 41.3055 212.974 41.7789C213.133 42.2188 213.206 42.6848 213.193 43.1523C213.18 43.8519 213.269 44.5378 213.584 45.178C213.621 45.2453 213.64 45.32 213.641 45.3961C213.611 46.47 213.777 47.5405 214.131 48.5548C214.202 48.7653 214.175 48.9836 214.17 49.1972C214.156 49.8075 214.201 50.4088 214.461 50.9748C214.698 51.4899 214.613 52.0429 214.657 52.5846C214.714 53.2439 214.886 53.8696 215.079 54.4982C215.266 55.1085 215.091 55.7593 215.231 56.3826C215.285 56.6161 215.285 56.8724 215.424 57.0694C215.658 57.4058 215.612 57.7986 215.68 58.165C215.734 58.4701 215.44 58.4488 215.257 58.4602C214.902 58.4816 214.546 58.4647 214.191 58.4647L212.664 58.4678ZM204.726 46.3536C205.551 46.3536 206.375 46.3583 207.201 46.3536C207.505 46.3536 207.817 46.2987 207.842 45.9141C207.905 45.1063 207.823 44.2936 207.604 43.514C207.42 42.8959 207.305 42.2931 207.316 41.6554C207.328 41.1481 207.357 40.5872 207.119 40.1676C206.685 39.3985 206.973 38.5746 206.78 37.7941C206.668 37.3363 206.697 36.8373 206.489 36.385C206.374 36.1339 206.355 35.8592 206.343 35.5761C206.324 35.1008 206.383 34.6195 206.263 34.1479C206.041 33.2811 205.798 32.4244 205.851 31.5051C205.87 31.1579 205.851 30.7688 205.703 30.4247C205.48 29.9263 205.38 29.3807 205.415 28.8355C205.456 28.2762 205.328 27.7276 205.328 27.1692C205.328 26.771 205.11 26.4825 204.733 26.3239C204.416 26.1896 204.194 26.2987 204.124 26.6443C203.973 27.3245 203.926 28.0237 203.985 28.718C204.016 29.0484 203.946 29.3352 203.874 29.6397C203.722 30.2866 203.457 30.9084 203.506 31.6003C203.547 32.1803 203.554 32.7678 203.237 33.301C203.19 33.3773 203.231 33.5032 203.205 33.5993C203.085 34.0426 203.097 34.502 203.031 34.9475C202.967 35.3732 203.062 35.8105 202.898 36.2255C202.607 36.9685 202.531 37.7514 202.524 38.5409C202.524 38.9225 202.594 39.3245 202.42 39.6671C202.055 40.3904 202.075 41.1572 202.062 41.9286C202.068 42.2531 202.027 42.5767 201.939 42.889C201.66 43.7217 201.527 44.5961 201.546 45.4739C201.568 46.2864 201.546 46.3254 202.404 46.3514C203.177 46.3719 203.951 46.3536 204.726 46.3536Z" fill="#65686A"/>
<path d="M88.5842 19.0856C89.3203 19.0856 90.0571 19.0948 90.794 19.0856C91.7358 19.0704 91.7251 19.0856 91.9477 19.9928C92.1221 20.7092 92.3812 21.4149 92.4665 22.1504C92.529 22.6897 92.8537 23.1529 92.9002 23.6702C92.9855 24.6239 93.3337 25.5134 93.5859 26.4077C93.8366 27.2843 93.8686 28.2342 94.3395 29.0498C94.3968 29.1493 94.4269 29.2623 94.4272 29.3771C94.4134 29.9478 94.6618 30.4535 94.7838 30.9884C94.9895 31.8925 95.3576 32.7592 95.4323 33.6946C95.4426 33.8469 95.4881 33.9947 95.5648 34.1265C95.8696 34.6217 95.8878 35.1832 95.9527 35.7287C95.993 36.0712 96.0959 36.368 96.368 36.5923C96.6727 36.8448 96.9197 36.7738 97.0856 36.4107C97.2518 36.0476 97.0949 35.621 97.2541 35.2541C97.6077 34.4392 97.6191 33.5275 97.981 32.7165C98.0817 32.4877 98.0794 32.2489 98.1168 32.0123C98.1853 31.5759 98.2751 31.1479 98.4977 30.7497C98.5827 30.566 98.626 30.3659 98.6242 30.1637C98.6341 29.9348 98.6508 29.706 98.7576 29.4991C99.1004 28.8484 99.0243 28.0854 99.3198 27.4255C99.5102 27.0122 99.6163 26.565 99.6315 26.1102C99.6452 25.6874 100.002 25.3532 100.016 24.9268C100.048 24.0051 100.442 23.1659 100.667 22.2968C100.912 21.3516 101.03 20.3613 101.429 19.4525C101.547 19.1862 101.691 19.0803 101.967 19.0811C103.528 19.0856 105.091 19.0811 106.651 19.0811C107.046 19.0811 107.229 19.2633 107.049 19.5991C106.704 20.2446 106.608 20.9487 106.396 21.6254C106.124 22.499 105.828 23.3651 105.618 24.2569C105.593 24.3684 105.587 24.4918 105.532 24.5858C105.081 25.3487 104.998 26.2436 104.752 27.0699C104.531 27.8084 104.168 28.5195 104.114 29.3114C104.084 29.7601 103.712 30.0966 103.697 30.5551C103.682 31.0136 103.392 31.4203 103.316 31.8521C103.163 32.696 102.662 33.4406 102.654 34.3187C102.644 34.4717 102.591 34.6188 102.501 34.743C102.425 34.8597 102.32 34.9848 102.311 35.1115C102.257 35.9667 101.871 36.7365 101.634 37.536C101.405 38.299 101.306 39.1124 100.939 39.8402C100.797 40.1217 100.837 40.4781 100.711 40.7519C100.355 41.5386 100.302 42.4137 99.9149 43.1935C99.7024 43.6214 99.7626 44.1586 99.534 44.6033C99.2681 45.1152 99.2909 45.6631 99.2954 46.2208C99.313 48.5188 99.3511 50.8183 99.284 53.1141C99.2452 54.4454 99.2574 55.7752 99.233 57.1058C99.2168 57.3965 99.236 57.6881 99.2902 57.9741C99.3762 58.364 99.1378 58.6089 98.7507 58.5249C98.4931 58.4693 98.2538 58.5249 98.0054 58.5249C96.5469 58.5318 95.0886 58.5723 93.6301 58.5113C93.3695 58.4997 93.3253 58.419 93.3429 58.1648C93.3779 57.5111 93.3657 56.854 93.3664 56.1988C93.3664 53.8626 93.3962 51.5256 93.3519 49.1902C93.336 48.3463 93.3322 47.5072 93.3519 46.6633C93.3718 45.8195 93.3116 44.9849 92.9139 44.1997C92.8042 43.9846 92.8102 43.7106 92.7615 43.465C92.7302 43.3169 92.7234 43.1522 92.6509 43.0271C92.2394 42.3191 92.1678 41.5011 91.9332 40.7382C91.745 40.1278 91.476 39.5434 91.3502 38.9071C91.162 37.9442 90.746 37.0363 90.5273 36.0896C90.3406 35.28 89.8948 34.5484 89.8597 33.7007C89.8514 33.5 89.7547 33.3109 89.6556 33.1324C89.5136 32.8774 89.429 32.5943 89.408 32.303C89.4046 32.2018 89.3812 32.1022 89.3394 32.01C88.9385 31.2692 88.9911 30.3842 88.5728 29.6448C88.4661 29.4571 88.4661 29.2084 88.4204 28.9865C88.4083 28.9246 88.4341 28.8498 88.409 28.7981C88.0912 28.1624 87.9907 27.4597 87.7734 26.7937C87.6752 26.4946 87.5404 26.2101 87.4923 25.8919C87.4314 25.4937 87.3346 25.1076 87.1114 24.7536C86.959 24.5048 87.0412 24.1662 86.9277 23.9144C86.5749 23.1254 86.5467 22.2358 86.1542 21.4638C86.0491 21.2577 86.0255 21.0059 85.9966 20.7664C85.9667 20.4633 85.8569 20.1736 85.678 19.9271C85.6354 19.8637 85.6013 19.795 85.5766 19.7227C85.3984 19.2809 85.5188 19.0909 85.9852 19.0887C86.8484 19.0887 87.711 19.0887 88.5759 19.0887L88.5842 19.0856Z" fill="#65686A"/>
<path d="M163.218 41.3679C163.218 46.6994 163.218 52.0313 163.218 57.3633C163.218 57.6022 163.206 57.8394 163.269 58.0804C163.337 58.3414 163.143 58.5733 162.903 58.5199C162.472 58.4246 162.043 58.4742 161.615 58.4726C160.309 58.4726 159.001 58.4788 157.695 58.4932C157.448 58.4932 157.341 58.391 157.353 58.1575C157.372 57.7913 157.421 57.4266 157.421 57.0611C157.426 46.474 157.429 35.8864 157.427 25.2986C157.421 25.1095 157.398 24.9213 157.359 24.7364C157.296 24.4037 157.103 24.2642 156.776 24.2642C155.098 24.2642 153.422 24.2642 151.746 24.268C151.647 24.268 151.548 24.3091 151.448 24.3167C151.199 24.3342 151.025 24.2481 151.025 23.9635C151.025 22.6427 151.013 21.3229 151.041 20.003C151.038 19.8456 151.011 19.6893 150.965 19.5391C150.889 19.2462 151.012 19.1691 151.256 19.1577C151.421 19.1523 151.586 19.1577 151.751 19.1577H169.077C169.686 19.1577 169.658 19.1577 169.622 19.7626C169.584 20.3952 169.611 21.0322 169.611 21.67C169.611 22.3933 169.611 23.1197 169.611 23.8406C169.611 24.2984 169.493 24.3862 169.064 24.2984C168.926 24.2735 168.787 24.2621 168.649 24.2642C167.101 24.2642 165.551 24.2642 164.001 24.2642C163.391 24.2642 163.212 24.4526 163.212 25.1033C163.212 29.4572 163.212 33.8114 163.212 38.1658C163.216 39.2345 163.219 40.3019 163.218 41.3679Z" fill="#65686A"/>
<path d="M148.487 26.508C148.434 26.4964 148.417 26.4973 148.411 26.4912C148.331 26.3386 148.246 26.186 148.335 26.0075C148.35 26 148.366 25.9961 148.382 25.9961C148.398 25.9961 148.412 26 148.427 26.0075C148.572 26.1509 148.507 26.3225 148.487 26.508Z" fill="#021D38"/>
<path d="M204.723 46.3538C203.949 46.3538 203.174 46.3722 202.4 46.3492C201.545 46.3233 201.563 46.2844 201.544 45.4719C201.525 44.5941 201.658 43.7197 201.935 42.887C202.024 42.5746 202.065 42.2509 202.058 41.9264C202.073 41.1551 202.052 40.3882 202.418 39.6649C202.591 39.3225 202.517 38.9181 202.52 38.5389C202.527 37.7477 202.603 36.9665 202.895 36.2233C203.057 35.8083 202.964 35.3712 203.028 34.9454C203.094 34.4998 203.082 34.0406 203.201 33.5973C203.227 33.501 203.188 33.3776 203.234 33.2989C203.551 32.7649 203.544 32.1781 203.502 31.5983C203.453 30.9063 203.719 30.2846 203.871 29.6375C203.943 29.3323 204.013 29.0462 203.981 28.7158C203.924 28.0215 203.971 27.3225 204.12 26.6421C204.191 26.2965 204.413 26.1843 204.73 26.3217C205.11 26.4819 205.325 26.7688 205.325 27.1671C205.325 27.7256 205.454 28.2742 205.411 28.8333C205.378 29.3787 205.477 29.9241 205.699 30.4225C205.847 30.7666 205.867 31.1558 205.847 31.5029C205.796 32.4185 206.038 33.2791 206.259 34.1458C206.379 34.6173 206.322 35.0987 206.341 35.5741C206.351 35.8571 206.371 36.1317 206.487 36.3828C206.694 36.8353 206.664 37.3303 206.777 37.7919C206.969 38.5724 206.681 39.3942 207.116 40.1656C207.355 40.5859 207.324 41.1459 207.314 41.6533C207.301 42.2904 207.417 42.8939 207.6 43.5118C207.821 44.2916 207.901 45.1041 207.838 45.9121C207.813 46.2935 207.501 46.3492 207.197 46.3516C206.373 46.3584 205.549 46.3538 204.723 46.3538ZM204.666 46.0127C205.454 46.0127 206.24 46.0127 207.029 46.0127C207.48 46.0127 207.591 45.8784 207.493 45.4322C207.403 45.0132 207.265 44.6029 207.203 44.181C207.039 43.1129 206.919 42.0325 206.769 40.9589C206.557 39.4595 206.335 37.9613 206.101 36.4644C205.828 34.7096 205.692 32.9327 205.293 31.2001C205.185 30.7317 205.166 30.2495 205.135 29.7695C205.106 29.3278 205.046 28.8883 204.983 28.4503C204.958 28.2878 204.884 28.1185 204.678 28.1124C204.459 28.1055 204.419 28.2818 204.386 28.4465C204.355 28.595 204.332 28.745 204.316 28.8959C204.221 29.9137 204.152 30.9322 203.883 31.9301C203.715 32.552 203.82 33.2272 203.676 33.8475C203.356 35.2292 203.323 36.6521 203.015 38.0299C202.758 39.1744 202.799 40.3661 202.492 41.5075C202.277 42.3033 202.34 43.1418 202.187 43.9489C202.09 44.4572 201.965 44.9598 201.883 45.4703C201.807 45.928 201.899 46.0144 202.353 46.0151C203.119 46.0144 203.892 46.0127 204.666 46.0127Z" fill="#021D38"/>
</svg>
