<svg width="446" height="295" viewBox="0 0 446 295" fill="none" xmlns="http://www.w3.org/2000/svg">
<mask id="path-1-inside-1_225_14275" fill="white">
<path d="M76.3349 231.24C93.0603 231.24 106.178 243.879 111.001 258.512C112.004 261.544 113.162 264.523 114.493 267.467C119.701 278.944 127.321 289.38 136.948 298.177C146.574 306.974 157.975 313.937 170.553 318.697C183.111 323.457 196.596 325.907 210.196 325.907C223.796 325.907 237.261 323.457 249.839 318.697C262.398 313.937 273.818 306.974 283.444 298.177C293.07 289.38 300.69 278.961 305.899 267.467C307.23 264.541 308.388 261.544 309.391 258.512C314.214 243.879 327.332 231.24 344.057 231.24H417.363C417.363 256.096 412 280.706 401.602 303.677C391.185 326.648 375.945 347.52 356.693 365.096C337.459 382.673 314.619 396.617 289.482 406.137C264.346 415.656 237.416 420.54 210.215 420.54C183.015 420.54 156.084 415.639 130.948 406.137C105.812 396.617 82.9711 382.673 63.7378 365.096C44.5046 347.52 29.2453 326.648 18.8281 303.677C8.41092 280.706 3.06729 256.096 3.06729 231.24H76.3735H76.3349ZM407.525 76.9858C431.368 109.458 445.277 148.542 445.277 190.587C445.277 200.794 444.448 210.825 442.866 220.627C430.674 221.79 418.386 222.178 406.136 221.755L397.763 221.473C394.407 221.473 391.339 221.279 388.504 220.927C380.749 219.922 372.955 218.265 365.2 217.348C362.846 217.066 360.474 216.748 358.178 216.255L344.809 213.399C338.115 211.971 331.576 210.014 325.267 207.529C317.667 204.549 309.487 202.116 303.681 196.74C302.407 195.558 301.231 194.395 300.112 193.39C293.533 187.379 290.871 178.687 293.07 170.437L294.363 165.572C295.308 162.01 296.909 158.626 299.07 155.541L300.671 153.249C301.964 151.398 303.411 149.617 304.954 147.943C310.027 142.46 316.181 137.894 321.544 132.641C329.222 125.095 337.884 118.449 347.336 112.843L358.795 106.056C361.515 104.434 364.1 102.636 366.531 100.679C378.241 91.23 394.137 84.3018 407.525 77.0034V76.9858ZM46.5302 90.4015L72.4381 104.928L79.4022 109.899C90.8225 118.044 101.124 127.387 110.133 137.753L124.37 155.364C126.974 158.59 128.402 162.522 128.402 166.541C128.402 169.891 127.418 173.17 125.566 176.061L123.579 179.146C120.184 184.435 115.206 188.718 109.207 191.504L92.5201 199.243C85.0545 202.698 77.1451 205.29 68.9657 206.929L27.6827 215.215L2.21848 219.499C0.752353 210.367 0 201.041 0 191.539C0 151.521 13.4459 114.377 36.4023 83.6496L46.5109 90.4015H46.5302ZM278.621 10.6303C319.229 23.5523 354.165 47.563 379.051 78.6782L362.171 88.7796L335.665 104.381L322.258 111.168C309.236 117.744 295.578 123.191 281.438 127.422L270.307 130.754L258.173 133.416C256.475 133.786 254.7 133.769 253.022 133.363L252.135 133.152C246.675 131.847 243.57 126.594 245.344 121.711C245.499 121.27 245.614 120.829 245.711 120.388L250.881 92.5522L259.118 61.8954L268.822 33.9887C271.58 26.038 274.86 18.246 278.621 10.6303ZM144.876 25.2976L148.406 39.2774L158.419 83.3851L163.203 100.45C164.302 104.399 164.09 108.577 162.585 112.402L162.354 112.984C159.017 121.499 149.718 126.823 139.861 125.889C128.807 124.831 118.158 121.534 108.667 116.246L84.495 102.759L68.7728 93.9978C59.3973 88.762 50.427 82.9444 41.9389 76.5627C66.9401 46.1703 101.626 22.7943 141.79 10.2601L144.857 25.2976H144.876ZM209.656 0.017629C230.259 0.017629 250.167 2.73249 268.976 7.79202L262.07 22.618L252.656 44.6719L243.242 75.3287L235.429 94.844C233.229 100.362 229.313 105.192 224.182 108.736L217.739 113.178C211.701 117.356 203.598 118.097 196.769 115.082C193.644 113.707 190.943 111.609 188.956 109L182.204 100.15C179.716 96.8713 177.575 93.3808 175.838 89.7316L169.029 75.3287C163.164 63.1999 159.267 50.366 157.415 37.1972L156.065 31.2033L151.03 7.5981C169.627 2.66198 189.304 0 209.656 0V0.017629Z"/>
</mask>
<path d="M76.3349 231.24C93.0603 231.24 106.178 243.879 111.001 258.512C112.004 261.544 113.162 264.523 114.493 267.467C119.701 278.944 127.321 289.38 136.948 298.177C146.574 306.974 157.975 313.937 170.553 318.697C183.111 323.457 196.596 325.907 210.196 325.907C223.796 325.907 237.261 323.457 249.839 318.697C262.398 313.937 273.818 306.974 283.444 298.177C293.07 289.38 300.69 278.961 305.899 267.467C307.23 264.541 308.388 261.544 309.391 258.512C314.214 243.879 327.332 231.24 344.057 231.24H417.363C417.363 256.096 412 280.706 401.602 303.677C391.185 326.648 375.945 347.52 356.693 365.096C337.459 382.673 314.619 396.617 289.482 406.137C264.346 415.656 237.416 420.54 210.215 420.54C183.015 420.54 156.084 415.639 130.948 406.137C105.812 396.617 82.9711 382.673 63.7378 365.096C44.5046 347.52 29.2453 326.648 18.8281 303.677C8.41092 280.706 3.06729 256.096 3.06729 231.24H76.3735H76.3349ZM407.525 76.9858C431.368 109.458 445.277 148.542 445.277 190.587C445.277 200.794 444.448 210.825 442.866 220.627C430.674 221.79 418.386 222.178 406.136 221.755L397.763 221.473C394.407 221.473 391.339 221.279 388.504 220.927C380.749 219.922 372.955 218.265 365.2 217.348C362.846 217.066 360.474 216.748 358.178 216.255L344.809 213.399C338.115 211.971 331.576 210.014 325.267 207.529C317.667 204.549 309.487 202.116 303.681 196.74C302.407 195.558 301.231 194.395 300.112 193.39C293.533 187.379 290.871 178.687 293.07 170.437L294.363 165.572C295.308 162.01 296.909 158.626 299.07 155.541L300.671 153.249C301.964 151.398 303.411 149.617 304.954 147.943C310.027 142.46 316.181 137.894 321.544 132.641C329.222 125.095 337.884 118.449 347.336 112.843L358.795 106.056C361.515 104.434 364.1 102.636 366.531 100.679C378.241 91.23 394.137 84.3018 407.525 77.0034V76.9858ZM46.5302 90.4015L72.4381 104.928L79.4022 109.899C90.8225 118.044 101.124 127.387 110.133 137.753L124.37 155.364C126.974 158.59 128.402 162.522 128.402 166.541C128.402 169.891 127.418 173.17 125.566 176.061L123.579 179.146C120.184 184.435 115.206 188.718 109.207 191.504L92.5201 199.243C85.0545 202.698 77.1451 205.29 68.9657 206.929L27.6827 215.215L2.21848 219.499C0.752353 210.367 0 201.041 0 191.539C0 151.521 13.4459 114.377 36.4023 83.6496L46.5109 90.4015H46.5302ZM278.621 10.6303C319.229 23.5523 354.165 47.563 379.051 78.6782L362.171 88.7796L335.665 104.381L322.258 111.168C309.236 117.744 295.578 123.191 281.438 127.422L270.307 130.754L258.173 133.416C256.475 133.786 254.7 133.769 253.022 133.363L252.135 133.152C246.675 131.847 243.57 126.594 245.344 121.711C245.499 121.27 245.614 120.829 245.711 120.388L250.881 92.5522L259.118 61.8954L268.822 33.9887C271.58 26.038 274.86 18.246 278.621 10.6303ZM144.876 25.2976L148.406 39.2774L158.419 83.3851L163.203 100.45C164.302 104.399 164.09 108.577 162.585 112.402L162.354 112.984C159.017 121.499 149.718 126.823 139.861 125.889C128.807 124.831 118.158 121.534 108.667 116.246L84.495 102.759L68.7728 93.9978C59.3973 88.762 50.427 82.9444 41.9389 76.5627C66.9401 46.1703 101.626 22.7943 141.79 10.2601L144.857 25.2976H144.876ZM209.656 0.017629C230.259 0.017629 250.167 2.73249 268.976 7.79202L262.07 22.618L252.656 44.6719L243.242 75.3287L235.429 94.844C233.229 100.362 229.313 105.192 224.182 108.736L217.739 113.178C211.701 117.356 203.598 118.097 196.769 115.082C193.644 113.707 190.943 111.609 188.956 109L182.204 100.15C179.716 96.8713 177.575 93.3808 175.838 89.7316L169.029 75.3287C163.164 63.1999 159.267 50.366 157.415 37.1972L156.065 31.2033L151.03 7.5981C169.627 2.66198 189.304 0 209.656 0V0.017629Z" stroke="white" stroke-width="6" mask="url(#path-1-inside-1_225_14275)"/>
</svg>
