<svg width="144" height="50" viewBox="0 0 144 50" fill="none" xmlns="http://www.w3.org/2000/svg">
<path d="M8.93207 27.0702C10.8891 27.0702 12.4241 28.5499 12.9884 30.2628C13.1058 30.6178 13.2412 30.9666 13.397 31.3112C14.0064 32.6547 14.8981 33.8765 16.0245 34.9063C17.1508 35.9361 18.4849 36.7513 19.9566 37.3085C21.4261 37.8657 23.004 38.1526 24.5954 38.1526C26.1867 38.1526 27.7623 37.8657 29.2341 37.3085C30.7036 36.7513 32.0399 35.9361 33.1663 34.9063C34.2927 33.8765 35.1843 32.6568 35.7937 31.3112C35.9495 30.9686 36.0849 30.6178 36.2023 30.2628C36.7666 28.5499 38.3016 27.0702 40.2587 27.0702H48.8363C48.8363 29.9801 48.2088 32.8611 46.9921 35.5502C45.7732 38.2392 43.9899 40.6827 41.7372 42.7403C39.4867 44.7978 36.814 46.4303 33.8728 47.5447C30.9316 48.6591 27.7804 49.2308 24.5976 49.2308C21.4149 49.2308 18.2637 48.657 15.3224 47.5447C12.3812 46.4303 9.70858 44.7978 7.45807 42.7403C5.20755 40.6827 3.42204 38.2392 2.20311 35.5502C0.984176 32.8611 0.358908 29.9801 0.358908 27.0702H8.93659H8.93207ZM47.6851 9.0124C50.4751 12.8138 52.1026 17.3892 52.1026 22.3112C52.1026 23.5061 52.0056 24.6804 51.8205 25.8278C50.3939 25.964 48.956 26.0094 47.5226 25.9599L46.5429 25.9269C46.1502 25.9269 45.7913 25.9042 45.4594 25.8629C44.552 25.7453 43.6401 25.5513 42.7326 25.444C42.4572 25.411 42.1796 25.3738 41.911 25.316L40.3467 24.9817C39.5634 24.8145 38.7982 24.5855 38.0601 24.2945C37.1707 23.9457 36.2136 23.6609 35.5342 23.0315C35.3852 22.8932 35.2475 22.757 35.1166 22.6393C34.3468 21.9356 34.0353 20.9182 34.2927 19.9523L34.4439 19.3827C34.5545 18.9659 34.7419 18.5696 34.9947 18.2085L35.182 17.9402C35.3333 17.7235 35.5026 17.5151 35.6831 17.319C36.2768 16.6772 36.9969 16.1427 37.6244 15.5277C38.5228 14.6444 39.5363 13.8663 40.6424 13.2101L41.9832 12.4155C42.3015 12.2257 42.604 12.0152 42.8884 11.7861C44.2586 10.6799 46.1186 9.86885 47.6851 9.01446V9.0124ZM5.44457 10.5829L8.4761 12.2834L9.29098 12.8654C10.6273 13.8189 11.8327 14.9127 12.8868 16.1261L14.5527 18.1878C14.8574 18.5655 15.0245 19.0257 15.0245 19.4963C15.0245 19.8884 14.9094 20.2722 14.6927 20.6107L14.4602 20.9718C14.0629 21.591 13.4805 22.0925 12.7785 22.4185L10.8259 23.3245C9.95236 23.729 9.02688 24.0324 8.06979 24.2243L3.2392 25.1943L0.259588 25.6958C0.0880341 24.6267 0 23.535 0 22.4227C0 17.7379 1.57333 13.3896 4.25949 9.7925L5.44231 10.5829H5.44457ZM32.6019 1.24444C37.3535 2.75717 41.4415 5.568 44.3534 9.21052L42.3782 10.393L39.2767 12.2195L37.7079 13.014C36.1843 13.7838 34.5861 14.4215 32.9315 14.9168L31.6291 15.3068L30.2092 15.6185C30.0106 15.6618 29.8029 15.6597 29.6065 15.6123L29.5027 15.5875C28.8639 15.4348 28.5005 14.8198 28.7081 14.2481C28.7262 14.1965 28.7397 14.1449 28.751 14.0934L29.356 10.8347L30.3198 7.24583L31.4552 3.97891C31.778 3.04816 32.1618 2.13598 32.6019 1.24444ZM16.9522 2.96148L17.3653 4.59804L18.5368 9.76154L19.0966 11.7593C19.2253 12.2215 19.2005 12.7106 19.0244 13.1585L18.9973 13.2266C18.6068 14.2234 17.5188 14.8466 16.3653 14.7372C15.0719 14.6134 13.8259 14.2275 12.7153 13.6084L9.8869 12.0296L8.04722 11.0039C6.95018 10.391 5.90054 9.70995 4.90733 8.96287C7.83277 5.40496 11.8914 2.66843 16.591 1.2011L16.9499 2.96148H16.9522ZM24.5322 0.00206375C26.9429 0.00206375 29.2725 0.319881 31.4733 0.912178L30.6652 2.64779L29.5636 5.22954L28.4621 8.81841L27.5479 11.103C27.2906 11.7489 26.8323 12.3144 26.2319 12.7292L25.478 13.2493C24.7714 13.7384 23.8234 13.8251 23.0243 13.4722C22.6586 13.3112 22.3426 13.0656 22.1101 12.7602L21.32 11.7242C21.0289 11.3403 20.7783 10.9317 20.5751 10.5045L19.7783 8.81841C19.0921 7.39855 18.6361 5.89614 18.4194 4.35451L18.2614 3.65284L17.6723 0.889477C19.8483 0.311626 22.1507 0 24.5322 0V0.00206375Z" fill="#FF5023"/>
<path d="M126.545 44.5723C126.545 45.7383 125.745 46.5642 124.556 46.5642H117.353C116.601 46.5642 116.237 46.1998 116.237 45.4467C116.237 44.6937 116.601 44.3051 117.353 44.3051H123.901C124.144 44.3051 124.29 44.1593 124.29 43.9164V41.6087H117.377C115.873 41.6087 114.976 40.7341 114.976 39.2281V33.2038C114.976 30.2402 116.528 28.7584 119.657 28.7584H126.545V44.5723ZM74.8396 23.2441C75.5915 23.2441 75.9795 23.6328 75.9796 24.3858V41.6087H66.7871C65.2106 41.6087 64.4102 40.8313 64.4102 39.3009V33.0823C64.4102 30.1916 65.9867 28.7584 69.1883 28.7584H73.7239V24.3858C73.7239 23.6328 74.0877 23.2441 74.8396 23.2441ZM89.646 28.7584C90.2524 28.7584 90.7618 29.2685 90.7618 29.8757V34.9041C90.7618 35.6572 90.3979 36.0216 89.646 36.0216H81.6178V37.4305C81.6178 38.6937 82.394 39.3496 83.9705 39.3496H89.646C90.3979 39.3496 90.7618 39.7139 90.7618 40.4669C90.7618 41.22 90.3979 41.6087 89.646 41.6087H83.2914C80.6719 41.6087 79.3622 40.2969 79.3622 37.6248V29.8757C79.3622 29.2685 79.8715 28.7584 80.4778 28.7584H89.646ZM110.458 28.7584C111.21 28.7584 111.598 29.1227 111.598 29.8757V40.4669C111.598 41.22 111.21 41.6087 110.458 41.6087C109.706 41.6087 109.318 41.22 109.318 40.4669V31.0175H97.4222C96.7916 31.0175 96.4762 31.2847 96.4762 31.8434V33.058C96.4762 33.5681 96.7916 33.8353 97.4222 33.8353H103.073C104.771 33.8353 105.62 34.6369 105.62 36.1673V37.0176C105.62 40.0783 104.116 41.6087 101.133 41.6087H95.5788C94.6814 41.6087 94.2206 41.22 94.2206 40.4913C94.2206 39.714 94.6814 39.3496 95.5788 39.3496H101.667C102.807 39.3496 103.365 38.7179 103.365 37.4791V36.0216H97.5434C95.312 36.0216 94.2206 35.0013 94.2206 32.9851V31.8191C94.2206 29.7786 95.312 28.7584 97.5434 28.7584H110.458ZM137.81 28.7584C140.139 28.7584 141.327 29.9244 141.327 32.305V40.4669C141.327 41.22 140.964 41.6087 140.212 41.6087C139.436 41.6087 139.072 41.22 139.072 40.4669V32.305C139.072 31.4548 138.635 31.0175 137.81 31.0175H132.183V40.4669C132.183 41.22 131.795 41.6087 131.044 41.6087C130.292 41.6087 129.928 41.22 129.928 40.4669V28.7584H137.81ZM119.633 31.0175C118.032 31.0175 117.231 31.8191 117.231 33.4223V39.3738L124.29 39.3496V31.0175H119.633ZM68.97 31.0175C67.442 31.0175 66.6658 31.7949 66.6658 33.3738V39.3496H73.7239V31.0175H68.97ZM81.6178 33.9811H88.5061V31.0175H81.6178V33.9811ZM110.191 23.2441C111.161 23.2441 111.986 24.0458 111.986 25.0417C111.986 26.062 111.161 26.8636 110.191 26.8636C109.197 26.8636 108.348 26.062 108.348 25.0417C108.348 24.0458 109.197 23.2441 110.191 23.2441ZM128.112 23.4038C128.112 24.5698 127.312 25.3957 126.124 25.3957H118.92C118.168 25.3957 117.804 25.0313 117.804 24.2783C117.804 23.5253 118.168 23.1366 118.92 23.1366H125.469C125.711 23.1366 125.857 22.9908 125.857 22.7479V20.4402H118.944C117.44 20.4402 116.543 19.5656 116.543 18.0595V12.0353C116.543 9.07167 118.095 7.58984 121.224 7.58984H128.112V23.4038ZM142.715 7.58984C143.539 7.58986 144 8.07568 144 8.68295C144 8.87729 143.976 8.99879 143.903 9.14454L138.179 23.7681C137.742 24.8612 137.136 25.3957 136.287 25.3957H134.347C133.716 25.3957 133.255 24.8612 133.255 24.254C133.255 23.4766 133.765 23.1122 134.783 23.1122H135.972L137.015 20.4159C136.408 20.4159 135.972 20.1729 135.778 19.7114L131.582 9.14454C131.533 8.99879 131.509 8.87726 131.509 8.70722C131.509 8.07565 131.97 7.58984 132.794 7.58984C133.28 7.58986 133.619 7.83282 133.813 8.29435L137.791 18.3268L141.672 8.29435C141.866 7.83281 142.181 7.58984 142.715 7.58984ZM71.6623 7.58984C74.5485 7.58985 75.9795 9.02306 75.9796 11.9138V16.3105C75.9796 19.0555 74.5485 20.4401 71.6623 20.4402H68.7032C65.8169 20.4402 64.4102 19.0555 64.4102 16.3105V11.9138C64.4102 9.02305 65.8169 7.58984 68.7032 7.58984H71.6623ZM96.2828 7.58984C97.3985 7.58985 98.3444 8.68297 98.3444 9.7518V20.4402H88.1576C87.5512 20.4402 87.0418 19.93 87.0418 19.2984V15.2661C87.0418 14.0758 87.8179 13.2498 88.9579 13.0069L96.0645 11.5494V9.84895H82.893C82.0683 9.84895 81.6317 10.2862 81.6317 11.1365V19.2984C81.6317 20.0514 81.2436 20.4401 80.4918 20.4402C79.7399 20.4402 79.376 20.0515 79.376 19.2984V11.1365C79.376 8.75586 80.5645 7.58984 82.893 7.58984H96.2828ZM109.616 7.58984C111.944 7.58984 113.133 8.75586 113.133 11.1365V19.2984C113.133 20.0515 112.769 20.4402 112.017 20.4402C111.241 20.4401 110.877 20.0515 110.877 19.2984V11.1365C110.877 10.2862 110.441 9.84895 109.616 9.84895H103.989V19.2984C103.989 20.0514 103.601 20.4401 102.849 20.4402C102.097 20.4402 101.733 20.0515 101.733 19.2984V7.58984H109.616ZM121.2 9.84895C119.599 9.84896 118.799 10.6506 118.799 12.2538V18.2053L125.857 18.181V9.84895H121.2ZM68.4364 9.84895C67.248 9.84895 66.6658 10.432 66.6658 11.6466V16.5778C66.6658 17.6466 67.248 18.181 68.4364 18.181H71.9291C73.1175 18.181 73.7239 17.6466 73.7239 16.5778V11.6466C73.7239 10.432 73.1175 9.84895 71.9291 9.84895H68.4364ZM89.2974 15.096V18.181H96.0645V13.7356L89.2974 15.096Z" fill="white"/>
</svg>
