<svg width="32" height="32" viewBox="0 0 32 32" fill="none" xmlns="http://www.w3.org/2000/svg">
<path d="M23.9999 9.4C23.9999 9.04638 23.8594 8.70724 23.6094 8.45719C23.3594 8.20714 23.0202 8.06667 22.6666 8.06667L11.9999 8C11.6463 8 11.3072 8.14048 11.0571 8.39052C10.8071 8.64057 10.6666 8.97971 10.6666 9.33333C10.6666 9.68696 10.8071 10.0261 11.0571 10.2761C11.3072 10.5262 11.6463 10.6667 11.9999 10.6667H19.4133L8.38659 21.72C8.26161 21.844 8.16242 21.9914 8.09473 22.1539C8.02704 22.3164 7.99219 22.4907 7.99219 22.6667C7.99219 22.8427 8.02704 23.017 8.09473 23.1794C8.16242 23.3419 8.26161 23.4894 8.38659 23.6133C8.51054 23.7383 8.658 23.8375 8.82048 23.9052C8.98296 23.9729 9.15724 24.0077 9.33325 24.0077C9.50927 24.0077 9.68354 23.9729 9.84602 23.9052C10.0085 23.8375 10.156 23.7383 10.2799 23.6133L21.3333 12.56V20C21.3333 20.3536 21.4737 20.6928 21.7238 20.9428C21.9738 21.1929 22.313 21.3333 22.6666 21.3333C23.0202 21.3333 23.3594 21.1929 23.6094 20.9428C23.8594 20.6928 23.9999 20.3536 23.9999 20V9.4Z" fill="white"/>
</svg>
