<svg width="398" height="275" viewBox="0 0 398 275" fill="none" xmlns="http://www.w3.org/2000/svg">
<path d="M68.2776 206.832C83.2376 206.832 94.9709 218.137 99.2846 231.225C100.182 233.937 101.217 236.602 102.408 239.235C107.067 249.5 113.882 258.835 122.492 266.704C131.103 274.572 141.3 280.8 152.55 285.058C163.783 289.315 175.845 291.507 188.009 291.507C200.174 291.507 212.218 289.315 223.468 285.058C234.701 280.8 244.916 274.572 253.526 266.704C262.136 258.835 268.952 249.516 273.611 239.235C274.801 236.618 275.837 233.937 276.734 231.225C281.048 218.137 292.781 206.832 307.741 206.832H373.31C373.31 229.065 368.513 251.077 359.212 271.623C349.895 292.169 336.263 310.839 319.043 326.56C301.84 342.281 281.41 354.753 258.927 363.268C236.444 371.783 212.356 376.151 188.027 376.151C163.697 376.151 139.609 371.767 117.126 363.268C94.6431 354.753 74.2133 342.281 57.0102 326.56C39.807 310.839 26.1584 292.169 16.8408 271.623C7.52313 251.077 2.74353 229.065 2.74353 206.832H68.3121H68.2776ZM364.509 68.8598C385.837 97.9048 398.277 132.863 398.277 170.47C398.277 179.6 397.535 188.572 396.12 197.339C385.215 198.38 374.224 198.727 363.267 198.348L355.779 198.096C352.776 198.096 350.033 197.923 347.496 197.607C340.56 196.708 333.589 195.226 326.652 194.406C324.547 194.154 322.425 193.87 320.371 193.429L308.414 190.874C302.426 189.597 296.577 187.847 290.935 185.623C284.136 182.959 276.82 180.783 271.626 175.973C270.488 174.917 269.435 173.876 268.434 172.977C262.55 167.6 260.169 159.827 262.136 152.447L263.292 148.095C264.138 144.91 265.57 141.882 267.503 139.123L268.935 137.073C270.091 135.417 271.385 133.825 272.765 132.327C277.303 127.423 282.808 123.339 287.604 118.64C294.472 111.891 302.219 105.947 310.674 100.932L320.924 94.8616C323.357 93.4109 325.669 91.8025 327.843 90.0523C338.317 81.6005 352.535 75.4036 364.509 68.8756V68.8598ZM41.6188 80.8594L64.7921 93.8524L71.0211 98.2991C81.236 105.584 90.4501 113.941 98.5082 123.213L111.242 138.965C113.572 141.851 114.849 145.367 114.849 148.962C114.849 151.958 113.969 154.891 112.312 157.477L110.535 160.237C107.498 164.967 103.046 168.799 97.6799 171.29L82.7544 178.212C76.0768 181.303 69.0023 183.621 61.6862 185.087L24.7608 192.498L1.98431 196.33C0.672941 188.162 0 179.821 0 171.322C0 135.528 12.0267 102.304 32.56 74.8202L41.6015 80.8594H41.6188ZM249.212 9.50823C285.534 21.0663 316.783 42.5426 339.041 70.3735L323.943 79.4087L300.235 93.3636L288.243 99.4344C276.596 105.316 264.379 110.188 251.732 113.973L241.775 116.953L230.922 119.334C229.404 119.665 227.816 119.649 226.315 119.287L225.521 119.097C220.638 117.93 217.86 113.232 219.448 108.864C219.586 108.47 219.689 108.075 219.776 107.681L224.4 82.7831L231.768 55.3622L240.447 30.4011C242.914 23.2897 245.848 16.3201 249.212 9.50823ZM129.584 22.6274L132.742 35.1316L141.697 74.5837L145.976 89.8473C146.96 93.3794 146.77 97.1164 145.424 100.538L145.217 101.059C142.232 108.675 133.915 113.437 125.098 112.601C115.211 111.655 105.686 108.706 97.1968 103.976L75.5764 91.9129L61.5137 84.0761C53.1278 79.393 45.1043 74.1894 37.5121 68.4814C59.8745 41.297 90.8988 20.3883 126.823 9.1771L129.567 22.6274H129.584ZM187.526 0.0157682C205.954 0.0157682 223.761 2.44407 240.585 6.96955L234.408 20.2306L225.987 39.9567L217.567 67.3776L210.579 84.833C208.612 89.7684 205.109 94.0889 200.519 97.2583L194.756 101.232C189.355 104.969 182.108 105.631 176 102.935C173.205 101.705 170.789 99.8286 169.012 97.4949L162.972 89.5792C160.747 86.6463 158.831 83.5242 157.278 80.2602L151.187 67.3776C145.942 56.5291 142.456 45.0498 140.8 33.2709L139.592 27.9097L135.089 6.7961C151.722 2.381 169.322 0 187.526 0V0.0157682Z" fill="#F79076"/>
</svg>
