<svg width="29" height="28" viewBox="0 0 29 28" fill="none" xmlns="http://www.w3.org/2000/svg">
<path d="M6.64468 14.9618C7.54274 14.9618 8.24711 15.6405 8.50606 16.4262C8.55993 16.589 8.62208 16.749 8.69355 16.907C8.97322 17.5233 9.38238 18.0836 9.89926 18.556C10.4161 19.0283 11.0283 19.4022 11.7037 19.6578C12.378 19.9134 13.102 20.045 13.8323 20.045C14.5626 20.045 15.2856 19.9134 15.9609 19.6578C16.6353 19.4022 17.2485 19.0283 17.7653 18.556C18.2822 18.0836 18.6914 17.5242 18.9711 16.907C19.0425 16.7499 19.1047 16.589 19.1585 16.4262C19.4175 15.6405 20.1219 14.9618 21.0199 14.9618H24.9561C24.9561 16.2965 24.6681 17.6179 24.1098 18.8513C23.5505 20.0847 22.7322 21.2055 21.6984 22.1492C20.6657 23.093 19.4392 23.8417 18.0896 24.3529C16.7399 24.864 15.2939 25.1262 13.8333 25.1262C12.3728 25.1262 10.9268 24.8631 9.57711 24.3529C8.22743 23.8417 7.001 23.093 5.96828 22.1492C4.93556 21.2055 4.11622 20.0847 3.55687 18.8513C2.99752 17.6179 2.7106 16.2965 2.7106 14.9618H6.64675H6.64468ZM24.4278 6.6792C25.7081 8.42281 26.4549 10.5214 26.4549 12.779C26.4549 13.3271 26.4104 13.8657 26.3254 14.392C25.6708 14.4544 25.011 14.4753 24.3532 14.4525L23.9037 14.4374C23.7234 14.4374 23.5587 14.427 23.4065 14.4081C22.9901 14.3541 22.5716 14.2651 22.1552 14.2159C22.0288 14.2008 21.9014 14.1837 21.7782 14.1572L21.0603 14.0039C20.7009 13.9272 20.3497 13.8221 20.011 13.6887C19.6029 13.5287 19.1637 13.3981 18.8519 13.1093C18.7836 13.0459 18.7204 12.9834 18.6603 12.9295C18.3071 12.6067 18.1641 12.14 18.2822 11.697L18.3516 11.4358C18.4024 11.2446 18.4884 11.0628 18.6044 10.8972L18.6903 10.7741C18.7597 10.6747 18.8374 10.5791 18.9203 10.4892C19.1927 10.1948 19.5232 9.94965 19.8111 9.66757C20.2234 9.26243 20.6885 8.90557 21.196 8.60455L21.8113 8.24012C21.9574 8.15303 22.0962 8.05648 22.2267 7.95141C22.8554 7.44404 23.7089 7.07203 24.4278 6.68015V6.6792ZM5.04432 7.39955L6.43544 8.17954L6.80937 8.44647C7.42259 8.88379 7.97572 9.38548 8.45945 9.94207L9.22389 10.8877C9.36373 11.0609 9.44038 11.272 9.44038 11.4878C9.44038 11.6677 9.38756 11.8438 9.28812 11.999L9.18143 12.1647C8.99912 12.4486 8.73188 12.6786 8.40973 12.8282L7.51374 13.2438C7.11287 13.4293 6.68818 13.5684 6.24899 13.6565L4.03231 14.1014L2.66502 14.3314C2.5863 13.8411 2.5459 13.3403 2.5459 12.8301C2.5459 10.6814 3.26787 8.6869 4.50051 7.03701L5.04328 7.39955H5.04432ZM17.5064 3.11626C19.6868 3.81011 21.5627 5.09935 22.8989 6.77007L21.9926 7.31247L20.5693 8.15019L19.8494 8.51463C19.1503 8.8677 18.4169 9.1602 17.6576 9.38738L17.0599 9.56628L16.4084 9.70922C16.3173 9.72909 16.222 9.72815 16.1318 9.70638L16.0842 9.69502C15.7911 9.62497 15.6243 9.34289 15.7196 9.08068C15.7279 9.05702 15.7341 9.03335 15.7393 9.00969L16.0169 7.51503L16.4592 5.86893L16.9802 4.37048C17.1283 3.94358 17.3044 3.52519 17.5064 3.11626ZM10.325 3.90382L10.5145 4.65446L11.0521 7.02281L11.309 7.9391C11.3681 8.15114 11.3567 8.37548 11.2759 8.58089L11.2634 8.61213C11.0842 9.06933 10.585 9.35519 10.0557 9.30502C9.46214 9.24823 8.89036 9.07122 8.38073 8.78724L7.08283 8.06311L6.23863 7.59265C5.73522 7.31152 5.25356 6.99915 4.79779 6.65648C6.14023 5.02457 8.00265 3.7694 10.1592 3.09638L10.3239 3.90382H10.325ZM13.8033 2.54642C14.9096 2.54642 15.9785 2.69219 16.9885 2.96386L16.6176 3.75994L16.1122 4.94411L15.6067 6.59022L15.1872 7.63809C15.0691 7.93437 14.8588 8.19373 14.5833 8.384L14.2373 8.62254C13.9131 8.84688 13.478 8.88663 13.1114 8.72477C12.9436 8.65093 12.7985 8.53829 12.6919 8.3982L12.3293 7.92301C12.1957 7.74695 12.0807 7.55952 11.9875 7.36358L11.6218 6.59022C11.3069 5.93897 11.0977 5.24986 10.9983 4.54276L10.9258 4.22092L10.6554 2.95345C11.654 2.68841 12.7105 2.54547 13.8033 2.54547V2.54642Z" fill="#FF5023"/>
</svg>
