<svg width="95" height="91" viewBox="0 0 95 91" fill="none" xmlns="http://www.w3.org/2000/svg">
<path d="M44.6599 -6.34193e-05C45.3932 1.31994 46.2732 3.26327 47.2999 5.82994C48.3999 8.32327 49.4999 11.0733 50.5999 14.0799C51.7732 17.0133 52.8732 19.8733 53.8999 22.6599C54.9266 25.3733 55.6966 27.6466 56.2099 29.4799L42.3499 34.3199C41.9099 32.5599 41.1766 30.3599 40.1499 27.7199C39.1966 25.0066 38.1699 22.2199 37.0699 19.3599C35.9699 16.4266 34.8699 13.6399 33.7699 10.9999C32.6699 8.35994 31.7166 6.1966 30.9099 4.50994L44.6599 -6.34193e-05ZM94.9299 8.79993C94.2699 10.1199 93.6832 11.5499 93.1699 13.0899C92.7299 14.6299 92.3632 16.0599 92.0699 17.3799C91.0432 21.3399 89.6499 25.7766 87.8899 30.6899C86.2032 35.6033 84.1499 40.5166 81.7299 45.4299C79.3832 50.2699 76.6699 54.7066 73.5899 58.7399C69.7766 63.7999 65.4866 68.4199 60.7199 72.5999C56.0266 76.7066 51.1132 80.2999 45.9799 83.3799C40.8466 86.4599 35.6399 88.9899 30.3599 90.9699L18.0399 78.6499C23.0999 77.1833 28.2332 75.1299 33.4399 72.4899C38.7199 69.8499 43.7799 66.6599 48.6199 62.9199C53.5332 59.1799 57.8232 54.9633 61.4899 50.2699C64.2766 46.7499 66.8066 42.4599 69.0799 37.3999C71.4266 32.3399 73.4066 26.9499 75.0199 21.2299C76.7066 15.4366 77.8432 9.7166 78.4299 4.06994L94.9299 8.79993ZM14.0799 6.81994C14.8866 8.50661 15.8766 10.7066 17.0499 13.4199C18.2966 16.1333 19.5432 18.9933 20.7899 21.9999C22.0366 25.0066 23.1732 27.9033 24.1999 30.6899C25.2999 33.4033 26.1799 35.7133 26.8399 37.6199L12.6499 42.7899C12.2099 41.3233 11.5866 39.5266 10.7799 37.3999C10.0465 35.2733 9.16655 32.9633 8.13988 30.4699C7.18655 27.9766 6.19655 25.5199 5.16988 23.0999C4.14322 20.6799 3.18988 18.4799 2.30988 16.4999C1.42988 14.5199 0.659883 12.9066 -0.000117004 11.6599L14.0799 6.81994Z" fill="#FF5023"/>
</svg>
