<svg width="800" height="800" viewBox="0 0 800 800" fill="none" xmlns="http://www.w3.org/2000/svg">
<path fill-rule="evenodd" clip-rule="evenodd" d="M116.666 400C116.666 243.519 243.519 116.667 399.999 116.667C556.479 116.667 683.332 243.519 683.332 400C683.332 556.48 556.479 683.333 399.999 683.333C344.259 683.333 292.374 667.273 248.598 639.537C240.451 634.377 230.468 632.997 221.227 635.753L125.255 664.397L161.39 579.843C165.661 569.85 164.792 558.403 159.061 549.17C132.189 505.867 116.666 454.797 116.666 400ZM399.999 50C206.7 50 49.9994 206.7 49.9994 400C49.9994 461.27 65.7708 518.943 93.4871 569.09L36.0144 703.567C30.9337 715.457 33.1857 729.21 41.7927 738.857C50.3997 748.507 63.8094 752.307 76.1984 748.607L226.179 703.85C277.414 733.217 336.789 750 399.999 750C593.299 750 749.999 593.3 749.999 400C749.999 206.7 593.299 50 399.999 50ZM476.415 472.747L432.609 503.603C412.092 491.917 389.409 475.603 366.655 452.85C343.002 429.197 325.466 404.777 312.536 382.377L340.375 358.747C352.322 348.607 355.592 331.511 348.232 317.676L312.76 251.009C307.983 242.032 299.371 235.727 289.37 233.885C279.37 232.043 269.076 234.867 261.414 241.553L250.897 250.732C225.606 272.805 210.649 309.077 223.046 345.803C235.898 383.877 263.326 443.8 319.516 499.99C379.969 560.443 441.375 584.25 477.285 593.497C506.219 600.943 533.599 590.96 552.892 575.24L572.609 559.173C581.042 552.303 585.592 541.747 584.799 530.897C584.002 520.047 577.962 510.267 568.615 504.697L512.672 471.363C501.372 464.633 487.172 465.173 476.415 472.747Z" fill="#FF5023"/>
</svg>
